<svg id="Group_1135" data-name="Group 1135" xmlns="http://www.w3.org/2000/svg" xmlns:xlink="http://www.w3.org/1999/xlink" width="1920" height="1000" viewBox="0 0 1920 1000">
  <defs>
    <linearGradient id="linear-gradient" x1="0.5" x2="0.174" y2="1.321" gradientUnits="objectBoundingBox">
      <stop offset="0" stop-color="#331d48"/>
      <stop offset="1" stop-color="#a765e6"/>
    </linearGradient>
    <linearGradient id="linear-gradient-2" x2="-0.746" y2="1.315" xlink:href="#linear-gradient"/>
    <linearGradient id="linear-gradient-3" x2="-0.337" y2="1.744" xlink:href="#linear-gradient"/>
    <linearGradient id="linear-gradient-5" x2="0.5" y2="1" xlink:href="#linear-gradient"/>
    <linearGradient id="linear-gradient-6" x2="-0.363" y2="1.421" xlink:href="#linear-gradient"/>
    <clipPath id="clip-path">
      <path id="Path_3326" data-name="Path 3326" d="M109.721,113.2l15.232-62.441L233.123,113.21l-15.232,62.441Z" transform="translate(-109.721 -50.758)" fill="none"/>
    </clipPath>
  </defs>
  <rect id="Rectangle_526" data-name="Rectangle 526" width="1920" height="1000" fill="#331d48"/>
  <g id="Group_662" data-name="Group 662">
    <g id="Group_660" data-name="Group 660" transform="translate(762.823 301.781)">
      <g id="Group_395" data-name="Group 395" transform="translate(575.028 31.219)">
        <g id="Group_393" data-name="Group 393">
          <g id="Group_391" data-name="Group 391" transform="translate(93.038)">
            <path id="Path_991" data-name="Path 991" d="M394.784,102.249l-11.576-6.683,42.683-24.645c2.017-1.164,2.017-3.058,0-4.222L382.285,41.524a8.093,8.093,0,0,0-7.311,0L332.289,66.169l-11.576-6.685L363.4,34.841c8.4-4.851,22.068-4.851,30.467,0l43.606,25.175c8.4,4.848,8.4,12.739,0,17.59Z" transform="translate(-320.713 -31.203)" fill="#331d48" stroke="#a765e6" stroke-width="1"/>
          </g>
          <g id="Group_392" data-name="Group 392" transform="translate(0 12.276)">
            <path id="Path_992" data-name="Path 992" d="M463.518,98.422c0-6.188-3.765-13.377-8.406-16.058L377.776,37.715c-2.078-1.2-3.977-1.286-5.446-.466l0,0L279.99,90.9l89.293,67.287,90.972-52.8a4.254,4.254,0,0,0,.8-.466l0,0h0C462.577,103.772,463.518,101.516,463.518,98.422Z" transform="translate(-277.728 -36.71)" stroke="#a765e6" stroke-width="1" fill="url(#linear-gradient)"/>
            <path id="Path_993" data-name="Path 993" d="M326.517,129.095l90.972-52.8a4.252,4.252,0,0,0,.8-.466l0,0h0c1.518-1.15,2.459-3.406,2.459-6.5a20.606,20.606,0,0,0-2.267-8.943l-103.7,59.871Z" transform="translate(-234.961 -7.614)" fill="#a765e6" stroke="#a765e6" stroke-width="1"/>
            <path id="Path_994" data-name="Path 994" d="M364.715,128.636,287.379,83.985c-4.641-2.679-8.4-9.87-8.4-16.058h0c0-6.19,3.763-9.035,8.4-6.355l77.336,44.651c4.643,2.679,8.406,9.87,8.406,16.058h0C373.121,128.471,369.358,131.315,364.715,128.636Z" transform="translate(-278.975 -7.393)" fill="#331d48" stroke="#a765e6" stroke-width="1"/>
            <path id="Path_995" data-name="Path 995" d="M363.565,106.028,286.228,61.379c-2.136-1.233-4.077-1.286-5.559-.395a5.84,5.84,0,0,1,4.628.816l77.336,44.651c4.643,2.679,8.406,9.87,8.406,16.058h0c0,3.344-1.106,5.7-2.846,6.747,2.274-.693,3.776-3.263,3.776-7.169v0C371.968,115.9,368.206,108.709,363.565,106.028Z" transform="translate(-276.893 -7.622)" fill="#fff" stroke="#a765e6" stroke-width="1"/>
          </g>
          <path id="Path_996" data-name="Path 996" d="M318.292,89.876l-9.3-5.363a4.011,4.011,0,0,1-1.674-3.2h0c0-1.233.749-1.8,1.674-1.266l9.3,5.363a4.01,4.01,0,0,1,1.676,3.2h0C319.968,89.845,319.219,90.411,318.292,89.876Z" transform="translate(-244.136 28.582)" fill="#a765e6"/>
        </g>
        <g id="Group_394" data-name="Group 394" transform="translate(75.322 49.636)">
          <path id="Path_997" data-name="Path 997" d="M323.48,59.6c2.432-1.438,2.407-3.727-.053-5.111a9.783,9.783,0,0,0-8.854.091c-2.43,1.438-2.405,3.725.054,5.111A9.789,9.789,0,0,0,323.48,59.6Z" transform="translate(-312.766 -53.47)" fill="#331d48" stroke="#a765e6" stroke-width="1"/>
          <path id="Path_998" data-name="Path 998" d="M329.533,63c2.43-1.436,2.407-3.725-.054-5.111a9.783,9.783,0,0,0-8.854.094c-2.43,1.436-2.405,3.725.054,5.111A9.783,9.783,0,0,0,329.533,63Z" transform="translate(-305.326 -49.278)" fill="#331d48" stroke="#a765e6" stroke-width="1"/>
          <path id="Path_999" data-name="Path 999" d="M335.586,66.416c2.43-1.438,2.405-3.727-.054-5.111a9.789,9.789,0,0,0-8.854.091c-2.43,1.438-2.407,3.727.054,5.114A9.789,9.789,0,0,0,335.586,66.416Z" transform="translate(-297.887 -45.086)" fill="#331d48" stroke="#a765e6" stroke-width="1"/>
        </g>
      </g>
      <path id="Path_1456" data-name="Path 1456" d="M197.686,211.767l-.442-.259L39.005,118.923l93.626-53.859.878,1.522-91,52.351,155.183,90.8,47.1-27.274.881,1.522Z" transform="translate(10.483 37.829)" fill="#a765e6"/>
      <g id="Group_499" data-name="Group 499" transform="translate(75.076 150.191)">
        <g id="Group_498" data-name="Group 498" transform="translate(0 0)">
          <g id="Group_494" data-name="Group 494">
            <path id="Union_4" data-name="Union 4" d="M110.627,138.546,25.09,77.467C11.232,69.468,0,50.014,0,34.014,0,26.949,2.192,21.745,5.831,18.82l.006-.005c.041-.032.084-.067.125-.1l.031-.024.126-.1.035-.026c.032-.024.065-.049.1-.072s.042-.031.063-.046L6.38,18.4c.088-.062.177-.124.267-.185l.04-.027.091-.06a.192.192,0,0,1,.019-.013L7,17.987l0,0,.107-.066.016-.009c.107-.066.216-.129.326-.191l.017-.01c.036-.02.072-.04.108-.059l.008-.005.205-.109c.01,0,.02-.011.031-.016l.093-.048a.359.359,0,0,0,.05-.025l.11-.054.1-.049.072-.034.082-.037q.031-.016.062-.029c.049-.023.1-.044.146-.066l-5.829-4.6L20.256,2.213c.141-.087.286-.167.43-.249l.274-.156,0,.015C26.6-1.158,34.247-.582,42.676,4.284,58.811,13.6,72.1,35.318,73.887,54.426a26.476,26.476,0,0,1,11.067,3.748c13.082,7.553,24.054,24.3,27.052,40.062a18.739,18.739,0,0,1,6.438,2.386c10.406,6.006,18.839,20.618,18.839,32.634,0,5.922-2.049,10.109-5.376,12.111l-18.643,10.979Z" transform="translate(29.717)" fill="#331d48" stroke="#a765e6" stroke-width="1"/>
            <path id="Path_1466" data-name="Path 1466" d="M58.134,119.581l29.755-17.119s-1.119,17.084-1.119,17.119-17.094,5.295-17.094,5.295Z" transform="translate(-50.524 -84.857)" fill="#331d48" stroke="#a765e6" stroke-width="1"/>
            <path id="Path_1472" data-name="Path 1472" d="M183.49,199.2a18.725,18.725,0,0,0-6.437-2.386c-3-15.767-13.971-32.511-27.053-40.062A26.469,26.469,0,0,0,138.93,153c-1.786-19.111-15.073-40.829-31.207-50.145C90.369,92.839,76.3,100.959,76.3,121c0,.68.019,1.366.052,2.055-12.69-5.885-22.6.746-22.6,15.777,0,16,11.232,35.456,25.09,43.455L183.49,242.7c10.406,6.008,18.84,1.138,18.84-10.876S193.9,205.2,183.49,199.2Z" transform="translate(-53.749 -87.722)" stroke="#a765e6" stroke-width="1" fill="url(#linear-gradient-2)"/>
          </g>
        </g>
      </g>
      <path id="Path_1427" data-name="Path 1427" d="M164.445,136.963a9.139,9.139,0,0,1-8.266,0c-2.282-1.319-2.282-3.455,0-4.772a9.139,9.139,0,0,1,8.266,0C166.728,133.508,166.728,135.644,164.445,136.963Z" transform="translate(95.403 86.473)" fill="#331d48" stroke="#a765e6" stroke-width="1"/>
      <g id="Group_507" data-name="Group 507" transform="translate(120.486 48.234)">
        <path id="Path_1500" data-name="Path 1500" d="M123.592,94.407,79.915,69.188,123.59,43.972l43.675,25.216ZM83.429,69.188l40.162,23.188,40.157-23.188L123.59,46Z" transform="translate(-79.915 -25.917)" fill="#a765e6"/>
        <g id="Group_506" data-name="Group 506" transform="translate(5.163)">
          <path id="Union_7" data-name="Union 7" d="M34.8,39.224,1.381,19.934a2.375,2.375,0,0,1-1.38-2c0-.037,0-.075,0-.111,0-.013,0-.025,0-.038V5.929l25.879.014L34.22,1.13l.122-.068,0,0L34.465,1l.017-.009.107-.054.03-.015.094-.046.045-.021.08-.038L34.9.787l.065-.028.077-.033.046-.02.1-.039.026-.011.118-.045h0A8.738,8.738,0,0,1,42.222.8l8.937,5.158,25.854.015V17.5c.076.951-.584,1.974-1.948,2.761L42.8,38.89a9.285,9.285,0,0,1-4.528,1.133A7.073,7.073,0,0,1,34.8,39.224Z" transform="translate(0.006 16.264)" stroke="#a765e6" stroke-width="1" fill="url(#linear-gradient-3)"/>
          <path id="Path_1505" data-name="Path 1505" d="M117.691,77.241,84.275,57.949c-2.051-1.185-1.794-3.254.574-4.62L117.115,34.7c2.369-1.368,5.951-1.515,8-.331l33.417,19.293c2.05,1.184,1.793,3.252-.574,4.62L125.692,76.909C123.325,78.277,119.743,78.426,117.691,77.241Z" transform="translate(-82.89 -33.568)" stroke="#a765e6" stroke-width="1" fill="url(#linear-gradient-3)"/>
          <g id="Group_504" data-name="Group 504" transform="translate(62.028 30.831)">
            <path id="Path_1507" data-name="Path 1507" d="M121.33,55.186a2.987,2.987,0,0,1-1.35,2.339c-.745.429-1.348.08-1.348-.781a2.984,2.984,0,0,1,1.348-2.338C120.726,53.977,121.33,54.326,121.33,55.186Z" transform="translate(-118.631 -49.209)" fill="#a765e6"/>
            <path id="Path_1508" data-name="Path 1508" d="M123.832,53.742a2.984,2.984,0,0,1-1.348,2.338c-.746.43-1.35.082-1.35-.779a2.981,2.981,0,0,1,1.35-2.338C123.228,52.533,123.832,52.882,123.832,53.742Z" transform="translate(-116.791 -50.271)" fill="#a765e6"/>
            <path id="Path_1509" data-name="Path 1509" d="M126.335,52.3a2.986,2.986,0,0,1-1.35,2.338c-.746.43-1.35.082-1.35-.779a2.981,2.981,0,0,1,1.35-2.338C125.73,51.088,126.335,51.437,126.335,52.3Z" transform="translate(-114.951 -51.334)" fill="#a765e6"/>
          </g>
        </g>
        <path id="Path_1513" data-name="Path 1513" d="M99.816,69.318a9.129,9.129,0,0,1-8.266,0c-2.282-1.317-2.282-3.454,0-4.771a9.129,9.129,0,0,1,8.266,0C102.1,65.864,102.1,68,99.816,69.318Z" transform="translate(-72.616 -11.512)" fill="#331d48" stroke="#a765e6" stroke-width="1"/>
      </g>
      <g id="Group_529" data-name="Group 529" transform="translate(382.959 278.623)">
        <g id="Group_523" data-name="Group 523" transform="translate(27.266)">
          <path id="Path_1555" data-name="Path 1555" d="M238.043,239.921l-58.649,33.861v-67.72L238.043,172.2Z" transform="translate(-120.745 -138.341)" fill="#331d48" stroke="#a765e6" stroke-width="1"/>
          <path id="Path_1556" data-name="Path 1556" d="M222.713,231.071l-58.649-33.861,58.647-33.86,58.649,33.861Z" transform="translate(-164.064 -163.35)" stroke="#a765e6" stroke-width="1" fill="url(#linear-gradient-5)"/>
          <path id="Path_1557" data-name="Path 1557" d="M193.415,191.256,174.432,180.3l18.982-10.96L212.4,180.3Z" transform="translate(-134.767 -146.436)" fill="#331d48" stroke="#a765e6" stroke-width="1"/>
          <path id="Path_1558" data-name="Path 1558" d="M222.713,273.782l-58.649-33.861V172.2l58.649,33.861Z" transform="translate(-164.064 -138.341)" fill="#331d48" stroke="#a765e6" stroke-width="1"/>
        </g>
        <path id="Path_1559" data-name="Path 1559" d="M185.989,210.175l-16.4-9.471V181.764l16.4,9.471Z" transform="translate(-121.197 -111.319)" fill="#331d48" stroke="#a765e6" stroke-width="1"/>
      </g>
    </g>
    <g id="Group_1131" data-name="Group 1131" transform="translate(951.104 188.947)">
      <g id="Group_398" data-name="Group 398" transform="translate(0.504 0.17)">
        <path id="Path_1005" data-name="Path 1005" d="M278.39,287.475,89.8,178.59c-5.336-3.083-8.413-11.249-6.875-18.247L116.242,8.8c1.538-7,7.108-10.171,12.442-7.092l188.6,108.888c5.336,3.079,8.413,11.249,6.875,18.247L290.836,280.383C289.3,287.381,283.728,290.558,278.39,287.475Z" transform="translate(65.527 0.118)" fill="#331d48" stroke="#a765e6" stroke-width="1"/>
        <path id="Path_1006" data-name="Path 1006" d="M301.007,110.207,112.416,1.331a7.451,7.451,0,0,0-7.424-.325,7.76,7.76,0,0,1,5.614.987L299.194,110.876c5.336,3.083,8.413,11.253,6.875,18.251L272.749,280.671a10.617,10.617,0,0,1-5.018,7.415c3.182-.695,5.843-3.583,6.829-8.079L307.88,128.463C309.42,121.468,306.341,113.295,301.007,110.207Z" transform="translate(83.614 -0.17)" fill="#a765e6"/>
        <path id="Path_1007" data-name="Path 1007" d="M270.847,272.5,93.475,170.147c-4.884-2.816-7.7-10.289-6.294-16.7L117.9,13.779c1.406-6.4,6.5-9.31,11.386-6.5L306.654,109.627c4.874,2.816,7.7,10.289,6.291,16.7L282.229,266C280.827,272.422,275.731,275.321,270.847,272.5Z" transform="translate(68.984 4.691)" stroke="#a765e6" stroke-width="1" fill="url(#linear-gradient-6)"/>
        <path id="Path_1009" data-name="Path 1009" d="M272.392,271.776,95.02,169.429c-4.874-2.816-7.7-10.289-6.291-16.7L119.444,13.061a9.821,9.821,0,0,1,4.468-6.735c-2.81.722-5.134,3.357-6.014,7.365L87.182,153.362c-1.406,6.4,1.41,13.881,6.294,16.7l177.37,102.347a6.817,6.817,0,0,0,6.921.244A7.073,7.073,0,0,1,272.392,271.776Z" transform="translate(68.985 4.787)" fill="#a765e6"/>
        <path id="Path_1014" data-name="Path 1014" d="M192.7,295.7,4.107,186.811c-5.336-3.079-4.668-8.458,1.495-12.016L134.02,100.677c6.162-3.556,15.478-3.944,20.816-.861L343.43,208.7c5.336,3.083,4.668,8.462-1.495,12.02L213.517,294.838C207.354,298.392,198.038,298.779,192.7,295.7Z" transform="translate(-0.504 78.376)" fill="#331d48" stroke="#a765e6" stroke-width="1"/>
        <g id="Group_396" data-name="Group 396" transform="translate(74.821 182.819)">
          <path id="Path_1016" data-name="Path 1016" d="M50.948,132.76l-8.533-4.924c-.682-.4-.6-1.083.195-1.545l10.072-5.814a2.972,2.972,0,0,1,2.671-.112l8.533,4.928c.686.4.6,1.083-.191,1.545l-10.076,5.816A2.96,2.96,0,0,1,50.948,132.76Z" transform="translate(-41.955 -86.437)" fill="#331d48" stroke="#a765e6" stroke-width="1"/>
          <path id="Path_1017" data-name="Path 1017" d="M58.25,136.977l-8.533-4.928c-.686-.4-.6-1.083.191-1.542l10.072-5.818a2.985,2.985,0,0,1,2.675-.11l8.532,4.928c.682.4.6,1.083-.195,1.542l-10.072,5.818A2.977,2.977,0,0,1,58.25,136.977Z" transform="translate(-36.078 -83.044)" fill="#331d48" stroke="#a765e6" stroke-width="1"/>
          <path id="Path_1018" data-name="Path 1018" d="M65.549,141.192l-8.531-4.928c-.686-.4-.6-1.083.191-1.545l10.072-5.814a2.971,2.971,0,0,1,2.671-.11l8.533,4.924c.686.4.6,1.083-.191,1.545l-10.072,5.814A2.975,2.975,0,0,1,65.549,141.192Z" transform="translate(-30.201 -79.651)" fill="#331d48" stroke="#a765e6" stroke-width="1"/>
          <path id="Path_1019" data-name="Path 1019" d="M75.646,137.3l-8.531-4.928c-.686-.4-.6-1.083.191-1.542l8.455-4.888a2.977,2.977,0,0,1,2.671-.11l8.533,4.928c.686.4.6,1.083-.191,1.542l-8.455,4.885A2.987,2.987,0,0,1,75.646,137.3Z" transform="translate(-22.072 -82.039)" fill="#331d48" stroke="#a765e6" stroke-width="1"/>
          <path id="Path_1020" data-name="Path 1020" d="M82.947,141.507l-8.533-4.928c-.686-.4-.6-1.083.191-1.545l8.455-4.874a2.968,2.968,0,0,1,2.675-.11l8.533,4.924c.682.4.6,1.083-.195,1.545l-8.455,4.874A2.966,2.966,0,0,1,82.947,141.507Z" transform="translate(-16.195 -78.641)" fill="#331d48" stroke="#a765e6" stroke-width="1"/>
          <path id="Path_1021" data-name="Path 1021" d="M90.249,145.72,81.716,140.8c-.686-.4-.6-1.083.191-1.545l8.455-4.874a2.972,2.972,0,0,1,2.671-.112l8.533,4.928c.686.4.6,1.083-.191,1.545l-8.455,4.874A2.96,2.96,0,0,1,90.249,145.72Z" transform="translate(-10.317 -75.247)" fill="#331d48" stroke="#a765e6" stroke-width="1"/>
          <path id="Path_1022" data-name="Path 1022" d="M97.551,149.936l-8.533-4.928c-.682-.4-.6-1.083.195-1.542l8.455-4.874a2.972,2.972,0,0,1,2.671-.112l8.533,4.928c.686.4.6,1.083-.191,1.542l-8.455,4.884A2.979,2.979,0,0,1,97.551,149.936Z" transform="translate(-4.437 -71.853)" fill="#331d48" stroke="#a765e6" stroke-width="1"/>
          <path id="Path_1023" data-name="Path 1023" d="M104.846,154.155l-8.533-4.928c-.686-.4-.6-1.083.191-1.542l8.455-4.884a2.973,2.973,0,0,1,2.675-.11l8.533,4.928c.682.4.6,1.083-.195,1.542l-8.455,4.874A2.972,2.972,0,0,1,104.846,154.155Z" transform="translate(1.434 -68.464)" fill="#331d48" stroke="#a765e6" stroke-width="1"/>
          <path id="Path_1024" data-name="Path 1024" d="M112.15,158.367l-8.533-4.928c-.686-.4-.6-1.083.191-1.545l8.455-4.874a2.96,2.96,0,0,1,2.671-.11l8.533,4.924c.686.4.6,1.083-.191,1.545l-8.455,4.874A2.972,2.972,0,0,1,112.15,158.367Z" transform="translate(7.314 -65.068)" fill="#331d48" stroke="#a765e6" stroke-width="1"/>
          <path id="Path_1025" data-name="Path 1025" d="M119.449,162.58l-8.533-4.924c-.682-.4-.6-1.083.195-1.545l8.455-4.874a2.972,2.972,0,0,1,2.671-.112l8.532,4.928c.686.4.6,1.083-.191,1.545l-8.455,4.874A2.962,2.962,0,0,1,119.449,162.58Z" transform="translate(13.192 -61.674)" fill="#331d48" stroke="#a765e6" stroke-width="1"/>
          <path id="Path_1026" data-name="Path 1026" d="M126.751,166.8l-8.532-4.928c-.686-.4-.6-1.083.191-1.542l8.455-4.89a2.985,2.985,0,0,1,2.675-.11l8.533,4.928c.682.4.6,1.083-.195,1.542l-8.455,4.884A2.977,2.977,0,0,1,126.751,166.8Z" transform="translate(19.069 -58.286)" fill="#331d48" stroke="#a765e6" stroke-width="1"/>
          <path id="Path_1027" data-name="Path 1027" d="M134.052,171.012l-8.532-4.928c-.686-.4-.6-1.083.191-1.545l8.455-4.874a2.96,2.96,0,0,1,2.671-.11l8.533,4.919c.686.4.6,1.083-.191,1.545l-8.455,4.874A2.972,2.972,0,0,1,134.052,171.012Z" transform="translate(24.946 -54.888)" fill="#331d48" stroke="#a765e6" stroke-width="1"/>
          <path id="Path_1028" data-name="Path 1028" d="M141.351,175.225l-8.533-4.924c-.682-.4-.6-1.083.195-1.545l8.455-4.874a2.972,2.972,0,0,1,2.671-.112l8.533,4.928c.686.4.6,1.083-.191,1.545l-8.455,4.874A2.962,2.962,0,0,1,141.351,175.225Z" transform="translate(30.825 -51.494)" fill="#331d48" stroke="#a765e6" stroke-width="1"/>
          <path id="Path_1029" data-name="Path 1029" d="M86.4,135.295l-8.533-4.928c-.686-.4-.6-1.083.191-1.542l8.455-4.874a2.972,2.972,0,0,1,2.671-.112l8.533,4.928c.686.4.6,1.083-.191,1.545l-8.455,4.874A2.966,2.966,0,0,1,86.4,135.295Z" transform="translate(-13.413 -83.64)" fill="#331d48" stroke="#a765e6" stroke-width="1"/>
          <path id="Path_1030" data-name="Path 1030" d="M78.988,131.017l-8.532-4.924c-.682-.4-.6-1.083.195-1.545l8.455-4.874a2.972,2.972,0,0,1,2.671-.112l8.533,4.928c.686.4.6,1.083-.191,1.545l-8.455,4.874A2.962,2.962,0,0,1,78.988,131.017Z" transform="translate(-19.381 -87.084)" fill="#331d48" stroke="#a765e6" stroke-width="1"/>
          <path id="Path_1031" data-name="Path 1031" d="M75.965,129.267l-18.379-10.61c-.686-.4-.6-1.083.191-1.545l8.455-4.874a2.973,2.973,0,0,1,2.675-.11l18.375,10.61c.686.4.6,1.083-.191,1.545l-8.455,4.874A2.96,2.96,0,0,1,75.965,129.267Z" transform="translate(-29.743 -93.069)" fill="#331d48" stroke="#a765e6" stroke-width="1"/>
          <path id="Path_1032" data-name="Path 1032" d="M79.606,123.167l-14.913-8.612c-.686-.4-.6-1.083.191-1.545l8.455-4.874a2.968,2.968,0,0,1,2.675-.11l14.915,8.608c.682.4.6,1.083-.195,1.545l-8.455,4.874A2.97,2.97,0,0,1,79.606,123.167Z" transform="translate(-24.022 -96.373)" fill="#331d48" stroke="#a765e6" stroke-width="1"/>
          <path id="Path_1033" data-name="Path 1033" d="M93.7,139.514l-8.533-4.928c-.682-.4-.6-1.083.195-1.542l8.455-4.885a2.971,2.971,0,0,1,2.671-.11l8.532,4.928c.686.4.6,1.083-.191,1.542L96.378,139.4A2.985,2.985,0,0,1,93.7,139.514Z" transform="translate(-7.535 -80.251)" fill="#331d48" stroke="#a765e6" stroke-width="1"/>
          <path id="Path_1034" data-name="Path 1034" d="M101,143.727,92.472,138.8c-.686-.4-.6-1.083.191-1.545l8.455-4.874a2.968,2.968,0,0,1,2.675-.11l8.532,4.924c.682.4.6,1.083-.195,1.545l-8.455,4.874A2.971,2.971,0,0,1,101,143.727Z" transform="translate(-1.658 -76.854)" fill="#331d48" stroke="#a765e6" stroke-width="1"/>
          <path id="Path_1035" data-name="Path 1035" d="M108.311,147.94l-8.533-4.924c-.686-.4-.6-1.083.191-1.545l8.455-4.874a2.971,2.971,0,0,1,2.671-.112l8.533,4.928c.686.4.6,1.083-.191,1.545l-8.455,4.874A2.96,2.96,0,0,1,108.311,147.94Z" transform="translate(4.223 -73.46)" fill="#331d48" stroke="#a765e6" stroke-width="1"/>
          <path id="Path_1036" data-name="Path 1036" d="M115.6,152.159l-8.533-4.928c-.682-.4-.6-1.083.195-1.542l8.455-4.884a2.977,2.977,0,0,1,2.671-.11l8.533,4.928c.686.4.6,1.083-.191,1.542l-8.455,4.884A2.985,2.985,0,0,1,115.6,152.159Z" transform="translate(10.097 -70.071)" fill="#331d48" stroke="#a765e6" stroke-width="1"/>
          <path id="Path_1037" data-name="Path 1037" d="M122.907,156.371l-8.533-4.928c-.686-.4-.6-1.083.191-1.545l8.455-4.874a2.96,2.96,0,0,1,2.671-.11l8.532,4.924c.686.4.6,1.083-.191,1.545l-8.455,4.874A2.966,2.966,0,0,1,122.907,156.371Z" transform="translate(15.975 -66.675)" fill="#331d48" stroke="#a765e6" stroke-width="1"/>
          <path id="Path_1038" data-name="Path 1038" d="M130.208,160.585l-8.533-4.924c-.686-.4-.6-1.083.191-1.545l8.455-4.874a2.972,2.972,0,0,1,2.671-.112l8.533,4.928c.686.4.6,1.083-.191,1.545l-8.455,4.874A2.96,2.96,0,0,1,130.208,160.585Z" transform="translate(21.852 -63.28)" fill="#331d48" stroke="#a765e6" stroke-width="1"/>
          <path id="Path_1039" data-name="Path 1039" d="M137.507,164.8l-8.533-4.928c-.682-.4-.6-1.083.191-1.542l8.455-4.884a2.985,2.985,0,0,1,2.675-.11l8.533,4.928c.682.4.6,1.083-.195,1.542l-8.455,4.884A2.971,2.971,0,0,1,137.507,164.8Z" transform="translate(27.73 -59.891)" fill="#331d48" stroke="#a765e6" stroke-width="1"/>
          <path id="Path_1040" data-name="Path 1040" d="M144.808,169.016l-8.533-4.928c-.686-.4-.6-1.083.191-1.545l8.455-4.874a2.972,2.972,0,0,1,2.672-.11l8.532,4.928c.686.4.6,1.083-.191,1.542l-8.455,4.874A2.966,2.966,0,0,1,144.808,169.016Z" transform="translate(33.606 -56.494)" fill="#331d48" stroke="#a765e6" stroke-width="1"/>
          <path id="Path_1041" data-name="Path 1041" d="M152.107,173.23l-8.533-4.928c-.682-.4-.6-1.083.195-1.545l8.455-4.874a2.96,2.96,0,0,1,2.671-.11l8.533,4.924c.686.4.6,1.083-.191,1.545l-8.455,4.874A2.973,2.973,0,0,1,152.107,173.23Z" transform="translate(39.484 -53.103)" fill="#331d48" stroke="#a765e6" stroke-width="1"/>
          <path id="Path_1042" data-name="Path 1042" d="M169.586,183.32l-18.621-10.747c-.682-.4-.6-1.083.195-1.545l8.455-4.874a2.972,2.972,0,0,1,2.671-.112l18.621,10.751c.682.4.6,1.083-.195,1.545l-8.455,4.874A2.966,2.966,0,0,1,169.586,183.32Z" transform="translate(45.434 -49.665)" fill="#331d48" stroke="#a765e6" stroke-width="1"/>
          <path id="Path_1043" data-name="Path 1043" d="M182.5,174.367l-15.717-9.072c-.682-.4-.6-1.083.191-1.545l8.455-4.874a2.979,2.979,0,0,1,2.675-.112l15.713,9.076c.686.4.6,1.083-.191,1.542l-8.455,4.874A2.972,2.972,0,0,1,182.5,174.367Z" transform="translate(58.172 -55.524)" fill="#331d48" stroke="#a765e6" stroke-width="1"/>
          <path id="Path_1044" data-name="Path 1044" d="M106.489,138.691l-8.533-4.928c-.686-.4-.6-1.083.191-1.545l8.455-4.874a2.967,2.967,0,0,1,2.675-.11l8.533,4.924c.682.4.6,1.083-.195,1.545l-8.455,4.874A2.966,2.966,0,0,1,106.489,138.691Z" transform="translate(2.757 -80.908)" fill="#331d48" stroke="#a765e6" stroke-width="1"/>
          <path id="Path_1045" data-name="Path 1045" d="M99.008,134.367l-8.533-4.928c-.686-.4-.6-1.083.191-1.545l8.455-4.874a2.96,2.96,0,0,1,2.671-.11l8.533,4.924c.686.4.6,1.083-.191,1.545l-8.455,4.874A2.971,2.971,0,0,1,99.008,134.367Z" transform="translate(-3.265 -84.389)" fill="#331d48" stroke="#a765e6" stroke-width="1"/>
          <path id="Path_1046" data-name="Path 1046" d="M91.525,130.046l-8.531-4.926c-.686-.4-.6-1.083.191-1.545l8.455-4.874a2.972,2.972,0,0,1,2.671-.112l8.538,4.928c.686.4.6,1.083-.191,1.545L94.2,129.935A2.959,2.959,0,0,1,91.525,130.046Z" transform="translate(-9.289 -87.867)" fill="#331d48" stroke="#a765e6" stroke-width="1"/>
          <path id="Path_1047" data-name="Path 1047" d="M84.043,125.726,75.508,120.8c-.682-.4-.6-1.083.195-1.545l8.455-4.874a2.972,2.972,0,0,1,2.671-.112l8.533,4.928c.686.4.6,1.083-.191,1.545l-8.455,4.874A2.969,2.969,0,0,1,84.043,125.726Z" transform="translate(-15.313 -91.343)" fill="#331d48" stroke="#a765e6" stroke-width="1"/>
          <path id="Path_1048" data-name="Path 1048" d="M113.79,142.9l-8.533-4.924c-.686-.4-.6-1.083.191-1.545l8.455-4.874a2.972,2.972,0,0,1,2.671-.112l8.532,4.928c.686.4.6,1.083-.191,1.545l-8.455,4.874A2.96,2.96,0,0,1,113.79,142.9Z" transform="translate(8.634 -77.517)" fill="#331d48" stroke="#a765e6" stroke-width="1"/>
          <path id="Path_1049" data-name="Path 1049" d="M121.089,147.12l-8.533-4.928c-.682-.4-.6-1.083.195-1.542l8.455-4.884a2.977,2.977,0,0,1,2.671-.11l8.532,4.928c.686.4.6,1.083-.191,1.542l-8.455,4.884A2.973,2.973,0,0,1,121.089,147.12Z" transform="translate(14.513 -74.127)" fill="#331d48" stroke="#a765e6" stroke-width="1"/>
          <path id="Path_1050" data-name="Path 1050" d="M128.391,151.335l-8.533-4.928c-.686-.4-.6-1.083.191-1.541l8.455-4.884a2.973,2.973,0,0,1,2.675-.11l8.532,4.928c.682.4.6,1.083-.195,1.542l-8.455,4.874A2.972,2.972,0,0,1,128.391,151.335Z" transform="translate(20.39 -70.735)" fill="#331d48" stroke="#a765e6" stroke-width="1"/>
          <path id="Path_1051" data-name="Path 1051" d="M135.692,155.544l-8.532-4.924c-.686-.4-.6-1.083.191-1.545l8.455-4.874a2.96,2.96,0,0,1,2.672-.11l8.533,4.924c.686.4.6,1.083-.191,1.545l-8.455,4.874A2.96,2.96,0,0,1,135.692,155.544Z" transform="translate(26.267 -67.338)" fill="#331d48" stroke="#a765e6" stroke-width="1"/>
          <path id="Path_1052" data-name="Path 1052" d="M142.991,159.76l-8.532-4.924c-.682-.4-.6-1.083.195-1.545l8.455-4.874a2.972,2.972,0,0,1,2.671-.112l8.533,4.928c.686.4.6,1.083-.191,1.545l-8.455,4.874A2.973,2.973,0,0,1,142.991,159.76Z" transform="translate(32.145 -63.944)" fill="#331d48" stroke="#a765e6" stroke-width="1"/>
          <path id="Path_1053" data-name="Path 1053" d="M150.293,163.979l-8.533-4.928c-.686-.4-.6-1.083.191-1.542l8.455-4.884a2.973,2.973,0,0,1,2.675-.11l8.531,4.928c.686.4.6,1.083-.191,1.542l-8.455,4.884A2.981,2.981,0,0,1,150.293,163.979Z" transform="translate(38.022 -60.555)" fill="#331d48" stroke="#a765e6" stroke-width="1"/>
          <path id="Path_1054" data-name="Path 1054" d="M157.6,168.2l-8.533-4.928c-.686-.4-.6-1.083.191-1.545l8.455-4.874a2.96,2.96,0,0,1,2.671-.11l8.533,4.924c.686.4.6,1.083-.191,1.545l-8.455,4.874A2.971,2.971,0,0,1,157.6,168.2Z" transform="translate(43.902 -57.156)" fill="#331d48" stroke="#a765e6" stroke-width="1"/>
          <path id="Path_1055" data-name="Path 1055" d="M164.891,172.4l-8.533-4.924c-.682-.4-.6-1.083.191-1.545l8.459-4.874a2.972,2.972,0,0,1,2.671-.112l8.532,4.928c.682.4.6,1.083-.195,1.545l-8.455,4.874A2.96,2.96,0,0,1,164.891,172.4Z" transform="translate(49.776 -53.764)" fill="#331d48" stroke="#a765e6" stroke-width="1"/>
          <path id="Path_1056" data-name="Path 1056" d="M172.194,176.62l-8.533-4.928c-.686-.4-.6-1.083.191-1.542l8.455-4.874a2.972,2.972,0,0,1,2.672-.112l8.532,4.928c.686.4.6,1.083-.191,1.542l-8.455,4.885A2.983,2.983,0,0,1,172.194,176.62Z" transform="translate(55.653 -50.371)" fill="#331d48" stroke="#a765e6" stroke-width="1"/>
          <path id="Path_1057" data-name="Path 1057" d="M102.645,128.26l-8.533-4.924c-.686-.4-.6-1.083.191-1.545l8.455-4.874a2.979,2.979,0,0,1,2.675-.112l8.533,4.928c.682.4.6,1.083-.195,1.545l-8.455,4.874A2.96,2.96,0,0,1,102.645,128.26Z" transform="translate(-0.337 -89.303)" fill="#331d48" stroke="#a765e6" stroke-width="1"/>
          <path id="Path_1058" data-name="Path 1058" d="M95.38,124.067l-8.533-4.928c-.682-.4-.6-1.083.195-1.545L95.5,112.72a2.971,2.971,0,0,1,2.671-.11l8.532,4.928c.686.4.6,1.083-.191,1.542l-8.455,4.874A2.973,2.973,0,0,1,95.38,124.067Z" transform="translate(-6.185 -92.681)" fill="#331d48" stroke="#a765e6" stroke-width="1"/>
          <path id="Path_1059" data-name="Path 1059" d="M88.117,119.872l-8.533-4.928c-.686-.4-.6-1.083.191-1.542l8.455-4.874a2.972,2.972,0,0,1,2.671-.112l8.532,4.928c.686.4.6,1.083-.191,1.545l-8.455,4.874A2.966,2.966,0,0,1,88.117,119.872Z" transform="translate(-12.034 -96.056)" fill="#331d48" stroke="#a765e6" stroke-width="1"/>
          <path id="Path_1060" data-name="Path 1060" d="M80.853,115.68l-8.533-4.928c-.686-.4-.6-1.083.191-1.545l8.455-4.874a2.96,2.96,0,0,1,2.671-.11l8.533,4.924c.686.4.6,1.083-.191,1.545l-8.455,4.874A2.972,2.972,0,0,1,80.853,115.68Z" transform="translate(-17.881 -99.434)" fill="#331d48" stroke="#a765e6" stroke-width="1"/>
          <path id="Path_1061" data-name="Path 1061" d="M88.322,109.913l-8.533-4.928c-.686-.4-.6-1.083.191-1.545l2.8-1.614a2.971,2.971,0,0,1,2.671-.11l8.533,4.924c.686.4.6,1.083-.191,1.545l-2.8,1.614A2.972,2.972,0,0,1,88.322,109.913Z" transform="translate(-11.868 -101.451)" fill="#331d48" stroke="#a765e6" stroke-width="1"/>
          <path id="Path_1062" data-name="Path 1062" d="M97.8,115.384l-8.533-4.924c-.682-.4-.6-1.083.195-1.545l2.794-1.614a2.972,2.972,0,0,1,2.671-.112l8.533,4.928c.686.4.6,1.083-.191,1.545l-2.794,1.614A2.962,2.962,0,0,1,97.8,115.384Z" transform="translate(-4.236 -97.045)" fill="#331d48" stroke="#a765e6" stroke-width="1"/>
          <path id="Path_1063" data-name="Path 1063" d="M105.036,119.566,96.5,114.638c-.686-.4-.6-1.083.191-1.542l2.794-1.625a2.985,2.985,0,0,1,2.675-.11l8.531,4.928c.686.4.6,1.083-.191,1.542l-2.794,1.614A2.97,2.97,0,0,1,105.036,119.566Z" transform="translate(1.587 -93.685)" fill="#331d48" stroke="#a765e6" stroke-width="1"/>
          <path id="Path_1064" data-name="Path 1064" d="M112.27,123.737l-8.533-4.924c-.686-.4-.6-1.083.191-1.545l2.794-1.614a2.967,2.967,0,0,1,2.675-.11l8.533,4.924c.682.4.6,1.083-.195,1.545l-2.794,1.614A2.96,2.96,0,0,1,112.27,123.737Z" transform="translate(7.411 -90.32)" fill="#331d48" stroke="#a765e6" stroke-width="1"/>
          <path id="Path_1065" data-name="Path 1065" d="M119.5,127.919l-8.534-4.928c-.682-.4-.6-1.083.195-1.542l2.794-1.625a2.977,2.977,0,0,1,2.671-.11l8.533,4.928c.686.4.6,1.083-.191,1.542l-2.794,1.625A2.986,2.986,0,0,1,119.5,127.919Z" transform="translate(13.235 -86.961)" fill="#331d48" stroke="#a765e6" stroke-width="1"/>
          <path id="Path_1066" data-name="Path 1066" d="M159.89,151.23l-8.533-4.924c-.686-.4-.6-1.083.191-1.545l2.8-1.614a2.971,2.971,0,0,1,2.671-.112l8.533,4.928c.686.4.6,1.083-.191,1.545l-2.8,1.614A2.96,2.96,0,0,1,159.89,151.23Z" transform="translate(45.748 -68.187)" fill="#331d48" stroke="#a765e6" stroke-width="1"/>
          <path id="Path_1067" data-name="Path 1067" d="M167.122,155.41l-8.533-4.928c-.682-.4-.6-1.083.195-1.542l2.794-1.625a2.977,2.977,0,0,1,2.672-.11l8.532,4.928c.686.4.6,1.083-.191,1.542l-2.794,1.614A2.974,2.974,0,0,1,167.122,155.41Z" transform="translate(51.572 -64.829)" fill="#331d48" stroke="#a765e6" stroke-width="1"/>
          <path id="Path_1068" data-name="Path 1068" d="M174.358,159.583l-8.532-4.924c-.686-.4-.6-1.083.191-1.545l2.794-1.614a2.96,2.96,0,0,1,2.672-.11l8.532,4.924c.686.4.6,1.083-.191,1.545l-2.794,1.614A2.96,2.96,0,0,1,174.358,159.583Z" transform="translate(57.395 -61.462)" fill="#331d48" stroke="#a765e6" stroke-width="1"/>
          <path id="Path_1069" data-name="Path 1069" d="M181.592,163.765l-8.533-4.928c-.686-.4-.6-1.083.191-1.542l2.794-1.625a2.985,2.985,0,0,1,2.675-.11l8.533,4.928c.682.4.6,1.083-.195,1.542l-2.794,1.625A2.977,2.977,0,0,1,181.592,163.765Z" transform="translate(63.219 -58.103)" fill="#331d48" stroke="#a765e6" stroke-width="1"/>
          <path id="Path_1070" data-name="Path 1070" d="M109.946,132.475l-8.533-4.928c-.686-.4-.6-1.083.191-1.542l8.455-4.874a2.972,2.972,0,0,1,2.671-.112l8.533,4.928c.686.4.6,1.083-.191,1.542l-8.455,4.884A2.971,2.971,0,0,1,109.946,132.475Z" transform="translate(5.54 -85.91)" fill="#331d48" stroke="#a765e6" stroke-width="1"/>
          <path id="Path_1071" data-name="Path 1071" d="M117.245,136.694l-8.532-4.928c-.682-.4-.6-1.083.195-1.542l8.455-4.884a2.971,2.971,0,0,1,2.671-.11l8.533,4.928c.686.4.6,1.083-.191,1.542l-8.455,4.884A2.985,2.985,0,0,1,117.245,136.694Z" transform="translate(11.418 -82.521)" fill="#331d48" stroke="#a765e6" stroke-width="1"/>
          <path id="Path_1072" data-name="Path 1072" d="M124.547,140.906l-8.533-4.928c-.686-.4-.6-1.083.191-1.545l8.455-4.874a2.968,2.968,0,0,1,2.675-.11l8.532,4.924c.682.4.6,1.083-.195,1.545l-8.455,4.874A2.972,2.972,0,0,1,124.547,140.906Z" transform="translate(17.295 -79.125)" fill="#331d48" stroke="#a765e6" stroke-width="1"/>
          <path id="Path_1073" data-name="Path 1073" d="M131.848,145.117l-8.533-4.924c-.686-.4-.6-1.083.191-1.545l8.455-4.874a2.971,2.971,0,0,1,2.671-.112l8.533,4.928c.686.4.6,1.083-.191,1.545l-8.455,4.874A2.96,2.96,0,0,1,131.848,145.117Z" transform="translate(23.172 -75.733)" fill="#331d48" stroke="#a765e6" stroke-width="1"/>
          <path id="Path_1074" data-name="Path 1074" d="M139.147,149.339l-8.533-4.928c-.682-.4-.6-1.083.195-1.542l8.455-4.884a2.977,2.977,0,0,1,2.671-.11l8.533,4.928c.682.4.6,1.083-.191,1.542l-8.455,4.884A2.985,2.985,0,0,1,139.147,149.339Z" transform="translate(29.05 -72.341)" fill="#331d48" stroke="#a765e6" stroke-width="1"/>
          <path id="Path_1075" data-name="Path 1075" d="M146.448,153.551l-8.533-4.928c-.686-.4-.6-1.083.191-1.545l8.455-4.874a2.96,2.96,0,0,1,2.672-.11l8.532,4.924c.686.4.6,1.083-.191,1.545l-8.455,4.874A2.971,2.971,0,0,1,146.448,153.551Z" transform="translate(34.926 -68.945)" fill="#331d48" stroke="#a765e6" stroke-width="1"/>
          <path id="Path_1076" data-name="Path 1076" d="M153.749,157.764l-8.533-4.924c-.686-.4-.6-1.083.191-1.545l8.455-4.874a2.971,2.971,0,0,1,2.671-.112l8.533,4.928c.686.4.6,1.083-.191,1.545l-8.455,4.874A2.96,2.96,0,0,1,153.749,157.764Z" transform="translate(40.804 -65.551)" fill="#331d48" stroke="#a765e6" stroke-width="1"/>
          <path id="Path_1077" data-name="Path 1077" d="M161.049,161.984l-8.533-4.928c-.686-.4-.6-1.083.191-1.542l8.455-4.884a2.985,2.985,0,0,1,2.675-.11l8.533,4.928c.682.4.6,1.083-.195,1.542l-8.455,4.884A2.971,2.971,0,0,1,161.049,161.984Z" transform="translate(46.681 -62.161)" fill="#331d48" stroke="#a765e6" stroke-width="1"/>
          <path id="Path_1078" data-name="Path 1078" d="M168.35,166.2l-8.533-4.928c-.686-.4-.6-1.083.191-1.545l8.455-4.874a2.971,2.971,0,0,1,2.671-.11l8.533,4.924c.686.4.6,1.083-.191,1.545l-8.455,4.874A2.972,2.972,0,0,1,168.35,166.2Z" transform="translate(52.559 -58.765)" fill="#331d48" stroke="#a765e6" stroke-width="1"/>
          <path id="Path_1079" data-name="Path 1079" d="M75.611,137.273,50.477,122.762c-.682-.4-.6-1.083.195-1.542l8.455-4.884a2.977,2.977,0,0,1,2.671-.11l25.13,14.511c.686.4.6,1.083-.191,1.542l-8.455,4.884A2.977,2.977,0,0,1,75.611,137.273Z" transform="translate(-35.465 -89.77)" fill="#331d48" stroke="#a765e6" stroke-width="1"/>
          <path id="Path_1080" data-name="Path 1080" d="M165.3,189.047l-25.13-14.507c-.686-.4-.6-1.083.191-1.545l8.455-4.874a2.972,2.972,0,0,1,2.671-.112L176.62,182.52c.682.4.6,1.083-.191,1.545l-8.458,4.874A2.966,2.966,0,0,1,165.3,189.047Z" transform="translate(36.74 -48.081)" fill="#331d48" stroke="#a765e6" stroke-width="1"/>
          <path id="Path_1081" data-name="Path 1081" d="M128.7,177.65l-8.532-4.924c-.682-.4-.6-1.083.195-1.545l10.072-5.814a2.972,2.972,0,0,1,2.671-.112l8.533,4.928c.686.4.6,1.083-.191,1.545l-10.072,5.814A2.973,2.973,0,0,1,128.7,177.65Z" transform="translate(20.639 -50.298)" fill="#331d48" stroke="#a765e6" stroke-width="1"/>
          <path id="Path_1082" data-name="Path 1082" d="M77.966,148.359,64.318,140.48c-.686-.4-.6-1.083.191-1.545l10.074-5.814a2.971,2.971,0,0,1,2.671-.112L90.9,140.89c.686.4.6,1.083-.191,1.542l-10.072,5.818A2.977,2.977,0,0,1,77.966,148.359Z" transform="translate(-24.323 -76.258)" fill="#331d48" stroke="#a765e6" stroke-width="1"/>
          <path id="Path_1083" data-name="Path 1083" d="M123.947,174.907,110.3,167.028c-.686-.4-.6-1.083.191-1.545l10.072-5.814a2.96,2.96,0,0,1,2.671-.11l13.648,7.879c.686.4.6,1.083-.191,1.542L126.618,174.8A2.971,2.971,0,0,1,123.947,174.907Z" transform="translate(12.694 -54.886)" fill="#331d48" stroke="#a765e6" stroke-width="1"/>
          <path id="Path_1084" data-name="Path 1084" d="M88.5,154.44l-13.648-7.879c-.682-.4-.6-1.083.195-1.545L85.117,139.2a2.96,2.96,0,0,1,2.671-.11l13.648,7.879c.682.4.6,1.083-.195,1.542L91.169,154.33A2.977,2.977,0,0,1,88.5,154.44Z" transform="translate(-15.844 -71.363)" fill="#331d48" stroke="#a765e6" stroke-width="1"/>
          <path id="Path_1085" data-name="Path 1085" d="M87.639,139l59.332,34.255a.812.812,0,0,1,0,1.538l-10.273,5.93a2.941,2.941,0,0,1-2.666,0L74.7,146.472Z" transform="translate(-15.593 -71.219)" fill="#331d48" stroke="#a765e6" stroke-width="1"/>
          <path id="Path_1086" data-name="Path 1086" d="M148.147,179.744l9.5,5.489c.563.323.491.89-.157,1.264l-4.119,2.381a2.451,2.451,0,0,1-2.193.09l-9.5-5.489c-.561-.325-.491-.89.157-1.264l4.123-2.377A2.421,2.421,0,0,1,148.147,179.744Z" transform="translate(38.023 -38.596)" fill="#331d48" stroke="#a765e6" stroke-width="1"/>
          <path id="Path_1087" data-name="Path 1087" d="M140.787,175.495l9.5,5.489c.561.323.491.89-.157,1.264l-4.123,2.377a2.443,2.443,0,0,1-2.19.09l-9.5-5.489c-.563-.323-.491-.89.157-1.264l4.119-2.377A2.428,2.428,0,0,1,140.787,175.495Z" transform="translate(32.096 -42.018)" fill="#331d48" stroke="#a765e6" stroke-width="1"/>
          <path id="Path_1088" data-name="Path 1088" d="M133.485,171.278l9.5,5.489c.561.325.491.89-.157,1.264l-4.119,2.377a2.428,2.428,0,0,1-2.193.09l-9.5-5.489c-.561-.323-.491-.89.157-1.264l4.123-2.381A2.443,2.443,0,0,1,133.485,171.278Z" transform="translate(26.219 -45.412)" fill="#331d48" stroke="#a765e6" stroke-width="1"/>
          <path id="Path_1089" data-name="Path 1089" d="M144.818,173.167l9.5,5.489c.561.323.491.89-.157,1.264l-4.123,2.381a2.443,2.443,0,0,1-2.19.09l-9.5-5.489c-.563-.325-.491-.89.157-1.264l4.119-2.377A2.429,2.429,0,0,1,144.818,173.167Z" transform="translate(35.342 -43.891)" fill="#331d48" stroke="#a765e6" stroke-width="1"/>
        </g>
        <g id="Group_397" data-name="Group 397" transform="translate(206.182 61.506)">
          <path id="Path_1090" data-name="Path 1090" d="M137.45,51.233,116.017,38.86l.913-4.616,21.433,12.374Z" transform="translate(-113.692 -34.244)" fill="#a765e6"/>
          <path id="Path_1091" data-name="Path 1091" d="M136.162,57.172,114.729,44.8l.913-4.614,21.433,12.375Z" transform="translate(-114.729 -29.459)" fill="#a765e6"/>
          <path id="Path_1092" data-name="Path 1092" d="M194.441,139.581l-21.433-12.374.913-4.616,21.433,12.374Z" transform="translate(-67.811 36.881)" fill="#a765e6"/>
        </g>
      </g>
      <g id="Group_1134" data-name="Group 1134" transform="translate(197.647 91.485)">
        <g id="Group_1133" data-name="Group 1133" style="isolation: isolate">
          <g id="Group_1132" data-name="Group 1132" clip-path="url(#clip-path)">
            <g id="Group_1131-2" data-name="Group 1131" transform="translate(3.545 10.899)">
              <path id="Path_3323" data-name="Path 3323" d="M120.916,88.522l18.24-19.2L132.8,95.381l-11.881-6.859m30.267-25.664-10.5-6.061L114.219,83.419l-2.534,10.386,18.843,10.879-3.177,13.025L136.514,123l3.177-13.023,5.381,3.106,2.271-9.3-5.383-3.106,9.224-37.814" transform="translate(-111.685 -56.796)" fill="#a765e6"/>
              <path id="Path_3324" data-name="Path 3324" d="M147.126,121.923c-2.789-1.61-4.171-4.513-4.17-8.724s.847-9.774,2.543-16.735q2.67-10.944,5.3-15.424c1.753-2.982,4.011-3.668,6.8-2.058s4.173,4.4,4.184,8.4-.883,9.653-2.662,16.949q-2.548,10.438-5.182,15.209-2.648,4.787-6.814,2.383M160,69.167q-9.095-5.25-14.746.78t-9.305,21q-3.655,14.986-1.964,25.19a21.075,21.075,0,0,0,10.782,15.468q9.092,5.25,14.722-.742,5.64-5.973,9.294-20.959t1.975-25.235A20.986,20.986,0,0,0,160,69.167" transform="translate(-94.166 -48.806)" fill="#a765e6"/>
              <path id="Path_3325" data-name="Path 3325" d="M162.357,112.448l18.24-19.2-6.357,26.063-11.883-6.859m30.256-25.67-10.5-6.063-26.466,26.623-2.534,10.388,18.854,10.884-3.177,13.025,9.152,5.283,3.177-13.025L186.5,137l2.269-9.3-5.383-3.108,9.224-37.812" transform="translate(-78.331 -37.54)" fill="#a765e6"/>
            </g>
          </g>
        </g>
      </g>
    </g>
  </g>
</svg>
