<svg xmlns="http://www.w3.org/2000/svg" xmlns:xlink="http://www.w3.org/1999/xlink" width="1921.014" height="991.581" viewBox="0 0 1921.014 991.581">
  <defs>
    <linearGradient id="linear-gradient" x1="0.97" y1="0.04" x2="-0.739" y2="1.615" gradientUnits="objectBoundingBox">
      <stop offset="0" stop-color="#2b193c"/>
      <stop offset="1" stop-color="#a765e6"/>
    </linearGradient>
    <linearGradient id="linear-gradient-2" x1="0.015" y1="0.507" x2="2.002" y2="0.498" gradientUnits="objectBoundingBox">
      <stop offset="0.005" stop-color="#232b59"/>
      <stop offset="0.175" stop-color="#232c5a"/>
      <stop offset="0.237" stop-color="#243161"/>
      <stop offset="0.281" stop-color="#263a6d"/>
      <stop offset="0.316" stop-color="#29477e"/>
      <stop offset="0.346" stop-color="#2d5894"/>
      <stop offset="0.373" stop-color="#316cae"/>
      <stop offset="0.393" stop-color="#3680c9"/>
      <stop offset="0.436" stop-color="#2f6aaf"/>
      <stop offset="0.485" stop-color="#295899"/>
      <stop offset="0.544" stop-color="#254a88"/>
      <stop offset="0.616" stop-color="#22407c"/>
      <stop offset="0.718" stop-color="#203a75"/>
      <stop offset="1" stop-color="#203974"/>
    </linearGradient>
    <linearGradient id="linear-gradient-3" y1="0.5" x2="1" y2="0.5" gradientUnits="objectBoundingBox">
      <stop offset="0" stop-color="#fff"/>
      <stop offset="0.04" stop-color="#fafaff"/>
      <stop offset="0.192" stop-color="#eeefff"/>
      <stop offset="0.406" stop-color="#e7e9ff"/>
      <stop offset="1" stop-color="#e6e8ff"/>
    </linearGradient>
    <linearGradient id="linear-gradient-4" x1="0" y1="0.5" x2="1" y2="0.5" xlink:href="#linear-gradient-3"/>
    <linearGradient id="linear-gradient-5" y1="0.5" x2="1" y2="0.5" gradientUnits="objectBoundingBox">
      <stop offset="0" stop-color="#fff"/>
      <stop offset="0.029" stop-color="#fdfdff"/>
      <stop offset="0.286" stop-color="#f6f6ff"/>
      <stop offset="1" stop-color="#f5f5ff"/>
    </linearGradient>
    <linearGradient id="linear-gradient-8" y1="0.5" x2="1" y2="0.5" gradientUnits="objectBoundingBox">
      <stop offset="0" stop-color="#515878"/>
      <stop offset="1" stop-color="#373c52"/>
    </linearGradient>
    <linearGradient id="linear-gradient-9" x1="0.475" y1="0.151" x2="0.599" y2="0.977" gradientUnits="objectBoundingBox">
      <stop offset="0" stop-color="#3643b5"/>
      <stop offset="0.006" stop-color="#3643b4"/>
      <stop offset="0.163" stop-color="#4247ad"/>
      <stop offset="0.385" stop-color="#4949a9"/>
      <stop offset="1" stop-color="#4b4aa8"/>
    </linearGradient>
    <linearGradient id="linear-gradient-12" x1="0.434" y1="0.151" x2="0.582" y2="0.977" xlink:href="#linear-gradient-9"/>
    <linearGradient id="linear-gradient-13" y1="0.5" x2="1" y2="0.5" gradientUnits="objectBoundingBox">
      <stop offset="0.005" stop-color="#4246b0"/>
      <stop offset="1" stop-color="#3c457d"/>
    </linearGradient>
    <linearGradient id="linear-gradient-15" y1="0.5" x2="1" y2="0.5" gradientUnits="objectBoundingBox">
      <stop offset="0" stop-color="#a765e6"/>
      <stop offset="0.528" stop-color="#d7454e"/>
      <stop offset="0.718" stop-color="#dd4c53"/>
      <stop offset="0.854" stop-color="#e7585c"/>
      <stop offset="0.963" stop-color="#f66969"/>
      <stop offset="1" stop-color="#fd7170"/>
    </linearGradient>
    <linearGradient id="linear-gradient-16" x1="0.478" y1="0.151" x2="0.601" y2="0.976" xlink:href="#linear-gradient-9"/>
    <linearGradient id="linear-gradient-17" x1="0.505" y1="0.151" x2="0.66" y2="0.976" xlink:href="#linear-gradient-9"/>
    <linearGradient id="linear-gradient-18" x1="0" y1="0.5" x2="1" y2="0.5" xlink:href="#linear-gradient-8"/>
    <linearGradient id="linear-gradient-20" x1="-0.505" y1="1.689" x2="0.664" y2="0.418" gradientUnits="objectBoundingBox">
      <stop offset="0" stop-color="#a765e6"/>
      <stop offset="1" stop-color="#331d48"/>
    </linearGradient>
    <linearGradient id="linear-gradient-28" x1="-0.134" y1="1.129" x2="0.951" gradientUnits="objectBoundingBox">
      <stop offset="0" stop-color="#a765e6"/>
      <stop offset="1" stop-color="#543373"/>
    </linearGradient>
  </defs>
  <g id="Group_385" data-name="Group 385" transform="translate(0.014)">
    <path id="Path_308" data-name="Path 308" d="M-1.014,0,1920,0V161.058S449.36,945.8,447.081,945.284C166.232,1093.434-.978,838.649-.992,838.584S-1.014,0-1.014,0Z" transform="translate(1)" fill="#331d48"/>
    <g id="Group_341" data-name="Group 341" transform="translate(-70 17)">
      <g id="Group_115" data-name="Group 115" transform="translate(109.684 -11.249)">
        <g id="Group_340" data-name="Group 340" transform="translate(707.481 474.857)">
          <path id="Path_951" data-name="Path 951" d="M150.684,143.29c-6.439-4.017-6.025-15.8,1.254-27.324a46.528,46.528,0,0,1,5.685-7.28c-2.469-2.782-1.908-8.614,1.715-14.339,3.71-5.872,9.408-9.7,13.665-9.482,1.655-24.408,21.192-54.3,45.059-68.206,13.572-7.9,25.743-8.995,34.023-4.344.033.02,14.586,8.507,14.6,8.514,9.161-4.891,17.289-5.278,22.76-1.828.033.02,15.113,8.881,15.153,8.9,4.537,2.809,7.273,8.227,7.273,15.881,0,17.369-14.079,39.648-31.448,49.757l-99.24,57.791c-5.058,2.949-10.122,3.189-13.986,1.575a9.376,9.376,0,0,1-1.361-.707C165.8,152.171,150.724,143.31,150.684,143.29Z" transform="translate(-146.148 -9.559)" fill="#2b193c" stroke="#a765e6" stroke-width="1"/>
          <path id="Path_952" data-name="Path 952" d="M151.943,117.314a46.9,46.9,0,0,1,5.685-7.286c-2.469-2.776-1.908-8.608,1.715-14.332,3.71-5.878,9.408-9.7,13.665-9.482,1.655-24.415,21.192-54.3,45.06-68.206,20.611-12,37.987-8.314,43.418,7.386,1.208-.847,2.435-1.641,3.683-2.369,17.369-10.116,31.448-4.23,31.448,13.138S282.537,75.811,265.169,85.92l-99.24,57.791c-5.058,2.949-10.122,3.189-13.986,1.575C144.216,142.062,144.216,129.538,151.943,117.314Z" transform="translate(-130.892 -1.938)" stroke="#a765e6" stroke-width="1" fill="url(#linear-gradient)"/>
        </g>
        <g id="Group_20" data-name="Group 20" transform="translate(730.891 247.573)">
          <g id="Layer_11" data-name="Layer 11" transform="translate(612.578 210.085)">
            <path id="Path_200" data-name="Path 200" d="M612.5,274.718v-.233A.69.69,0,0,0,612.5,274.718Z" transform="translate(-612.492 -274.485)" fill="url(#linear-gradient-2)"/>
          </g>
          <g id="platform" transform="translate(300.554 232.913)">
            <path id="Path_206" data-name="Path 206" d="M446.272,356.233v103.56c0,1.2.8,2.407,2.388,3.326l218.6,126.21a12.734,12.734,0,0,0,11.524,0l218.6-126.21c1.59-.92,2.386-2.123,2.386-3.326V356.233Z" transform="translate(-446.272 -225.605)" fill="url(#linear-gradient-3)"/>
            <g id="Group_2" data-name="Group 2" transform="translate(-0.251 262.176)">
              <path id="Path_207" data-name="Path 207" d="M788.486,410.063,684.78,469.939a12.729,12.729,0,0,1-11.522,0L638.7,449.989c-3.182-1.836-3.182-4.815,0-6.653l103.7-59.876a12.745,12.745,0,0,1,11.524,0l34.553,19.951C791.668,405.248,791.668,408.227,788.486,410.063Z" transform="translate(-636.316 -370.107)" fill="#4d59a1" opacity="0.3"/>
              <path id="Path_208" data-name="Path 208" d="M782.356,397.035l-28.422-16.41a12.733,12.733,0,0,0-11.524,0l-97.944,56.55h-8.149v7.2a4.832,4.832,0,0,0,2.388,2.782L673.258,467.1a12.729,12.729,0,0,0,11.522,0l103.707-59.876a4.2,4.2,0,0,0,2.331-3c.054,0,.054-7.2.054-7.2Z" transform="translate(-636.317 -372.594)" fill="url(#linear-gradient-4)"/>
              <path id="Path_209" data-name="Path 209" d="M788.486,403.684,684.78,463.561a12.741,12.741,0,0,1-11.522,0L638.7,443.61c-3.182-1.838-3.182-4.815,0-6.653l103.7-59.876a12.733,12.733,0,0,1,11.524,0l34.553,19.951C791.668,398.868,791.668,401.847,788.486,403.684Z" transform="translate(-636.316 -375.703)" fill="url(#linear-gradient-5)"/>
              <path id="Path_210" data-name="Path 210" d="M674.589,463.551,640.035,443.6c-3.182-1.838-3.182-4.815,0-6.653l103.7-59.876a11.449,11.449,0,0,1,5.1-1.342,12.083,12.083,0,0,0-6.427,1.342L638.7,436.948c-3.182,1.838-3.182,4.815,0,6.653l34.553,19.951a12.075,12.075,0,0,0,6.428,1.34A11.44,11.44,0,0,1,674.589,463.551Z" transform="translate(-636.316 -375.693)" fill="#fff"/>
            </g>
            <path id="Path_211" data-name="Path 211" d="M897.377,420.887,678.779,547.1a12.733,12.733,0,0,1-11.524,0l-218.6-126.21c-3.182-1.838-3.182-4.815,0-6.653l218.6-126.21a12.733,12.733,0,0,1,11.524,0l218.6,126.21C900.558,416.072,900.558,419.049,897.377,420.887Z" transform="translate(-446.271 -286.646)" fill="url(#linear-gradient-5)"/>
            <path id="Path_212" data-name="Path 212" d="M700.749,300.709l-2.3-1.331-44.771,25.849L608.9,299.378l-2.305,1.331,44.771,25.849L607.583,351.84l-44.771-25.851-2.305,1.331,44.771,25.849L561.49,378.451,516.72,352.6l-2.3,1.331,44.771,25.849L515.4,405.061l-44.771-25.849-2.305,1.331,44.771,25.849-44.771,25.849,2.305,1.331L515.4,407.723l43.787,25.282-44.771,25.849,2.305,1.329,44.769-25.849,43.787,25.282-44.769,25.849,2.3,1.331,44.771-25.849,43.787,25.28L606.6,512.076l2.305,1.331,44.771-25.849,44.769,25.849,2.305-1.331-44.771-25.849,43.787-25.28L744.536,486.8l2.305-1.331-44.771-25.849,43.787-25.282,44.769,25.849,2.305-1.329-44.771-25.849,43.787-25.282,44.771,25.849,2.305-1.331-44.771-25.849,44.771-25.849-2.305-1.331-44.771,25.849-43.787-25.28,44.771-25.849-2.3-1.331-44.771,25.849-43.787-25.282,44.771-25.849-2.305-1.331L699.765,351.84l-43.787-25.282ZM697.46,459.616,653.675,484.9l-43.787-25.282,43.787-25.282Zm-46.09-26.611-43.787,25.28L563.8,433.005l43.787-25.282Zm-46.092-26.613L561.49,431.674,517.7,406.392l43.787-25.282Zm138.275,26.613-43.787,25.28-43.787-25.28,43.787-25.282ZM697.46,406.392l-43.785,25.282-43.787-25.282,43.787-25.282Zm-46.09-26.611-43.787,25.28L563.8,379.781,607.583,354.5Zm138.275,26.611-43.787,25.282-43.787-25.282,43.787-25.282Zm-46.092-26.611-43.787,25.28-43.787-25.28L699.765,354.5ZM697.46,353.169l-43.785,25.282-43.787-25.282,43.787-25.28Z" transform="translate(-426.928 -275.477)" fill="#e6e8ff"/>
            <path id="Path_213" data-name="Path 213" d="M668.586,547.088l-218.6-126.21c-3.184-1.838-3.184-4.815,0-6.653l218.6-126.21a11.446,11.446,0,0,1,5.1-1.342,12.083,12.083,0,0,0-6.428,1.342l-218.6,126.21c-3.182,1.838-3.182,4.815,0,6.653l218.6,126.21a12.065,12.065,0,0,0,6.428,1.34A11.421,11.421,0,0,1,668.586,547.088Z" transform="translate(-446.271 -286.636)" fill="#fff"/>
          </g>
          <g id="text" transform="translate(426.022 110.622)">
            <g id="Group_3" data-name="Group 3" transform="translate(99.692 30.863)">
              <path id="Path_214" data-name="Path 214" d="M573.466,310.456a7.252,7.252,0,0,1-6.367-10.711l11.211-20.656,12.652-36.28a7.251,7.251,0,1,1,13.694,4.776l-12.844,36.834a7.572,7.572,0,0,1-.473,1.072l-11.492,21.173A7.252,7.252,0,0,1,573.466,310.456Z" transform="translate(-566.218 -237.941)" fill="#343b94"/>
            </g>
            <path id="Path_215" data-name="Path 215" d="M578.549,277.34a4.072,4.072,0,0,1-.529,1.853,4.289,4.289,0,0,1-1.855,1.735,5.083,5.083,0,0,1-1.2.434,7.194,7.194,0,0,1-5.068-.867,7.035,7.035,0,0,1-3.431-4.334,4.51,4.51,0,0,1-.133-1.323,4.23,4.23,0,0,1,.542-2,4.338,4.338,0,0,1,1.962-1.781,5.421,5.421,0,0,1,1.29-.409,7.137,7.137,0,0,1,4.875.9,6.974,6.974,0,0,1,3.48,4.526A4.065,4.065,0,0,1,578.549,277.34Z" transform="translate(-466.434 -178.491)" fill="#fff"/>
            <path id="Path_216" data-name="Path 216" d="M653.932,377.033l-.458.265c-12.528,7.233-32.841,7.233-45.37,0l-37.39-21.588c-12.528-7.235-12.528-18.961,0-26.2l.458-.265c12.528-7.233,32.841-7.233,45.37,0l37.39,21.589C666.46,358.071,666.46,369.8,653.932,377.033Z" transform="translate(-470.824 -131.743)" fill="#4d59a1" opacity="0.3"/>
            <path id="Path_217" data-name="Path 217" d="M605.726,405.076l-.46.265c-12.528,7.235-32.839,7.235-45.368,0l-37.39-21.588c-12.53-7.233-12.53-18.96,0-26.194l.458-.265c12.528-7.233,32.839-7.233,45.368,0l37.392,21.588C618.254,386.114,618.254,397.843,605.726,405.076Z" transform="translate(-513.111 -107.143)" fill="#4d59a1" opacity="0.3"/>
            <path id="Path_218" data-name="Path 218" d="M596.372,329.571c2.7.55,3.471,3.629,4.017,5.915.285,1.2,1.821,5.753-.451,7.34-2.681,1.872-5.56.691-7.178.894s-6.987,3.086-11.113,3.839c-4.657.85-7.159-.129-7.527-1.768-.381-1.7.634-2.442,3.933-3.309,2.363-.621,6.852-4.073,8.436-5.453S591.84,328.651,596.372,329.571Z" transform="translate(-459.662 -126.775)" fill="url(#linear-gradient-5)"/>
            <path id="Path_219" data-name="Path 219" d="M596.371,329.214c2.7.55,3.471,3.627,4.017,5.913.285,1.2,1.821,5.754-.451,7.342-2.681,1.872-5.56.691-7.178.894s-6.987,3.086-11.113,3.839c-4.657.849-7.159-.13-7.527-1.768a1.781,1.781,0,0,1,.7-2.056c.633-.466,10.082-5.327,11.667-6.707S591.84,328.292,596.371,329.214Z" transform="translate(-459.661 -127.088)" fill="url(#linear-gradient-8)"/>
            <path id="Path_220" data-name="Path 220" d="M599.072,278.367l-5,59.912-.006-1.074,2.512,50.034c.214,3.736-13.232,4.257-13.732-.385l-4.025-48.5a5.867,5.867,0,0,1-.021-.77l.015-.3,2.865-60.053a8.717,8.717,0,0,1,17.415.83C599.087,278.147,599.079,278.275,599.072,278.367Z" transform="translate(-455.495 -179.901)" fill="url(#linear-gradient-9)"/>
            <path id="Path_221" data-name="Path 221" d="M599.909,332.008c3.03.041,3.749,4.575,3.816,7.24s1.644,6.5,1.109,10.338-3.187,11.336-7.683,12.525c-3.771,1-6.566-.792-6.932-1.836-1.031-2.936,1.909-7.937,2.912-9.823s.978-4.342,2.474-8.25C597.328,337.694,596.879,331.967,599.909,332.008Z" transform="translate(-445.662 -124.565)" fill="url(#linear-gradient-5)"/>
            <path id="Path_222" data-name="Path 222" d="M599.906,331.261c3.03.041,3.749,4.573,3.816,7.24s1.645,6.5,1.109,10.338-3.308,11.284-7.608,12.665c-4.021,1.292-6.369-.329-7.107-1.84-.668-1.372,1.881-7.466,3.011-9.96.88-1.945.978-4.342,2.474-8.25C597.325,336.945,596.876,331.22,599.906,331.261Z" transform="translate(-445.659 -125.22)" fill="url(#linear-gradient-8)"/>
            <path id="Path_223" data-name="Path 223" d="M609.459,280.226l-4.432,115.161c-.086,5.408-13.557,3.339-13.546-.293l.55-115.246a8.717,8.717,0,1,1,17.433.084C609.464,280.017,609.461,280.141,609.459,280.226Z" transform="translate(-444.366 -177.927)" fill="url(#linear-gradient-12)"/>
            <path id="Path_224" data-name="Path 224" d="M614.137,294.124c-2.025,4.8-10.749,5.7-19.483,2.009s-14.176-10.565-12.151-15.361,10.747-5.7,19.483-2.009S616.161,289.327,614.137,294.124Z" transform="translate(-452.613 -173.261)" fill="#3b44b3"/>
            <g id="Group_4" data-name="Group 4" transform="translate(94.311 92.039)">
              <path id="Path_225" data-name="Path 225" d="M581.156,277.34l-2.384,3.587-.445.674-4.383,6.563a5.775,5.775,0,1,1-9.619-6.394l4.13-6.213.481-.721,2.5-3.781a5.421,5.421,0,0,1,1.29-.409,7.136,7.136,0,0,1,4.875.9,6.974,6.974,0,0,1,3.48,4.526A4.068,4.068,0,0,1,581.156,277.34Z" transform="translate(-563.352 -270.531)" fill="#fbb2b1"/>
            </g>
            <path id="Path_226" data-name="Path 226" d="M614.133,324.6c-3.659.6-10.661-.623-17.627-4.2-8.26-4.246-16.172-8.954-16.256-11.282-.488-13.309-.741-64.164,1.894-68.859.616-1,1.624-2.022,4.4-2.022,2.883,0,6.677,1.046,11.072,2.256,1.464.4,2.981.82,4.543,1.222,11.978,3.069,19.718,8.171,19.718,13,0,6.337-1.53,26.125-2.8,42.008-.541,6.8-1.04,19.538-1.566,24.884C617.309,323.72,614.8,324.5,614.133,324.6Z" transform="translate(-454.491 -206.817)" fill="#a765e6"/>
            <path id="Path_227" data-name="Path 227" d="M614.672,289.384c-3.811.627-11.1-.648-18.348-4.374-7.227-3.717-14.178-7.764-16.27-10.4.03,1.156.06,2.183.092,3.045.084,2.328,8,7.036,16.256,11.282,6.966,3.58,13.968,4.8,17.627,4.2.666-.109,3.176-.884,3.383-3,.069-.7.137-1.522.2-2.44A5.2,5.2,0,0,1,614.672,289.384Z" transform="translate(-454.388 -174.914)" fill="#373c52"/>
            <rect id="Rectangle_397" data-name="Rectangle 397" width="12.847" height="34.292" rx="3.388" transform="translate(139.781 9.788)" fill="#e69998"/>
            <path id="Path_228" data-name="Path 228" d="M585.963,240.379s-1.616,7.439,5.179,9.42c7.5,2.189,12.134-4.152,12.134-4.152l-10.8-3.073Z" transform="translate(-449.354 -204.94)" fill="#efefef"/>
            <rect id="Rectangle_398" data-name="Rectangle 398" width="12.847" height="34.292" rx="3.388" transform="translate(43.374 56.979)" fill="#e69998"/>
            <path id="Path_229" data-name="Path 229" d="M588.341,241.5c-.61.426-.635,3.634-.128,5.463a2.093,2.093,0,0,0,3.253,1.085c1.894-1.554,3.5-5.166,2.979-5.712a9.5,9.5,0,0,0-3.176-.871A6.711,6.711,0,0,0,588.341,241.5Z" transform="translate(-447.545 -204.097)" fill="#373785"/>
            <path id="Path_230" data-name="Path 230" d="M592.9,244.892s-6.531,7.732-7.049,5.96c-1.673-5.72,3.786-13.653,3.786-13.653S589.886,243.587,592.9,244.892Z" transform="translate(-449.587 -207.729)" fill="#fff"/>
            <g id="Group_8" data-name="Group 8" transform="translate(144.556 124.924)">
              <g id="Group_5" data-name="Group 5" transform="translate(0 22.579)">
                <path id="Path_231" data-name="Path 231" d="M595.464,337.612l-5.346-3.086V300.077l5.346,3.086Z" transform="translate(-590.118 -300.077)" fill="#6b749e"/>
                <path id="Path_232" data-name="Path 232" d="M592.019,335.623l-.651-.376V300.8l.651.376Z" transform="translate(-589.021 -299.443)" fill="#2c3142"/>
              </g>
              <g id="Group_7" data-name="Group 7">
                <path id="Path_233" data-name="Path 233" d="M631.979,324.137,592.965,346.66V312.212l39.013-22.523Z" transform="translate(-587.62 -286.61)" fill="#373c52"/>
                <g id="Group_6" data-name="Group 6">
                  <path id="Path_234" data-name="Path 234" d="M595.464,313.66l-5.346-3.087,39.012-22.525,5.346,3.087Z" transform="translate(-590.118 -288.049)" fill="#515878"/>
                  <path id="Path_235" data-name="Path 235" d="M592.019,311.671l-.651-.376,39.012-22.525.651.376Z" transform="translate(-589.021 -287.415)" fill="#2c3142"/>
                </g>
                <path id="Path_236" data-name="Path 236" d="M613.912,294.326v-3.779c0-1.3-.91-1.821-2.033-1.173l-10.375,5.99a4.5,4.5,0,0,0-2.033,3.52v3.779l-1.539.89v1.6l18.128-10.465v-1.607Zm-13.05,3.756a1.422,1.422,0,0,1,.642-1.111l10.375-5.99c.353-.2.642-.038.642.37v3.779l-11.659,6.73Z" transform="translate(-583.263 -287.129)" fill="#373c52"/>
                <path id="Path_237" data-name="Path 237" d="M614.662,292.894l.544-.227,1.6.785-2.147,1.241Zm-1.391,2.6v-3.779c0-.407-.289-.573-.642-.37l-.762.441.12,2.882-10.375,5.99v1.566Zm-14.589,10.028v-1.605l1.539-.89V299.25a4.5,4.5,0,0,1,2.033-3.52l10.375-5.99a1.357,1.357,0,0,1,1.521-.073,10.431,10.431,0,0,0-1.588-.786,1.365,1.365,0,0,0-1.535.075l-10.375,5.99a4.5,4.5,0,0,0-2.033,3.52v3.779l-1.539.89v1.605Z" transform="translate(-584.012 -287.496)" fill="#5b6387"/>
              </g>
            </g>
            <path id="Path_238" data-name="Path 238" d="M598.785,238.393s-2.117,4.563-9.331,5.451c3.608,5.273,4.772,9.529,6.951,9.02C601.558,251.663,598.785,238.393,598.785,238.393Z" transform="translate(-446.144 -206.682)" fill="#fff"/>
            <g id="Group_9" data-name="Group 9" transform="translate(122.722 28.997)">
              <path id="Path_239" data-name="Path 239" d="M595.35,237.245c-1.068-.1-8-.381-8.922-.274a6.51,6.51,0,0,0-5.134,3.12c-3.546,5.737-2.823,71.243-2.577,75.495.244,4.214,7.653,8.429,10.358,8.323,1.6-.062,3.3-47.6,3.3-47.6Z" transform="translate(-578.487 -236.947)" fill="url(#linear-gradient-13)"/>
              <path id="Path_240" data-name="Path 240" d="M615.286,254.578c0-3.345-2.26-6.388-5.994-8.917-3.792-2.566-10.632-7.105-11.241-7.268a189.023,189.023,0,0,0-5.04,30.589c-1.582,18.053-4.008,54.787-1.894,58.378,2.033,3.456,20.773,3.713,20.889.261C612.061,326.008,615.286,264.715,615.286,254.578Z" transform="translate(-568.132 -235.679)" fill="url(#linear-gradient-13)"/>
            </g>
            <path id="Path_241" data-name="Path 241" d="M592.3,237.561l-3.707,55.591c-4.905-20.557-6.632-43.712-6.632-43.712l5.635-.571-4.072-4.216C585.739,241.9,592.3,237.561,592.3,237.561Z" transform="translate(-452.716 -207.412)" fill="#4d59a1"/>
            <g id="Group_10" data-name="Group 10" transform="translate(163.521 113.391)">
              <path id="Path_242" data-name="Path 242" d="M605.2,304.97l-.165,0a4.979,4.979,0,0,1-4.815-5.14l.424-13.1a4.98,4.98,0,1,1,9.955.323l-.424,13.1A4.979,4.979,0,0,1,605.2,304.97Z" transform="translate(-600.221 -281.905)" fill="#fbb2b1"/>
            </g>
            <g id="Group_11" data-name="Group 11" transform="translate(156.636 41.505)">
              <path id="Path_243" data-name="Path 243" d="M608.682,328.361c-.19,0-.379-.008-.573-.023a7.254,7.254,0,0,1-6.666-7.8c3.259-41.632-4.487-67.273-4.565-67.528a7.252,7.252,0,0,1,13.844-4.325c.355,1.136,8.674,28.315,5.183,72.985A7.255,7.255,0,0,1,608.682,328.361Z" transform="translate(-596.553 -243.61)" fill="#39449b"/>
            </g>
            <path id="Path_244" data-name="Path 244" d="M597.329,254.784l5.468,3.7s-11.462,34.856-12.066,36.924c.174-.685.445-15.571,3.045-38.022,1.1-9.538,3.812-17.7,3.876-19.262,0,0,5.675,7.764,6.275,14.638Z" transform="translate(-445.024 -206.919)" fill="#4d59a1"/>
            <path id="Path_245" data-name="Path 245" d="M590.049,284.187l-2.6-1.5a3.171,3.171,0,0,1-1.436-2.487c0-.948.642-1.32,1.436-.862l2.6,1.5a3.173,3.173,0,0,1,1.436,2.485C591.485,284.275,590.841,284.645,590.049,284.187Z" transform="translate(-449.162 -170.937)" fill="#fff"/>
            <g id="Group_12" data-name="Group 12" transform="translate(15.716 80.878)">
              <path id="Path_246" data-name="Path 246" d="M540.964,347.45a7.252,7.252,0,0,1-6.551-4.134l-12.222-25.624a7.242,7.242,0,0,1-.428-5.117l12.224-42.732a7.251,7.251,0,1,1,13.942,3.989l-11.468,40.095L547.5,337.073a7.257,7.257,0,0,1-6.538,10.377Z" transform="translate(-521.483 -264.585)" fill="#dbdef0"/>
            </g>
            <path id="Path_247" data-name="Path 247" d="M564.935,308.488l-41.994,24.246a1.143,1.143,0,0,1-1.714-.989v-33.22a2.767,2.767,0,0,1,1.383-2.4l41.182-23.776a1.143,1.143,0,0,1,1.714.989l0,34.159A1.138,1.138,0,0,1,564.935,308.488Z" transform="translate(-505.991 -177.031)" fill="#f1be95"/>
            <path id="Path_248" data-name="Path 248" d="M565.267,308.706l-41.994,24.246a1.143,1.143,0,0,1-1.714-.989V298.74a2.766,2.766,0,0,1,1.383-2.4l41.182-23.776a1.143,1.143,0,0,1,1.714.989v34.159A1.145,1.145,0,0,1,565.267,308.706Z" transform="translate(-505.7 -176.839)" fill="url(#linear-gradient-15)"/>
            <path id="Path_249" data-name="Path 249" d="M532.956,306.875l-5.909,3.411c-1.151.665-2.086.126-2.086-1.2V293.01a4.609,4.609,0,0,1,2.086-3.612l5.909-3.413c1.151-.665,2.084-.126,2.084,1.205l0,16.072A4.612,4.612,0,0,1,532.956,306.875Z" transform="translate(-502.716 -165.184)" fill="#eceff6"/>
            <path id="Path_250" data-name="Path 250" d="M561.981,327.156c-2.7,4.455-11.458,4.085-19.57-.826s-12.5-12.5-9.8-16.955,11.458-4.085,19.57.826S564.677,322.7,561.981,327.156Z" transform="translate(-496.705 -147.148)" fill="#4246b0"/>
            <path id="Path_251" data-name="Path 251" d="M531.411,365.038s-2.519,5.371-.233,7.319c2.589,2.206,5.376.879,7.173.391a34.409,34.409,0,0,1,7.231-1.464c2.042,0,8.614-.805,10.822-3.948s1.014-4.424-1.29-4.839c-2.7-.486-5.359.481-6.85.561s-4.368-1.65-9.27-1.564Z" transform="translate(-498.104 -98.703)" fill="#4949a8"/>
            <path id="Path_252" data-name="Path 252" d="M531.378,362.943c-.55,1.579-2.269,7.278.015,9.224,2.589,2.208,5.376.88,7.175.392A34.387,34.387,0,0,1,545.8,371.1c2.042,0,8.614-.805,10.822-3.948s1.014-4.425-1.29-4.839c-2.7-.486-12.41-.543-16.294-1.455C535.972,360.134,532.1,360.887,531.378,362.943Z" transform="translate(-498.086 -99.495)" fill="#331d48"/>
            <path id="Path_253" data-name="Path 253" d="M543.812,370.443s-2.442,6.416-.92,8.415,4.869,1.2,6.861,1.012,5.759-.606,7.922-.231,8.68.715,11.592-2.209,2.793-5.752-.146-5.988-5.511.165-7.105-.023-4.325-2.544-9.529-3.347Z" transform="translate(-487.425 -92.93)" fill="#4949a8"/>
            <path id="Path_254" data-name="Path 254" d="M543.91,370.223c-.773,1.338-2.442,6.416-.92,8.417s4.869,1.2,6.861,1.01,5.759-.6,7.922-.231,8.68.715,11.592-2.209,2.731-5.339-.146-5.986c-2.955-.666-12.076-2.664-16.634-3.371S545.38,367.681,543.91,370.223Z" transform="translate(-487.444 -93.374)" fill="#331d48"/>
            <path id="Path_255" data-name="Path 255" d="M558.056,304.92l5.827,65.39.022.238a6.932,6.932,0,0,1-.007,1.218l-5.883,58.277c-.573,4.839-13.929,6.2-13.681,2.564l4.235-62.148.015,1.455-7.865-65.178a8.717,8.717,0,0,1,17.31-2.087C558.037,304.727,558.048,304.843,558.056,304.92Z" transform="translate(-488.95 -155.294)" fill="url(#linear-gradient-16)"/>
            <path id="Path_256" data-name="Path 256" d="M546.234,302.808l-1.239,115.148c-.167,5.585-13.474,7.661-13.559,4.027L528.8,302.905a8.717,8.717,0,1,1,17.43-.385C546.234,302.6,546.236,302.725,546.234,302.808Z" transform="translate(-499.349 -157.908)" fill="url(#linear-gradient-17)"/>
            <path id="Path_257" data-name="Path 257" d="M540.8,246.19c3.916-1.2,12-.244,15.481,2.609,4.24,3.477,5.74,8.8,5.59,11.051s.572,2.932.993,3.364c.638.653.961,3.242.235,6.369-.657,2.833-1.453,5.408-2.362,6.144s-9.4,1.008-15.877-.648-12.487-6.551-13.189-12.913S533.658,248.381,540.8,246.19Z" transform="translate(-496.927 -200.287)" fill="#fbb2b1"/>
            <path id="Path_258" data-name="Path 258" d="M562.552,249.383c-.079-3.788-10.49-6.474-19.581-4.458-1.973.437-11.043,3.371-12.271,11.361-1.094,7.115,3.009,12.81,7.12,17.418,4.013,4.5,9.761,4.227,10.432.16.353-2.151.813-8.389,3.2-9.273s4.092,3.8,4.822,3.043c1.393-1.44-.133-3.878,1.7-6.688C560.185,257.553,562.67,255.035,562.552,249.383Z" transform="translate(-497.839 -201.556)" fill="#4748ad"/>
            <path id="Path_259" data-name="Path 259" d="M534.208,268.317a6.554,6.554,0,0,0,1.359-2.3c.272-1.113.253-1.971,1.2-2.6,1.213-.807,3.756-.779,6.863.437a22.333,22.333,0,0,1,8.481,5.761c1.218,1.414.8,5.061.773,5.78S534.208,268.317,534.208,268.317Z" transform="translate(-494.605 -185.212)" fill="#cfd6fd"/>
            <g id="Group_13" data-name="Group 13" transform="translate(65.521 110.034)">
              <path id="Path_260" data-name="Path 260" d="M554.3,281.4c-.034,0-6.005-.661-6.005-.661a.311.311,0,0,1-.274-.343.3.3,0,0,1,.342-.276l5.971.659Z" transform="translate(-548.015 -280.116)" fill="#d94152"/>
            </g>
            <path id="Path_261" data-name="Path 261" d="M527.409,343.82c-.109-8.293,1.68-21.548,1.569-34.679-.156-18.349-1.789-36.457,2.2-40.434,7.7-7.683,40.444,10.022,40.444,18.738,0,6.219,1.164,62.382,1.164,69.336,0,2.88-2.621,6.97-9.859,5.414C557.121,360.945,527.514,351.85,527.409,343.82Z" transform="translate(-500.573 -181.746)" fill="#b3b9e2"/>
            <path id="Path_262" data-name="Path 262" d="M527.41,344.377c-.1-7.8,1.042-19.99.892-32.935-.235-20.071-1.282-41.266,2.874-45.415,7.7-7.685,41.234,10.784,41.234,19.5,0,6.219.6,64.646.6,71.6,0,3.159-3.261,7.7-10.5,6.148C556.707,362.024,527.515,352.407,527.41,344.377Z" transform="translate(-500.573 -184.047)" fill="#e7eafd"/>
            <path id="Path_263" data-name="Path 263" d="M541.411,318.588l-6.843-2.766,5.85,38.126Z" transform="translate(-494.289 -138.763)" fill="#3c3d8f"/>
            <path id="Path_264" data-name="Path 264" d="M560.861,250.783a26.978,26.978,0,0,1-17.965,7.5c-6.643.045-9.816-1.68-12.375-5.14.109,5.919,3.7,10.784,7.3,14.817,4.013,4.5,9.761,4.227,10.432.16.353-2.151.813-8.389,3.2-9.273s4.092,3.8,4.822,3.043c1.393-1.44-.133-3.878,1.7-6.688,1-1.528,2.046-2.88,2.891-4.419Z" transform="translate(-497.838 -195.813)" fill="#373785"/>
            <path id="Path_265" data-name="Path 265" d="M541.272,255.242a3.19,3.19,0,1,1-.113,4.263A3.021,3.021,0,0,1,541.272,255.242Z" transform="translate(-489.227 -192.452)" fill="#fbb2b1"/>
            <path id="Path_266" data-name="Path 266" d="M591,288.129l-4.745-2.512,1.312,37.617Z" transform="translate(-448.954 -165.258)" fill="#3c3d8f"/>
            <path id="Path_267" data-name="Path 267" d="M589.312,223.445s-5.639,1.076-5.939,6.685a10.7,10.7,0,0,0,6.565,10.784C593.615,242.545,589.312,223.445,589.312,223.445Z" transform="translate(-451.495 -219.794)" fill="url(#linear-gradient-18)"/>
            <path id="Path_268" data-name="Path 268" d="M581.544,230.277l.191-.086a53.494,53.494,0,0,1,6.887-2.733,3.248,3.248,0,0,1,.636-.062,3.079,3.079,0,0,1,2.281.865c.1.25-.126.666-.218.807a.874.874,0,0,1-.706.43.76.76,0,0,1-.355-.09,4.127,4.127,0,0,1-.518-.344,1.674,1.674,0,0,0-1.014-.454,1.415,1.415,0,0,0-.287.032,4.355,4.355,0,0,0-1.483.788,6.661,6.661,0,0,1-1.008.627c-.571.267-2.718,1.094-3.948,1.566l-.409.156Z" transform="translate(-453.082 -216.328)" fill="#373c52"/>
            <path id="Path_269" data-name="Path 269" d="M594.062,226.714h-.128a6.36,6.36,0,0,0-6.36,6.36v13.732c.165-.259.267-.409.267-.409a15.421,15.421,0,0,0,1.5,5.969c3.874-.9,8.162-4.468,11.081-7.546V233.074A6.36,6.36,0,0,0,594.062,226.714Z" transform="translate(-447.793 -216.926)" fill="#e68281"/>
            <path id="Path_270" data-name="Path 270" d="M595.371,221.919c-3.764.627-8.965,3.527-10.157,6.435a11.883,11.883,0,0,0-1.136,5.7c.079,1.109.631,3.674.4,4.535a19.26,19.26,0,0,0-.68,4.939c.221,1.554,2.05,9.686,5.53,10.709,6.332,1.86,15.866-8.5,17.642-11.535s3.067-9.525,2.206-13.611C607.377,220.562,595.371,221.919,595.371,221.919Z" transform="translate(-451.13 -221.202)" fill="#fbb2b1"/>
            <path id="Path_271" data-name="Path 271" d="M609.719,230.026a9.884,9.884,0,0,0-4.426-6.386c-3.736-3.191-16.6-3.9-21.1,5.677-2.072,4.41,13.837,7.445,16.508,11.2S603.569,253,603.569,253,612.563,241.338,609.719,230.026Z" transform="translate(-450.924 -221.5)" fill="url(#linear-gradient-8)"/>
            <path id="Path_272" data-name="Path 272" d="M590.934,234.574l.191-.086a53.5,53.5,0,0,1,6.887-2.733,3.279,3.279,0,0,1,.638-.062,3.079,3.079,0,0,1,2.281.865c.1.25-.126.666-.22.805a.867.867,0,0,1-.7.432.773.773,0,0,1-.357-.09,4.13,4.13,0,0,1-.518-.344,1.674,1.674,0,0,0-1.014-.454,1.415,1.415,0,0,0-.287.032,4.363,4.363,0,0,0-1.481.788,6.852,6.852,0,0,1-1.008.627c-.573.267-2.72,1.094-3.95,1.566l-.407.156Z" transform="translate(-444.846 -212.559)" fill="#373c52"/>
            <path id="Path_273" data-name="Path 273" d="M593.886,239.82a6.519,6.519,0,0,1-2.378-3.424c-.349-1.117-.768-1.656-1.021-1.776a.249.249,0,0,0-.113-.028c-.235,0-.434.351-.535.939-.178,1.053-.713,1.586-1.59,1.586a2.237,2.237,0,0,1-.394-.034,6.784,6.784,0,0,1-4.235-2.645,5.908,5.908,0,0,1-.837-2.012,2.656,2.656,0,0,0-1.139-1.828l-.165-1.693.131.013a15.386,15.386,0,0,1,7.184,3.075,7.816,7.816,0,0,0,1.59,1l.116.053a4.637,4.637,0,0,0,1.517.407,9.249,9.249,0,0,1,2.816.809,20.66,20.66,0,0,1,4.445,2.716l.169,1.71-.144-.032a1.292,1.292,0,0,0-.261-.032c-.389,0-.43.289-.477.841a2.057,2.057,0,0,1-.527,1.453,1.274,1.274,0,0,1-.886.3A7.233,7.233,0,0,1,593.886,239.82Zm-2.144-4.907a6.069,6.069,0,0,0,2.878,4.794,5.224,5.224,0,0,0,2.363.929.969.969,0,0,0,.355-.058c.315-.12.477-.541.559-.871a4.124,4.124,0,0,0-.353-2.945,9.962,9.962,0,0,0-3.114-1.977,6.09,6.09,0,0,0-1.932-.526C592.005,234.26,591.765,234.468,591.742,234.913Zm-8.481-4.648c-.045.015-.084.083-.115.188a6.489,6.489,0,0,0,1.252,4.235,5.941,5.941,0,0,0,2.844,1.674,2.5,2.5,0,0,0,.7.109,1.285,1.285,0,0,0,1.062-.477,2.5,2.5,0,0,0,.3-2.074c-.33-1.455-2.192-2.4-3.118-2.876a7.474,7.474,0,0,0-2.647-.815A.857.857,0,0,0,583.261,230.265Z" transform="translate(-453.14 -215.005)" fill="#373c52"/>
            <path id="Path_274" data-name="Path 274" d="M598.295,231.815c1.278.92,1.213,3.2-.146,5.087s-3.5,2.677-4.776,1.757-1.213-3.2.147-5.085S597.016,230.9,598.295,231.815Z" transform="translate(-443.511 -212.788)" fill="#fbb2b1"/>
            <path id="Path_275" data-name="Path 275" d="M606.69,228.141c0,3.569-4.755,6.461-10.619,6.461s-10.619-2.893-10.619-6.461,4.753-6.461,10.619-6.461S606.69,224.573,606.69,228.141Z" transform="translate(-449.654 -221.342)" fill="#fff" opacity="0.1"/>
            <path id="Path_276" data-name="Path 276" d="M546.947,277.238V298.03a12.826,12.826,0,0,0,2.725,7.907l.531.68a3.956,3.956,0,0,1,.824,2.069l.982,10.507a3.95,3.95,0,0,0,3.6,3.57c.034,0-.161-41.557-.161-41.557Z" transform="translate(-483.43 -172.608)" fill="#cfd6fd"/>
            <g id="Group_14" data-name="Group 14" transform="translate(58.268 96.607)">
              <path id="Path_277" data-name="Path 277" d="M576.251,305.085a7.241,7.241,0,0,1-4.193-1.337l-24.848-17.615A7.252,7.252,0,1,1,555.6,274.3l18.7,13.257,6.125-9.392a7.251,7.251,0,1,1,12.147,7.922l-10.242,15.706a7.248,7.248,0,0,1-4.717,3.163A7.381,7.381,0,0,1,576.251,305.085Z" transform="translate(-544.151 -272.964)" fill="#e7eafd"/>
            </g>
          </g>
          <g id="ser" transform="translate(0 0)">
            <g id="Group_18" data-name="Group 18" transform="translate(601.15 9)">
              <path id="Path_284" data-name="Path 284" d="M596.541,232.982c28,.325,62.279-18.941,76.559-43.031s3.157-43.879-24.844-44.2-62.277,18.941-76.559,43.031S568.539,232.66,596.541,232.982Zm3.9-43.87c6.185-10.433,21.032-18.777,33.16-18.639s16.945,8.712,10.76,19.145S623.329,208.4,611.2,208.258,594.253,199.546,600.438,189.113Z" transform="translate(-565.472 -145.746)" stroke="#a765e6" stroke-width="1" fill="url(#linear-gradient-20)"/>
              <path id="Path_285" data-name="Path 285" d="M566.751,184.655c.163.33.282.687.462,1.008l-.542-.963Z" transform="translate(-564.421 -111.615)" stroke="#a765e6" stroke-width="1" fill="url(#linear-gradient-20)"/>
              <path id="Path_286" data-name="Path 286" d="M585.356,177.558c6.185-10.433,21.032-18.777,33.16-18.639,9.364.109,14.344,5.252,13.291,12.389a18.665,18.665,0,0,0-7.086-1.35c-12.128-.141-26.975,8.2-33.16,18.637a18.692,18.692,0,0,0-2.53,6.756C582.386,192.54,580.58,185.613,585.356,177.558Z" transform="translate(-550.389 -134.191)" stroke="#a765e6" stroke-width="1" fill="url(#linear-gradient-20)"/>
              <path id="Path_287" data-name="Path 287" d="M595.237,226.631c28,.325,62.279-18.941,76.559-43.031,7.028-11.853,7.877-22.65,3.617-30.613l5.776,10.276c.148.252.291.5.428.76l.475.847c3.681,7.912,2.684,18.342-4.091,29.77-14.281,24.088-48.559,43.354-76.561,43.031-13.285-.154-22.71-4.725-27.487-12.021l-.1.058-6.893-12.266C571.455,221.44,581.237,226.469,595.237,226.631Z" transform="translate(-564.168 -139.394)" stroke="#a765e6" stroke-width="1" fill="url(#linear-gradient-20)"/>
            </g>
            <g id="Group_23" data-name="Group 23" transform="translate(303.902 246.419)">
              <path id="Path_284-2" data-name="Path 284" d="M582.249,192.853c15.121.175,33.63-10.228,41.341-23.236s1.7-23.695-13.416-23.869-33.63,10.228-41.341,23.236S567.128,192.679,582.249,192.853Zm2.1-23.689c3.34-5.634,11.357-10.14,17.906-10.065s9.15,4.7,5.81,10.338-11.356,10.141-17.905,10.065S581.014,174.8,584.354,169.164Z" transform="translate(-565.472 -145.746)" stroke="#a765e6" stroke-width="1" fill="url(#linear-gradient-20)"/>
              <path id="Path_285-2" data-name="Path 285" d="M566.714,184.655c.088.178.152.371.249.544l-.293-.52Z" transform="translate(-565.456 -145.214)" stroke="#a765e6" stroke-width="1" fill="url(#linear-gradient-20)"/>
              <path id="Path_286-2" data-name="Path 286" d="M584.119,168.984c3.34-5.634,11.357-10.14,17.906-10.065,5.056.059,7.746,2.836,7.177,6.69a10.078,10.078,0,0,0-3.827-.729c-6.549-.076-14.566,4.43-17.907,10.064a10.092,10.092,0,0,0-1.366,3.648C582.515,177.074,581.54,173.333,584.119,168.984Z" transform="translate(-565.237 -145.566)" stroke="#a765e6" stroke-width="1" fill="url(#linear-gradient-20)"/>
              <path id="Path_287-2" data-name="Path 287" d="M582.229,192.754c15.121.175,33.63-10.228,41.341-23.236,3.8-6.4,4.253-12.231,1.953-16.531l3.119,5.549c.08.136.157.272.231.411l.256.457c1.988,4.273,1.45,9.9-2.209,16.076-7.712,13.007-26.222,23.411-41.342,23.236-7.174-.083-12.263-2.551-14.843-6.492l-.055.031-3.722-6.623C569.387,189.951,574.669,192.667,582.229,192.754Z" transform="translate(-565.452 -145.647)" stroke="#a765e6" stroke-width="1" fill="url(#linear-gradient-20)"/>
            </g>
            <g id="Group_19" data-name="Group 19" transform="translate(0 398.875)">
              <rect id="Rectangle_403" data-name="Rectangle 403" width="4.46" height="3.471" transform="translate(249.091 67.284)" fill="#d4d9ff"/>
              <rect id="Rectangle_404" data-name="Rectangle 404" width="4.201" height="4.018" transform="translate(120.395 21.787)" fill="#d4d9ff"/>
              <rect id="Rectangle_405" data-name="Rectangle 405" width="4.198" height="4.729" transform="translate(11.752 16.043)" fill="#d4d9ff"/>
              <rect id="Rectangle_406" data-name="Rectangle 406" width="4.505" height="3.554" transform="translate(11.778 85.688)" fill="#d4d9ff"/>
              <rect id="Rectangle_407" data-name="Rectangle 407" width="3.69" height="3.63" transform="translate(140.724 130.819)" fill="#d4d9ff"/>
              <rect id="Rectangle_408" data-name="Rectangle 408" width="6.09" height="3.709" transform="translate(206.816 130.945)" fill="#d4d9ff"/>
              <path id="Path_304" data-name="Path 304" d="M405.067,411.034a24.318,24.318,0,0,1,11.834-2.912l.407,0a28.475,28.475,0,0,1,3,.176,3.053,3.053,0,0,0,.888-.021,6.263,6.263,0,0,0,1.922-.685c2.018-1.166,2.837-3.733.943-4.874.083.039-35.59-19.336-35.59-19.336L353.6,403.516a7.921,7.921,0,0,1-6.987-.088,3.294,3.294,0,0,1-1.258-1.151.611.611,0,0,1-.036-.514,5.837,5.837,0,0,0,.3-1.731l0-.235c-.06-2.482-1.735-4.952-5.042-6.833-6.335-3.6-16.735-3.726-23.305-.263-7.182,3.786-7.372,10.223-.571,14.15a24.376,24.376,0,0,0,11.745,2.859l.584,0q.983-.011,1.958-.085a6.514,6.514,0,0,1,2.465.229,5.63,5.63,0,0,1,1.07.471c1.994,1.151,2.027,2.927.2,4.07.051-.026.109-.047.16-.075L300.018,430.9v3.553l34.871,20.133c1.81,1.1,1.793,2.912-.152,4.034a6.324,6.324,0,0,1-1.994.726,2.938,2.938,0,0,1-.89.021,28.938,28.938,0,0,0-3-.175l-.407,0a24.287,24.287,0,0,0-11.834,2.911c-6.244,3.659-6.456,9.662-.456,13.456,6.561,4.147,17.707,4.256,24.51.329,3.248-1.875,4.892-4.323,4.952-6.78l-.006-.338a6.108,6.108,0,0,0-.145-1.13,1.473,1.473,0,0,1,.4-1.423,3.768,3.768,0,0,1,.815-.618,7.936,7.936,0,0,1,7.051-.118c-.047-.03-.081-.064-.131-.092l34.871,20.133,34.87-20.133c-.049.028-.109.047-.16.075,1.825-1.143,1.791-2.919-.131-4.028a5.873,5.873,0,0,0-1.141-.512,6.517,6.517,0,0,0-2.465-.229c-.651.049-1.3.075-1.96.083l-.584,0a24.364,24.364,0,0,1-11.744-2.859c-6.8-3.927-6.613-10.364.571-14.152,6.568-3.463,16.968-3.341,23.3.265,3.308,1.881,4.982,4.351,5.042,6.831l0,.235a5.791,5.791,0,0,1-.3,1.733.606.606,0,0,0,.036.512,3.176,3.176,0,0,0,1.186,1.109,7.925,7.925,0,0,0,7.128.083c-.068.047,34.8-20.086,34.8-20.086l-34.87-20.133c.049.028.083.064.131.092a7.913,7.913,0,0,0-6.979.077,4.059,4.059,0,0,0-.888.659,1.474,1.474,0,0,0-.4,1.423,5.96,5.96,0,0,1,.145,1.132l.006.336c-.06,2.457-1.7,4.905-4.952,6.78-6.8,3.929-17.95,3.818-24.51-.328C398.613,420.7,398.823,414.692,405.067,411.034Z" transform="translate(-300.018 -379.829)" fill="#331d48" stroke="#a765e6" stroke-width="1"/>
              <path id="Path_305" data-name="Path 305" d="M418.982,485.067a24.313,24.313,0,0,1-11.834,2.911l-.407,0a28.431,28.431,0,0,1-3-.176,3.064,3.064,0,0,0-.89.021,6.263,6.263,0,0,0-1.922.685c-2.016,1.166-2.033,2.974-.141,4.115-.083-.039,34.788,20.093,34.788,20.093l34.871-20.133c-.051.03-.109.049-.162.077,1.825-1.143,1.791-2.921-.131-4.03a5.937,5.937,0,0,0-1.141-.513,6.557,6.557,0,0,0-2.465-.229c-.649.051-1.3.077-1.96.084l-.582,0a24.4,24.4,0,0,1-11.746-2.859c-6.8-3.929-6.611-10.364.571-14.152,6.568-3.463,16.968-3.341,23.305.263,3.308,1.883,4.982,4.353,5.042,6.833l0,.235a5.774,5.774,0,0,1-.3,1.731.6.6,0,0,0,.036.514,3.163,3.163,0,0,0,1.186,1.109,7.919,7.919,0,0,0,7.128.081c-.069.049,34.8-20.084,34.8-20.084V458.1l-34.87-16.579c-1.81-1.1-1.793-2.911.152-4.034a6.342,6.342,0,0,1,1.994-.727,2.94,2.94,0,0,1,.89-.021,28.957,28.957,0,0,0,3,.175l.405,0A24.288,24.288,0,0,0,507.435,434c6.244-3.659,6.456-9.662.456-13.456-6.559-4.147-17.707-4.256-24.51-.328-3.247,1.875-4.892,4.323-4.952,6.78l.006.338a6.107,6.107,0,0,0,.145,1.13,1.465,1.465,0,0,1-.4,1.423,3.72,3.72,0,0,1-.815.617,7.93,7.93,0,0,1-7.051.118c.047.03.081.064.131.092l-34.871-20.133-34.871,20.133a7.914,7.914,0,0,1-6.987-.086,3.3,3.3,0,0,1-1.26-1.153.607.607,0,0,1-.036-.513,5.791,5.791,0,0,0,.3-1.733l0-.235c-.06-2.48-1.734-4.95-5.042-6.831-6.335-3.606-16.735-3.728-23.3-.265-7.184,3.788-7.374,10.225-.571,14.152a24.37,24.37,0,0,0,11.744,2.859l.584,0c.655-.007,1.308-.034,1.96-.083a6.517,6.517,0,0,1,2.465.229,5.516,5.516,0,0,1,1.07.471c1.994,1.151,2.027,2.927.2,4.07.051-.028.111-.047.16-.075L347.124,461.65l34.871,20.133c-.049-.028-.083-.062-.129-.092a7.909,7.909,0,0,0,6.977-.077,3.952,3.952,0,0,0,.888-.659,1.474,1.474,0,0,0,.4-1.423,6.107,6.107,0,0,1-.145-1.132l-.006-.336c.06-2.457,1.7-4.905,4.952-6.78,6.8-3.929,17.95-3.818,24.51.329C425.438,475.4,425.226,481.409,418.982,485.067Z" transform="translate(-258.698 -355.972)" fill="#cfd6fd"/>
              <path id="Path_306" data-name="Path 306" d="M418.982,483.174a24.293,24.293,0,0,1-11.834,2.912l-.407,0a28.938,28.938,0,0,1-3-.175,2.942,2.942,0,0,0-.89.021,6.261,6.261,0,0,0-1.922.683c-2.016,1.166-2.033,2.975-.141,4.117-.083-.039,34.788,20.093,34.788,20.093l34.871-20.133c-.051.028-.109.047-.162.075,1.825-1.143,1.791-2.919-.131-4.028a5.715,5.715,0,0,0-1.141-.512A6.481,6.481,0,0,0,466.55,486c-.649.049-1.3.075-1.96.083l-.582,0a24.376,24.376,0,0,1-11.746-2.859c-6.8-3.929-6.611-10.364.571-14.152,6.568-3.463,16.968-3.341,23.305.263,3.308,1.883,4.982,4.353,5.042,6.833l0,.235a5.786,5.786,0,0,1-.3,1.733.6.6,0,0,0,.036.512,3.163,3.163,0,0,0,1.186,1.109,7.925,7.925,0,0,0,7.128.083c-.069.047,34.8-20.086,34.8-20.086l-34.87-20.133c-1.81-1.1-1.793-2.911.152-4.034a6.389,6.389,0,0,1,1.994-.726,3,3,0,0,1,.89-.021,28.974,28.974,0,0,0,3,.175l.405,0a24.286,24.286,0,0,0,11.834-2.91c6.244-3.659,6.456-9.664.456-13.456-6.559-4.149-17.707-4.257-24.51-.33-3.247,1.875-4.892,4.323-4.952,6.782l.006.336a6.085,6.085,0,0,0,.145,1.13,1.469,1.469,0,0,1-.4,1.425,3.843,3.843,0,0,1-.815.618,7.936,7.936,0,0,1-7.051.116c.047.03.081.064.131.094l-34.871-20.135-34.871,20.135a7.921,7.921,0,0,1-6.987-.088,3.3,3.3,0,0,1-1.26-1.151.611.611,0,0,1-.036-.514,5.789,5.789,0,0,0,.3-1.731l0-.235c-.06-2.482-1.734-4.952-5.042-6.833-6.335-3.606-16.735-3.726-23.3-.263-7.184,3.786-7.374,10.223-.571,14.15a24.369,24.369,0,0,0,11.744,2.859l.584,0q.983-.011,1.96-.085a6.519,6.519,0,0,1,2.465.229,5.633,5.633,0,0,1,1.07.471c1.994,1.151,2.027,2.926.2,4.07.051-.026.111-.047.16-.075l-34.871,20.133,34.871,20.133c-.049-.028-.083-.062-.129-.092a7.909,7.909,0,0,0,6.977-.075,4.011,4.011,0,0,0,.888-.661,1.473,1.473,0,0,0,.4-1.423,6.109,6.109,0,0,1-.145-1.13l-.006-.338c.06-2.457,1.7-4.905,4.952-6.78,6.8-3.927,17.95-3.818,24.51.329C425.438,473.513,425.226,479.516,418.982,483.174Z" transform="translate(-258.698 -357.632)" fill="#e7e9ff"/>
              <path id="Path_307" data-name="Path 307" d="M405.067,409.14a24.3,24.3,0,0,1,11.834-2.91l.407,0a28.992,28.992,0,0,1,3,.174,2.988,2.988,0,0,0,.888-.021,6.264,6.264,0,0,0,1.922-.685c2.018-1.166,2.035-2.973.141-4.115.083.039-34.788-20.093-34.788-20.093L353.6,401.622a7.915,7.915,0,0,1-6.987-.088,3.28,3.28,0,0,1-1.258-1.151.611.611,0,0,1-.036-.514,5.837,5.837,0,0,0,.3-1.731l0-.235c-.06-2.48-1.735-4.95-5.042-6.833-6.335-3.6-16.735-3.726-23.305-.263-7.182,3.786-7.372,10.223-.571,14.152a24.4,24.4,0,0,0,11.745,2.859l.584,0c.655-.007,1.308-.034,1.958-.084a6.552,6.552,0,0,1,2.465.229,5.75,5.75,0,0,1,1.07.471c1.994,1.151,2.027,2.928.2,4.072.051-.028.109-.047.16-.077l-34.871,20.133,34.871,20.135c1.81,1.1,1.793,2.91-.152,4.032a6.328,6.328,0,0,1-1.994.728,3.066,3.066,0,0,1-.89.021,28.431,28.431,0,0,0-3-.176l-.407,0a24.308,24.308,0,0,0-11.834,2.912c-6.244,3.659-6.456,9.664-.456,13.456,6.561,4.147,17.707,4.257,24.51.329,3.248-1.875,4.892-4.323,4.952-6.78l-.006-.336a6.108,6.108,0,0,0-.145-1.132,1.474,1.474,0,0,1,.4-1.423,3.767,3.767,0,0,1,.815-.618,7.936,7.936,0,0,1,7.051-.118c-.047-.028-.081-.064-.131-.092l34.871,20.133,34.87-20.133c-.049.028-.109.049-.16.075,1.825-1.143,1.791-2.919-.131-4.028a5.875,5.875,0,0,0-1.141-.513,6.518,6.518,0,0,0-2.465-.229q-.977.073-1.96.084l-.584,0a24.363,24.363,0,0,1-11.744-2.859c-6.8-3.927-6.613-10.364.571-14.15,6.568-3.463,16.968-3.343,23.3.263,3.308,1.881,4.982,4.351,5.042,6.833l0,.235a5.789,5.789,0,0,1-.3,1.731.611.611,0,0,0,.036.514,3.192,3.192,0,0,0,1.186,1.109,7.931,7.931,0,0,0,7.128.081c-.068.049,34.8-20.086,34.8-20.086l-34.87-20.133c.049.03.083.064.131.094a7.913,7.913,0,0,0-6.979.075,4.118,4.118,0,0,0-.888.659,1.475,1.475,0,0,0-.4,1.423,5.959,5.959,0,0,1,.145,1.132l.006.336c-.06,2.459-1.7,4.907-4.952,6.782-6.8,3.927-17.95,3.816-24.51-.33C398.613,418.8,398.823,412.8,405.067,409.14Z" transform="translate(-300.018 -381.489)" stroke="#a765e6" stroke-width="1" fill="url(#linear-gradient-28)"/>
            </g>
          </g>
        </g>
      </g>
    </g>
  </g>
</svg>
