<svg xmlns="http://www.w3.org/2000/svg" width="73" height="72.997" viewBox="0 0 73 72.997">
  <g id="cloud" transform="translate(0.002 -0.008)">
    <path id="Path_3037" data-name="Path 3037" d="M170.758,221.628a14.509,14.509,0,1,0-5.123,5.123l1.184,1.184a3.622,3.622,0,1,0,5.123-5.123Zm-12.476,4.721a12.149,12.149,0,1,1,10.687-6.51l-1.3-1.3a3.622,3.622,0,1,0-5.123,5.123l1.3,1.3A12.018,12.018,0,0,1,158.282,226.348Zm11.953-.121a1.209,1.209,0,0,1-1.708,0l-4.268-4.268a1.208,1.208,0,1,1,1.707-1.708l4.269,4.269A1.208,1.208,0,0,1,170.235,226.227Zm0,0" transform="translate(-121.782 -169.207)" fill="#a765e6"/>
    <path id="Path_3038" data-name="Path 3038" d="M147.531,144.008H115.69a3.653,3.653,0,0,0-3.674,3.622V191.1a3.652,3.652,0,0,0,3.674,3.622h31.841a3.652,3.652,0,0,0,3.674-3.622V147.63A3.652,3.652,0,0,0,147.531,144.008Zm1.225,47.09a1.216,1.216,0,0,1-1.225,1.207H115.69a1.217,1.217,0,0,1-1.225-1.207V147.63a1.218,1.218,0,0,1,1.225-1.207h31.841a1.217,1.217,0,0,1,1.225,1.207Zm0,0" transform="translate(-95.111 -121.715)" fill="#a765e6"/>
    <path id="Path_3039" data-name="Path 3039" d="M219.638,272.008a3.622,3.622,0,1,0,3.622,3.622A3.622,3.622,0,0,0,219.638,272.008Zm0,4.83a1.207,1.207,0,1,1,1.207-1.207A1.207,1.207,0,0,1,219.638,276.837Zm0,0" transform="translate(-183.139 -230.6)" fill="#a765e6"/>
    <path id="Path_3040" data-name="Path 3040" d="M148.845,178.423a2.415,2.415,0,1,1-2.415-2.415A2.415,2.415,0,0,1,148.845,178.423Zm0,0" transform="translate(-122.104 -149.22)" fill="#a765e6"/>
    <path id="Path_3041" data-name="Path 3041" d="M308.845,178.423a2.415,2.415,0,1,1-2.415-2.415A2.415,2.415,0,0,1,308.845,178.423Zm0,0" transform="translate(-257.759 -149.22)" fill="#a765e6"/>
    <path id="Path_3042" data-name="Path 3042" d="M148.845,418.423a2.415,2.415,0,1,1-2.415-2.415A2.415,2.415,0,0,1,148.845,418.423Zm0,0" transform="translate(-122.104 -352.662)" fill="#a765e6"/>
    <path id="Path_3043" data-name="Path 3043" d="M308.845,418.423a2.415,2.415,0,1,1-2.415-2.415A2.415,2.415,0,0,1,308.845,418.423Zm0,0" transform="translate(-257.759 -352.662)" fill="#a765e6"/>
    <path id="Path_3044" data-name="Path 3044" d="M63.2,23.008A9.721,9.721,0,0,0,53.532,14.5H47.4a15.826,15.826,0,0,0-31.539,0H14.6A14.868,14.868,0,0,0,0,29.59c0,7.4,6.822,13.885,14.6,13.885V41.06C8.119,41.06,2.434,35.7,2.434,29.59A12.444,12.444,0,0,1,14.6,16.912h3.65V15.7a13.383,13.383,0,0,1,26.766,0v1.207h8.516a7.28,7.28,0,0,1,7.3,7.245v1.207h1.217a8.495,8.495,0,0,1,8.516,8.452c0,4.062-3.741,7.245-8.516,7.245H58.4v2.415h3.65c6.14,0,10.95-4.242,10.95-9.659A10.913,10.913,0,0,0,63.2,23.008Zm0,0" transform="translate(0)" fill="#a765e6"/>
  </g>
</svg>
