<svg xmlns="http://www.w3.org/2000/svg" width="74.001" height="73.947" viewBox="0 0 74.001 73.947">
  <path id="Path_3011" data-name="Path 3011" d="M10.228,69.581H1.106A1.106,1.106,0,0,1,0,68.476v-19.9a1.1,1.1,0,0,1,1.106-1.105h9.3c1.58,0,3,.019,4.341.047V12.9a1.1,1.1,0,0,1,.324-.781l11.8-11.8A1.11,1.11,0,0,1,27.651,0H65.994A1.106,1.106,0,0,1,67.1,1.107V50.153c.02.014.041.02.061.033A3.207,3.207,0,0,1,68.542,53.7a3.193,3.193,0,0,1,3.082.414A3.418,3.418,0,0,1,73,56.948c-.1,2.19-2.434,3.859-2.7,4.042C58.415,70.411,44.636,72.945,33.26,72.947A79.67,79.67,0,0,1,10.228,69.581Zm1.283-1.916c5.057,1.536,34.854,9.476,57.474-8.452.494-.349,1.761-1.436,1.8-2.372.009-.223-.041-.575-.589-1.034-.473-.4-2.617.507-4.883,1.471a82.3,82.3,0,0,1-17.385,5.531l-.012,0a22.707,22.707,0,0,1-7.688,1.036,78.153,78.153,0,0,1-9.88-.738,1.106,1.106,0,1,1,.284-2.193c9.977,1.29,14.54.6,16.607-.205.009,0,.016,0,.025,0s.026-.016.04-.021c1.955-.784,2.015-1.772,2.035-2.1a3.72,3.72,0,0,0-.8-2.952,3.066,3.066,0,0,0-2.087-.788h-.014c-10.851.176-12.81-.973-15.091-2.31-2.222-1.305-4.735-2.778-19.839-2.847Zm-9.3-.3H9.3V49.685H2.211ZM60.483,53.676a74.186,74.186,0,0,1-9.009,3.34,8.287,8.287,0,0,1,.079,1.7,3.979,3.979,0,0,1-.209,1.058,82.7,82.7,0,0,0,13.107-4.537c.264-.112.5-.211.745-.315a3.285,3.285,0,0,0,1.237-2.045c0-.119-.018-.481-.617-.939a.528.528,0,0,0-.273-.056C64.646,51.887,62.271,52.907,60.483,53.676Zm-10.375.4a4.571,4.571,0,0,1,.657.847,71.417,71.417,0,0,0,8.847-3.276,24.916,24.916,0,0,1,5.278-1.884V2.211H28.757V12.9a1.106,1.106,0,0,1-1.106,1.106H16.959V47.582c10.948.391,13.368,1.787,15.511,3.045,1.992,1.169,3.706,2.177,13.888,2.011.006,0,.045,0,.113,0A5.314,5.314,0,0,1,50.108,54.071ZM18.524,11.8h8.022V3.776ZM4.684,53.318A1.114,1.114,0,1,1,5.8,54.431,1.114,1.114,0,0,1,4.684,53.318ZM26.468,31.632A14.48,14.48,0,0,1,50.079,20.391a1.114,1.114,0,1,1-1.406,1.728,12.251,12.251,0,1,0,4.245,12.143,1.114,1.114,0,0,1,2.177.476,14.482,14.482,0,0,1-28.627-3.106Zm14.13,7.94-7.427-7.427a1.114,1.114,0,0,1,1.576-1.574l6.638,6.638,15.549-15.55a1.114,1.114,0,1,1,1.574,1.576L42.172,39.572a1.114,1.114,0,0,1-1.574,0Z" transform="translate(0.5 0.5)" fill="#a765e6" stroke="#a765e6" stroke-width="1"/>
</svg>
