<svg xmlns="http://www.w3.org/2000/svg" width="710" height="762.98" viewBox="0 0 710 762.98">
  <g id="Group_975" data-name="Group 975" transform="translate(4086 -1245)">
    <g id="Group_864" data-name="Group 864" transform="translate(-1909 -10913)">
      <rect id="Rectangle_509" data-name="Rectangle 509" width="710" height="762.98" transform="translate(-2177 12158)" fill="none"/>
    </g>
    <g id="Group_971" data-name="Group 971" transform="translate(-4003.472 1361.328)">
      <g id="Group_962" data-name="Group 962" transform="translate(20.445 17.814)">
        <g id="Group_961" data-name="Group 961" style="mix-blend-mode: screen;isolation: isolate">
          <path id="Path_3153" data-name="Path 3153" d="M82.246,26.523V283.166a409.862,409.862,0,0,0-60.729,48.813V75.336A409.863,409.863,0,0,1,82.246,26.523m1.238-2.092A409.551,409.551,0,0,0,20.445,75.109V334.35a409.5,409.5,0,0,1,63.039-50.67V24.431Z" transform="translate(-20.445 33.248)" fill="#fff" opacity="0.4"/>
          <g id="Group_908" data-name="Group 908" transform="translate(74.745)">
            <path id="Path_3154" data-name="Path 3154" d="M167.2,19.633V141.491A387.733,387.733,0,0,0,30.275,188.229V66.371A387.56,387.56,0,0,1,167.2,19.633m1.4-1.491A386.688,386.688,0,0,0,29.02,65.8V190.269A386.673,386.673,0,0,1,168.6,142.615V18.142Z" transform="translate(-29.02 -15.282)" fill="#fff" opacity="0.4"/>
            <path id="Path_3155" data-name="Path 3155" d="M190.927,37.235V159.1A390.386,390.386,0,0,0,48.672,141.739V19.872A390.385,390.385,0,0,1,190.927,37.235m1.36-.854a389.293,389.293,0,0,0-145.018-17.7V143.142a389.653,389.653,0,0,1,145.018,17.7V36.381Z" transform="translate(111.8 -17.814)" fill="#fff" opacity="0.4"/>
            <path id="Path_3156" data-name="Path 3156" d="M191.693,104.011V225.869A387.133,387.133,0,0,0,67.377,144.412V22.545a387.013,387.013,0,0,1,124.316,81.465m1.081-.227A387.2,387.2,0,0,0,66.043,20.715V145.188a387.172,387.172,0,0,1,126.731,83.061V103.784Z" transform="translate(256.672 4.573)" fill="#fff" opacity="0.4"/>
          </g>
          <g id="Group_909" data-name="Group 909" transform="translate(74.745 135.12)">
            <path id="Path_3157" data-name="Path 3157" d="M167.2,35.134v119.13A387.733,387.733,0,0,0,30.275,201V81.872A387.733,387.733,0,0,1,167.2,35.134m1.4-1.491A386.853,386.853,0,0,0,29.02,81.305V203.042A386.673,386.673,0,0,1,168.6,155.388V33.643Z" transform="translate(-29.02 -30.787)" fill="#fff" opacity="0.4"/>
            <path id="Path_3158" data-name="Path 3158" d="M190.927,52.733V171.872A390.385,390.385,0,0,0,48.672,154.508V35.369A390.572,390.572,0,0,1,190.927,52.733m1.36-.854a389.652,389.652,0,0,0-145.018-17.7V155.911a389.653,389.653,0,0,1,145.018,17.7V51.879Z" transform="translate(111.8 -33.315)" fill="#fff" opacity="0.4"/>
            <path id="Path_3159" data-name="Path 3159" d="M191.693,119.5v119.13A387.132,387.132,0,0,0,67.377,157.177V38.039A387.157,387.157,0,0,1,191.693,119.5m1.081-.227A387.172,387.172,0,0,0,66.043,36.217V157.953a387.171,387.171,0,0,1,126.731,83.061V119.278Z" transform="translate(256.672 -10.924)" fill="#fff" opacity="0.4"/>
          </g>
          <path id="Path_3160" data-name="Path 3160" d="M60.111,38.94c-.462,13.607-9.37,28.983-19.647,36.5-6.982,5.108-19.133,8.821-18.845-5.282.288-13.938,8.856-29.07,18.845-37.97C48.047,25.42,60.538,26.51,60.111,38.94Z" transform="translate(-11.429 61.25)" fill="#e6e7e8"/>
          <g id="Group_910" data-name="Group 910" transform="translate(82.904 134.245)">
            <path id="Path_3161" data-name="Path 3161" d="M66.025,36.763C53.709,42.054,41.75,47.842,29.956,54.2V50.657C41.75,44.294,53.709,38.506,66.025,33.215Z" transform="translate(-29.956 -33.215)" fill="#bcbec0"/>
            <path id="Path_3162" data-name="Path 3162" d="M56.594,38.015c-9.065,4.062-17.939,8.568-26.638,13.345V47.812c8.7-4.777,17.573-9.283,26.638-13.345Z" transform="translate(-29.956 -23.554)" fill="#bcbec0"/>
          </g>
          <g id="Group_911" data-name="Group 911" transform="translate(242.731 105.699)">
            <path id="Path_3163" data-name="Path 3163" d="M87.525,33.923c-13.11-.567-26.124-.575-39.233-.026V30.349c13.11-.558,26.124-.54,39.233.026Z" transform="translate(-48.292 -29.94)" fill="#bcbec0"/>
            <path id="Path_3164" data-name="Path 3164" d="M77.423,34.392c-9.7-.279-19.429-.1-29.131.375V31.219c9.7-.479,19.429-.654,29.131-.375Z" transform="translate(-48.292 -23.994)" fill="#bcbec0"/>
          </g>
          <g id="Group_912" data-name="Group 912" transform="translate(405.697 134.446)">
            <path id="Path_3165" data-name="Path 3165" d="M103.04,54.28C91.246,47.9,79.3,42.094,66.988,36.786V33.238C79.3,38.546,91.246,44.352,103.04,50.732Z" transform="translate(-66.988 -33.238)" fill="#bcbec0"/>
            <path id="Path_3166" data-name="Path 3166" d="M93.9,50.163c-8.778-4.576-17.791-8.743-26.908-12.6V34.02c9.118,3.853,18.131,8.019,26.908,12.6Z" transform="translate(-66.988 -27.204)" fill="#bcbec0"/>
          </g>
          <g id="Group_913" data-name="Group 913" transform="translate(82.904 263.905)">
            <path id="Path_3167" data-name="Path 3167" d="M66.025,51.638C53.709,56.929,41.75,62.717,29.956,69.08V65.532C41.75,59.169,53.709,53.381,66.025,48.09Z" transform="translate(-29.956 -48.09)" fill="#bcbec0"/>
            <path id="Path_3168" data-name="Path 3168" d="M56.594,52.89c-9.065,4.062-17.939,8.56-26.638,13.345V62.687c8.7-4.785,17.573-9.283,26.638-13.345Z" transform="translate(-29.956 -38.429)" fill="#bcbec0"/>
          </g>
          <g id="Group_914" data-name="Group 914" transform="translate(242.731 235.356)">
            <path id="Path_3169" data-name="Path 3169" d="M87.525,48.8c-13.11-.575-26.124-.584-39.233-.026V45.227c13.11-.558,26.124-.549,39.233.026Z" transform="translate(-48.292 -44.815)" fill="#bcbec0"/>
            <path id="Path_3170" data-name="Path 3170" d="M77.423,49.267c-9.7-.279-19.429-.1-29.131.375V46.094c9.7-.479,19.429-.654,29.131-.375Z" transform="translate(-48.292 -38.866)" fill="#bcbec0"/>
          </g>
          <g id="Group_915" data-name="Group 915" transform="translate(405.697 264.105)">
            <path id="Path_3171" data-name="Path 3171" d="M103.04,69.155C91.246,62.774,79.3,56.969,66.988,51.661V48.113C79.3,53.421,91.246,59.227,103.04,65.607Z" transform="translate(-66.988 -48.113)" fill="#bcbec0"/>
            <path id="Path_3172" data-name="Path 3172" d="M93.9,65.038c-8.778-4.576-17.791-8.743-26.908-12.6V48.9c9.118,3.853,18.131,8.019,26.908,12.6Z" transform="translate(-66.988 -42.079)" fill="#bcbec0"/>
          </g>
          <g id="Group_921" data-name="Group 921" transform="translate(100.747 25.305)">
            <path id="Path_3173" data-name="Path 3173" d="M44.224,50.222C39.308,52.384,36.858,53.508,32,55.853V33.9c4.855-2.353,7.3-3.478,12.221-5.64Z" transform="translate(-32.003 37.528)" fill="#632857"/>
            <path id="Path_3174" data-name="Path 3174" d="M46.291,69.185C41.3,71.094,38.812,72.1,33.87,74.2V29.943c4.942-2.1,7.427-3.1,12.421-5.012Z" transform="translate(-17.596 11.801)" fill="#a765e6"/>
            <path id="Path_3175" data-name="Path 3175" d="M48.372,55.386c-5.073,1.656-7.592,2.537-12.6,4.384V30.343c5.012-1.848,7.531-2.728,12.6-4.393Z" transform="translate(-2.95 19.664)" fill="#13263d"/>
            <path id="Path_3176" data-name="Path 3176" d="M50.453,40.809c-5.125,1.412-7.679,2.17-12.761,3.774V30.942c5.082-1.6,7.636-2.353,12.761-3.766Z" transform="translate(11.897 29.125)" fill="#ffa103"/>
            <path id="Path_3177" data-name="Path 3177" d="M52.532,86.362c-5.169,1.168-7.749,1.8-12.892,3.147V23.864c5.143-1.351,7.723-1.979,12.892-3.147Z" transform="translate(26.929 -20.717)" fill="#cfd6fd"/>
            <g id="Group_916" data-name="Group 916" transform="translate(3.94 95.307)">
              <path id="Path_3178" data-name="Path 3178" d="M34.965,34.24l-.261-.5-1.412.654-.261.732-.575.27c.506-1.395.767-2.092,1.273-3.478l.575-.27,1.255,2.31Zm-1.482-.41,1.02-.471L34,32.383Z" transform="translate(-32.455 -31.651)" fill="#1d4438"/>
            </g>
            <g id="Group_917" data-name="Group 917" transform="translate(20.475 88.235)">
              <path id="Path_3179" data-name="Path 3179" d="M36.409,30.869a.378.378,0,0,1,.27.418.84.84,0,0,1-.139.462,1.126,1.126,0,0,1-.375.384.534.534,0,0,1,.462.061.493.493,0,0,1,.166.418,1.017,1.017,0,0,1-.3.7,2.091,2.091,0,0,1-.793.54c-.54.218-.811.323-1.351.549V31.505c.523-.209.784-.314,1.316-.532A1.1,1.1,0,0,1,36.409,30.869Zm-.427,1.063a.49.49,0,0,0,.122-.314.194.194,0,0,0-.122-.209.539.539,0,0,0-.349.052l-.715.3v.7l.715-.288A.945.945,0,0,0,35.982,31.932Zm.078,1.194a.538.538,0,0,0,.148-.349.2.2,0,0,0-.148-.218.758.758,0,0,0-.427.07l-.715.3v.758l.715-.288A1.2,1.2,0,0,0,36.06,33.126Z" transform="translate(-34.352 -30.84)" fill="#1d4438"/>
            </g>
            <g id="Group_918" data-name="Group 918" transform="translate(36.671 82.005)">
              <path id="Path_3180" data-name="Path 3180" d="M38.241,30.658a1.1,1.1,0,0,0-.436.061,1.49,1.49,0,0,0-.514.305,1.6,1.6,0,0,0-.357.479,1.232,1.232,0,0,0-.131.54.727.727,0,0,0,.131.445.582.582,0,0,0,.357.227.967.967,0,0,0,.514-.044,1.53,1.53,0,0,0,.427-.244,2.28,2.28,0,0,0,.384-.384l.34.244a2.734,2.734,0,0,1-.549.549,2.034,2.034,0,0,1-.636.357,1.488,1.488,0,0,1-.784.087.947.947,0,0,1-.567-.34,1.089,1.089,0,0,1-.209-.68,1.822,1.822,0,0,1,.209-.828,2.544,2.544,0,0,1,.575-.732,2.369,2.369,0,0,1,.8-.479,1.747,1.747,0,0,1,.628-.1,1,1,0,0,1,.523.157l-.331.523A.757.757,0,0,0,38.241,30.658Z" transform="translate(-36.21 -30.125)" fill="#1d4438"/>
            </g>
            <g id="Group_919" data-name="Group 919" transform="translate(53.799 76.599)">
              <path id="Path_3181" data-name="Path 3181" d="M40.25,29.534a.919.919,0,0,1,.567.349,1.151,1.151,0,0,1,.2.689,1.762,1.762,0,0,1-.2.8,2.14,2.14,0,0,1-.575.68,2.357,2.357,0,0,1-.828.436l-1.238.366V29.969l1.264-.375A1.564,1.564,0,0,1,40.25,29.534Zm-.3,2.188a1.543,1.543,0,0,0,.349-.445,1.249,1.249,0,0,0,.122-.532.753.753,0,0,0-.131-.453.57.57,0,0,0-.357-.235.924.924,0,0,0-.506.026l-.671.2V32.2l.689-.209A1.487,1.487,0,0,0,39.953,31.722Z" transform="translate(-38.175 -29.505)" fill="#1d4438"/>
            </g>
            <g id="Group_920" data-name="Group 920" transform="translate(71.136 71.729)">
              <path id="Path_3182" data-name="Path 3182" d="M40.164,29.5c.9-.227,1.342-.34,2.24-.558v.488c-.662.157-.994.235-1.656.4v.715c.593-.148.889-.218,1.491-.366v.488c-.6.139-.9.218-1.491.357v.732c.689-.174,1.029-.253,1.708-.418v.479l-2.292.567Z" transform="translate(-40.164 -28.946)" fill="#1d4438"/>
            </g>
          </g>
          <g id="Group_926" data-name="Group 926" transform="translate(269.483 22.2)">
            <path id="Path_3183" data-name="Path 3183" d="M64.419,48.85c-6.1-2.319-10.181-7.81-10.146-13.685a11.784,11.784,0,0,1,4.079-8.9A13.21,13.21,0,0,1,68.778,23.2L68.159,27.9a8.462,8.462,0,0,0-6.686,1.944A7.08,7.08,0,0,0,59.024,35.2C59,39.027,61.909,42.818,66.1,44.4Z" transform="translate(-28.891 0.61)" fill="#a765e6"/>
            <path id="Path_3184" data-name="Path 3184" d="M78.236,63.781a24.663,24.663,0,0,1-3.086-.2c-10.46-1.4-21.7-10.8-21.783-22.55a17.827,17.827,0,0,1,6.32-13.554,20.646,20.646,0,0,1,16.082-5.082L75.15,27.1a15.827,15.827,0,0,0-12.325,3.94A13.14,13.14,0,0,0,58.118,41c.061,9.152,9.353,16.762,17.66,17.878,6.363.845,12.325-1.63,15.21-6.3l4.036,2.484C91.651,60.538,85.27,63.781,78.236,63.781Z" transform="translate(-35.882 -5.883)" fill="#e7e9ff"/>
            <path id="Path_3185" data-name="Path 3185" d="M87.46,79.867a32.345,32.345,0,0,1-4.193-.27C68.083,77.609,52.35,65.258,52.315,48.025a25.828,25.828,0,0,1,8.943-19.665A28.626,28.626,0,0,1,83.887,21.5l-.61,4.707A23.881,23.881,0,0,0,64.4,31.917a21.129,21.129,0,0,0-7.331,16.091C57.1,62.643,70.725,73.164,83.887,74.89c7.4.968,14.81-1.1,19.822-5.526a17.99,17.99,0,0,0,6.154-14.016l4.751-.035a22.641,22.641,0,0,1-7.758,17.608A29.411,29.411,0,0,1,87.46,79.867Z" transform="translate(-44 -13.444)" fill="#497ee0"/>
            <path id="Path_3186" data-name="Path 3186" d="M95.388,94.454a38.972,38.972,0,0,1-4.733-.279C71.383,91.848,50.881,76.045,51.37,54.567A35.171,35.171,0,0,1,64.078,28.443a34.272,34.272,0,0,1,27.231-7.679l-.741,4.69A29.467,29.467,0,0,0,67.129,32.1,30.352,30.352,0,0,0,56.12,54.672c-.427,18.819,17.886,32.713,35.1,34.788,9.641,1.159,19.717-1.769,26.307-7.653a22.968,22.968,0,0,0,7.854-17.756,37.641,37.641,0,0,0-4.655-17.25l4.1-2.406a42.3,42.3,0,0,1,5.308,19.621,27.568,27.568,0,0,1-9.44,21.33C114.208,91.142,104.829,94.454,95.388,94.454Z" transform="translate(-51.361 -20.361)" fill="#ffa103"/>
            <g id="Group_922" data-name="Group 922" transform="translate(41.927 2.129)">
              <path id="Path_3187" data-name="Path 3187" d="M58.394,23.142l-.227-.54-1.255-.166-.227.471-.514-.07c.453-.889.68-1.342,1.133-2.231l.506.07,1.116,2.545Zm-1.307-1.072.906.122-.445-1.072Z" transform="translate(-56.171 -20.605)" fill="#1d4438"/>
            </g>
            <g id="Group_923" data-name="Group 923" transform="translate(42.249 10.244)">
              <path id="Path_3188" data-name="Path 3188" d="M58,21.946a.57.57,0,0,1,.235.471.427.427,0,0,1-.122.314.472.472,0,0,1-.331.148.835.835,0,0,1,.41.261.655.655,0,0,1,.139.418.465.465,0,0,1-.253.445,1.094,1.094,0,0,1-.7.078l-1.177-.157V21.536l1.142.157A1.275,1.275,0,0,1,58,21.946Zm-.375.68a.214.214,0,0,0,.1-.2.281.281,0,0,0-.1-.227.605.605,0,0,0-.305-.113L56.7,22v.584l.619.078A.479.479,0,0,0,57.629,22.626Zm.061,1.029a.237.237,0,0,0,.14-.227.291.291,0,0,0-.14-.244.7.7,0,0,0-.366-.131l-.619-.087v.628l.619.087A.606.606,0,0,0,57.69,23.654Z" transform="translate(-56.208 -21.536)" fill="#1d4438"/>
            </g>
            <g id="Group_924" data-name="Group 924" transform="translate(42.049 18.778)">
              <path id="Path_3189" data-name="Path 3189" d="M57.928,23.073a1.072,1.072,0,0,0-.375-.131.8.8,0,0,0-.436.044.61.61,0,0,0-.314.253.669.669,0,0,0-.113.392.8.8,0,0,0,.113.418.839.839,0,0,0,.314.34.949.949,0,0,0,.436.166.871.871,0,0,0,.366-.026.9.9,0,0,0,.331-.157l.288.34a1.328,1.328,0,0,1-.471.235,1.255,1.255,0,0,1-.54.035,1.642,1.642,0,0,1-.68-.253,1.522,1.522,0,0,1-.488-.514,1.3,1.3,0,0,1-.174-.645,1.082,1.082,0,0,1,.174-.6,1.142,1.142,0,0,1,.5-.375,1.385,1.385,0,0,1,.689-.061,1.667,1.667,0,0,1,.994.523l-.288.3A1.4,1.4,0,0,0,57.928,23.073Z" transform="translate(-56.185 -22.515)" fill="#1d4438"/>
            </g>
            <g id="Group_925" data-name="Group 925" transform="translate(42.249 25.899)">
              <path id="Path_3190" data-name="Path 3190" d="M57.969,23.733a1.354,1.354,0,0,1,.479.488,1.279,1.279,0,0,1,.174.645,1,1,0,0,1-.174.584.971.971,0,0,1-.488.357,1.4,1.4,0,0,1-.7.061l-1.055-.148V23.332l1.072.148A1.68,1.68,0,0,1,57.969,23.733Zm-.253,1.691a.61.61,0,0,0,.3-.235.733.733,0,0,0,.1-.392A.8.8,0,0,0,58,24.369a.834.834,0,0,0-.305-.323,1.019,1.019,0,0,0-.427-.166L56.7,23.8v1.586l.584.078A.776.776,0,0,0,57.716,25.424Z" transform="translate(-56.208 -23.332)" fill="#1d4438"/>
            </g>
          </g>
          <g id="Group_931" data-name="Group 931" transform="translate(418.833 58.758)">
            <path id="Path_3192" data-name="Path 3192" d="M102.637,49.961C92.909,44.13,83.05,38.69,72.93,33.574a7.567,7.567,0,0,1-4.079-6.067h0c0-2.266,1.83-3.225,4.079-2.118,10.12,5.125,19.978,10.565,29.706,16.387a8.71,8.71,0,0,1,3.9,6.52h0C106.533,50.554,104.79,51.286,102.637,49.961Z" transform="translate(-65.748 -21.674)" fill="#ffa103"/>
            <path id="Path_3194" data-name="Path 3194" d="M135.2,74.419A409.3,409.3,0,0,0,72.93,35.551a7.567,7.567,0,0,1-4.079-6.067h0c0-2.258,1.83-3.216,4.079-2.109A409.248,409.248,0,0,1,135.2,66.234a10.155,10.155,0,0,1,3.678,6.973h0C138.88,75.465,137.242,76,135.2,74.419Z" transform="translate(-65.748 -6.349)" fill="#1cbdab"/>
            <path id="Path_3196" data-name="Path 3196" d="M87.444,45.1c-5.744-3.164-8.656-4.681-14.513-7.566a7.567,7.567,0,0,1-4.079-6.067h0c0-2.258,1.83-3.216,4.079-2.109,5.858,2.885,8.769,4.4,14.513,7.557a8.1,8.1,0,0,1,3.992,6.311h0C91.436,45.5,89.658,46.315,87.444,45.1Z" transform="translate(-65.748 8.976)" fill="#632857"/>
            <path id="Path_3198" data-name="Path 3198" d="M116.06,64.556A428.136,428.136,0,0,0,72.93,39.531a7.568,7.568,0,0,1-4.079-6.075h0c0-2.258,1.83-3.216,4.079-2.109A428.206,428.206,0,0,1,116.06,56.38a9.228,9.228,0,0,1,3.818,6.7h0C119.878,65.341,118.178,65.986,116.06,64.556Z" transform="translate(-65.748 24.294)" fill="#a765e6"/>
          </g>
          <g id="Group_940" data-name="Group 940" transform="translate(96.763 168.22)">
            <path id="Path_3211" data-name="Path 3211" d="M32.09,82.1q6.119-6.564,12.4-12.953c4.995-.035,7.5-.009,12.561.148q6.289-14.343,12.7-28.625c5.108-1.011,7.679-1.473,12.84-2.3q6.5,11.022,12.944,22.07,6.446-7.06,13.057-13.964V83.1A405.792,405.792,0,0,0,32.09,109.963Z" transform="translate(-27.348 -27.387)" fill="#ffa103"/>
            <path id="Path_3212" data-name="Path 3212" d="M108.6,71.932V44.588c-5.239,2.911-7.854,4.419-13.057,7.522-5.2-2.066-7.793-3.042-12.944-4.916-5.16-3.042-7.732-4.524-12.84-7.374q-6.433,13.166-12.7,26.411C52,63.843,49.488,62.692,44.494,60.5q-6.289,9.44-12.4,18.993V98.8A405.792,405.792,0,0,1,108.6,71.932Z" transform="translate(-27.348 -16.222)" fill="#497ee0"/>
            <path id="Path_3213" data-name="Path 3213" d="M32.09,86.82q6.119-8.969,12.4-17.825c4.995-3.522,7.5-5.23,12.561-8.56,5.056-1.987,7.592-2.929,12.7-4.724q6.341-5.988,12.84-11.82c5.152,1.491,7.749,2.284,12.944,3.975,5.2-2.693,7.819-3.992,13.057-6.494V59.956A405.792,405.792,0,0,0,32.09,86.82Z" transform="translate(-27.348 -4.245)" fill="#632857"/>
            <rect id="Rectangle_510" data-name="Rectangle 510" width="0.183" height="55.708" transform="translate(4.655 26.868)"/>
            <rect id="Rectangle_511" data-name="Rectangle 511" width="0.182" height="55.707" transform="translate(17.055 21.19)"/>
            <rect id="Rectangle_512" data-name="Rectangle 512" width="0.182" height="55.708" transform="translate(29.614 15.991)"/>
            <rect id="Rectangle_513" data-name="Rectangle 513" width="0.182" height="55.708" transform="translate(42.317 11.273)"/>
            <rect id="Rectangle_514" data-name="Rectangle 514" width="0.182" height="55.708" transform="translate(55.152 7.035)"/>
            <rect id="Rectangle_515" data-name="Rectangle 515" width="0.182" height="55.707" transform="translate(68.103 3.277)"/>
            <rect id="Rectangle_516" data-name="Rectangle 516" width="0.182" height="55.707" transform="translate(81.157)"/>
            <g id="Group_932" data-name="Group 932" transform="translate(0 50.184)">
              <path id="Path_3214" data-name="Path 3214" d="M41.314,42.87v9.283c3.234-2.781,4.855-4.158,8.106-6.869C46.169,44.282,44.548,43.8,41.314,42.87Z" transform="translate(43.83 -42.87)" fill="#1d4438"/>
              <path id="Path_3215" data-name="Path 3215" d="M31.869,74.036l-.323-.654a399.9,399.9,0,0,1,85.065-30.02l.166.706A399.4,399.4,0,0,0,31.869,74.036Z" transform="translate(-31.546 -39.073)"/>
            </g>
            <g id="Group_933" data-name="Group 933" transform="translate(3.644 88.058)">
              <path id="Path_3216" data-name="Path 3216" d="M31.964,47.625l.854-.41v2.118l-.41.2V47.764l-.445.218Z" transform="translate(-31.964 -47.215)" fill="#1d4438"/>
            </g>
            <g id="Group_934" data-name="Group 934" transform="translate(15.716 82.401)">
              <path id="Path_3217" data-name="Path 3217" d="M34.988,48.1v.357l-1.6.7v-.3l.811-1.185a2.472,2.472,0,0,0,.192-.305.637.637,0,0,0,.07-.227.128.128,0,0,0-.1-.139.416.416,0,0,0-.253.044,1.367,1.367,0,0,0-.305.209,2.131,2.131,0,0,0-.3.323l-.166-.244a3.479,3.479,0,0,1,.4-.4,1.707,1.707,0,0,1,.427-.262,1.166,1.166,0,0,1,.375-.1.344.344,0,0,1,.253.087.3.3,0,0,1,.087.244.944.944,0,0,1-.1.375,3.859,3.859,0,0,1-.305.5l-.54.793Z" transform="translate(-33.349 -46.566)" fill="#1d4438"/>
            </g>
            <g id="Group_935" data-name="Group 935" transform="translate(28.015 77.11)">
              <path id="Path_3218" data-name="Path 3218" d="M36.251,47.049a.324.324,0,0,1,.183.331.826.826,0,0,1-.1.392,1.284,1.284,0,0,1-.305.357,1.564,1.564,0,0,1-.453.27,2.108,2.108,0,0,1-.436.1.858.858,0,0,1-.375-.026l.166-.384a.644.644,0,0,0,.3.044.9.9,0,0,0,.323-.07.865.865,0,0,0,.349-.227.434.434,0,0,0,.131-.3c0-.1-.044-.174-.122-.192a.614.614,0,0,0-.366.061l-.331.131V47.3l.584-.784-.915.357v-.34c.575-.235.872-.349,1.456-.575v.253l-.671.88.113-.035A.7.7,0,0,1,36.251,47.049Z" transform="translate(-34.76 -45.959)" fill="#1d4438"/>
            </g>
            <g id="Group_936" data-name="Group 936" transform="translate(40.68 72.551)">
              <path id="Path_3219" data-name="Path 3219" d="M37.974,46.491v.349l-.314.113v.5l-.392.139v-.506l-1.055.375v-.3l.715-1.578.41-.148-.671,1.517.6-.218v-.488l.392-.139V46.6Z" transform="translate(-36.213 -45.436)" fill="#1d4438"/>
            </g>
            <g id="Group_937" data-name="Group 937" transform="translate(53.973 67.992)">
              <path id="Path_3220" data-name="Path 3220" d="M39.054,45.872a.4.4,0,0,1,.392.436.868.868,0,0,1-.1.41,1.051,1.051,0,0,1-.305.349,1.362,1.362,0,0,1-.462.235,1.425,1.425,0,0,1-.436.061,1,1,0,0,1-.4-.052l.174-.375a.674.674,0,0,0,.3.07,1.072,1.072,0,0,0,.331-.035.787.787,0,0,0,.331-.2.426.426,0,0,0,.122-.288.209.209,0,0,0-.122-.209.6.6,0,0,0-.357.035l-.305.1-.288.1V45.366l1.43-.453v.357l-1.037.323v.418l.3-.087A1.032,1.032,0,0,1,39.054,45.872Z" transform="translate(-37.738 -44.913)" fill="#1d4438"/>
            </g>
            <g id="Group_938" data-name="Group 938" transform="translate(66.917 64.349)">
              <path id="Path_3221" data-name="Path 3221" d="M40.5,44.835a1.362,1.362,0,0,0-.261.044.722.722,0,0,0-.453.314.953.953,0,0,0-.148.558.879.879,0,0,1,.235-.27,1.136,1.136,0,0,1,.357-.174.636.636,0,0,1,.532.044.492.492,0,0,1,.192.445.943.943,0,0,1-.1.41,1.113,1.113,0,0,1-.288.323,1.04,1.04,0,0,1-.418.2.849.849,0,0,1-.488.009.544.544,0,0,1-.323-.27,1.134,1.134,0,0,1-.113-.523,1.643,1.643,0,0,1,.122-.628,1.37,1.37,0,0,1,.34-.488,1.25,1.25,0,0,1,.523-.27,1.613,1.613,0,0,1,.357-.061,1.219,1.219,0,0,1,.323.035l-.166.349A.617.617,0,0,0,40.5,44.835Zm-.68,1a.542.542,0,0,0-.122.305.287.287,0,0,0,.052.166.238.238,0,0,0,.139.1.484.484,0,0,0,.244-.017.6.6,0,0,0,.305-.183.443.443,0,0,0,.113-.305.255.255,0,0,0-.1-.235.359.359,0,0,0-.305-.017A.668.668,0,0,0,39.816,45.837Z" transform="translate(-39.223 -44.495)" fill="#1d4438"/>
            </g>
            <g id="Group_939" data-name="Group 939" transform="translate(79.051 61.176)">
              <path id="Path_3222" data-name="Path 3222" d="M40.615,44.541c.7-.166,1.046-.253,1.743-.41v.3l-.933,2.04-.453.113.9-1.987-.863.209L41,45.1l-.383.1Z" transform="translate(-40.615 -44.131)" fill="#1d4438"/>
            </g>
          </g>
          <g id="Group_946" data-name="Group 946" transform="translate(433.178 207.763)">
            <path id="Path_3223" data-name="Path 3223" d="M138.209,108.055c.741,22.158-20.074,19.6-33.053,11.419C87.3,108.2,70.141,84.8,70.141,62.345c0-22.088,19.978-24.886,35.015-15.594C123.7,58.2,137.459,85.819,138.209,108.055Z" transform="translate(-70.139 -40.904)" fill="#fff" opacity="0.4"/>
            <path id="Path_3224" data-name="Path 3224" d="M81.905,46.3a39.073,39.073,0,0,0-8.751-4.5q4.406,20.423,8.751,40.855c11.428,7.836,22.384,16.108,33.053,24.947C114.785,84.759,100.725,58.984,81.905,46.3Z" transform="translate(-46.888 -40.455)" fill="#a765e6"/>
            <path id="Path_3225" data-name="Path 3225" d="M74.158,46.491q11,21.574,21.4,43.417c9.614-1.4,10.8-10.634,11.654-18.471C96.542,62.6,85.586,54.327,74.158,46.491Z" transform="translate(-39.141 -4.287)" fill="#13263d"/>
            <path id="Path_3226" data-name="Path 3226" d="M72.162,66.949C77.209,73,83.1,78.769,89.56,82.857c6.293,3.966,13.389,7.941,21.4,7.052Q100.552,68.06,89.56,46.491,80.813,56.689,72.162,66.949Z" transform="translate(-54.543 -4.287)" fill="#1cbdab"/>
            <path id="Path_3227" data-name="Path 3227" d="M105.158,81.4Q92.057,61.409,78.18,41.967c-5.858,4.254-8.124,11.715-8.037,18.671.192,15.141,8.089,29.811,17.616,41.221Q96.415,91.6,105.158,81.4Z" transform="translate(-70.141 -39.197)" fill="#ffa103"/>
            <path id="Path_3228" data-name="Path 3228" d="M71.063,44.419q13.9,19.456,26.978,39.434Q93.7,63.417,89.289,43C83.127,41.665,76.65,40.261,71.063,44.419Z" transform="translate(-63.024 -41.649)" fill="#632857"/>
          </g>
          <g id="Group_960" data-name="Group 960" transform="translate(256.852 152.245)">
            <g id="Group_947" data-name="Group 947" transform="translate(0 35.616)">
              <path id="Path_3244" data-name="Path 3244" d="M56.1,54.09c-2.476-.009-3.713,0-6.189.035V40.58c2.475-.035,3.713-.044,6.189-.035Z" transform="translate(-49.912 -30.294)" fill="#1cbdab"/>
              <path id="Path_3245" data-name="Path 3245" d="M51.927,73.413c-.7,0-1.055,0-1.761.009V39.375c.706-.009,1.063-.009,1.761-.009Z" transform="translate(-47.952 -39.366)" fill="#1cbdab"/>
              <path id="Path_3246" data-name="Path 3246" d="M53.652,42.755a1.741,1.741,0,0,1-1.8,1.665,1.714,1.714,0,0,1-1.8-1.639,1.754,1.754,0,0,1,1.8-1.674A1.727,1.727,0,0,1,53.652,42.755Z" transform="translate(-48.762 -25.924)" fill="#fff" opacity="0.4"/>
            </g>
            <g id="Group_948" data-name="Group 948" transform="translate(8.028 16.78)">
              <g id="Group_972" data-name="Group 972">
                <path id="Union_39" data-name="Union 39" d="M3720.36-1514.12v-10.248c-.659-.008-1.363-.014-2.213-.02v-13.545c.85.006,1.555.012,2.213.02v-10.253c.707.008,1.064.017,1.761.026v10.253c.659.013,1.364.028,2.214.05v13.546c-.851-.021-1.555-.037-2.214-.049v10.256C3721.424-1514.1,3721.067-1514.1,3720.36-1514.12Z" transform="translate(-3718.147 1548.167)" fill="#a765e6"/>
                <path id="Path_3249" data-name="Path 3249" d="M54.573,40.632a1.7,1.7,0,0,1-1.8,1.63,1.761,1.761,0,0,1-1.8-1.682,1.7,1.7,0,0,1,1.8-1.63A1.767,1.767,0,0,1,54.573,40.632Z" transform="translate(-49.683 -23.748)" fill="#fff" opacity="0.4"/>
              </g>
              <g id="Group_973" data-name="Group 973" transform="translate(16 -7)">
                <path id="Union_39-2" data-name="Union 39" d="M3720.36-1514.12v-10.248c-.659-.008-1.363-.014-2.213-.02v-13.545c.85.006,1.555.012,2.213.02v-10.253c.707.008,1.064.017,1.761.026v10.253c.659.013,1.364.028,2.214.05v13.546c-.851-.021-1.555-.037-2.214-.049v10.256C3721.424-1514.1,3721.067-1514.1,3720.36-1514.12Z" transform="translate(-3718.147 1548.167)" fill="#a765e6"/>
                <path id="Path_3249-2" data-name="Path 3249" d="M54.573,40.632a1.7,1.7,0,0,1-1.8,1.63,1.761,1.761,0,0,1-1.8-1.682,1.7,1.7,0,0,1,1.8-1.63A1.767,1.767,0,0,1,54.573,40.632Z" transform="translate(-49.683 -23.748)" fill="#fff" opacity="0.4"/>
              </g>
              <g id="Group_974" data-name="Group 974" transform="translate(40 7)">
                <path id="Union_39-3" data-name="Union 39" d="M3720.36-1514.12v-10.248c-.659-.008-1.363-.014-2.213-.02v-13.545c.85.006,1.555.012,2.213.02v-10.253c.707.008,1.064.017,1.761.026v10.253c.659.013,1.364.028,2.214.05v13.546c-.851-.021-1.555-.037-2.214-.049v10.256C3721.424-1514.1,3721.067-1514.1,3720.36-1514.12Z" transform="translate(-3718.147 1548.167)" fill="#a765e6"/>
                <path id="Path_3249-3" data-name="Path 3249" d="M54.573,40.632a1.7,1.7,0,0,1-1.8,1.63,1.761,1.761,0,0,1-1.8-1.682,1.7,1.7,0,0,1,1.8-1.63A1.767,1.767,0,0,1,54.573,40.632Z" transform="translate(-49.683 -23.748)" fill="#fff" opacity="0.4"/>
              </g>
            </g>
            <g id="Group_949" data-name="Group 949" transform="translate(16.056 9.292)">
              <path id="Path_3250" data-name="Path 3250" d="M57.943,55.217c-2.476-.113-3.713-.157-6.189-.235V37.514c2.475.078,3.713.122,6.189.235Z" transform="translate(-51.754 -27.333)" fill="#1cbdab"/>
              <path id="Path_3251" data-name="Path 3251" d="M53.769,74.385c-.706-.026-1.055-.044-1.761-.061V36.346c.706.026,1.055.044,1.761.07Z" transform="translate(-49.794 -36.346)" fill="#1cbdab"/>
              <path id="Path_3252" data-name="Path 3252" d="M55.494,40.044a1.652,1.652,0,0,1-1.8,1.586,1.8,1.8,0,0,1-1.8-1.717,1.659,1.659,0,0,1,1.8-1.6A1.816,1.816,0,0,1,55.494,40.044Z" transform="translate(-50.604 -21.138)" fill="#fff" opacity="0.4"/>
            </g>
            <g id="Group_951" data-name="Group 951" transform="translate(32.095)">
              <path id="Path_3256" data-name="Path 3256" d="M59.765,46.558c-2.467-.227-3.7-.323-6.171-.506V36.438c2.475.174,3.7.27,6.171.488Z" transform="translate(-53.594 -26.344)" fill="#1cbdab"/>
              <path id="Path_3257" data-name="Path 3257" d="M55.6,65.553c-.706-.061-1.055-.087-1.752-.148V35.28c.7.061,1.046.087,1.752.148Z" transform="translate(-51.634 -35.28)" fill="#1cbdab"/>
              <path id="Path_3258" data-name="Path 3258" d="M57.326,38.608a1.57,1.57,0,0,1-1.8,1.508,1.9,1.9,0,0,1-1.787-1.8,1.562,1.562,0,0,1,1.787-1.508A1.909,1.909,0,0,1,57.326,38.608Z" transform="translate(-52.444 -23.511)" fill="#fff" opacity="0.4"/>
            </g>
            <g id="Group_952" data-name="Group 952" transform="translate(40.105 24.424)">
              <path id="Path_3259" data-name="Path 3259" d="M60.676,47.131c-2.467-.27-3.7-.4-6.163-.628v-7.27c2.467.227,3.7.357,6.163.628Z" transform="translate(-54.513 -29.192)" fill="#1cbdab"/>
              <path id="Path_3260" data-name="Path 3260" d="M56.518,66.036c-.706-.07-1.055-.113-1.752-.183V38.082c.7.07,1.046.113,1.752.183Z" transform="translate(-52.561 -38.082)" fill="#1cbdab"/>
              <path id="Path_3261" data-name="Path 3261" d="M58.235,41.324a1.519,1.519,0,0,1-1.787,1.464,1.946,1.946,0,0,1-1.787-1.83,1.529,1.529,0,0,1,1.787-1.473A1.947,1.947,0,0,1,58.235,41.324Z" transform="translate(-53.371 -27.342)" fill="#fff" opacity="0.4"/>
            </g>
            <g id="Group_954" data-name="Group 954" transform="translate(56.074 35.18)">
              <path id="Path_3265" data-name="Path 3265" d="M62.473,49.8c-2.449-.375-3.678-.558-6.128-.9V40.456c2.449.34,3.678.523,6.128.9Z" transform="translate(-56.345 -30.519)" fill="#1cbdab"/>
              <path id="Path_3266" data-name="Path 3266" d="M58.34,68.517c-.7-.1-1.046-.157-1.743-.253V39.316c.7.1,1.046.148,1.743.253Z" transform="translate(-54.4 -39.316)" fill="#1cbdab"/>
              <path id="Path_3267" data-name="Path 3267" d="M60.057,42.717a1.452,1.452,0,0,1-1.778,1.395,2.073,2.073,0,0,1-1.787-1.918A1.46,1.46,0,0,1,58.279,40.8,2.057,2.057,0,0,1,60.057,42.717Z" transform="translate(-55.211 -28.038)" fill="#fff" opacity="0.4"/>
            </g>
            <g id="Group_955" data-name="Group 955" transform="translate(64.024 27.083)">
              <path id="Path_3268" data-name="Path 3268" d="M63.376,54.1c-2.441-.436-3.661-.645-6.119-1.029V39.523c2.458.392,3.678.593,6.119,1.029Z" transform="translate(-57.257 -29.621)" fill="#a765e6"/>
              <path id="Path_3269" data-name="Path 3269" d="M59.244,72.73c-.689-.113-1.037-.174-1.735-.3V38.387c.7.122,1.046.174,1.735.3Z" transform="translate(-55.312 -38.387)" fill="#a765e6"/>
              <path id="Path_3270" data-name="Path 3270" d="M60.953,42.131a1.409,1.409,0,0,1-1.769,1.351A2.115,2.115,0,0,1,57.4,41.53a1.418,1.418,0,0,1,1.778-1.36A2.124,2.124,0,0,1,60.953,42.131Z" transform="translate(-56.115 -24.838)" fill="#fff" opacity="0.4"/>
            </g>
            <g id="Group_956" data-name="Group 956" transform="translate(71.964 39.73)">
              <path id="Path_3271" data-name="Path 3271" d="M64.261,52.927c-2.432-.488-3.652-.715-6.093-1.159v-10.8c2.441.445,3.661.68,6.093,1.159Z" transform="translate(-58.168 -31.118)" fill="#1cbdab"/>
              <path id="Path_3272" data-name="Path 3272" d="M60.153,71.471c-.689-.131-1.037-.2-1.735-.331v-31.3c.7.131,1.046.2,1.735.331Z" transform="translate(-56.239 -39.838)" fill="#1cbdab"/>
              <path id="Path_3273" data-name="Path 3273" d="M61.854,43.47a1.372,1.372,0,0,1-1.769,1.307,2.168,2.168,0,0,1-1.769-1.987,1.377,1.377,0,0,1,1.769-1.316A2.177,2.177,0,0,1,61.854,43.47Z" transform="translate(-57.034 -27.492)" fill="#fff" opacity="0.4"/>
            </g>
            <g id="Group_957" data-name="Group 957" transform="translate(79.87 31.519)">
              <path id="Path_3274" data-name="Path 3274" d="M65.15,54.857c-2.423-.54-3.644-.793-6.075-1.3V40.021c2.432.5,3.652.75,6.075,1.29Z" transform="translate(-59.075 -30.215)" fill="#a765e6"/>
              <path id="Path_3275" data-name="Path 3275" d="M61.051,73.318c-.689-.148-1.037-.227-1.726-.375V38.9c.689.148,1.037.227,1.726.375Z" transform="translate(-57.146 -38.896)" fill="#a765e6"/>
              <path id="Path_3276" data-name="Path 3276" d="M62.751,42.734a1.338,1.338,0,0,1-1.761,1.273,2.23,2.23,0,0,1-1.769-2.022,1.358,1.358,0,0,1,1.769-1.29A2.24,2.24,0,0,1,62.751,42.734Z" transform="translate(-57.948 -25.327)" fill="#fff" opacity="0.4"/>
            </g>
            <g id="Group_958" data-name="Group 958" transform="translate(87.75 30.988)">
              <path id="Path_3277" data-name="Path 3277" d="M66.037,62.774c-2.423-.593-3.635-.88-6.058-1.43V39.954c2.423.549,3.635.837,6.058,1.43Z" transform="translate(-59.979 -30.2)" fill="#1cbdab"/>
              <path id="Path_3278" data-name="Path 3278" d="M61.945,81.137c-.68-.166-1.029-.244-1.717-.41V38.835c.689.166,1.037.244,1.717.41Z" transform="translate(-58.058 -38.835)" fill="#1cbdab"/>
              <path id="Path_3279" data-name="Path 3279" d="M63.638,43.165A1.3,1.3,0,0,1,61.886,44.4a2.286,2.286,0,0,1-1.761-2.066A1.308,1.308,0,0,1,61.886,41.1,2.3,2.3,0,0,1,63.638,43.165Z" transform="translate(-58.852 -21.783)" fill="#fff" opacity="0.4"/>
            </g>
            <g id="Group_959" data-name="Group 959" transform="translate(95.604 30.499)">
              <path id="Path_3280" data-name="Path 3280" d="M66.9,47.545c-2.406-.645-3.609-.959-6.023-1.56V39.892c2.415.6,3.617.915,6.023,1.56Z" transform="translate(-60.88 -30.19)" fill="#a765e6"/>
              <path id="Path_3281" data-name="Path 3281" d="M62.836,65.818c-.68-.183-1.029-.27-1.708-.445V38.779l1.708.436Z" transform="translate(-58.966 -38.779)" fill="#a765e6"/>
              <path id="Path_3282" data-name="Path 3282" d="M64.529,42.306a1.279,1.279,0,0,1-1.752,1.2A2.364,2.364,0,0,1,61.025,41.4a1.279,1.279,0,0,1,1.752-1.2A2.373,2.373,0,0,1,64.529,42.306Z" transform="translate(-59.761 -28.324)" fill="#fff" opacity="0.4"/>
            </g>
          </g>
          <path id="Path_3283" data-name="Path 3283" d="M43.65,39.226c-7.6,5.988-14.923,12.334-22.036,18.906v-3.94c7.113-6.564,14.435-12.909,22.036-18.906Z" transform="translate(-11.424 117.011)" fill="#bcbec0"/>
          <path id="Path_3284" data-name="Path 3284" d="M52.48,39.435c-10.7,8.124-20.929,16.649-30.866,25.679V61.183C31.551,52.144,41.784,43.628,52.48,35.5Z" transform="translate(-11.424 118.624)" fill="#bcbec0"/>
          <path id="Path_3285" data-name="Path 3285" d="M43.65,41.308c-7.6,6-14.923,12.343-22.036,18.906V56.283C28.727,49.72,36.049,43.374,43.65,37.377Z" transform="translate(-11.424 133.147)" fill="#bcbec0"/>
          <path id="Path_3286" data-name="Path 3286" d="M52.48,41.517c-10.7,8.133-20.929,16.657-30.866,25.688V63.274c9.937-9.039,20.17-17.555,30.866-25.688Z" transform="translate(-11.424 134.76)" fill="#bcbec0"/>
          <path id="Path_3287" data-name="Path 3287" d="M43.65,44.712c-7.6,6-14.923,12.343-22.036,18.906V59.687c7.113-6.564,14.435-12.918,22.036-18.906Z" transform="translate(-11.424 159.414)" fill="#bcbec0"/>
          <path id="Path_3288" data-name="Path 3288" d="M52.48,44.921c-10.7,8.133-20.929,16.649-30.866,25.688v-3.94c9.937-9.03,20.17-17.555,30.866-25.679Z" transform="translate(-11.424 161.027)" fill="#bcbec0"/>
          <path id="Path_3289" data-name="Path 3289" d="M43.65,46.8c-7.6,6-14.923,12.343-22.036,18.906V61.778C28.727,55.215,36.049,48.86,43.65,42.872Z" transform="translate(-11.424 175.55)" fill="#bcbec0"/>
          <path id="Path_3290" data-name="Path 3290" d="M52.48,47.012C41.784,55.145,31.551,63.661,21.614,72.7V68.76C31.551,59.73,41.784,51.2,52.48,43.081Z" transform="translate(-11.424 177.162)" fill="#bcbec0"/>
          <path id="Path_3291" data-name="Path 3291" d="M43.65,50.207c-7.6,6-14.923,12.343-22.036,18.906V65.182c7.113-6.564,14.435-12.918,22.036-18.906Z" transform="translate(-11.424 201.817)" fill="#bcbec0"/>
          <path id="Path_3292" data-name="Path 3292" d="M52.48,50.416C41.784,58.549,31.551,67.065,21.614,76.1v-3.94c9.937-9.03,20.17-17.555,30.866-25.679Z" transform="translate(-11.424 203.43)" fill="#bcbec0"/>
          <path id="Path_3293" data-name="Path 3293" d="M43.65,52.3c-7.6,5.988-14.923,12.343-22.036,18.906V67.273C28.727,60.7,36.049,54.355,43.65,48.367Z" transform="translate(-11.424 217.952)" fill="#bcbec0"/>
          <path id="Path_3294" data-name="Path 3294" d="M43.65,56.145c-7.6,5.988-14.923,12.334-22.036,18.9V71.111C28.727,64.548,36.049,58.2,43.65,52.205Z" transform="translate(-11.424 247.569)" fill="#bcbec0"/>
          <path id="Path_3295" data-name="Path 3295" d="M30.9,59.356c-3.757,3.26-5.613,4.925-9.283,8.333v-4.82c3.67-3.408,5.526-5.073,9.283-8.333Z" transform="translate(-11.424 265.556)" fill="#bcbec0"/>
          <path id="Path_3296" data-name="Path 3296" d="M52.48,52.515c-10.7,8.124-20.929,16.649-30.866,25.679V74.263c9.937-9.03,20.17-17.555,30.866-25.688Z" transform="translate(-11.424 219.558)" fill="#bcbec0"/>
        </g>
      </g>
      <g id="Group_970" data-name="Group 970" transform="translate(218.413 166.52)">
        <path id="Path_3297" data-name="Path 3297" d="M119.15,98.087c-6.346.88-41.892-17.808-46.983-29.288S44.309,73.82,43.481,81.691c0,0-2.876,6.938,9.431,8.56s31.615,2.8,41.8,19.839c5.866,9.806,16.03,18.2,28.808,5.648C139.486,100.057,125.5,97.2,119.15,98.087Z" transform="translate(-42.902 196.56)" opacity="0.15" style="mix-blend-mode: multiply;isolation: isolate"/>
        <path id="Path_3298" data-name="Path 3298" d="M45.229,67.853s-.113.279-.3.767c-1.177,3.2-3.182,15.35,2.388,16.762,6.415,1.621,21.434-8.141,22.6-14.827.567-3.225-7.374-9.841-15.071-1.822Z" transform="translate(-39.777 196.967)" fill="#1a1a1a"/>
        <path id="Path_3299" data-name="Path 3299" d="M51.6,71.548s-.113.279-.3.767c-1.185,3.2-2.554,15.35,3.016,16.762,6.415,1.621,20.8-8.15,21.975-14.827.558-3.225-7.383-9.841-15.08-1.831Z" transform="translate(11.525 225.462)" fill="#1a1a1a"/>
        <path id="Path_3300" data-name="Path 3300" d="M55.092,48.692C48.153,91.5,45.477,156.848,43.621,197.45a7.117,7.117,0,0,0,3.556,6.494h0a7.122,7.122,0,0,0,10.425-4.28c7.836-28.5,15.132-58.968,16.928-83.775l3.129,1.839c1.891,30.194,15.08,77.02,22.8,114.571a6.2,6.2,0,0,0,2.972,4.123h0c4.219,2.441,13.886-.715,13.72-5.587-1.464-42.328-7.941-122.695-13.99-170.941Z" transform="translate(-39.634 71.754)"/>
        <g id="Group_964" data-name="Group 964" transform="translate(21.894)">
          <path id="Path_3301" data-name="Path 3301" d="M49.573,39.735l-2.746,8.978L68.61,61.753c-2.022-7.191-2.72-14.077-1.682-20.58Z" transform="translate(-36.727 2.636)" fill="#efaca9"/>
          <path id="Path_3302" data-name="Path 3302" d="M85.716,55.353c0,23.012-8.891,19.856-19.856,19.856a19.852,19.852,0,1,1,0-39.7C76.825,35.505,85.716,34.224,85.716,55.353Z" transform="translate(-43.086 -30.118)" fill="#efaca9"/>
          <path id="Path_3303" data-name="Path 3303" d="M48.554,35.493c8.917.07,15.6,1.552,15.6,19.865,0,17.372-5.073,19.83-12.273,20,8.185.148,14.147-1.151,14.147-20C66.031,35.781,58.4,35.441,48.554,35.493Z" transform="translate(-23.4 -30.123)" fill="#efaca9"/>
          <path id="Path_3304" data-name="Path 3304" d="M51.528,38.263s.436,3.1,3.365,2.371c0,0-2.842,3.243-5.4-1.124Z" transform="translate(-16.193 -8.722)" fill="#f6bcb8"/>
          <path id="Path_3305" data-name="Path 3305" d="M81,64.415s-.854-8.9,2.545-10.172V48.873h3.443s10.547-1.133,6.311-14H64.851A19.065,19.065,0,0,0,45.814,56.108c.035.314.078.636.131.959a39.394,39.394,0,0,0,4.123,13.058,15.554,15.554,0,0,0,13.659,8h0A15.657,15.657,0,0,0,76.984,70.8Z" transform="translate(-45.668 -34.874)" fill="#332416"/>
          <g id="Group_963" data-name="Group 963" transform="translate(38.167)">
            <path id="Path_3306" data-name="Path 3306" d="M59.513,34.874H56.358c4.236,12.866-6.311,14-6.311,14H53.2S63.75,47.74,59.513,34.874Z" transform="translate(-50.047 -34.874)" fill="#694a2d"/>
          </g>
        </g>
        <g id="Group_969" data-name="Group 969" transform="translate(63.426 163.006)">
          <g id="Group_966" data-name="Group 966" transform="translate(0 11.854)">
            <rect id="Rectangle_517" data-name="Rectangle 517" width="25.426" height="17.924" rx="0.167" transform="translate(0 5.473) rotate(-12.431)" fill="#f1f2f2"/>
            <path id="Path_3307" data-name="Path 3307" d="M51.781,60.664l21.992-4.846a1.455,1.455,0,0,1,1.735,1.107l-.183-.819A1.449,1.449,0,0,0,73.6,55L51.607,59.854A1.442,1.442,0,0,0,50.5,61.58l.174.811A1.457,1.457,0,0,1,51.781,60.664Z" transform="translate(-50.186 -54.689)" fill="#e6e7e8"/>
            <g id="Group_965" data-name="Group 965" transform="translate(21.987 2.03)">
              <path id="Path_3308" data-name="Path 3308" d="M54.041,57.892h0a.621.621,0,0,1-.741-.479l-.331-1.49a.631.631,0,0,1,.471-.741h0a.634.634,0,0,1,.75.479l.322,1.482A.622.622,0,0,1,54.041,57.892Z" transform="translate(-52.955 -55.167)" fill="#bcbec0"/>
              <path id="Path_3309" data-name="Path 3309" d="M53.842,55.532a.438.438,0,1,1-.523-.331A.434.434,0,0,1,53.842,55.532Z" transform="translate(-52.791 -54.995)" fill="#231f20"/>
              <path id="Path_3310" data-name="Path 3310" d="M53.407,55.376a.2.2,0,0,1-.157.244.206.206,0,0,1-.244-.157.221.221,0,0,1,.157-.244A.215.215,0,0,1,53.407,55.376Z" transform="translate(-52.583 -54.788)" fill="#22313f"/>
            </g>
          </g>
          <g id="Group_968" data-name="Group 968" transform="translate(2.378)">
            <path id="Path_3311" data-name="Path 3311" d="M50.706,57.119l1.181,3.248,8.269-2.391-.633-4.4Z" transform="translate(-50.706 -53.575)" fill="#efaca9"/>
            <g id="Group_967" data-name="Group 967" transform="translate(1.181 4.401)">
              <path id="Path_3312" data-name="Path 3312" d="M50.841,56.471l8.269-2.391,4.2,9.349-11.853,3.6Z" transform="translate(-50.841 -54.079)" fill="#efaca9"/>
              <path id="Path_3313" data-name="Path 3313" d="M50.912,56.361l1.813,5.875a1.108,1.108,0,0,0,1.325.75l.035-.009a1.1,1.1,0,0,0,.811-1.255l-1.055-6.259Z" transform="translate(-50.296 -43.404)" fill="#efaca9"/>
              <path id="Path_3314" data-name="Path 3314" d="M51.248,56.251l2.04,6.729a1.106,1.106,0,0,0,1.334.75h.017a1.1,1.1,0,0,0,.8-1.264l-1.273-7.1Z" transform="translate(-47.703 -44.183)" fill="#efaca9"/>
              <path id="Path_3315" data-name="Path 3315" d="M51.583,56.149l2.484,8.272a1.092,1.092,0,0,0,1.325.75h0a1.09,1.09,0,0,0,.8-1.273L54.512,55.26Z" transform="translate(-45.118 -44.97)" fill="#efaca9"/>
              <path id="Path_3316" data-name="Path 3316" d="M51.919,56.1l2.144,7.2a1.092,1.092,0,0,0,1.325.75l.035-.009a1.1,1.1,0,0,0,.811-1.238L55,55.152Z" transform="translate(-42.525 -45.803)" fill="#efaca9"/>
            </g>
          </g>
        </g>
        <path id="Path_3317" data-name="Path 3317" d="M119.213,156.985l-3.53-26.777V99.142a88.083,88.083,0,0,1,2.04-20,20.84,20.84,0,0,0-.41-10.059A34.439,34.439,0,0,0,98.694,47.051a64.537,64.537,0,0,0-16.553-5.457c-18.3-3.731-24.651,3.1-28.155,7.366,0,0-14.147,24.136-10.1,49.659.872,5.465,7.976,7.453,12.6,4.419l.95-.628c.349,3.208-.392,17.25.052,20.275,14.051,12.177,25.923,12.953,43.958,9.03l7.313,28C110.923,159.6,115.953,159.1,119.213,156.985Z" transform="translate(-43.157 8.683)" fill="#a765e6"/>
        <path id="Path_3318" data-name="Path 3318" d="M51.32,66.86C49.934,54.1,52.593,45.443,52.593,45.443s-2.824,5.09-3.522,15.96c-.584,9.152,2.885,27.422,3.992,32.975,1.063-.2,2.144-.427,3.251-.662A225.234,225.234,0,0,1,51.32,66.86Z" transform="translate(1.977 46.683)" opacity="0.15" style="mix-blend-mode: multiply;isolation: isolate"/>
        <path id="Path_3319" data-name="Path 3319" d="M55.358,58.294l.95-.628.052-11.349S53.684,62.05,43.3,55.618C45.238,59.732,51.261,60.978,55.358,58.294Z" transform="translate(-42.027 53.427)" opacity="0.15" style="mix-blend-mode: multiply;isolation: isolate"/>
      </g>
    </g>
  </g>
</svg>
