<svg xmlns="http://www.w3.org/2000/svg" xmlns:xlink="http://www.w3.org/1999/xlink" width="710" height="762.98" viewBox="0 0 710 762.98">
  <defs>
    <linearGradient id="linear-gradient" x1="0.5" x2="-0.301" y2="1" gradientUnits="objectBoundingBox">
      <stop offset="0" stop-color="#e7e9ff"/>
      <stop offset="0" stop-color="#e6e8ff"/>
      <stop offset="1" stop-color="#fafaff"/>
    </linearGradient>
  </defs>
  <g id="Group_861" data-name="Group 861" transform="translate(2177 -12158)">
    <rect id="Rectangle_509" data-name="Rectangle 509" width="710" height="762.98" transform="translate(-2177 12158)" fill="none"/>
    <g id="Group_860" data-name="Group 860" transform="translate(-66.885 641.37)">
      <path id="Path_1094" data-name="Path 1094" d="M444.6,518.176l-.569-.329-273.364-157.5,1.711-.988L506.693,166.34l.57.329,273.364,157.5-1.713.988ZM175.224,360.345,444.6,515.547,776.061,324.17l-269.369-155.2Z" transform="translate(-2222.391 11640.195)" fill="#e7e9ff"/>
      <g id="Group_550" data-name="Group 550" transform="translate(-1839.379 11597.462)">
        <g id="Group_430" data-name="Group 430">
          <g id="Group_421" data-name="Group 421">
            <path id="Union_6" data-name="Union 6" d="M73.69,349.026,4.209,308.917c-2.945-1.7-4.364-3.9-4.2-5.949V40.177L104.486,12.83,123.728,1.72c4.418-2.548,12.13-2.227,17.232.714L158.912,12.8l55.721-.028v0h0v263.5c.128,1.724-.837,3.389-2.955,4.614L90.918,349.745a11.074,11.074,0,0,1-2.1.921,17.39,17.39,0,0,1-5.388.8A20,20,0,0,1,73.69,349.026Z" transform="translate(0.011 35.018)" fill="url(#linear-gradient)"/>
            <path id="Path_1181" data-name="Path 1181" d="M301.723,261.187,422.48,192.331c4.415-2.548,3.862-7-1.237-9.948l-69.481-40.116c-5.1-2.942-12.815-3.262-17.23-.714L213.775,210.413c-4.418,2.548-3.862,7,1.237,9.948l69.481,40.113C289.592,263.419,297.3,263.738,301.723,261.187Z" transform="translate(-210.793 -139.833)" fill="#fafaff"/>
            <path id="Path_1182" data-name="Path 1182" d="M215,185.1l69.481,40.116c5.1,2.942,12.812,3.262,17.23.714l120.757-68.859a6.631,6.631,0,0,0,2.2-1.954c1.518,2.441.83,5.09-2.2,6.841L301.716,230.814c-4.418,2.551-12.131,2.232-17.23-.714L215,189.987c-3.964-2.288-5.168-5.485-3.441-7.994A9.642,9.642,0,0,0,215,185.1Z" transform="translate(-210.786 -109.46)" fill="#fafdff"/>
            <g id="Group_420" data-name="Group 420" transform="translate(78.339 42.849)">
              <g id="Group_419" data-name="Group 419" transform="translate(0 0)">
                <path id="Path_1184" data-name="Path 1184" d="M258.535,160.265l4.657-2.689c.287-.164.251-.454-.078-.645l-4.5-2.6a1.245,1.245,0,0,0-1.117-.048l-4.657,2.692c-.287.164-.251.451.081.642l4.5,2.6A1.244,1.244,0,0,0,258.535,160.265Z" transform="translate(-205.956 -154.177)" fill="#e7e9ff"/>
                <path id="Path_1185" data-name="Path 1185" d="M253.325,163.261l4.657-2.688c.287-.167.251-.454-.081-.645l-4.5-2.6a1.245,1.245,0,0,0-1.117-.048l-4.657,2.689c-.287.167-.251.454.078.645l4.5,2.6A1.245,1.245,0,0,0,253.325,163.261Z" transform="translate(-216.309 -148.223)" fill="#e7e9ff"/>
                <path id="Path_1186" data-name="Path 1186" d="M248.115,166.257l4.657-2.692c.287-.164.251-.451-.081-.642l-4.5-2.6a1.247,1.247,0,0,0-1.114-.045l-4.66,2.689c-.284.167-.248.454.081.645l4.5,2.6A1.245,1.245,0,0,0,248.115,166.257Z" transform="translate(-226.663 -142.269)" fill="#e7e9ff"/>
                <path id="Path_1187" data-name="Path 1187" d="M242.9,169.254l4.66-2.691c.287-.164.251-.454-.081-.642l-4.5-2.6a1.238,1.238,0,0,0-1.114-.045l-4.66,2.689c-.284.164-.248.454.081.645l4.5,2.6A1.238,1.238,0,0,0,242.9,169.254Z" transform="translate(-237.017 -136.316)" fill="#e7e9ff"/>
              </g>
            </g>
          </g>
          <g id="Group_423" data-name="Group 423" transform="translate(9.763 117.922)">
            <path id="Path_1189" data-name="Path 1189" d="M264.429,234.805l-45.711-26.171c-2.572-1.485-4.657-5.47-4.657-8.9V183.388c0-3.429,2.085-5.007,4.657-3.522l45.711,26.171c2.575,1.488,4.66,5.47,4.66,8.9v16.349C269.089,234.716,267,236.293,264.429,234.805Z" transform="translate(-214.061 -179.308)" fill="#cfd6fd" stroke="#fafaff" stroke-width="1"/>
            <path id="Path_1190" data-name="Path 1190" d="M216.457,179.33a4.564,4.564,0,0,0-1.168,3.4v16.346c0,3.429,2.085,7.414,4.657,8.9l45.711,26.171a3.335,3.335,0,0,0,2.261.493,2.776,2.776,0,0,1-3.489.12L218.718,208.59c-2.572-1.485-4.657-5.47-4.657-8.9V183.345C214.061,181.015,215.035,179.572,216.457,179.33Z" transform="translate(-214.061 -179.264)" fill="#fff" stroke="#fafaff" stroke-width="1"/>
          </g>
          <g id="Group_530" data-name="Group 530" transform="translate(9.763 164.422)">
            <path id="Path_1189-2" data-name="Path 1189" d="M264.429,234.805l-45.711-26.171c-2.572-1.485-4.657-5.47-4.657-8.9V183.388c0-3.429,2.085-5.007,4.657-3.522l45.711,26.171c2.575,1.488,4.66,5.47,4.66,8.9v16.349C269.089,234.716,267,236.293,264.429,234.805Z" transform="translate(-214.061 -179.308)" fill="#cfd6fd" stroke="#fafaff" stroke-width="1"/>
            <path id="Path_1190-2" data-name="Path 1190" d="M216.457,179.33a4.564,4.564,0,0,0-1.168,3.4v16.346c0,3.429,2.085,7.414,4.657,8.9l45.711,26.171a3.335,3.335,0,0,0,2.261.493,2.776,2.776,0,0,1-3.489.12L218.718,208.59c-2.572-1.485-4.657-5.47-4.657-8.9V183.345C214.061,181.015,215.035,179.572,216.457,179.33Z" transform="translate(-214.061 -179.264)" fill="#fff" stroke="#fafaff" stroke-width="1"/>
          </g>
          <g id="Group_531" data-name="Group 531" transform="translate(9.763 219.779)">
            <path id="Path_1189-3" data-name="Path 1189" d="M264.429,234.805l-45.711-26.171c-2.572-1.485-4.657-5.47-4.657-8.9V183.388c0-3.429,2.085-5.007,4.657-3.522l45.711,26.171c2.575,1.488,4.66,5.47,4.66,8.9v16.349C269.089,234.716,267,236.293,264.429,234.805Z" transform="translate(-214.061 -179.308)" fill="#cfd6fd" stroke="#fafaff" stroke-width="1"/>
            <path id="Path_1190-3" data-name="Path 1190" d="M216.457,179.33a4.564,4.564,0,0,0-1.168,3.4v16.346c0,3.429,2.085,7.414,4.657,8.9l45.711,26.171a3.335,3.335,0,0,0,2.261.493,2.776,2.776,0,0,1-3.489.12L218.718,208.59c-2.572-1.485-4.657-5.47-4.657-8.9V183.345C214.061,181.015,215.035,179.572,216.457,179.33Z" transform="translate(-214.061 -179.264)" fill="#fff" stroke="#fafaff" stroke-width="1"/>
          </g>
          <g id="Group_532" data-name="Group 532" transform="translate(9.763 275.136)">
            <path id="Path_1189-4" data-name="Path 1189" d="M264.429,234.805l-45.711-26.171c-2.572-1.485-4.657-5.47-4.657-8.9V183.388c0-3.429,2.085-5.007,4.657-3.522l45.711,26.171c2.575,1.488,4.66,5.47,4.66,8.9v16.349C269.089,234.716,267,236.293,264.429,234.805Z" transform="translate(-214.061 -179.308)" fill="#cfd6fd" stroke="#fafaff" stroke-width="1"/>
            <path id="Path_1190-4" data-name="Path 1190" d="M216.457,179.33a4.564,4.564,0,0,0-1.168,3.4v16.346c0,3.429,2.085,7.414,4.657,8.9l45.711,26.171a3.335,3.335,0,0,0,2.261.493,2.776,2.776,0,0,1-3.489.12L218.718,208.59c-2.572-1.485-4.657-5.47-4.657-8.9V183.345C214.061,181.015,215.035,179.572,216.457,179.33Z" transform="translate(-214.061 -179.264)" fill="#fff" stroke="#fafaff" stroke-width="1"/>
          </g>
        </g>
        <g id="Group_431" data-name="Group 431" transform="translate(95.45 63.779)">
          <path id="Path_1205" data-name="Path 1205" d="M247.02,254.092,352.482,193.2c2.36-1.362,4.272-5.019,4.272-8.164v-20.11c0-3.149-1.912-4.594-4.272-3.232L247.02,222.585c-2.36,1.362-4.275,5.019-4.275,8.164v20.11C242.745,254.008,244.66,255.454,247.02,254.092Z" transform="translate(-242.745 -161.183)" fill="#cfd6fd"/>
          <path id="Path_1206" data-name="Path 1206" d="M246.633,242.18l99.4-57.391a5.189,5.189,0,0,0,2.169-4.143V165.527c0-1.6-.971-2.33-2.169-1.637l-99.4,57.391a5.189,5.189,0,0,0-2.169,4.143v15.119C244.464,242.138,245.435,242.873,246.633,242.18Z" transform="translate(-239.329 -156.324)" fill="#5e5fb6" stroke="#a765e6" stroke-width="1" opacity="0.4"/>
          <path id="Path_1207" data-name="Path 1207" d="M272.93,181.757l14.838-8.565a5.045,5.045,0,0,0,2.1-4.024h0c0-1.55-.941-2.261-2.1-1.589l-14.838,8.564a5.046,5.046,0,0,0-2.1,4.024h0C270.827,181.718,271.768,182.429,272.93,181.757Z" transform="translate(-186.939 -148.976)" fill="#a765e6"/>
          <path id="Path_1208" data-name="Path 1208" d="M267.3,176.683c0,1.55,1.09,2.178,2.432,1.4a5.375,5.375,0,0,0,2.432-4.212c0-1.55-1.088-2.178-2.432-1.4A5.382,5.382,0,0,0,267.3,176.683Z" transform="translate(-193.95 -139.41)" fill="#fafaff"/>
          <path id="Path_1209" data-name="Path 1209" d="M264.428,178.342c0,1.55,1.087,2.178,2.432,1.4a5.382,5.382,0,0,0,2.432-4.212c0-1.55-1.09-2.181-2.432-1.4A5.374,5.374,0,0,0,264.428,178.342Z" transform="translate(-199.655 -136.116)" fill="#4949a8"/>
          <path id="Path_1210" data-name="Path 1210" d="M261.557,180c0,1.55,1.087,2.178,2.432,1.4a5.379,5.379,0,0,0,2.429-4.212c0-1.55-1.087-2.181-2.429-1.4A5.37,5.37,0,0,0,261.557,180Z" transform="translate(-205.361 -132.821)" fill="#4949a8"/>
          <path id="Path_1211" data-name="Path 1211" d="M258.685,181.656c0,1.55,1.09,2.181,2.432,1.4a5.364,5.364,0,0,0,2.432-4.209c0-1.553-1.087-2.181-2.432-1.4A5.372,5.372,0,0,0,258.685,181.656Z" transform="translate(-211.068 -129.526)" fill="#fafaff"/>
          <path id="Path_1212" data-name="Path 1212" d="M247.487,195.047l5-2.886a3.232,3.232,0,0,0,1.35-2.581v-5.287c0-.995-.6-1.452-1.35-1.022l-5,2.886a3.232,3.232,0,0,0-1.35,2.581v5.287C246.137,195.021,246.741,195.478,247.487,195.047Z" transform="translate(-236.004 -117.61)" fill="#a765e6"/>
        </g>
        <g id="Group_533" data-name="Group 533" transform="translate(95.45 99.207)">
          <path id="Path_1205-2" data-name="Path 1205" d="M247.02,254.092,352.482,193.2c2.36-1.362,4.272-5.019,4.272-8.164v-20.11c0-3.149-1.912-4.594-4.272-3.232L247.02,222.585c-2.36,1.362-4.275,5.019-4.275,8.164v20.11C242.745,254.008,244.66,255.454,247.02,254.092Z" transform="translate(-242.745 -161.183)" fill="#cfd6fd"/>
          <path id="Path_1206-2" data-name="Path 1206" d="M246.633,242.18l99.4-57.391a5.189,5.189,0,0,0,2.169-4.143V165.527c0-1.6-.971-2.33-2.169-1.637l-99.4,57.391a5.189,5.189,0,0,0-2.169,4.143v15.119C244.464,242.138,245.435,242.873,246.633,242.18Z" transform="translate(-239.329 -156.324)" fill="#5e5fb6" stroke="#a765e6" stroke-width="1" opacity="0.4"/>
          <path id="Path_1207-2" data-name="Path 1207" d="M272.93,181.757l14.838-8.565a5.045,5.045,0,0,0,2.1-4.024h0c0-1.55-.941-2.261-2.1-1.589l-14.838,8.564a5.046,5.046,0,0,0-2.1,4.024h0C270.827,181.718,271.768,182.429,272.93,181.757Z" transform="translate(-186.939 -148.976)" fill="#a765e6"/>
          <path id="Path_1208-2" data-name="Path 1208" d="M267.3,176.683c0,1.55,1.09,2.178,2.432,1.4a5.375,5.375,0,0,0,2.432-4.212c0-1.55-1.088-2.178-2.432-1.4A5.382,5.382,0,0,0,267.3,176.683Z" transform="translate(-193.95 -139.41)" fill="#fafaff"/>
          <path id="Path_1209-2" data-name="Path 1209" d="M264.428,178.342c0,1.55,1.087,2.178,2.432,1.4a5.382,5.382,0,0,0,2.432-4.212c0-1.55-1.09-2.181-2.432-1.4A5.374,5.374,0,0,0,264.428,178.342Z" transform="translate(-199.655 -136.116)" fill="#4949a8"/>
          <path id="Path_1210-2" data-name="Path 1210" d="M261.557,180c0,1.55,1.087,2.178,2.432,1.4a5.379,5.379,0,0,0,2.429-4.212c0-1.55-1.087-2.181-2.429-1.4A5.37,5.37,0,0,0,261.557,180Z" transform="translate(-205.361 -132.821)" fill="#4949a8"/>
          <path id="Path_1211-2" data-name="Path 1211" d="M258.685,181.656c0,1.55,1.09,2.181,2.432,1.4a5.364,5.364,0,0,0,2.432-4.209c0-1.553-1.087-2.181-2.432-1.4A5.372,5.372,0,0,0,258.685,181.656Z" transform="translate(-211.068 -129.526)" fill="#fafaff"/>
          <path id="Path_1212-2" data-name="Path 1212" d="M247.487,195.047l5-2.886a3.232,3.232,0,0,0,1.35-2.581v-5.287c0-.995-.6-1.452-1.35-1.022l-5,2.886a3.232,3.232,0,0,0-1.35,2.581v5.287C246.137,195.021,246.741,195.478,247.487,195.047Z" transform="translate(-236.004 -117.61)" fill="#a765e6"/>
        </g>
        <g id="Group_534" data-name="Group 534" transform="translate(95.45 134.636)">
          <path id="Path_1205-3" data-name="Path 1205" d="M247.02,254.092,352.482,193.2c2.36-1.362,4.272-5.019,4.272-8.164v-20.11c0-3.149-1.912-4.594-4.272-3.232L247.02,222.585c-2.36,1.362-4.275,5.019-4.275,8.164v20.11C242.745,254.008,244.66,255.454,247.02,254.092Z" transform="translate(-242.745 -161.183)" fill="#cfd6fd"/>
          <path id="Path_1206-3" data-name="Path 1206" d="M246.633,242.18l99.4-57.391a5.189,5.189,0,0,0,2.169-4.143V165.527c0-1.6-.971-2.33-2.169-1.637l-99.4,57.391a5.189,5.189,0,0,0-2.169,4.143v15.119C244.464,242.138,245.435,242.873,246.633,242.18Z" transform="translate(-239.329 -156.324)" fill="#5e5fb6" stroke="#a765e6" stroke-width="1" opacity="0.4"/>
          <path id="Path_1207-3" data-name="Path 1207" d="M272.93,181.757l14.838-8.565a5.045,5.045,0,0,0,2.1-4.024h0c0-1.55-.941-2.261-2.1-1.589l-14.838,8.564a5.046,5.046,0,0,0-2.1,4.024h0C270.827,181.718,271.768,182.429,272.93,181.757Z" transform="translate(-186.939 -148.976)" fill="#a765e6"/>
          <path id="Path_1208-3" data-name="Path 1208" d="M267.3,176.683c0,1.55,1.09,2.178,2.432,1.4a5.375,5.375,0,0,0,2.432-4.212c0-1.55-1.088-2.178-2.432-1.4A5.382,5.382,0,0,0,267.3,176.683Z" transform="translate(-193.95 -139.41)" fill="#fafaff"/>
          <path id="Path_1209-3" data-name="Path 1209" d="M264.428,178.342c0,1.55,1.087,2.178,2.432,1.4a5.382,5.382,0,0,0,2.432-4.212c0-1.55-1.09-2.181-2.432-1.4A5.374,5.374,0,0,0,264.428,178.342Z" transform="translate(-199.655 -136.116)" fill="#4949a8"/>
          <path id="Path_1210-3" data-name="Path 1210" d="M261.557,180c0,1.55,1.087,2.178,2.432,1.4a5.379,5.379,0,0,0,2.429-4.212c0-1.55-1.087-2.181-2.429-1.4A5.37,5.37,0,0,0,261.557,180Z" transform="translate(-205.361 -132.821)" fill="#4949a8"/>
          <path id="Path_1211-3" data-name="Path 1211" d="M258.685,181.656c0,1.55,1.09,2.181,2.432,1.4a5.364,5.364,0,0,0,2.432-4.209c0-1.553-1.087-2.181-2.432-1.4A5.372,5.372,0,0,0,258.685,181.656Z" transform="translate(-211.068 -129.526)" fill="#fafaff"/>
          <path id="Path_1212-3" data-name="Path 1212" d="M247.487,195.047l5-2.886a3.232,3.232,0,0,0,1.35-2.581v-5.287c0-.995-.6-1.452-1.35-1.022l-5,2.886a3.232,3.232,0,0,0-1.35,2.581v5.287C246.137,195.021,246.741,195.478,247.487,195.047Z" transform="translate(-236.004 -117.61)" fill="#a765e6"/>
        </g>
        <g id="Group_535" data-name="Group 535" transform="translate(95.45 170.064)">
          <path id="Path_1205-4" data-name="Path 1205" d="M247.02,254.092,352.482,193.2c2.36-1.362,4.272-5.019,4.272-8.164v-20.11c0-3.149-1.912-4.594-4.272-3.232L247.02,222.585c-2.36,1.362-4.275,5.019-4.275,8.164v20.11C242.745,254.008,244.66,255.454,247.02,254.092Z" transform="translate(-242.745 -161.183)" fill="#cfd6fd"/>
          <path id="Path_1206-4" data-name="Path 1206" d="M246.633,242.18l99.4-57.391a5.189,5.189,0,0,0,2.169-4.143V165.527c0-1.6-.971-2.33-2.169-1.637l-99.4,57.391a5.189,5.189,0,0,0-2.169,4.143v15.119C244.464,242.138,245.435,242.873,246.633,242.18Z" transform="translate(-239.329 -156.324)" fill="#5e5fb6" stroke="#a765e6" stroke-width="1" opacity="0.4"/>
          <path id="Path_1207-4" data-name="Path 1207" d="M272.93,181.757l14.838-8.565a5.045,5.045,0,0,0,2.1-4.024h0c0-1.55-.941-2.261-2.1-1.589l-14.838,8.564a5.046,5.046,0,0,0-2.1,4.024h0C270.827,181.718,271.768,182.429,272.93,181.757Z" transform="translate(-186.939 -148.976)" fill="#a765e6"/>
          <path id="Path_1208-4" data-name="Path 1208" d="M267.3,176.683c0,1.55,1.09,2.178,2.432,1.4a5.375,5.375,0,0,0,2.432-4.212c0-1.55-1.088-2.178-2.432-1.4A5.382,5.382,0,0,0,267.3,176.683Z" transform="translate(-193.95 -139.41)" fill="#fafaff"/>
          <path id="Path_1209-4" data-name="Path 1209" d="M264.428,178.342c0,1.55,1.087,2.178,2.432,1.4a5.382,5.382,0,0,0,2.432-4.212c0-1.55-1.09-2.181-2.432-1.4A5.374,5.374,0,0,0,264.428,178.342Z" transform="translate(-199.655 -136.116)" fill="#4949a8"/>
          <path id="Path_1210-4" data-name="Path 1210" d="M261.557,180c0,1.55,1.087,2.178,2.432,1.4a5.379,5.379,0,0,0,2.429-4.212c0-1.55-1.087-2.181-2.429-1.4A5.37,5.37,0,0,0,261.557,180Z" transform="translate(-205.361 -132.821)" fill="#4949a8"/>
          <path id="Path_1211-4" data-name="Path 1211" d="M258.685,181.656c0,1.55,1.09,2.181,2.432,1.4a5.364,5.364,0,0,0,2.432-4.209c0-1.553-1.087-2.181-2.432-1.4A5.372,5.372,0,0,0,258.685,181.656Z" transform="translate(-211.068 -129.526)" fill="#fafaff"/>
          <path id="Path_1212-4" data-name="Path 1212" d="M247.487,195.047l5-2.886a3.232,3.232,0,0,0,1.35-2.581v-5.287c0-.995-.6-1.452-1.35-1.022l-5,2.886a3.232,3.232,0,0,0-1.35,2.581v5.287C246.137,195.021,246.741,195.478,247.487,195.047Z" transform="translate(-236.004 -117.61)" fill="#a765e6"/>
        </g>
        <g id="Group_536" data-name="Group 536" transform="translate(95.45 207.707)">
          <path id="Path_1205-5" data-name="Path 1205" d="M247.02,254.092,352.482,193.2c2.36-1.362,4.272-5.019,4.272-8.164v-20.11c0-3.149-1.912-4.594-4.272-3.232L247.02,222.585c-2.36,1.362-4.275,5.019-4.275,8.164v20.11C242.745,254.008,244.66,255.454,247.02,254.092Z" transform="translate(-242.745 -161.183)" fill="#cfd6fd"/>
          <path id="Path_1206-5" data-name="Path 1206" d="M246.633,242.18l99.4-57.391a5.189,5.189,0,0,0,2.169-4.143V165.527c0-1.6-.971-2.33-2.169-1.637l-99.4,57.391a5.189,5.189,0,0,0-2.169,4.143v15.119C244.464,242.138,245.435,242.873,246.633,242.18Z" transform="translate(-239.329 -156.324)" fill="#5e5fb6" stroke="#a765e6" stroke-width="1" opacity="0.4"/>
          <path id="Path_1207-5" data-name="Path 1207" d="M272.93,181.757l14.838-8.565a5.045,5.045,0,0,0,2.1-4.024h0c0-1.55-.941-2.261-2.1-1.589l-14.838,8.564a5.046,5.046,0,0,0-2.1,4.024h0C270.827,181.718,271.768,182.429,272.93,181.757Z" transform="translate(-186.939 -148.976)" fill="#a765e6"/>
          <path id="Path_1208-5" data-name="Path 1208" d="M267.3,176.683c0,1.55,1.09,2.178,2.432,1.4a5.375,5.375,0,0,0,2.432-4.212c0-1.55-1.088-2.178-2.432-1.4A5.382,5.382,0,0,0,267.3,176.683Z" transform="translate(-193.95 -139.41)" fill="#fafaff"/>
          <path id="Path_1209-5" data-name="Path 1209" d="M264.428,178.342c0,1.55,1.087,2.178,2.432,1.4a5.382,5.382,0,0,0,2.432-4.212c0-1.55-1.09-2.181-2.432-1.4A5.374,5.374,0,0,0,264.428,178.342Z" transform="translate(-199.655 -136.116)" fill="#4949a8"/>
          <path id="Path_1210-5" data-name="Path 1210" d="M261.557,180c0,1.55,1.087,2.178,2.432,1.4a5.379,5.379,0,0,0,2.429-4.212c0-1.55-1.087-2.181-2.429-1.4A5.37,5.37,0,0,0,261.557,180Z" transform="translate(-205.361 -132.821)" fill="#4949a8"/>
          <path id="Path_1211-5" data-name="Path 1211" d="M258.685,181.656c0,1.55,1.09,2.181,2.432,1.4a5.364,5.364,0,0,0,2.432-4.209c0-1.553-1.087-2.181-2.432-1.4A5.372,5.372,0,0,0,258.685,181.656Z" transform="translate(-211.068 -129.526)" fill="#fafaff"/>
          <path id="Path_1212-5" data-name="Path 1212" d="M247.487,195.047l5-2.886a3.232,3.232,0,0,0,1.35-2.581v-5.287c0-.995-.6-1.452-1.35-1.022l-5,2.886a3.232,3.232,0,0,0-1.35,2.581v5.287C246.137,195.021,246.741,195.478,247.487,195.047Z" transform="translate(-236.004 -117.61)" fill="#a765e6"/>
        </g>
        <g id="Group_537" data-name="Group 537" transform="translate(95.45 245.35)">
          <path id="Path_1205-6" data-name="Path 1205" d="M247.02,254.092,352.482,193.2c2.36-1.362,4.272-5.019,4.272-8.164v-20.11c0-3.149-1.912-4.594-4.272-3.232L247.02,222.585c-2.36,1.362-4.275,5.019-4.275,8.164v20.11C242.745,254.008,244.66,255.454,247.02,254.092Z" transform="translate(-242.745 -161.183)" fill="#cfd6fd"/>
          <path id="Path_1206-6" data-name="Path 1206" d="M246.633,242.18l99.4-57.391a5.189,5.189,0,0,0,2.169-4.143V165.527c0-1.6-.971-2.33-2.169-1.637l-99.4,57.391a5.189,5.189,0,0,0-2.169,4.143v15.119C244.464,242.138,245.435,242.873,246.633,242.18Z" transform="translate(-239.329 -156.324)" fill="#5e5fb6" stroke="#a765e6" stroke-width="1" opacity="0.4"/>
          <path id="Path_1207-6" data-name="Path 1207" d="M272.93,181.757l14.838-8.565a5.045,5.045,0,0,0,2.1-4.024h0c0-1.55-.941-2.261-2.1-1.589l-14.838,8.564a5.046,5.046,0,0,0-2.1,4.024h0C270.827,181.718,271.768,182.429,272.93,181.757Z" transform="translate(-186.939 -148.976)" fill="#a765e6"/>
          <path id="Path_1208-6" data-name="Path 1208" d="M267.3,176.683c0,1.55,1.09,2.178,2.432,1.4a5.375,5.375,0,0,0,2.432-4.212c0-1.55-1.088-2.178-2.432-1.4A5.382,5.382,0,0,0,267.3,176.683Z" transform="translate(-193.95 -139.41)" fill="#fafaff"/>
          <path id="Path_1209-6" data-name="Path 1209" d="M264.428,178.342c0,1.55,1.087,2.178,2.432,1.4a5.382,5.382,0,0,0,2.432-4.212c0-1.55-1.09-2.181-2.432-1.4A5.374,5.374,0,0,0,264.428,178.342Z" transform="translate(-199.655 -136.116)" fill="#4949a8"/>
          <path id="Path_1210-6" data-name="Path 1210" d="M261.557,180c0,1.55,1.087,2.178,2.432,1.4a5.379,5.379,0,0,0,2.429-4.212c0-1.55-1.087-2.181-2.429-1.4A5.37,5.37,0,0,0,261.557,180Z" transform="translate(-205.361 -132.821)" fill="#4949a8"/>
          <path id="Path_1211-6" data-name="Path 1211" d="M258.685,181.656c0,1.55,1.09,2.181,2.432,1.4a5.364,5.364,0,0,0,2.432-4.209c0-1.553-1.087-2.181-2.432-1.4A5.372,5.372,0,0,0,258.685,181.656Z" transform="translate(-211.068 -129.526)" fill="#fafaff"/>
          <path id="Path_1212-6" data-name="Path 1212" d="M247.487,195.047l5-2.886a3.232,3.232,0,0,0,1.35-2.581v-5.287c0-.995-.6-1.452-1.35-1.022l-5,2.886a3.232,3.232,0,0,0-1.35,2.581v5.287C246.137,195.021,246.741,195.478,247.487,195.047Z" transform="translate(-236.004 -117.61)" fill="#a765e6"/>
        </g>
        <g id="Group_538" data-name="Group 538" transform="translate(95.45 280.779)">
          <path id="Path_1205-7" data-name="Path 1205" d="M247.02,254.092,352.482,193.2c2.36-1.362,4.272-5.019,4.272-8.164v-20.11c0-3.149-1.912-4.594-4.272-3.232L247.02,222.585c-2.36,1.362-4.275,5.019-4.275,8.164v20.11C242.745,254.008,244.66,255.454,247.02,254.092Z" transform="translate(-242.745 -161.183)" fill="#cfd6fd"/>
          <path id="Path_1206-7" data-name="Path 1206" d="M246.633,242.18l99.4-57.391a5.189,5.189,0,0,0,2.169-4.143V165.527c0-1.6-.971-2.33-2.169-1.637l-99.4,57.391a5.189,5.189,0,0,0-2.169,4.143v15.119C244.464,242.138,245.435,242.873,246.633,242.18Z" transform="translate(-239.329 -156.324)" fill="#5e5fb6" stroke="#a765e6" stroke-width="1" opacity="0.4"/>
          <path id="Path_1207-7" data-name="Path 1207" d="M272.93,181.757l14.838-8.565a5.045,5.045,0,0,0,2.1-4.024h0c0-1.55-.941-2.261-2.1-1.589l-14.838,8.564a5.046,5.046,0,0,0-2.1,4.024h0C270.827,181.718,271.768,182.429,272.93,181.757Z" transform="translate(-186.939 -148.976)" fill="#a765e6"/>
          <path id="Path_1208-7" data-name="Path 1208" d="M267.3,176.683c0,1.55,1.09,2.178,2.432,1.4a5.375,5.375,0,0,0,2.432-4.212c0-1.55-1.088-2.178-2.432-1.4A5.382,5.382,0,0,0,267.3,176.683Z" transform="translate(-193.95 -139.41)" fill="#fafaff"/>
          <path id="Path_1209-7" data-name="Path 1209" d="M264.428,178.342c0,1.55,1.087,2.178,2.432,1.4a5.382,5.382,0,0,0,2.432-4.212c0-1.55-1.09-2.181-2.432-1.4A5.374,5.374,0,0,0,264.428,178.342Z" transform="translate(-199.655 -136.116)" fill="#4949a8"/>
          <path id="Path_1210-7" data-name="Path 1210" d="M261.557,180c0,1.55,1.087,2.178,2.432,1.4a5.379,5.379,0,0,0,2.429-4.212c0-1.55-1.087-2.181-2.429-1.4A5.37,5.37,0,0,0,261.557,180Z" transform="translate(-205.361 -132.821)" fill="#4949a8"/>
          <path id="Path_1211-7" data-name="Path 1211" d="M258.685,181.656c0,1.55,1.09,2.181,2.432,1.4a5.364,5.364,0,0,0,2.432-4.209c0-1.553-1.087-2.181-2.432-1.4A5.372,5.372,0,0,0,258.685,181.656Z" transform="translate(-211.068 -129.526)" fill="#fafaff"/>
          <path id="Path_1212-7" data-name="Path 1212" d="M247.487,195.047l5-2.886a3.232,3.232,0,0,0,1.35-2.581v-5.287c0-.995-.6-1.452-1.35-1.022l-5,2.886a3.232,3.232,0,0,0-1.35,2.581v5.287C246.137,195.021,246.741,195.478,247.487,195.047Z" transform="translate(-236.004 -117.61)" fill="#a765e6"/>
        </g>
      </g>
      <g id="Group_551" data-name="Group 551" transform="translate(-1720.923 11669.201)">
        <g id="Group_430-2" data-name="Group 430">
          <g id="Group_421-2" data-name="Group 421">
            <path id="Union_6-2" data-name="Union 6" d="M73.69,349.026,4.209,308.917c-2.945-1.7-4.364-3.9-4.2-5.949V40.177L104.486,12.83,123.728,1.72c4.418-2.548,12.13-2.227,17.232.714L158.912,12.8l55.721-.028v0h0v263.5c.128,1.724-.837,3.389-2.955,4.614L90.918,349.745a11.074,11.074,0,0,1-2.1.921,17.39,17.39,0,0,1-5.388.8A20,20,0,0,1,73.69,349.026Z" transform="translate(0.011 35.018)" fill="url(#linear-gradient)"/>
            <path id="Path_1181-2" data-name="Path 1181" d="M301.723,261.187,422.48,192.331c4.415-2.548,3.862-7-1.237-9.948l-69.481-40.116c-5.1-2.942-12.815-3.262-17.23-.714L213.775,210.413c-4.418,2.548-3.862,7,1.237,9.948l69.481,40.113C289.592,263.419,297.3,263.738,301.723,261.187Z" transform="translate(-210.793 -139.833)" fill="#fafaff"/>
            <path id="Path_1182-2" data-name="Path 1182" d="M215,185.1l69.481,40.116c5.1,2.942,12.812,3.262,17.23.714l120.757-68.859a6.631,6.631,0,0,0,2.2-1.954c1.518,2.441.83,5.09-2.2,6.841L301.716,230.814c-4.418,2.551-12.131,2.232-17.23-.714L215,189.987c-3.964-2.288-5.168-5.485-3.441-7.994A9.642,9.642,0,0,0,215,185.1Z" transform="translate(-210.786 -109.46)" fill="#fafdff"/>
            <g id="Group_420-2" data-name="Group 420" transform="translate(78.339 42.849)">
              <g id="Group_419-2" data-name="Group 419" transform="translate(0 0)">
                <path id="Path_1184-2" data-name="Path 1184" d="M258.535,160.265l4.657-2.689c.287-.164.251-.454-.078-.645l-4.5-2.6a1.245,1.245,0,0,0-1.117-.048l-4.657,2.692c-.287.164-.251.451.081.642l4.5,2.6A1.244,1.244,0,0,0,258.535,160.265Z" transform="translate(-205.956 -154.177)" fill="#e7e9ff"/>
                <path id="Path_1185-2" data-name="Path 1185" d="M253.325,163.261l4.657-2.688c.287-.167.251-.454-.081-.645l-4.5-2.6a1.245,1.245,0,0,0-1.117-.048l-4.657,2.689c-.287.167-.251.454.078.645l4.5,2.6A1.245,1.245,0,0,0,253.325,163.261Z" transform="translate(-216.309 -148.223)" fill="#e7e9ff"/>
                <path id="Path_1186-2" data-name="Path 1186" d="M248.115,166.257l4.657-2.692c.287-.164.251-.451-.081-.642l-4.5-2.6a1.247,1.247,0,0,0-1.114-.045l-4.66,2.689c-.284.167-.248.454.081.645l4.5,2.6A1.245,1.245,0,0,0,248.115,166.257Z" transform="translate(-226.663 -142.269)" fill="#e7e9ff"/>
                <path id="Path_1187-2" data-name="Path 1187" d="M242.9,169.254l4.66-2.691c.287-.164.251-.454-.081-.642l-4.5-2.6a1.238,1.238,0,0,0-1.114-.045l-4.66,2.689c-.284.164-.248.454.081.645l4.5,2.6A1.238,1.238,0,0,0,242.9,169.254Z" transform="translate(-237.017 -136.316)" fill="#e7e9ff"/>
              </g>
            </g>
          </g>
          <g id="Group_423-2" data-name="Group 423" transform="translate(9.763 117.922)">
            <path id="Path_1189-5" data-name="Path 1189" d="M264.429,234.805l-45.711-26.171c-2.572-1.485-4.657-5.47-4.657-8.9V183.388c0-3.429,2.085-5.007,4.657-3.522l45.711,26.171c2.575,1.488,4.66,5.47,4.66,8.9v16.349C269.089,234.716,267,236.293,264.429,234.805Z" transform="translate(-214.061 -179.308)" fill="#cfd6fd" stroke="#fafaff" stroke-width="1"/>
            <path id="Path_1190-5" data-name="Path 1190" d="M216.457,179.33a4.564,4.564,0,0,0-1.168,3.4v16.346c0,3.429,2.085,7.414,4.657,8.9l45.711,26.171a3.335,3.335,0,0,0,2.261.493,2.776,2.776,0,0,1-3.489.12L218.718,208.59c-2.572-1.485-4.657-5.47-4.657-8.9V183.345C214.061,181.015,215.035,179.572,216.457,179.33Z" transform="translate(-214.061 -179.264)" fill="#fff" stroke="#fafaff" stroke-width="1"/>
          </g>
          <g id="Group_530-2" data-name="Group 530" transform="translate(9.763 164.422)">
            <path id="Path_1189-6" data-name="Path 1189" d="M264.429,234.805l-45.711-26.171c-2.572-1.485-4.657-5.47-4.657-8.9V183.388c0-3.429,2.085-5.007,4.657-3.522l45.711,26.171c2.575,1.488,4.66,5.47,4.66,8.9v16.349C269.089,234.716,267,236.293,264.429,234.805Z" transform="translate(-214.061 -179.308)" fill="#cfd6fd" stroke="#fafaff" stroke-width="1"/>
            <path id="Path_1190-6" data-name="Path 1190" d="M216.457,179.33a4.564,4.564,0,0,0-1.168,3.4v16.346c0,3.429,2.085,7.414,4.657,8.9l45.711,26.171a3.335,3.335,0,0,0,2.261.493,2.776,2.776,0,0,1-3.489.12L218.718,208.59c-2.572-1.485-4.657-5.47-4.657-8.9V183.345C214.061,181.015,215.035,179.572,216.457,179.33Z" transform="translate(-214.061 -179.264)" fill="#fff" stroke="#fafaff" stroke-width="1"/>
          </g>
          <g id="Group_531-2" data-name="Group 531" transform="translate(9.763 219.779)">
            <path id="Path_1189-7" data-name="Path 1189" d="M264.429,234.805l-45.711-26.171c-2.572-1.485-4.657-5.47-4.657-8.9V183.388c0-3.429,2.085-5.007,4.657-3.522l45.711,26.171c2.575,1.488,4.66,5.47,4.66,8.9v16.349C269.089,234.716,267,236.293,264.429,234.805Z" transform="translate(-214.061 -179.308)" fill="#cfd6fd" stroke="#fafaff" stroke-width="1"/>
            <path id="Path_1190-7" data-name="Path 1190" d="M216.457,179.33a4.564,4.564,0,0,0-1.168,3.4v16.346c0,3.429,2.085,7.414,4.657,8.9l45.711,26.171a3.335,3.335,0,0,0,2.261.493,2.776,2.776,0,0,1-3.489.12L218.718,208.59c-2.572-1.485-4.657-5.47-4.657-8.9V183.345C214.061,181.015,215.035,179.572,216.457,179.33Z" transform="translate(-214.061 -179.264)" fill="#fff" stroke="#fafaff" stroke-width="1"/>
          </g>
          <g id="Group_532-2" data-name="Group 532" transform="translate(9.763 275.136)">
            <path id="Path_1189-8" data-name="Path 1189" d="M264.429,234.805l-45.711-26.171c-2.572-1.485-4.657-5.47-4.657-8.9V183.388c0-3.429,2.085-5.007,4.657-3.522l45.711,26.171c2.575,1.488,4.66,5.47,4.66,8.9v16.349C269.089,234.716,267,236.293,264.429,234.805Z" transform="translate(-214.061 -179.308)" fill="#cfd6fd" stroke="#fafaff" stroke-width="1"/>
            <path id="Path_1190-8" data-name="Path 1190" d="M216.457,179.33a4.564,4.564,0,0,0-1.168,3.4v16.346c0,3.429,2.085,7.414,4.657,8.9l45.711,26.171a3.335,3.335,0,0,0,2.261.493,2.776,2.776,0,0,1-3.489.12L218.718,208.59c-2.572-1.485-4.657-5.47-4.657-8.9V183.345C214.061,181.015,215.035,179.572,216.457,179.33Z" transform="translate(-214.061 -179.264)" fill="#fff" stroke="#fafaff" stroke-width="1"/>
          </g>
        </g>
        <g id="Group_431-2" data-name="Group 431" transform="translate(95.45 63.779)">
          <path id="Path_1205-8" data-name="Path 1205" d="M247.02,254.092,352.482,193.2c2.36-1.362,4.272-5.019,4.272-8.164v-20.11c0-3.149-1.912-4.594-4.272-3.232L247.02,222.585c-2.36,1.362-4.275,5.019-4.275,8.164v20.11C242.745,254.008,244.66,255.454,247.02,254.092Z" transform="translate(-242.745 -161.183)" fill="#cfd6fd"/>
          <path id="Path_1206-8" data-name="Path 1206" d="M246.633,242.18l99.4-57.391a5.189,5.189,0,0,0,2.169-4.143V165.527c0-1.6-.971-2.33-2.169-1.637l-99.4,57.391a5.189,5.189,0,0,0-2.169,4.143v15.119C244.464,242.138,245.435,242.873,246.633,242.18Z" transform="translate(-239.329 -156.324)" fill="#5e5fb6" stroke="#a765e6" stroke-width="1" opacity="0.4"/>
          <path id="Path_1207-8" data-name="Path 1207" d="M272.93,181.757l14.838-8.565a5.045,5.045,0,0,0,2.1-4.024h0c0-1.55-.941-2.261-2.1-1.589l-14.838,8.564a5.046,5.046,0,0,0-2.1,4.024h0C270.827,181.718,271.768,182.429,272.93,181.757Z" transform="translate(-186.939 -148.976)" fill="#a765e6"/>
          <path id="Path_1208-8" data-name="Path 1208" d="M267.3,176.683c0,1.55,1.09,2.178,2.432,1.4a5.375,5.375,0,0,0,2.432-4.212c0-1.55-1.088-2.178-2.432-1.4A5.382,5.382,0,0,0,267.3,176.683Z" transform="translate(-193.95 -139.41)" fill="#fafaff"/>
          <path id="Path_1209-8" data-name="Path 1209" d="M264.428,178.342c0,1.55,1.087,2.178,2.432,1.4a5.382,5.382,0,0,0,2.432-4.212c0-1.55-1.09-2.181-2.432-1.4A5.374,5.374,0,0,0,264.428,178.342Z" transform="translate(-199.655 -136.116)" fill="#4949a8"/>
          <path id="Path_1210-8" data-name="Path 1210" d="M261.557,180c0,1.55,1.087,2.178,2.432,1.4a5.379,5.379,0,0,0,2.429-4.212c0-1.55-1.087-2.181-2.429-1.4A5.37,5.37,0,0,0,261.557,180Z" transform="translate(-205.361 -132.821)" fill="#4949a8"/>
          <path id="Path_1211-8" data-name="Path 1211" d="M258.685,181.656c0,1.55,1.09,2.181,2.432,1.4a5.364,5.364,0,0,0,2.432-4.209c0-1.553-1.087-2.181-2.432-1.4A5.372,5.372,0,0,0,258.685,181.656Z" transform="translate(-211.068 -129.526)" fill="#fafaff"/>
          <path id="Path_1212-8" data-name="Path 1212" d="M247.487,195.047l5-2.886a3.232,3.232,0,0,0,1.35-2.581v-5.287c0-.995-.6-1.452-1.35-1.022l-5,2.886a3.232,3.232,0,0,0-1.35,2.581v5.287C246.137,195.021,246.741,195.478,247.487,195.047Z" transform="translate(-236.004 -117.61)" fill="#a765e6"/>
        </g>
        <g id="Group_533-2" data-name="Group 533" transform="translate(95.45 99.207)">
          <path id="Path_1205-9" data-name="Path 1205" d="M247.02,254.092,352.482,193.2c2.36-1.362,4.272-5.019,4.272-8.164v-20.11c0-3.149-1.912-4.594-4.272-3.232L247.02,222.585c-2.36,1.362-4.275,5.019-4.275,8.164v20.11C242.745,254.008,244.66,255.454,247.02,254.092Z" transform="translate(-242.745 -161.183)" fill="#cfd6fd"/>
          <path id="Path_1206-9" data-name="Path 1206" d="M246.633,242.18l99.4-57.391a5.189,5.189,0,0,0,2.169-4.143V165.527c0-1.6-.971-2.33-2.169-1.637l-99.4,57.391a5.189,5.189,0,0,0-2.169,4.143v15.119C244.464,242.138,245.435,242.873,246.633,242.18Z" transform="translate(-239.329 -156.324)" fill="#5e5fb6" stroke="#a765e6" stroke-width="1" opacity="0.4"/>
          <path id="Path_1207-9" data-name="Path 1207" d="M272.93,181.757l14.838-8.565a5.045,5.045,0,0,0,2.1-4.024h0c0-1.55-.941-2.261-2.1-1.589l-14.838,8.564a5.046,5.046,0,0,0-2.1,4.024h0C270.827,181.718,271.768,182.429,272.93,181.757Z" transform="translate(-186.939 -148.976)" fill="#a765e6"/>
          <path id="Path_1208-9" data-name="Path 1208" d="M267.3,176.683c0,1.55,1.09,2.178,2.432,1.4a5.375,5.375,0,0,0,2.432-4.212c0-1.55-1.088-2.178-2.432-1.4A5.382,5.382,0,0,0,267.3,176.683Z" transform="translate(-193.95 -139.41)" fill="#fafaff"/>
          <path id="Path_1209-9" data-name="Path 1209" d="M264.428,178.342c0,1.55,1.087,2.178,2.432,1.4a5.382,5.382,0,0,0,2.432-4.212c0-1.55-1.09-2.181-2.432-1.4A5.374,5.374,0,0,0,264.428,178.342Z" transform="translate(-199.655 -136.116)" fill="#4949a8"/>
          <path id="Path_1210-9" data-name="Path 1210" d="M261.557,180c0,1.55,1.087,2.178,2.432,1.4a5.379,5.379,0,0,0,2.429-4.212c0-1.55-1.087-2.181-2.429-1.4A5.37,5.37,0,0,0,261.557,180Z" transform="translate(-205.361 -132.821)" fill="#4949a8"/>
          <path id="Path_1211-9" data-name="Path 1211" d="M258.685,181.656c0,1.55,1.09,2.181,2.432,1.4a5.364,5.364,0,0,0,2.432-4.209c0-1.553-1.087-2.181-2.432-1.4A5.372,5.372,0,0,0,258.685,181.656Z" transform="translate(-211.068 -129.526)" fill="#fafaff"/>
          <path id="Path_1212-9" data-name="Path 1212" d="M247.487,195.047l5-2.886a3.232,3.232,0,0,0,1.35-2.581v-5.287c0-.995-.6-1.452-1.35-1.022l-5,2.886a3.232,3.232,0,0,0-1.35,2.581v5.287C246.137,195.021,246.741,195.478,247.487,195.047Z" transform="translate(-236.004 -117.61)" fill="#a765e6"/>
        </g>
        <g id="Group_534-2" data-name="Group 534" transform="translate(95.45 134.636)">
          <path id="Path_1205-10" data-name="Path 1205" d="M247.02,254.092,352.482,193.2c2.36-1.362,4.272-5.019,4.272-8.164v-20.11c0-3.149-1.912-4.594-4.272-3.232L247.02,222.585c-2.36,1.362-4.275,5.019-4.275,8.164v20.11C242.745,254.008,244.66,255.454,247.02,254.092Z" transform="translate(-242.745 -161.183)" fill="#cfd6fd"/>
          <path id="Path_1206-10" data-name="Path 1206" d="M246.633,242.18l99.4-57.391a5.189,5.189,0,0,0,2.169-4.143V165.527c0-1.6-.971-2.33-2.169-1.637l-99.4,57.391a5.189,5.189,0,0,0-2.169,4.143v15.119C244.464,242.138,245.435,242.873,246.633,242.18Z" transform="translate(-239.329 -156.324)" fill="#5e5fb6" stroke="#a765e6" stroke-width="1" opacity="0.4"/>
          <path id="Path_1207-10" data-name="Path 1207" d="M272.93,181.757l14.838-8.565a5.045,5.045,0,0,0,2.1-4.024h0c0-1.55-.941-2.261-2.1-1.589l-14.838,8.564a5.046,5.046,0,0,0-2.1,4.024h0C270.827,181.718,271.768,182.429,272.93,181.757Z" transform="translate(-186.939 -148.976)" fill="#a765e6"/>
          <path id="Path_1208-10" data-name="Path 1208" d="M267.3,176.683c0,1.55,1.09,2.178,2.432,1.4a5.375,5.375,0,0,0,2.432-4.212c0-1.55-1.088-2.178-2.432-1.4A5.382,5.382,0,0,0,267.3,176.683Z" transform="translate(-193.95 -139.41)" fill="#fafaff"/>
          <path id="Path_1209-10" data-name="Path 1209" d="M264.428,178.342c0,1.55,1.087,2.178,2.432,1.4a5.382,5.382,0,0,0,2.432-4.212c0-1.55-1.09-2.181-2.432-1.4A5.374,5.374,0,0,0,264.428,178.342Z" transform="translate(-199.655 -136.116)" fill="#4949a8"/>
          <path id="Path_1210-10" data-name="Path 1210" d="M261.557,180c0,1.55,1.087,2.178,2.432,1.4a5.379,5.379,0,0,0,2.429-4.212c0-1.55-1.087-2.181-2.429-1.4A5.37,5.37,0,0,0,261.557,180Z" transform="translate(-205.361 -132.821)" fill="#4949a8"/>
          <path id="Path_1211-10" data-name="Path 1211" d="M258.685,181.656c0,1.55,1.09,2.181,2.432,1.4a5.364,5.364,0,0,0,2.432-4.209c0-1.553-1.087-2.181-2.432-1.4A5.372,5.372,0,0,0,258.685,181.656Z" transform="translate(-211.068 -129.526)" fill="#fafaff"/>
          <path id="Path_1212-10" data-name="Path 1212" d="M247.487,195.047l5-2.886a3.232,3.232,0,0,0,1.35-2.581v-5.287c0-.995-.6-1.452-1.35-1.022l-5,2.886a3.232,3.232,0,0,0-1.35,2.581v5.287C246.137,195.021,246.741,195.478,247.487,195.047Z" transform="translate(-236.004 -117.61)" fill="#a765e6"/>
        </g>
        <g id="Group_535-2" data-name="Group 535" transform="translate(95.45 170.064)">
          <path id="Path_1205-11" data-name="Path 1205" d="M247.02,254.092,352.482,193.2c2.36-1.362,4.272-5.019,4.272-8.164v-20.11c0-3.149-1.912-4.594-4.272-3.232L247.02,222.585c-2.36,1.362-4.275,5.019-4.275,8.164v20.11C242.745,254.008,244.66,255.454,247.02,254.092Z" transform="translate(-242.745 -161.183)" fill="#cfd6fd"/>
          <path id="Path_1206-11" data-name="Path 1206" d="M246.633,242.18l99.4-57.391a5.189,5.189,0,0,0,2.169-4.143V165.527c0-1.6-.971-2.33-2.169-1.637l-99.4,57.391a5.189,5.189,0,0,0-2.169,4.143v15.119C244.464,242.138,245.435,242.873,246.633,242.18Z" transform="translate(-239.329 -156.324)" fill="#5e5fb6" stroke="#a765e6" stroke-width="1" opacity="0.4"/>
          <path id="Path_1207-11" data-name="Path 1207" d="M272.93,181.757l14.838-8.565a5.045,5.045,0,0,0,2.1-4.024h0c0-1.55-.941-2.261-2.1-1.589l-14.838,8.564a5.046,5.046,0,0,0-2.1,4.024h0C270.827,181.718,271.768,182.429,272.93,181.757Z" transform="translate(-186.939 -148.976)" fill="#a765e6"/>
          <path id="Path_1208-11" data-name="Path 1208" d="M267.3,176.683c0,1.55,1.09,2.178,2.432,1.4a5.375,5.375,0,0,0,2.432-4.212c0-1.55-1.088-2.178-2.432-1.4A5.382,5.382,0,0,0,267.3,176.683Z" transform="translate(-193.95 -139.41)" fill="#fafaff"/>
          <path id="Path_1209-11" data-name="Path 1209" d="M264.428,178.342c0,1.55,1.087,2.178,2.432,1.4a5.382,5.382,0,0,0,2.432-4.212c0-1.55-1.09-2.181-2.432-1.4A5.374,5.374,0,0,0,264.428,178.342Z" transform="translate(-199.655 -136.116)" fill="#4949a8"/>
          <path id="Path_1210-11" data-name="Path 1210" d="M261.557,180c0,1.55,1.087,2.178,2.432,1.4a5.379,5.379,0,0,0,2.429-4.212c0-1.55-1.087-2.181-2.429-1.4A5.37,5.37,0,0,0,261.557,180Z" transform="translate(-205.361 -132.821)" fill="#4949a8"/>
          <path id="Path_1211-11" data-name="Path 1211" d="M258.685,181.656c0,1.55,1.09,2.181,2.432,1.4a5.364,5.364,0,0,0,2.432-4.209c0-1.553-1.087-2.181-2.432-1.4A5.372,5.372,0,0,0,258.685,181.656Z" transform="translate(-211.068 -129.526)" fill="#fafaff"/>
          <path id="Path_1212-11" data-name="Path 1212" d="M247.487,195.047l5-2.886a3.232,3.232,0,0,0,1.35-2.581v-5.287c0-.995-.6-1.452-1.35-1.022l-5,2.886a3.232,3.232,0,0,0-1.35,2.581v5.287C246.137,195.021,246.741,195.478,247.487,195.047Z" transform="translate(-236.004 -117.61)" fill="#a765e6"/>
        </g>
        <g id="Group_536-2" data-name="Group 536" transform="translate(95.45 207.707)">
          <path id="Path_1205-12" data-name="Path 1205" d="M247.02,254.092,352.482,193.2c2.36-1.362,4.272-5.019,4.272-8.164v-20.11c0-3.149-1.912-4.594-4.272-3.232L247.02,222.585c-2.36,1.362-4.275,5.019-4.275,8.164v20.11C242.745,254.008,244.66,255.454,247.02,254.092Z" transform="translate(-242.745 -161.183)" fill="#cfd6fd"/>
          <path id="Path_1206-12" data-name="Path 1206" d="M246.633,242.18l99.4-57.391a5.189,5.189,0,0,0,2.169-4.143V165.527c0-1.6-.971-2.33-2.169-1.637l-99.4,57.391a5.189,5.189,0,0,0-2.169,4.143v15.119C244.464,242.138,245.435,242.873,246.633,242.18Z" transform="translate(-239.329 -156.324)" fill="#5e5fb6" stroke="#a765e6" stroke-width="1" opacity="0.4"/>
          <path id="Path_1207-12" data-name="Path 1207" d="M272.93,181.757l14.838-8.565a5.045,5.045,0,0,0,2.1-4.024h0c0-1.55-.941-2.261-2.1-1.589l-14.838,8.564a5.046,5.046,0,0,0-2.1,4.024h0C270.827,181.718,271.768,182.429,272.93,181.757Z" transform="translate(-186.939 -148.976)" fill="#a765e6"/>
          <path id="Path_1208-12" data-name="Path 1208" d="M267.3,176.683c0,1.55,1.09,2.178,2.432,1.4a5.375,5.375,0,0,0,2.432-4.212c0-1.55-1.088-2.178-2.432-1.4A5.382,5.382,0,0,0,267.3,176.683Z" transform="translate(-193.95 -139.41)" fill="#fafaff"/>
          <path id="Path_1209-12" data-name="Path 1209" d="M264.428,178.342c0,1.55,1.087,2.178,2.432,1.4a5.382,5.382,0,0,0,2.432-4.212c0-1.55-1.09-2.181-2.432-1.4A5.374,5.374,0,0,0,264.428,178.342Z" transform="translate(-199.655 -136.116)" fill="#4949a8"/>
          <path id="Path_1210-12" data-name="Path 1210" d="M261.557,180c0,1.55,1.087,2.178,2.432,1.4a5.379,5.379,0,0,0,2.429-4.212c0-1.55-1.087-2.181-2.429-1.4A5.37,5.37,0,0,0,261.557,180Z" transform="translate(-205.361 -132.821)" fill="#4949a8"/>
          <path id="Path_1211-12" data-name="Path 1211" d="M258.685,181.656c0,1.55,1.09,2.181,2.432,1.4a5.364,5.364,0,0,0,2.432-4.209c0-1.553-1.087-2.181-2.432-1.4A5.372,5.372,0,0,0,258.685,181.656Z" transform="translate(-211.068 -129.526)" fill="#fafaff"/>
          <path id="Path_1212-12" data-name="Path 1212" d="M247.487,195.047l5-2.886a3.232,3.232,0,0,0,1.35-2.581v-5.287c0-.995-.6-1.452-1.35-1.022l-5,2.886a3.232,3.232,0,0,0-1.35,2.581v5.287C246.137,195.021,246.741,195.478,247.487,195.047Z" transform="translate(-236.004 -117.61)" fill="#a765e6"/>
        </g>
        <g id="Group_537-2" data-name="Group 537" transform="translate(95.45 245.35)">
          <path id="Path_1205-13" data-name="Path 1205" d="M247.02,254.092,352.482,193.2c2.36-1.362,4.272-5.019,4.272-8.164v-20.11c0-3.149-1.912-4.594-4.272-3.232L247.02,222.585c-2.36,1.362-4.275,5.019-4.275,8.164v20.11C242.745,254.008,244.66,255.454,247.02,254.092Z" transform="translate(-242.745 -161.183)" fill="#cfd6fd"/>
          <path id="Path_1206-13" data-name="Path 1206" d="M246.633,242.18l99.4-57.391a5.189,5.189,0,0,0,2.169-4.143V165.527c0-1.6-.971-2.33-2.169-1.637l-99.4,57.391a5.189,5.189,0,0,0-2.169,4.143v15.119C244.464,242.138,245.435,242.873,246.633,242.18Z" transform="translate(-239.329 -156.324)" fill="#5e5fb6" stroke="#a765e6" stroke-width="1" opacity="0.4"/>
          <path id="Path_1207-13" data-name="Path 1207" d="M272.93,181.757l14.838-8.565a5.045,5.045,0,0,0,2.1-4.024h0c0-1.55-.941-2.261-2.1-1.589l-14.838,8.564a5.046,5.046,0,0,0-2.1,4.024h0C270.827,181.718,271.768,182.429,272.93,181.757Z" transform="translate(-186.939 -148.976)" fill="#a765e6"/>
          <path id="Path_1208-13" data-name="Path 1208" d="M267.3,176.683c0,1.55,1.09,2.178,2.432,1.4a5.375,5.375,0,0,0,2.432-4.212c0-1.55-1.088-2.178-2.432-1.4A5.382,5.382,0,0,0,267.3,176.683Z" transform="translate(-193.95 -139.41)" fill="#fafaff"/>
          <path id="Path_1209-13" data-name="Path 1209" d="M264.428,178.342c0,1.55,1.087,2.178,2.432,1.4a5.382,5.382,0,0,0,2.432-4.212c0-1.55-1.09-2.181-2.432-1.4A5.374,5.374,0,0,0,264.428,178.342Z" transform="translate(-199.655 -136.116)" fill="#4949a8"/>
          <path id="Path_1210-13" data-name="Path 1210" d="M261.557,180c0,1.55,1.087,2.178,2.432,1.4a5.379,5.379,0,0,0,2.429-4.212c0-1.55-1.087-2.181-2.429-1.4A5.37,5.37,0,0,0,261.557,180Z" transform="translate(-205.361 -132.821)" fill="#4949a8"/>
          <path id="Path_1211-13" data-name="Path 1211" d="M258.685,181.656c0,1.55,1.09,2.181,2.432,1.4a5.364,5.364,0,0,0,2.432-4.209c0-1.553-1.087-2.181-2.432-1.4A5.372,5.372,0,0,0,258.685,181.656Z" transform="translate(-211.068 -129.526)" fill="#fafaff"/>
          <path id="Path_1212-13" data-name="Path 1212" d="M247.487,195.047l5-2.886a3.232,3.232,0,0,0,1.35-2.581v-5.287c0-.995-.6-1.452-1.35-1.022l-5,2.886a3.232,3.232,0,0,0-1.35,2.581v5.287C246.137,195.021,246.741,195.478,247.487,195.047Z" transform="translate(-236.004 -117.61)" fill="#a765e6"/>
        </g>
        <g id="Group_538-2" data-name="Group 538" transform="translate(95.45 280.779)">
          <path id="Path_1205-14" data-name="Path 1205" d="M247.02,254.092,352.482,193.2c2.36-1.362,4.272-5.019,4.272-8.164v-20.11c0-3.149-1.912-4.594-4.272-3.232L247.02,222.585c-2.36,1.362-4.275,5.019-4.275,8.164v20.11C242.745,254.008,244.66,255.454,247.02,254.092Z" transform="translate(-242.745 -161.183)" fill="#cfd6fd"/>
          <path id="Path_1206-14" data-name="Path 1206" d="M246.633,242.18l99.4-57.391a5.189,5.189,0,0,0,2.169-4.143V165.527c0-1.6-.971-2.33-2.169-1.637l-99.4,57.391a5.189,5.189,0,0,0-2.169,4.143v15.119C244.464,242.138,245.435,242.873,246.633,242.18Z" transform="translate(-239.329 -156.324)" fill="#5e5fb6" stroke="#a765e6" stroke-width="1" opacity="0.4"/>
          <path id="Path_1207-14" data-name="Path 1207" d="M272.93,181.757l14.838-8.565a5.045,5.045,0,0,0,2.1-4.024h0c0-1.55-.941-2.261-2.1-1.589l-14.838,8.564a5.046,5.046,0,0,0-2.1,4.024h0C270.827,181.718,271.768,182.429,272.93,181.757Z" transform="translate(-186.939 -148.976)" fill="#a765e6"/>
          <path id="Path_1208-14" data-name="Path 1208" d="M267.3,176.683c0,1.55,1.09,2.178,2.432,1.4a5.375,5.375,0,0,0,2.432-4.212c0-1.55-1.088-2.178-2.432-1.4A5.382,5.382,0,0,0,267.3,176.683Z" transform="translate(-193.95 -139.41)" fill="#fafaff"/>
          <path id="Path_1209-14" data-name="Path 1209" d="M264.428,178.342c0,1.55,1.087,2.178,2.432,1.4a5.382,5.382,0,0,0,2.432-4.212c0-1.55-1.09-2.181-2.432-1.4A5.374,5.374,0,0,0,264.428,178.342Z" transform="translate(-199.655 -136.116)" fill="#4949a8"/>
          <path id="Path_1210-14" data-name="Path 1210" d="M261.557,180c0,1.55,1.087,2.178,2.432,1.4a5.379,5.379,0,0,0,2.429-4.212c0-1.55-1.087-2.181-2.429-1.4A5.37,5.37,0,0,0,261.557,180Z" transform="translate(-205.361 -132.821)" fill="#4949a8"/>
          <path id="Path_1211-14" data-name="Path 1211" d="M258.685,181.656c0,1.55,1.09,2.181,2.432,1.4a5.364,5.364,0,0,0,2.432-4.209c0-1.553-1.087-2.181-2.432-1.4A5.372,5.372,0,0,0,258.685,181.656Z" transform="translate(-211.068 -129.526)" fill="#fafaff"/>
          <path id="Path_1212-14" data-name="Path 1212" d="M247.487,195.047l5-2.886a3.232,3.232,0,0,0,1.35-2.581v-5.287c0-.995-.6-1.452-1.35-1.022l-5,2.886a3.232,3.232,0,0,0-1.35,2.581v5.287C246.137,195.021,246.741,195.478,247.487,195.047Z" transform="translate(-236.004 -117.61)" fill="#a765e6"/>
        </g>
      </g>
      <g id="Group_438" data-name="Group 438" transform="translate(-1986.197 11672.538)">
        <g id="Group_430-3" data-name="Group 430">
          <g id="Group_421-3" data-name="Group 421">
            <path id="Union_6-3" data-name="Union 6" d="M73.69,349.026,4.209,308.917c-2.945-1.7-4.364-3.9-4.2-5.949V40.177L104.486,12.83,123.728,1.72c4.418-2.548,12.13-2.227,17.232.714L158.912,12.8l55.721-.028v0h0v263.5c.128,1.724-.837,3.389-2.955,4.614L90.918,349.745a11.074,11.074,0,0,1-2.1.921,17.39,17.39,0,0,1-5.388.8A20,20,0,0,1,73.69,349.026Z" transform="translate(0.011 35.018)" fill="url(#linear-gradient)"/>
            <path id="Path_1181-3" data-name="Path 1181" d="M301.723,261.187,422.48,192.331c4.415-2.548,3.862-7-1.237-9.948l-69.481-40.116c-5.1-2.942-12.815-3.262-17.23-.714L213.775,210.413c-4.418,2.548-3.862,7,1.237,9.948l69.481,40.113C289.592,263.419,297.3,263.738,301.723,261.187Z" transform="translate(-210.793 -139.833)" fill="#f8f8ff"/>
            <path id="Path_1182-3" data-name="Path 1182" d="M215,185.1l69.481,40.116c5.1,2.942,12.812,3.262,17.23.714l120.757-68.859a6.631,6.631,0,0,0,2.2-1.954c1.518,2.441.83,5.09-2.2,6.841L301.716,230.814c-4.418,2.551-12.131,2.232-17.23-.714L215,189.987c-3.964-2.288-5.168-5.485-3.441-7.994A9.642,9.642,0,0,0,215,185.1Z" transform="translate(-210.786 -109.46)" fill="#fafdff"/>
            <g id="Group_420-3" data-name="Group 420" transform="translate(78.339 42.849)">
              <g id="Group_419-3" data-name="Group 419" transform="translate(0 0)">
                <path id="Path_1184-3" data-name="Path 1184" d="M258.535,160.265l4.657-2.689c.287-.164.251-.454-.078-.645l-4.5-2.6a1.245,1.245,0,0,0-1.117-.048l-4.657,2.692c-.287.164-.251.451.081.642l4.5,2.6A1.244,1.244,0,0,0,258.535,160.265Z" transform="translate(-205.956 -154.177)" fill="#e7e9ff"/>
                <path id="Path_1185-3" data-name="Path 1185" d="M253.325,163.261l4.657-2.688c.287-.167.251-.454-.081-.645l-4.5-2.6a1.245,1.245,0,0,0-1.117-.048l-4.657,2.689c-.287.167-.251.454.078.645l4.5,2.6A1.245,1.245,0,0,0,253.325,163.261Z" transform="translate(-216.309 -148.223)" fill="#e7e9ff"/>
                <path id="Path_1186-3" data-name="Path 1186" d="M248.115,166.257l4.657-2.692c.287-.164.251-.451-.081-.642l-4.5-2.6a1.247,1.247,0,0,0-1.114-.045l-4.66,2.689c-.284.167-.248.454.081.645l4.5,2.6A1.245,1.245,0,0,0,248.115,166.257Z" transform="translate(-226.663 -142.269)" fill="#e7e9ff"/>
                <path id="Path_1187-3" data-name="Path 1187" d="M242.9,169.254l4.66-2.691c.287-.164.251-.454-.081-.642l-4.5-2.6a1.238,1.238,0,0,0-1.114-.045l-4.66,2.689c-.284.164-.248.454.081.645l4.5,2.6A1.238,1.238,0,0,0,242.9,169.254Z" transform="translate(-237.017 -136.316)" fill="#e7e9ff"/>
              </g>
            </g>
          </g>
          <g id="Group_423-3" data-name="Group 423" transform="translate(9.763 117.922)">
            <path id="Path_1189-9" data-name="Path 1189" d="M264.429,234.805l-45.711-26.171c-2.572-1.485-4.657-5.47-4.657-8.9V183.388c0-3.429,2.085-5.007,4.657-3.522l45.711,26.171c2.575,1.488,4.66,5.47,4.66,8.9v16.349C269.089,234.716,267,236.293,264.429,234.805Z" transform="translate(-214.061 -179.308)" fill="#cfd6fd" stroke="#fafaff" stroke-width="1"/>
            <path id="Path_1190-9" data-name="Path 1190" d="M216.457,179.33a4.564,4.564,0,0,0-1.168,3.4v16.346c0,3.429,2.085,7.414,4.657,8.9l45.711,26.171a3.335,3.335,0,0,0,2.261.493,2.776,2.776,0,0,1-3.489.12L218.718,208.59c-2.572-1.485-4.657-5.47-4.657-8.9V183.345C214.061,181.015,215.035,179.572,216.457,179.33Z" transform="translate(-214.061 -179.264)" fill="#fff" stroke="#fafaff" stroke-width="1"/>
          </g>
          <g id="Group_530-3" data-name="Group 530" transform="translate(9.763 164.422)">
            <path id="Path_1189-10" data-name="Path 1189" d="M264.429,234.805l-45.711-26.171c-2.572-1.485-4.657-5.47-4.657-8.9V183.388c0-3.429,2.085-5.007,4.657-3.522l45.711,26.171c2.575,1.488,4.66,5.47,4.66,8.9v16.349C269.089,234.716,267,236.293,264.429,234.805Z" transform="translate(-214.061 -179.308)" fill="#cfd6fd" stroke="#fafaff" stroke-width="1"/>
            <path id="Path_1190-10" data-name="Path 1190" d="M216.457,179.33a4.564,4.564,0,0,0-1.168,3.4v16.346c0,3.429,2.085,7.414,4.657,8.9l45.711,26.171a3.335,3.335,0,0,0,2.261.493,2.776,2.776,0,0,1-3.489.12L218.718,208.59c-2.572-1.485-4.657-5.47-4.657-8.9V183.345C214.061,181.015,215.035,179.572,216.457,179.33Z" transform="translate(-214.061 -179.264)" fill="#fff" stroke="#fafaff" stroke-width="1"/>
          </g>
          <g id="Group_531-3" data-name="Group 531" transform="translate(9.763 219.779)">
            <path id="Path_1189-11" data-name="Path 1189" d="M264.429,234.805l-45.711-26.171c-2.572-1.485-4.657-5.47-4.657-8.9V183.388c0-3.429,2.085-5.007,4.657-3.522l45.711,26.171c2.575,1.488,4.66,5.47,4.66,8.9v16.349C269.089,234.716,267,236.293,264.429,234.805Z" transform="translate(-214.061 -179.308)" fill="#cfd6fd" stroke="#fafaff" stroke-width="1"/>
            <path id="Path_1190-11" data-name="Path 1190" d="M216.457,179.33a4.564,4.564,0,0,0-1.168,3.4v16.346c0,3.429,2.085,7.414,4.657,8.9l45.711,26.171a3.335,3.335,0,0,0,2.261.493,2.776,2.776,0,0,1-3.489.12L218.718,208.59c-2.572-1.485-4.657-5.47-4.657-8.9V183.345C214.061,181.015,215.035,179.572,216.457,179.33Z" transform="translate(-214.061 -179.264)" fill="#fff" stroke="#fafaff" stroke-width="1"/>
          </g>
          <g id="Group_532-3" data-name="Group 532" transform="translate(9.763 275.136)">
            <path id="Path_1189-12" data-name="Path 1189" d="M264.429,234.805l-45.711-26.171c-2.572-1.485-4.657-5.47-4.657-8.9V183.388c0-3.429,2.085-5.007,4.657-3.522l45.711,26.171c2.575,1.488,4.66,5.47,4.66,8.9v16.349C269.089,234.716,267,236.293,264.429,234.805Z" transform="translate(-214.061 -179.308)" fill="#cfd6fd" stroke="#fafaff" stroke-width="1"/>
            <path id="Path_1190-12" data-name="Path 1190" d="M216.457,179.33a4.564,4.564,0,0,0-1.168,3.4v16.346c0,3.429,2.085,7.414,4.657,8.9l45.711,26.171a3.335,3.335,0,0,0,2.261.493,2.776,2.776,0,0,1-3.489.12L218.718,208.59c-2.572-1.485-4.657-5.47-4.657-8.9V183.345C214.061,181.015,215.035,179.572,216.457,179.33Z" transform="translate(-214.061 -179.264)" fill="#fff" stroke="#fafaff" stroke-width="1"/>
          </g>
        </g>
        <g id="Group_431-3" data-name="Group 431" transform="translate(95.45 63.779)">
          <path id="Path_1205-15" data-name="Path 1205" d="M247.02,254.092,352.482,193.2c2.36-1.362,4.272-5.019,4.272-8.164v-20.11c0-3.149-1.912-4.594-4.272-3.232L247.02,222.585c-2.36,1.362-4.275,5.019-4.275,8.164v20.11C242.745,254.008,244.66,255.454,247.02,254.092Z" transform="translate(-242.745 -161.183)" fill="#cfd6fd"/>
          <path id="Path_1206-15" data-name="Path 1206" d="M246.633,242.18l99.4-57.391a5.189,5.189,0,0,0,2.169-4.143V165.527c0-1.6-.971-2.33-2.169-1.637l-99.4,57.391a5.189,5.189,0,0,0-2.169,4.143v15.119C244.464,242.138,245.435,242.873,246.633,242.18Z" transform="translate(-239.329 -156.324)" fill="#5e5fb6" stroke="#a765e6" stroke-width="1" opacity="0.4"/>
          <path id="Path_1207-15" data-name="Path 1207" d="M272.93,181.757l14.838-8.565a5.045,5.045,0,0,0,2.1-4.024h0c0-1.55-.941-2.261-2.1-1.589l-14.838,8.564a5.046,5.046,0,0,0-2.1,4.024h0C270.827,181.718,271.768,182.429,272.93,181.757Z" transform="translate(-186.939 -148.976)" fill="#a765e6"/>
          <path id="Path_1208-15" data-name="Path 1208" d="M267.3,176.683c0,1.55,1.09,2.178,2.432,1.4a5.375,5.375,0,0,0,2.432-4.212c0-1.55-1.088-2.178-2.432-1.4A5.382,5.382,0,0,0,267.3,176.683Z" transform="translate(-193.95 -139.41)" fill="#fafaff"/>
          <path id="Path_1209-15" data-name="Path 1209" d="M264.428,178.342c0,1.55,1.087,2.178,2.432,1.4a5.382,5.382,0,0,0,2.432-4.212c0-1.55-1.09-2.181-2.432-1.4A5.374,5.374,0,0,0,264.428,178.342Z" transform="translate(-199.655 -136.116)" fill="#4949a8"/>
          <path id="Path_1210-15" data-name="Path 1210" d="M261.557,180c0,1.55,1.087,2.178,2.432,1.4a5.379,5.379,0,0,0,2.429-4.212c0-1.55-1.087-2.181-2.429-1.4A5.37,5.37,0,0,0,261.557,180Z" transform="translate(-205.361 -132.821)" fill="#4949a8"/>
          <path id="Path_1211-15" data-name="Path 1211" d="M258.685,181.656c0,1.55,1.09,2.181,2.432,1.4a5.364,5.364,0,0,0,2.432-4.209c0-1.553-1.087-2.181-2.432-1.4A5.372,5.372,0,0,0,258.685,181.656Z" transform="translate(-211.068 -129.526)" fill="#fafaff"/>
          <path id="Path_1212-15" data-name="Path 1212" d="M247.487,195.047l5-2.886a3.232,3.232,0,0,0,1.35-2.581v-5.287c0-.995-.6-1.452-1.35-1.022l-5,2.886a3.232,3.232,0,0,0-1.35,2.581v5.287C246.137,195.021,246.741,195.478,247.487,195.047Z" transform="translate(-236.004 -117.61)" fill="#a765e6"/>
        </g>
        <g id="Group_533-3" data-name="Group 533" transform="translate(95.45 99.207)">
          <path id="Path_1205-16" data-name="Path 1205" d="M247.02,254.092,352.482,193.2c2.36-1.362,4.272-5.019,4.272-8.164v-20.11c0-3.149-1.912-4.594-4.272-3.232L247.02,222.585c-2.36,1.362-4.275,5.019-4.275,8.164v20.11C242.745,254.008,244.66,255.454,247.02,254.092Z" transform="translate(-242.745 -161.183)" fill="#cfd6fd"/>
          <path id="Path_1206-16" data-name="Path 1206" d="M246.633,242.18l99.4-57.391a5.189,5.189,0,0,0,2.169-4.143V165.527c0-1.6-.971-2.33-2.169-1.637l-99.4,57.391a5.189,5.189,0,0,0-2.169,4.143v15.119C244.464,242.138,245.435,242.873,246.633,242.18Z" transform="translate(-239.329 -156.324)" fill="#5e5fb6" stroke="#a765e6" stroke-width="1" opacity="0.4"/>
          <path id="Path_1207-16" data-name="Path 1207" d="M272.93,181.757l14.838-8.565a5.045,5.045,0,0,0,2.1-4.024h0c0-1.55-.941-2.261-2.1-1.589l-14.838,8.564a5.046,5.046,0,0,0-2.1,4.024h0C270.827,181.718,271.768,182.429,272.93,181.757Z" transform="translate(-186.939 -148.976)" fill="#a765e6"/>
          <path id="Path_1208-16" data-name="Path 1208" d="M267.3,176.683c0,1.55,1.09,2.178,2.432,1.4a5.375,5.375,0,0,0,2.432-4.212c0-1.55-1.088-2.178-2.432-1.4A5.382,5.382,0,0,0,267.3,176.683Z" transform="translate(-193.95 -139.41)" fill="#fafaff"/>
          <path id="Path_1209-16" data-name="Path 1209" d="M264.428,178.342c0,1.55,1.087,2.178,2.432,1.4a5.382,5.382,0,0,0,2.432-4.212c0-1.55-1.09-2.181-2.432-1.4A5.374,5.374,0,0,0,264.428,178.342Z" transform="translate(-199.655 -136.116)" fill="#4949a8"/>
          <path id="Path_1210-16" data-name="Path 1210" d="M261.557,180c0,1.55,1.087,2.178,2.432,1.4a5.379,5.379,0,0,0,2.429-4.212c0-1.55-1.087-2.181-2.429-1.4A5.37,5.37,0,0,0,261.557,180Z" transform="translate(-205.361 -132.821)" fill="#4949a8"/>
          <path id="Path_1211-16" data-name="Path 1211" d="M258.685,181.656c0,1.55,1.09,2.181,2.432,1.4a5.364,5.364,0,0,0,2.432-4.209c0-1.553-1.087-2.181-2.432-1.4A5.372,5.372,0,0,0,258.685,181.656Z" transform="translate(-211.068 -129.526)" fill="#fafaff"/>
          <path id="Path_1212-16" data-name="Path 1212" d="M247.487,195.047l5-2.886a3.232,3.232,0,0,0,1.35-2.581v-5.287c0-.995-.6-1.452-1.35-1.022l-5,2.886a3.232,3.232,0,0,0-1.35,2.581v5.287C246.137,195.021,246.741,195.478,247.487,195.047Z" transform="translate(-236.004 -117.61)" fill="#a765e6"/>
        </g>
        <g id="Group_534-3" data-name="Group 534" transform="translate(95.45 134.636)">
          <path id="Path_1205-17" data-name="Path 1205" d="M247.02,254.092,352.482,193.2c2.36-1.362,4.272-5.019,4.272-8.164v-20.11c0-3.149-1.912-4.594-4.272-3.232L247.02,222.585c-2.36,1.362-4.275,5.019-4.275,8.164v20.11C242.745,254.008,244.66,255.454,247.02,254.092Z" transform="translate(-242.745 -161.183)" fill="#cfd6fd"/>
          <path id="Path_1206-17" data-name="Path 1206" d="M246.633,242.18l99.4-57.391a5.189,5.189,0,0,0,2.169-4.143V165.527c0-1.6-.971-2.33-2.169-1.637l-99.4,57.391a5.189,5.189,0,0,0-2.169,4.143v15.119C244.464,242.138,245.435,242.873,246.633,242.18Z" transform="translate(-239.329 -156.324)" fill="#5e5fb6" stroke="#a765e6" stroke-width="1" opacity="0.4"/>
          <path id="Path_1207-17" data-name="Path 1207" d="M272.93,181.757l14.838-8.565a5.045,5.045,0,0,0,2.1-4.024h0c0-1.55-.941-2.261-2.1-1.589l-14.838,8.564a5.046,5.046,0,0,0-2.1,4.024h0C270.827,181.718,271.768,182.429,272.93,181.757Z" transform="translate(-186.939 -148.976)" fill="#a765e6"/>
          <path id="Path_1208-17" data-name="Path 1208" d="M267.3,176.683c0,1.55,1.09,2.178,2.432,1.4a5.375,5.375,0,0,0,2.432-4.212c0-1.55-1.088-2.178-2.432-1.4A5.382,5.382,0,0,0,267.3,176.683Z" transform="translate(-193.95 -139.41)" fill="#fafaff"/>
          <path id="Path_1209-17" data-name="Path 1209" d="M264.428,178.342c0,1.55,1.087,2.178,2.432,1.4a5.382,5.382,0,0,0,2.432-4.212c0-1.55-1.09-2.181-2.432-1.4A5.374,5.374,0,0,0,264.428,178.342Z" transform="translate(-199.655 -136.116)" fill="#4949a8"/>
          <path id="Path_1210-17" data-name="Path 1210" d="M261.557,180c0,1.55,1.087,2.178,2.432,1.4a5.379,5.379,0,0,0,2.429-4.212c0-1.55-1.087-2.181-2.429-1.4A5.37,5.37,0,0,0,261.557,180Z" transform="translate(-205.361 -132.821)" fill="#4949a8"/>
          <path id="Path_1211-17" data-name="Path 1211" d="M258.685,181.656c0,1.55,1.09,2.181,2.432,1.4a5.364,5.364,0,0,0,2.432-4.209c0-1.553-1.087-2.181-2.432-1.4A5.372,5.372,0,0,0,258.685,181.656Z" transform="translate(-211.068 -129.526)" fill="#fafaff"/>
          <path id="Path_1212-17" data-name="Path 1212" d="M247.487,195.047l5-2.886a3.232,3.232,0,0,0,1.35-2.581v-5.287c0-.995-.6-1.452-1.35-1.022l-5,2.886a3.232,3.232,0,0,0-1.35,2.581v5.287C246.137,195.021,246.741,195.478,247.487,195.047Z" transform="translate(-236.004 -117.61)" fill="#a765e6"/>
        </g>
        <g id="Group_535-3" data-name="Group 535" transform="translate(95.45 170.064)">
          <path id="Path_1205-18" data-name="Path 1205" d="M247.02,254.092,352.482,193.2c2.36-1.362,4.272-5.019,4.272-8.164v-20.11c0-3.149-1.912-4.594-4.272-3.232L247.02,222.585c-2.36,1.362-4.275,5.019-4.275,8.164v20.11C242.745,254.008,244.66,255.454,247.02,254.092Z" transform="translate(-242.745 -161.183)" fill="#cfd6fd"/>
          <path id="Path_1206-18" data-name="Path 1206" d="M246.633,242.18l99.4-57.391a5.189,5.189,0,0,0,2.169-4.143V165.527c0-1.6-.971-2.33-2.169-1.637l-99.4,57.391a5.189,5.189,0,0,0-2.169,4.143v15.119C244.464,242.138,245.435,242.873,246.633,242.18Z" transform="translate(-239.329 -156.324)" fill="#5e5fb6" stroke="#a765e6" stroke-width="1" opacity="0.4"/>
          <path id="Path_1207-18" data-name="Path 1207" d="M272.93,181.757l14.838-8.565a5.045,5.045,0,0,0,2.1-4.024h0c0-1.55-.941-2.261-2.1-1.589l-14.838,8.564a5.046,5.046,0,0,0-2.1,4.024h0C270.827,181.718,271.768,182.429,272.93,181.757Z" transform="translate(-186.939 -148.976)" fill="#a765e6"/>
          <path id="Path_1208-18" data-name="Path 1208" d="M267.3,176.683c0,1.55,1.09,2.178,2.432,1.4a5.375,5.375,0,0,0,2.432-4.212c0-1.55-1.088-2.178-2.432-1.4A5.382,5.382,0,0,0,267.3,176.683Z" transform="translate(-193.95 -139.41)" fill="#fafaff"/>
          <path id="Path_1209-18" data-name="Path 1209" d="M264.428,178.342c0,1.55,1.087,2.178,2.432,1.4a5.382,5.382,0,0,0,2.432-4.212c0-1.55-1.09-2.181-2.432-1.4A5.374,5.374,0,0,0,264.428,178.342Z" transform="translate(-199.655 -136.116)" fill="#4949a8"/>
          <path id="Path_1210-18" data-name="Path 1210" d="M261.557,180c0,1.55,1.087,2.178,2.432,1.4a5.379,5.379,0,0,0,2.429-4.212c0-1.55-1.087-2.181-2.429-1.4A5.37,5.37,0,0,0,261.557,180Z" transform="translate(-205.361 -132.821)" fill="#4949a8"/>
          <path id="Path_1211-18" data-name="Path 1211" d="M258.685,181.656c0,1.55,1.09,2.181,2.432,1.4a5.364,5.364,0,0,0,2.432-4.209c0-1.553-1.087-2.181-2.432-1.4A5.372,5.372,0,0,0,258.685,181.656Z" transform="translate(-211.068 -129.526)" fill="#fafaff"/>
          <path id="Path_1212-18" data-name="Path 1212" d="M247.487,195.047l5-2.886a3.232,3.232,0,0,0,1.35-2.581v-5.287c0-.995-.6-1.452-1.35-1.022l-5,2.886a3.232,3.232,0,0,0-1.35,2.581v5.287C246.137,195.021,246.741,195.478,247.487,195.047Z" transform="translate(-236.004 -117.61)" fill="#a765e6"/>
        </g>
        <g id="Group_536-3" data-name="Group 536" transform="translate(95.45 207.707)">
          <path id="Path_1205-19" data-name="Path 1205" d="M247.02,254.092,352.482,193.2c2.36-1.362,4.272-5.019,4.272-8.164v-20.11c0-3.149-1.912-4.594-4.272-3.232L247.02,222.585c-2.36,1.362-4.275,5.019-4.275,8.164v20.11C242.745,254.008,244.66,255.454,247.02,254.092Z" transform="translate(-242.745 -161.183)" fill="#cfd6fd"/>
          <path id="Path_1206-19" data-name="Path 1206" d="M246.633,242.18l99.4-57.391a5.189,5.189,0,0,0,2.169-4.143V165.527c0-1.6-.971-2.33-2.169-1.637l-99.4,57.391a5.189,5.189,0,0,0-2.169,4.143v15.119C244.464,242.138,245.435,242.873,246.633,242.18Z" transform="translate(-239.329 -156.324)" fill="#5e5fb6" stroke="#a765e6" stroke-width="1" opacity="0.4"/>
          <path id="Path_1207-19" data-name="Path 1207" d="M272.93,181.757l14.838-8.565a5.045,5.045,0,0,0,2.1-4.024h0c0-1.55-.941-2.261-2.1-1.589l-14.838,8.564a5.046,5.046,0,0,0-2.1,4.024h0C270.827,181.718,271.768,182.429,272.93,181.757Z" transform="translate(-186.939 -148.976)" fill="#a765e6"/>
          <path id="Path_1208-19" data-name="Path 1208" d="M267.3,176.683c0,1.55,1.09,2.178,2.432,1.4a5.375,5.375,0,0,0,2.432-4.212c0-1.55-1.088-2.178-2.432-1.4A5.382,5.382,0,0,0,267.3,176.683Z" transform="translate(-193.95 -139.41)" fill="#fafaff"/>
          <path id="Path_1209-19" data-name="Path 1209" d="M264.428,178.342c0,1.55,1.087,2.178,2.432,1.4a5.382,5.382,0,0,0,2.432-4.212c0-1.55-1.09-2.181-2.432-1.4A5.374,5.374,0,0,0,264.428,178.342Z" transform="translate(-199.655 -136.116)" fill="#4949a8"/>
          <path id="Path_1210-19" data-name="Path 1210" d="M261.557,180c0,1.55,1.087,2.178,2.432,1.4a5.379,5.379,0,0,0,2.429-4.212c0-1.55-1.087-2.181-2.429-1.4A5.37,5.37,0,0,0,261.557,180Z" transform="translate(-205.361 -132.821)" fill="#4949a8"/>
          <path id="Path_1211-19" data-name="Path 1211" d="M258.685,181.656c0,1.55,1.09,2.181,2.432,1.4a5.364,5.364,0,0,0,2.432-4.209c0-1.553-1.087-2.181-2.432-1.4A5.372,5.372,0,0,0,258.685,181.656Z" transform="translate(-211.068 -129.526)" fill="#fafaff"/>
          <path id="Path_1212-19" data-name="Path 1212" d="M247.487,195.047l5-2.886a3.232,3.232,0,0,0,1.35-2.581v-5.287c0-.995-.6-1.452-1.35-1.022l-5,2.886a3.232,3.232,0,0,0-1.35,2.581v5.287C246.137,195.021,246.741,195.478,247.487,195.047Z" transform="translate(-236.004 -117.61)" fill="#a765e6"/>
        </g>
        <g id="Group_537-3" data-name="Group 537" transform="translate(95.45 245.35)">
          <path id="Path_1205-20" data-name="Path 1205" d="M247.02,254.092,352.482,193.2c2.36-1.362,4.272-5.019,4.272-8.164v-20.11c0-3.149-1.912-4.594-4.272-3.232L247.02,222.585c-2.36,1.362-4.275,5.019-4.275,8.164v20.11C242.745,254.008,244.66,255.454,247.02,254.092Z" transform="translate(-242.745 -161.183)" fill="#cfd6fd"/>
          <path id="Path_1206-20" data-name="Path 1206" d="M246.633,242.18l99.4-57.391a5.189,5.189,0,0,0,2.169-4.143V165.527c0-1.6-.971-2.33-2.169-1.637l-99.4,57.391a5.189,5.189,0,0,0-2.169,4.143v15.119C244.464,242.138,245.435,242.873,246.633,242.18Z" transform="translate(-239.329 -156.324)" fill="#5e5fb6" stroke="#a765e6" stroke-width="1" opacity="0.4"/>
          <path id="Path_1207-20" data-name="Path 1207" d="M272.93,181.757l14.838-8.565a5.045,5.045,0,0,0,2.1-4.024h0c0-1.55-.941-2.261-2.1-1.589l-14.838,8.564a5.046,5.046,0,0,0-2.1,4.024h0C270.827,181.718,271.768,182.429,272.93,181.757Z" transform="translate(-186.939 -148.976)" fill="#a765e6"/>
          <path id="Path_1208-20" data-name="Path 1208" d="M267.3,176.683c0,1.55,1.09,2.178,2.432,1.4a5.375,5.375,0,0,0,2.432-4.212c0-1.55-1.088-2.178-2.432-1.4A5.382,5.382,0,0,0,267.3,176.683Z" transform="translate(-193.95 -139.41)" fill="#fafaff"/>
          <path id="Path_1209-20" data-name="Path 1209" d="M264.428,178.342c0,1.55,1.087,2.178,2.432,1.4a5.382,5.382,0,0,0,2.432-4.212c0-1.55-1.09-2.181-2.432-1.4A5.374,5.374,0,0,0,264.428,178.342Z" transform="translate(-199.655 -136.116)" fill="#4949a8"/>
          <path id="Path_1210-20" data-name="Path 1210" d="M261.557,180c0,1.55,1.087,2.178,2.432,1.4a5.379,5.379,0,0,0,2.429-4.212c0-1.55-1.087-2.181-2.429-1.4A5.37,5.37,0,0,0,261.557,180Z" transform="translate(-205.361 -132.821)" fill="#4949a8"/>
          <path id="Path_1211-20" data-name="Path 1211" d="M258.685,181.656c0,1.55,1.09,2.181,2.432,1.4a5.364,5.364,0,0,0,2.432-4.209c0-1.553-1.087-2.181-2.432-1.4A5.372,5.372,0,0,0,258.685,181.656Z" transform="translate(-211.068 -129.526)" fill="#fafaff"/>
          <path id="Path_1212-20" data-name="Path 1212" d="M247.487,195.047l5-2.886a3.232,3.232,0,0,0,1.35-2.581v-5.287c0-.995-.6-1.452-1.35-1.022l-5,2.886a3.232,3.232,0,0,0-1.35,2.581v5.287C246.137,195.021,246.741,195.478,247.487,195.047Z" transform="translate(-236.004 -117.61)" fill="#a765e6"/>
        </g>
        <g id="Group_538-3" data-name="Group 538" transform="translate(95.45 280.779)">
          <path id="Path_1205-21" data-name="Path 1205" d="M247.02,254.092,352.482,193.2c2.36-1.362,4.272-5.019,4.272-8.164v-20.11c0-3.149-1.912-4.594-4.272-3.232L247.02,222.585c-2.36,1.362-4.275,5.019-4.275,8.164v20.11C242.745,254.008,244.66,255.454,247.02,254.092Z" transform="translate(-242.745 -161.183)" fill="#cfd6fd"/>
          <path id="Path_1206-21" data-name="Path 1206" d="M246.633,242.18l99.4-57.391a5.189,5.189,0,0,0,2.169-4.143V165.527c0-1.6-.971-2.33-2.169-1.637l-99.4,57.391a5.189,5.189,0,0,0-2.169,4.143v15.119C244.464,242.138,245.435,242.873,246.633,242.18Z" transform="translate(-239.329 -156.324)" fill="#5e5fb6" stroke="#a765e6" stroke-width="1" opacity="0.4"/>
          <path id="Path_1207-21" data-name="Path 1207" d="M272.93,181.757l14.838-8.565a5.045,5.045,0,0,0,2.1-4.024h0c0-1.55-.941-2.261-2.1-1.589l-14.838,8.564a5.046,5.046,0,0,0-2.1,4.024h0C270.827,181.718,271.768,182.429,272.93,181.757Z" transform="translate(-186.939 -148.976)" fill="#a765e6"/>
          <path id="Path_1208-21" data-name="Path 1208" d="M267.3,176.683c0,1.55,1.09,2.178,2.432,1.4a5.375,5.375,0,0,0,2.432-4.212c0-1.55-1.088-2.178-2.432-1.4A5.382,5.382,0,0,0,267.3,176.683Z" transform="translate(-193.95 -139.41)" fill="#fafaff"/>
          <path id="Path_1209-21" data-name="Path 1209" d="M264.428,178.342c0,1.55,1.087,2.178,2.432,1.4a5.382,5.382,0,0,0,2.432-4.212c0-1.55-1.09-2.181-2.432-1.4A5.374,5.374,0,0,0,264.428,178.342Z" transform="translate(-199.655 -136.116)" fill="#4949a8"/>
          <path id="Path_1210-21" data-name="Path 1210" d="M261.557,180c0,1.55,1.087,2.178,2.432,1.4a5.379,5.379,0,0,0,2.429-4.212c0-1.55-1.087-2.181-2.429-1.4A5.37,5.37,0,0,0,261.557,180Z" transform="translate(-205.361 -132.821)" fill="#4949a8"/>
          <path id="Path_1211-21" data-name="Path 1211" d="M258.685,181.656c0,1.55,1.09,2.181,2.432,1.4a5.364,5.364,0,0,0,2.432-4.209c0-1.553-1.087-2.181-2.432-1.4A5.372,5.372,0,0,0,258.685,181.656Z" transform="translate(-211.068 -129.526)" fill="#fafaff"/>
          <path id="Path_1212-21" data-name="Path 1212" d="M247.487,195.047l5-2.886a3.232,3.232,0,0,0,1.35-2.581v-5.287c0-.995-.6-1.452-1.35-1.022l-5,2.886a3.232,3.232,0,0,0-1.35,2.581v5.287C246.137,195.021,246.741,195.478,247.487,195.047Z" transform="translate(-236.004 -117.61)" fill="#a765e6"/>
        </g>
      </g>
      <g id="Group_552" data-name="Group 552" transform="translate(-1867.741 11744.279)">
        <g id="Group_430-4" data-name="Group 430">
          <g id="Group_421-4" data-name="Group 421">
            <path id="Union_6-4" data-name="Union 6" d="M73.69,349.026,4.209,308.917c-2.945-1.7-4.364-3.9-4.2-5.949V40.177L104.486,12.83,123.728,1.72c4.418-2.548,12.13-2.227,17.232.714L158.912,12.8l55.721-.028v0h0v263.5c.128,1.724-.837,3.389-2.955,4.614L90.918,349.745a11.074,11.074,0,0,1-2.1.921,17.39,17.39,0,0,1-5.388.8A20,20,0,0,1,73.69,349.026Z" transform="translate(0.011 35.018)" fill="url(#linear-gradient)"/>
            <path id="Path_1181-4" data-name="Path 1181" d="M301.723,261.187,422.48,192.331c4.415-2.548,3.862-7-1.237-9.948l-69.481-40.116c-5.1-2.942-12.815-3.262-17.23-.714L213.775,210.413c-4.418,2.548-3.862,7,1.237,9.948l69.481,40.113C289.592,263.419,297.3,263.738,301.723,261.187Z" transform="translate(-210.793 -139.833)" fill="#fafaff"/>
            <path id="Path_1182-4" data-name="Path 1182" d="M215,185.1l69.481,40.116c5.1,2.942,12.812,3.262,17.23.714l120.757-68.859a6.631,6.631,0,0,0,2.2-1.954c1.518,2.441.83,5.09-2.2,6.841L301.716,230.814c-4.418,2.551-12.131,2.232-17.23-.714L215,189.987c-3.964-2.288-5.168-5.485-3.441-7.994A9.642,9.642,0,0,0,215,185.1Z" transform="translate(-210.786 -109.46)" fill="#fafdff"/>
            <g id="Group_420-4" data-name="Group 420" transform="translate(78.339 42.849)">
              <g id="Group_419-4" data-name="Group 419" transform="translate(0 0)">
                <path id="Path_1184-4" data-name="Path 1184" d="M258.535,160.265l4.657-2.689c.287-.164.251-.454-.078-.645l-4.5-2.6a1.245,1.245,0,0,0-1.117-.048l-4.657,2.692c-.287.164-.251.451.081.642l4.5,2.6A1.244,1.244,0,0,0,258.535,160.265Z" transform="translate(-205.956 -154.177)" fill="#e7e9ff"/>
                <path id="Path_1185-4" data-name="Path 1185" d="M253.325,163.261l4.657-2.688c.287-.167.251-.454-.081-.645l-4.5-2.6a1.245,1.245,0,0,0-1.117-.048l-4.657,2.689c-.287.167-.251.454.078.645l4.5,2.6A1.245,1.245,0,0,0,253.325,163.261Z" transform="translate(-216.309 -148.223)" fill="#e7e9ff"/>
                <path id="Path_1186-4" data-name="Path 1186" d="M248.115,166.257l4.657-2.692c.287-.164.251-.451-.081-.642l-4.5-2.6a1.247,1.247,0,0,0-1.114-.045l-4.66,2.689c-.284.167-.248.454.081.645l4.5,2.6A1.245,1.245,0,0,0,248.115,166.257Z" transform="translate(-226.663 -142.269)" fill="#e7e9ff"/>
                <path id="Path_1187-4" data-name="Path 1187" d="M242.9,169.254l4.66-2.691c.287-.164.251-.454-.081-.642l-4.5-2.6a1.238,1.238,0,0,0-1.114-.045l-4.66,2.689c-.284.164-.248.454.081.645l4.5,2.6A1.238,1.238,0,0,0,242.9,169.254Z" transform="translate(-237.017 -136.316)" fill="#e7e9ff"/>
              </g>
            </g>
          </g>
          <g id="Group_423-4" data-name="Group 423" transform="translate(9.763 117.922)">
            <path id="Path_1189-13" data-name="Path 1189" d="M264.429,234.805l-45.711-26.171c-2.572-1.485-4.657-5.47-4.657-8.9V183.388c0-3.429,2.085-5.007,4.657-3.522l45.711,26.171c2.575,1.488,4.66,5.47,4.66,8.9v16.349C269.089,234.716,267,236.293,264.429,234.805Z" transform="translate(-214.061 -179.308)" fill="#cfd6fd" stroke="#fafaff" stroke-width="1"/>
            <path id="Path_1190-13" data-name="Path 1190" d="M216.457,179.33a4.564,4.564,0,0,0-1.168,3.4v16.346c0,3.429,2.085,7.414,4.657,8.9l45.711,26.171a3.335,3.335,0,0,0,2.261.493,2.776,2.776,0,0,1-3.489.12L218.718,208.59c-2.572-1.485-4.657-5.47-4.657-8.9V183.345C214.061,181.015,215.035,179.572,216.457,179.33Z" transform="translate(-214.061 -179.264)" fill="#fff" stroke="#fafaff" stroke-width="1"/>
          </g>
          <g id="Group_530-4" data-name="Group 530" transform="translate(9.763 164.422)">
            <path id="Path_1189-14" data-name="Path 1189" d="M264.429,234.805l-45.711-26.171c-2.572-1.485-4.657-5.47-4.657-8.9V183.388c0-3.429,2.085-5.007,4.657-3.522l45.711,26.171c2.575,1.488,4.66,5.47,4.66,8.9v16.349C269.089,234.716,267,236.293,264.429,234.805Z" transform="translate(-214.061 -179.308)" fill="#cfd6fd" stroke="#fafaff" stroke-width="1"/>
            <path id="Path_1190-14" data-name="Path 1190" d="M216.457,179.33a4.564,4.564,0,0,0-1.168,3.4v16.346c0,3.429,2.085,7.414,4.657,8.9l45.711,26.171a3.335,3.335,0,0,0,2.261.493,2.776,2.776,0,0,1-3.489.12L218.718,208.59c-2.572-1.485-4.657-5.47-4.657-8.9V183.345C214.061,181.015,215.035,179.572,216.457,179.33Z" transform="translate(-214.061 -179.264)" fill="#fff" stroke="#fafaff" stroke-width="1"/>
          </g>
          <g id="Group_531-4" data-name="Group 531" transform="translate(9.763 219.779)">
            <path id="Path_1189-15" data-name="Path 1189" d="M264.429,234.805l-45.711-26.171c-2.572-1.485-4.657-5.47-4.657-8.9V183.388c0-3.429,2.085-5.007,4.657-3.522l45.711,26.171c2.575,1.488,4.66,5.47,4.66,8.9v16.349C269.089,234.716,267,236.293,264.429,234.805Z" transform="translate(-214.061 -179.308)" fill="#cfd6fd" stroke="#fafaff" stroke-width="1"/>
            <path id="Path_1190-15" data-name="Path 1190" d="M216.457,179.33a4.564,4.564,0,0,0-1.168,3.4v16.346c0,3.429,2.085,7.414,4.657,8.9l45.711,26.171a3.335,3.335,0,0,0,2.261.493,2.776,2.776,0,0,1-3.489.12L218.718,208.59c-2.572-1.485-4.657-5.47-4.657-8.9V183.345C214.061,181.015,215.035,179.572,216.457,179.33Z" transform="translate(-214.061 -179.264)" fill="#fff" stroke="#fafaff" stroke-width="1"/>
          </g>
          <g id="Group_532-4" data-name="Group 532" transform="translate(9.763 275.136)">
            <path id="Path_1189-16" data-name="Path 1189" d="M264.429,234.805l-45.711-26.171c-2.572-1.485-4.657-5.47-4.657-8.9V183.388c0-3.429,2.085-5.007,4.657-3.522l45.711,26.171c2.575,1.488,4.66,5.47,4.66,8.9v16.349C269.089,234.716,267,236.293,264.429,234.805Z" transform="translate(-214.061 -179.308)" fill="#cfd6fd" stroke="#fafaff" stroke-width="1"/>
            <path id="Path_1190-16" data-name="Path 1190" d="M216.457,179.33a4.564,4.564,0,0,0-1.168,3.4v16.346c0,3.429,2.085,7.414,4.657,8.9l45.711,26.171a3.335,3.335,0,0,0,2.261.493,2.776,2.776,0,0,1-3.489.12L218.718,208.59c-2.572-1.485-4.657-5.47-4.657-8.9V183.345C214.061,181.015,215.035,179.572,216.457,179.33Z" transform="translate(-214.061 -179.264)" fill="#fff" stroke="#fafaff" stroke-width="1"/>
          </g>
        </g>
        <g id="Group_431-4" data-name="Group 431" transform="translate(95.45 63.779)">
          <path id="Path_1205-22" data-name="Path 1205" d="M247.02,254.092,352.482,193.2c2.36-1.362,4.272-5.019,4.272-8.164v-20.11c0-3.149-1.912-4.594-4.272-3.232L247.02,222.585c-2.36,1.362-4.275,5.019-4.275,8.164v20.11C242.745,254.008,244.66,255.454,247.02,254.092Z" transform="translate(-242.745 -161.183)" fill="#cfd6fd"/>
          <path id="Path_1206-22" data-name="Path 1206" d="M246.633,242.18l99.4-57.391a5.189,5.189,0,0,0,2.169-4.143V165.527c0-1.6-.971-2.33-2.169-1.637l-99.4,57.391a5.189,5.189,0,0,0-2.169,4.143v15.119C244.464,242.138,245.435,242.873,246.633,242.18Z" transform="translate(-239.329 -156.324)" fill="#5e5fb6" stroke="#a765e6" stroke-width="1" opacity="0.4"/>
          <path id="Path_1207-22" data-name="Path 1207" d="M272.93,181.757l14.838-8.565a5.045,5.045,0,0,0,2.1-4.024h0c0-1.55-.941-2.261-2.1-1.589l-14.838,8.564a5.046,5.046,0,0,0-2.1,4.024h0C270.827,181.718,271.768,182.429,272.93,181.757Z" transform="translate(-186.939 -148.976)" fill="#a765e6"/>
          <path id="Path_1208-22" data-name="Path 1208" d="M267.3,176.683c0,1.55,1.09,2.178,2.432,1.4a5.375,5.375,0,0,0,2.432-4.212c0-1.55-1.088-2.178-2.432-1.4A5.382,5.382,0,0,0,267.3,176.683Z" transform="translate(-193.95 -139.41)" fill="#fafaff"/>
          <path id="Path_1209-22" data-name="Path 1209" d="M264.428,178.342c0,1.55,1.087,2.178,2.432,1.4a5.382,5.382,0,0,0,2.432-4.212c0-1.55-1.09-2.181-2.432-1.4A5.374,5.374,0,0,0,264.428,178.342Z" transform="translate(-199.655 -136.116)" fill="#4949a8"/>
          <path id="Path_1210-22" data-name="Path 1210" d="M261.557,180c0,1.55,1.087,2.178,2.432,1.4a5.379,5.379,0,0,0,2.429-4.212c0-1.55-1.087-2.181-2.429-1.4A5.37,5.37,0,0,0,261.557,180Z" transform="translate(-205.361 -132.821)" fill="#4949a8"/>
          <path id="Path_1211-22" data-name="Path 1211" d="M258.685,181.656c0,1.55,1.09,2.181,2.432,1.4a5.364,5.364,0,0,0,2.432-4.209c0-1.553-1.087-2.181-2.432-1.4A5.372,5.372,0,0,0,258.685,181.656Z" transform="translate(-211.068 -129.526)" fill="#fafaff"/>
          <path id="Path_1212-22" data-name="Path 1212" d="M247.487,195.047l5-2.886a3.232,3.232,0,0,0,1.35-2.581v-5.287c0-.995-.6-1.452-1.35-1.022l-5,2.886a3.232,3.232,0,0,0-1.35,2.581v5.287C246.137,195.021,246.741,195.478,247.487,195.047Z" transform="translate(-236.004 -117.61)" fill="#a765e6"/>
        </g>
        <g id="Group_533-4" data-name="Group 533" transform="translate(95.45 99.207)">
          <path id="Path_1205-23" data-name="Path 1205" d="M247.02,254.092,352.482,193.2c2.36-1.362,4.272-5.019,4.272-8.164v-20.11c0-3.149-1.912-4.594-4.272-3.232L247.02,222.585c-2.36,1.362-4.275,5.019-4.275,8.164v20.11C242.745,254.008,244.66,255.454,247.02,254.092Z" transform="translate(-242.745 -161.183)" fill="#cfd6fd"/>
          <path id="Path_1206-23" data-name="Path 1206" d="M246.633,242.18l99.4-57.391a5.189,5.189,0,0,0,2.169-4.143V165.527c0-1.6-.971-2.33-2.169-1.637l-99.4,57.391a5.189,5.189,0,0,0-2.169,4.143v15.119C244.464,242.138,245.435,242.873,246.633,242.18Z" transform="translate(-239.329 -156.324)" fill="#5e5fb6" stroke="#a765e6" stroke-width="1" opacity="0.4"/>
          <path id="Path_1207-23" data-name="Path 1207" d="M272.93,181.757l14.838-8.565a5.045,5.045,0,0,0,2.1-4.024h0c0-1.55-.941-2.261-2.1-1.589l-14.838,8.564a5.046,5.046,0,0,0-2.1,4.024h0C270.827,181.718,271.768,182.429,272.93,181.757Z" transform="translate(-186.939 -148.976)" fill="#a765e6"/>
          <path id="Path_1208-23" data-name="Path 1208" d="M267.3,176.683c0,1.55,1.09,2.178,2.432,1.4a5.375,5.375,0,0,0,2.432-4.212c0-1.55-1.088-2.178-2.432-1.4A5.382,5.382,0,0,0,267.3,176.683Z" transform="translate(-193.95 -139.41)" fill="#fafaff"/>
          <path id="Path_1209-23" data-name="Path 1209" d="M264.428,178.342c0,1.55,1.087,2.178,2.432,1.4a5.382,5.382,0,0,0,2.432-4.212c0-1.55-1.09-2.181-2.432-1.4A5.374,5.374,0,0,0,264.428,178.342Z" transform="translate(-199.655 -136.116)" fill="#4949a8"/>
          <path id="Path_1210-23" data-name="Path 1210" d="M261.557,180c0,1.55,1.087,2.178,2.432,1.4a5.379,5.379,0,0,0,2.429-4.212c0-1.55-1.087-2.181-2.429-1.4A5.37,5.37,0,0,0,261.557,180Z" transform="translate(-205.361 -132.821)" fill="#4949a8"/>
          <path id="Path_1211-23" data-name="Path 1211" d="M258.685,181.656c0,1.55,1.09,2.181,2.432,1.4a5.364,5.364,0,0,0,2.432-4.209c0-1.553-1.087-2.181-2.432-1.4A5.372,5.372,0,0,0,258.685,181.656Z" transform="translate(-211.068 -129.526)" fill="#fafaff"/>
          <path id="Path_1212-23" data-name="Path 1212" d="M247.487,195.047l5-2.886a3.232,3.232,0,0,0,1.35-2.581v-5.287c0-.995-.6-1.452-1.35-1.022l-5,2.886a3.232,3.232,0,0,0-1.35,2.581v5.287C246.137,195.021,246.741,195.478,247.487,195.047Z" transform="translate(-236.004 -117.61)" fill="#a765e6"/>
        </g>
        <g id="Group_534-4" data-name="Group 534" transform="translate(95.45 134.636)">
          <path id="Path_1205-24" data-name="Path 1205" d="M247.02,254.092,352.482,193.2c2.36-1.362,4.272-5.019,4.272-8.164v-20.11c0-3.149-1.912-4.594-4.272-3.232L247.02,222.585c-2.36,1.362-4.275,5.019-4.275,8.164v20.11C242.745,254.008,244.66,255.454,247.02,254.092Z" transform="translate(-242.745 -161.183)" fill="#cfd6fd"/>
          <path id="Path_1206-24" data-name="Path 1206" d="M246.633,242.18l99.4-57.391a5.189,5.189,0,0,0,2.169-4.143V165.527c0-1.6-.971-2.33-2.169-1.637l-99.4,57.391a5.189,5.189,0,0,0-2.169,4.143v15.119C244.464,242.138,245.435,242.873,246.633,242.18Z" transform="translate(-239.329 -156.324)" fill="#5e5fb6" stroke="#a765e6" stroke-width="1" opacity="0.4"/>
          <path id="Path_1207-24" data-name="Path 1207" d="M272.93,181.757l14.838-8.565a5.045,5.045,0,0,0,2.1-4.024h0c0-1.55-.941-2.261-2.1-1.589l-14.838,8.564a5.046,5.046,0,0,0-2.1,4.024h0C270.827,181.718,271.768,182.429,272.93,181.757Z" transform="translate(-186.939 -148.976)" fill="#a765e6"/>
          <path id="Path_1208-24" data-name="Path 1208" d="M267.3,176.683c0,1.55,1.09,2.178,2.432,1.4a5.375,5.375,0,0,0,2.432-4.212c0-1.55-1.088-2.178-2.432-1.4A5.382,5.382,0,0,0,267.3,176.683Z" transform="translate(-193.95 -139.41)" fill="#fafaff"/>
          <path id="Path_1209-24" data-name="Path 1209" d="M264.428,178.342c0,1.55,1.087,2.178,2.432,1.4a5.382,5.382,0,0,0,2.432-4.212c0-1.55-1.09-2.181-2.432-1.4A5.374,5.374,0,0,0,264.428,178.342Z" transform="translate(-199.655 -136.116)" fill="#4949a8"/>
          <path id="Path_1210-24" data-name="Path 1210" d="M261.557,180c0,1.55,1.087,2.178,2.432,1.4a5.379,5.379,0,0,0,2.429-4.212c0-1.55-1.087-2.181-2.429-1.4A5.37,5.37,0,0,0,261.557,180Z" transform="translate(-205.361 -132.821)" fill="#4949a8"/>
          <path id="Path_1211-24" data-name="Path 1211" d="M258.685,181.656c0,1.55,1.09,2.181,2.432,1.4a5.364,5.364,0,0,0,2.432-4.209c0-1.553-1.087-2.181-2.432-1.4A5.372,5.372,0,0,0,258.685,181.656Z" transform="translate(-211.068 -129.526)" fill="#fafaff"/>
          <path id="Path_1212-24" data-name="Path 1212" d="M247.487,195.047l5-2.886a3.232,3.232,0,0,0,1.35-2.581v-5.287c0-.995-.6-1.452-1.35-1.022l-5,2.886a3.232,3.232,0,0,0-1.35,2.581v5.287C246.137,195.021,246.741,195.478,247.487,195.047Z" transform="translate(-236.004 -117.61)" fill="#a765e6"/>
        </g>
        <g id="Group_535-4" data-name="Group 535" transform="translate(95.45 170.064)">
          <path id="Path_1205-25" data-name="Path 1205" d="M247.02,254.092,352.482,193.2c2.36-1.362,4.272-5.019,4.272-8.164v-20.11c0-3.149-1.912-4.594-4.272-3.232L247.02,222.585c-2.36,1.362-4.275,5.019-4.275,8.164v20.11C242.745,254.008,244.66,255.454,247.02,254.092Z" transform="translate(-242.745 -161.183)" fill="#cfd6fd"/>
          <path id="Path_1206-25" data-name="Path 1206" d="M246.633,242.18l99.4-57.391a5.189,5.189,0,0,0,2.169-4.143V165.527c0-1.6-.971-2.33-2.169-1.637l-99.4,57.391a5.189,5.189,0,0,0-2.169,4.143v15.119C244.464,242.138,245.435,242.873,246.633,242.18Z" transform="translate(-239.329 -156.324)" fill="#5e5fb6" stroke="#a765e6" stroke-width="1" opacity="0.4"/>
          <path id="Path_1207-25" data-name="Path 1207" d="M272.93,181.757l14.838-8.565a5.045,5.045,0,0,0,2.1-4.024h0c0-1.55-.941-2.261-2.1-1.589l-14.838,8.564a5.046,5.046,0,0,0-2.1,4.024h0C270.827,181.718,271.768,182.429,272.93,181.757Z" transform="translate(-186.939 -148.976)" fill="#a765e6"/>
          <path id="Path_1208-25" data-name="Path 1208" d="M267.3,176.683c0,1.55,1.09,2.178,2.432,1.4a5.375,5.375,0,0,0,2.432-4.212c0-1.55-1.088-2.178-2.432-1.4A5.382,5.382,0,0,0,267.3,176.683Z" transform="translate(-193.95 -139.41)" fill="#fafaff"/>
          <path id="Path_1209-25" data-name="Path 1209" d="M264.428,178.342c0,1.55,1.087,2.178,2.432,1.4a5.382,5.382,0,0,0,2.432-4.212c0-1.55-1.09-2.181-2.432-1.4A5.374,5.374,0,0,0,264.428,178.342Z" transform="translate(-199.655 -136.116)" fill="#4949a8"/>
          <path id="Path_1210-25" data-name="Path 1210" d="M261.557,180c0,1.55,1.087,2.178,2.432,1.4a5.379,5.379,0,0,0,2.429-4.212c0-1.55-1.087-2.181-2.429-1.4A5.37,5.37,0,0,0,261.557,180Z" transform="translate(-205.361 -132.821)" fill="#4949a8"/>
          <path id="Path_1211-25" data-name="Path 1211" d="M258.685,181.656c0,1.55,1.09,2.181,2.432,1.4a5.364,5.364,0,0,0,2.432-4.209c0-1.553-1.087-2.181-2.432-1.4A5.372,5.372,0,0,0,258.685,181.656Z" transform="translate(-211.068 -129.526)" fill="#fafaff"/>
          <path id="Path_1212-25" data-name="Path 1212" d="M247.487,195.047l5-2.886a3.232,3.232,0,0,0,1.35-2.581v-5.287c0-.995-.6-1.452-1.35-1.022l-5,2.886a3.232,3.232,0,0,0-1.35,2.581v5.287C246.137,195.021,246.741,195.478,247.487,195.047Z" transform="translate(-236.004 -117.61)" fill="#a765e6"/>
        </g>
        <g id="Group_536-4" data-name="Group 536" transform="translate(95.45 207.707)">
          <path id="Path_1205-26" data-name="Path 1205" d="M247.02,254.092,352.482,193.2c2.36-1.362,4.272-5.019,4.272-8.164v-20.11c0-3.149-1.912-4.594-4.272-3.232L247.02,222.585c-2.36,1.362-4.275,5.019-4.275,8.164v20.11C242.745,254.008,244.66,255.454,247.02,254.092Z" transform="translate(-242.745 -161.183)" fill="#cfd6fd"/>
          <path id="Path_1206-26" data-name="Path 1206" d="M246.633,242.18l99.4-57.391a5.189,5.189,0,0,0,2.169-4.143V165.527c0-1.6-.971-2.33-2.169-1.637l-99.4,57.391a5.189,5.189,0,0,0-2.169,4.143v15.119C244.464,242.138,245.435,242.873,246.633,242.18Z" transform="translate(-239.329 -156.324)" fill="#5e5fb6" stroke="#a765e6" stroke-width="1" opacity="0.4"/>
          <path id="Path_1207-26" data-name="Path 1207" d="M272.93,181.757l14.838-8.565a5.045,5.045,0,0,0,2.1-4.024h0c0-1.55-.941-2.261-2.1-1.589l-14.838,8.564a5.046,5.046,0,0,0-2.1,4.024h0C270.827,181.718,271.768,182.429,272.93,181.757Z" transform="translate(-186.939 -148.976)" fill="#a765e6"/>
          <path id="Path_1208-26" data-name="Path 1208" d="M267.3,176.683c0,1.55,1.09,2.178,2.432,1.4a5.375,5.375,0,0,0,2.432-4.212c0-1.55-1.088-2.178-2.432-1.4A5.382,5.382,0,0,0,267.3,176.683Z" transform="translate(-193.95 -139.41)" fill="#fafaff"/>
          <path id="Path_1209-26" data-name="Path 1209" d="M264.428,178.342c0,1.55,1.087,2.178,2.432,1.4a5.382,5.382,0,0,0,2.432-4.212c0-1.55-1.09-2.181-2.432-1.4A5.374,5.374,0,0,0,264.428,178.342Z" transform="translate(-199.655 -136.116)" fill="#4949a8"/>
          <path id="Path_1210-26" data-name="Path 1210" d="M261.557,180c0,1.55,1.087,2.178,2.432,1.4a5.379,5.379,0,0,0,2.429-4.212c0-1.55-1.087-2.181-2.429-1.4A5.37,5.37,0,0,0,261.557,180Z" transform="translate(-205.361 -132.821)" fill="#4949a8"/>
          <path id="Path_1211-26" data-name="Path 1211" d="M258.685,181.656c0,1.55,1.09,2.181,2.432,1.4a5.364,5.364,0,0,0,2.432-4.209c0-1.553-1.087-2.181-2.432-1.4A5.372,5.372,0,0,0,258.685,181.656Z" transform="translate(-211.068 -129.526)" fill="#fafaff"/>
          <path id="Path_1212-26" data-name="Path 1212" d="M247.487,195.047l5-2.886a3.232,3.232,0,0,0,1.35-2.581v-5.287c0-.995-.6-1.452-1.35-1.022l-5,2.886a3.232,3.232,0,0,0-1.35,2.581v5.287C246.137,195.021,246.741,195.478,247.487,195.047Z" transform="translate(-236.004 -117.61)" fill="#a765e6"/>
        </g>
        <g id="Group_537-4" data-name="Group 537" transform="translate(95.45 245.35)">
          <path id="Path_1205-27" data-name="Path 1205" d="M247.02,254.092,352.482,193.2c2.36-1.362,4.272-5.019,4.272-8.164v-20.11c0-3.149-1.912-4.594-4.272-3.232L247.02,222.585c-2.36,1.362-4.275,5.019-4.275,8.164v20.11C242.745,254.008,244.66,255.454,247.02,254.092Z" transform="translate(-242.745 -161.183)" fill="#cfd6fd"/>
          <path id="Path_1206-27" data-name="Path 1206" d="M246.633,242.18l99.4-57.391a5.189,5.189,0,0,0,2.169-4.143V165.527c0-1.6-.971-2.33-2.169-1.637l-99.4,57.391a5.189,5.189,0,0,0-2.169,4.143v15.119C244.464,242.138,245.435,242.873,246.633,242.18Z" transform="translate(-239.329 -156.324)" fill="#5e5fb6" stroke="#a765e6" stroke-width="1" opacity="0.4"/>
          <path id="Path_1207-27" data-name="Path 1207" d="M272.93,181.757l14.838-8.565a5.045,5.045,0,0,0,2.1-4.024h0c0-1.55-.941-2.261-2.1-1.589l-14.838,8.564a5.046,5.046,0,0,0-2.1,4.024h0C270.827,181.718,271.768,182.429,272.93,181.757Z" transform="translate(-186.939 -148.976)" fill="#a765e6"/>
          <path id="Path_1208-27" data-name="Path 1208" d="M267.3,176.683c0,1.55,1.09,2.178,2.432,1.4a5.375,5.375,0,0,0,2.432-4.212c0-1.55-1.088-2.178-2.432-1.4A5.382,5.382,0,0,0,267.3,176.683Z" transform="translate(-193.95 -139.41)" fill="#fafaff"/>
          <path id="Path_1209-27" data-name="Path 1209" d="M264.428,178.342c0,1.55,1.087,2.178,2.432,1.4a5.382,5.382,0,0,0,2.432-4.212c0-1.55-1.09-2.181-2.432-1.4A5.374,5.374,0,0,0,264.428,178.342Z" transform="translate(-199.655 -136.116)" fill="#4949a8"/>
          <path id="Path_1210-27" data-name="Path 1210" d="M261.557,180c0,1.55,1.087,2.178,2.432,1.4a5.379,5.379,0,0,0,2.429-4.212c0-1.55-1.087-2.181-2.429-1.4A5.37,5.37,0,0,0,261.557,180Z" transform="translate(-205.361 -132.821)" fill="#4949a8"/>
          <path id="Path_1211-27" data-name="Path 1211" d="M258.685,181.656c0,1.55,1.09,2.181,2.432,1.4a5.364,5.364,0,0,0,2.432-4.209c0-1.553-1.087-2.181-2.432-1.4A5.372,5.372,0,0,0,258.685,181.656Z" transform="translate(-211.068 -129.526)" fill="#fafaff"/>
          <path id="Path_1212-27" data-name="Path 1212" d="M247.487,195.047l5-2.886a3.232,3.232,0,0,0,1.35-2.581v-5.287c0-.995-.6-1.452-1.35-1.022l-5,2.886a3.232,3.232,0,0,0-1.35,2.581v5.287C246.137,195.021,246.741,195.478,247.487,195.047Z" transform="translate(-236.004 -117.61)" fill="#a765e6"/>
        </g>
        <g id="Group_538-4" data-name="Group 538" transform="translate(95.45 280.779)">
          <path id="Path_1205-28" data-name="Path 1205" d="M247.02,254.092,352.482,193.2c2.36-1.362,4.272-5.019,4.272-8.164v-20.11c0-3.149-1.912-4.594-4.272-3.232L247.02,222.585c-2.36,1.362-4.275,5.019-4.275,8.164v20.11C242.745,254.008,244.66,255.454,247.02,254.092Z" transform="translate(-242.745 -161.183)" fill="#cfd6fd"/>
          <path id="Path_1206-28" data-name="Path 1206" d="M246.633,242.18l99.4-57.391a5.189,5.189,0,0,0,2.169-4.143V165.527c0-1.6-.971-2.33-2.169-1.637l-99.4,57.391a5.189,5.189,0,0,0-2.169,4.143v15.119C244.464,242.138,245.435,242.873,246.633,242.18Z" transform="translate(-239.329 -156.324)" fill="#5e5fb6" stroke="#a765e6" stroke-width="1" opacity="0.4"/>
          <path id="Path_1207-28" data-name="Path 1207" d="M272.93,181.757l14.838-8.565a5.045,5.045,0,0,0,2.1-4.024h0c0-1.55-.941-2.261-2.1-1.589l-14.838,8.564a5.046,5.046,0,0,0-2.1,4.024h0C270.827,181.718,271.768,182.429,272.93,181.757Z" transform="translate(-186.939 -148.976)" fill="#a765e6"/>
          <path id="Path_1208-28" data-name="Path 1208" d="M267.3,176.683c0,1.55,1.09,2.178,2.432,1.4a5.375,5.375,0,0,0,2.432-4.212c0-1.55-1.088-2.178-2.432-1.4A5.382,5.382,0,0,0,267.3,176.683Z" transform="translate(-193.95 -139.41)" fill="#fafaff"/>
          <path id="Path_1209-28" data-name="Path 1209" d="M264.428,178.342c0,1.55,1.087,2.178,2.432,1.4a5.382,5.382,0,0,0,2.432-4.212c0-1.55-1.09-2.181-2.432-1.4A5.374,5.374,0,0,0,264.428,178.342Z" transform="translate(-199.655 -136.116)" fill="#4949a8"/>
          <path id="Path_1210-28" data-name="Path 1210" d="M261.557,180c0,1.55,1.087,2.178,2.432,1.4a5.379,5.379,0,0,0,2.429-4.212c0-1.55-1.087-2.181-2.429-1.4A5.37,5.37,0,0,0,261.557,180Z" transform="translate(-205.361 -132.821)" fill="#4949a8"/>
          <path id="Path_1211-28" data-name="Path 1211" d="M258.685,181.656c0,1.55,1.09,2.181,2.432,1.4a5.364,5.364,0,0,0,2.432-4.209c0-1.553-1.087-2.181-2.432-1.4A5.372,5.372,0,0,0,258.685,181.656Z" transform="translate(-211.068 -129.526)" fill="#fafaff"/>
          <path id="Path_1212-28" data-name="Path 1212" d="M247.487,195.047l5-2.886a3.232,3.232,0,0,0,1.35-2.581v-5.287c0-.995-.6-1.452-1.35-1.022l-5,2.886a3.232,3.232,0,0,0-1.35,2.581v5.287C246.137,195.021,246.741,195.478,247.487,195.047Z" transform="translate(-236.004 -117.61)" fill="#a765e6"/>
        </g>
      </g>
      <path id="Path_1430" data-name="Path 1430" d="M377.34,284.075a11.853,11.853,0,0,1-10.721,0c-2.96-1.708-2.96-4.481,0-6.19a11.853,11.853,0,0,1,10.721,0C380.3,279.593,380.3,282.366,377.34,284.075Z" transform="translate(-1980.065 11778.112)" fill="#fff" stroke="#e7e9ff" stroke-width="1"/>
      <path id="Path_1546" data-name="Path 1546" d="M237.12,289.875a11.853,11.853,0,0,1-10.721,0c-2.96-1.711-2.96-4.481,0-6.19a11.853,11.853,0,0,1,10.721,0C240.08,285.393,240.08,288.164,237.12,289.875Z" transform="translate(-2155.452 11785.367)" fill="#fff" stroke="#e7e9ff" stroke-width="1"/>
      <g id="Group_526" data-name="Group 526" transform="translate(-1975.986 12099.175)">
        <g id="Group_525" data-name="Group 525">
          <path id="Path_1560" data-name="Path 1560" d="M256.762,374.443l-52.448-30.282,52.448-30.282,52.448,30.284Zm-47.89-30.282,47.89,27.649,47.888-27.647-47.888-27.651Z" transform="translate(-204.314 -274.438)" fill="#e7e9ff"/>
          <path id="Path_1561" data-name="Path 1561" d="M262.149,345.048l-34.5,19.921-.07-39.86,34.575-19.9Z" transform="translate(-175.196 -285.286)" fill="#e7e9ff"/>
          <path id="Path_1562" data-name="Path 1562" d="M246.791,336.2l-34.5-19.921,34.5-19.921,34.5,19.921Z" transform="translate(-194.343 -296.356)" fill="#fafaff"/>
          <path id="Path_1563" data-name="Path 1563" d="M246.791,364.969l-34.5-19.921V305.207l34.572,19.921Z" transform="translate(-194.343 -285.286)" fill="#e7e9ff"/>
        </g>
        <path id="Path_1564" data-name="Path 1564" d="M227.458,331.485l-9.651-5.572V314.769l9.651,5.572Z" transform="translate(-187.437 -273.325)" fill="#331d48" stroke="#fafaff" stroke-width="1"/>
      </g>
      <g id="Group_542" data-name="Group 542" transform="translate(-1552.067 12005.79)">
        <g id="Group_525-2" data-name="Group 525">
          <path id="Path_1560-2" data-name="Path 1560" d="M256.762,374.443l-52.448-30.282,52.448-30.282,52.448,30.284Zm-47.89-30.282,47.89,27.649,47.888-27.647-47.888-27.651Z" transform="translate(-204.314 -274.438)" fill="#e7e9ff"/>
          <path id="Path_1561-2" data-name="Path 1561" d="M262.149,345.048l-34.5,19.921-.07-39.86,34.575-19.9Z" transform="translate(-175.196 -285.286)" fill="#e7e9ff"/>
          <path id="Path_1562-2" data-name="Path 1562" d="M246.791,336.2l-34.5-19.921,34.5-19.921,34.5,19.921Z" transform="translate(-194.343 -296.356)" fill="#fafaff"/>
          <path id="Path_1563-2" data-name="Path 1563" d="M246.791,364.969l-34.5-19.921V305.207l34.572,19.921Z" transform="translate(-194.343 -285.286)" fill="#e7e9ff"/>
        </g>
        <path id="Path_1564-2" data-name="Path 1564" d="M227.458,331.485l-9.651-5.572V314.769l9.651,5.572Z" transform="translate(-187.437 -273.325)" fill="#331d48" stroke="#fafaff" stroke-width="1"/>
      </g>
    </g>
  </g>
</svg>
