<svg xmlns="http://www.w3.org/2000/svg" xmlns:xlink="http://www.w3.org/1999/xlink" width="710.003" height="762.982" viewBox="0 0 710.003 762.982">
  <defs>
    <linearGradient id="linear-gradient" x1="0.875" y1="0.374" x2="-1.635" y2="1.482" gradientUnits="objectBoundingBox">
      <stop offset="0" stop-color="#a765e6"/>
      <stop offset="1" stop-color="#331d48"/>
    </linearGradient>
    <linearGradient id="linear-gradient-2" x1="0.679" y1="0.263" x2="-0.75" y2="1.802" xlink:href="#linear-gradient"/>
    <linearGradient id="linear-gradient-3" x1="0.968" y1="0.259" x2="0.451" y2="0.562" gradientUnits="objectBoundingBox">
      <stop offset="0" stop-color="#f3e5ff"/>
      <stop offset="1" stop-color="#deafff"/>
    </linearGradient>
  </defs>
  <g id="Group_348" data-name="Group 348" transform="translate(1914.74 -2172.631)">
    <g id="Group_265" data-name="Group 265" transform="translate(-1747.212 2323.727)">
      <g id="Group_262" data-name="Group 262" transform="translate(198.542)">
        <path id="Path_873" data-name="Path 873" d="M156.893,70.754l-1.331-2.288,3.826-2.221,1.331,2.288Z" transform="translate(-155.562 -66.245)" fill="#fff"/>
      </g>
      <g id="Group_263" data-name="Group 263" transform="translate(0 6.729)">
        <path id="Path_874" data-name="Path 874" d="M277.112,287.11l-7.661-4.666,1.363-2.275,7.67,4.675Zm-15.331-9.341L254.12,273.1l1.383-2.275,7.661,4.675Zm-15.321-9.341-7.661-4.666,1.392-2.266,7.661,4.666ZM231.148,259.1l-7.661-4.665,1.363-2.275,7.67,4.675Zm-15.331-9.341-7.661-4.666,1.382-2.266,7.661,4.665ZM200.5,240.426l-7.661-4.675,1.392-2.266,7.661,4.666Zm-15.312-9.341-7.67-4.666,1.373-2.275,7.67,4.675Zm-15.331-9.341-7.661-4.666,1.382-2.265,7.661,4.665Zm-15.321-9.331-7.661-4.675,1.392-2.266,7.651,4.666Zm-15.178-10.166a18.916,18.916,0,0,1-4.473-8.419l2.573-.614a16.488,16.488,0,0,0,3.85,7.248Zm-1.8-17.261L135,184.314a19.029,19.029,0,0,1,4.666-8.323l1.91,1.834A16.388,16.388,0,0,0,137.558,184.986Zm11.078-12.009-1.334-2.285,7.757-4.512,1.325,2.285Zm15.5-9.014-1.334-2.294,7.766-4.5,1.334,2.285Zm15.514-9.024-1.334-2.285,7.757-4.522,1.334,2.294Zm15.5-9.024-1.325-2.285,7.747-4.512,1.334,2.285Zm15.523-9.024-1.335-2.285,7.757-4.512,1.325,2.294Zm15.5-9.014-1.334-2.285,7.757-4.512,1.325,2.285Zm15.513-9.033-1.335-2.285,7.757-4.5,1.334,2.285Zm15.5-9.014-1.325-2.285,7.747-4.512,1.334,2.285Zm15.5-9.014-1.325-2.294,7.757-4.5,1.335,2.285Zm15.523-9.024-1.334-2.285,7.757-4.512,1.325,2.285Zm15.5-9.024L302.4,80.472l7.766-4.5,1.334,2.285Zm15.514-9.024-1.335-2.285,7.757-4.512L327,69.231Z" transform="translate(-134.88 -66.946)" fill="#a765e6"/>
      </g>
      <g id="Group_336" data-name="Group 336" transform="translate(350.353 59.436)">
        <path id="Path_874-2" data-name="Path 874" d="M184.771,287.11l7.661-4.666-1.363-2.275-7.67,4.675Zm15.331-9.341,7.661-4.665-1.383-2.275-7.661,4.675Zm15.321-9.341,7.661-4.666-1.392-2.266-7.661,4.666Zm15.312-9.331,7.661-4.665-1.363-2.275-7.67,4.675Zm15.331-9.341,7.661-4.666-1.382-2.266-7.661,4.665Zm15.322-9.331,7.661-4.675-1.392-2.266L260,238.15Zm15.312-9.341,7.67-4.666L283,224.144l-7.67,4.675Zm15.331-9.341,7.661-4.666-1.382-2.265-7.661,4.665Zm15.321-9.331,7.661-4.675-1.392-2.266-7.651,4.666Zm15.178-10.166A18.917,18.917,0,0,0,327,193.828l-2.573-.614a16.487,16.487,0,0,1-3.849,7.248Zm1.8-17.261,2.563-.672a19.029,19.029,0,0,0-4.666-8.323l-1.91,1.834A16.387,16.387,0,0,1,324.324,184.986Zm-11.078-12.009,1.334-2.285-7.757-4.512-1.325,2.285Zm-15.5-9.014,1.334-2.294-7.766-4.5-1.334,2.285Zm-15.514-9.024,1.334-2.285-7.757-4.522-1.334,2.294Zm-15.5-9.024,1.325-2.285-7.747-4.512-1.334,2.285ZM251.2,136.891l1.334-2.285-7.757-4.512-1.325,2.294Zm-15.5-9.014,1.334-2.285-7.757-4.512-1.325,2.285Zm-15.513-9.033,1.334-2.285-7.757-4.5-1.334,2.285Zm-15.5-9.014,1.325-2.285-7.747-4.512-1.334,2.285Zm-15.5-9.014L190.5,98.52l-7.757-4.5L181.411,96.3ZM173.654,91.79l1.334-2.285-7.757-4.512-1.325,2.285Zm-15.5-9.024,1.334-2.294-7.766-4.5-1.334,2.285Zm-15.514-9.024,1.335-2.285-7.757-4.512-1.334,2.285Z" transform="translate(-134.88 -66.946)" fill="#a765e6"/>
      </g>
      <g id="Group_264" data-name="Group 264" transform="translate(149.981 229.347)">
        <path id="Path_875" data-name="Path 875" d="M154.271,94.7,150.5,92.4l1.387-2.269,3.769,2.3Z" transform="translate(-150.503 -90.136)" fill="#fff"/>
      </g>
    </g>
    <g id="Group_305" data-name="Group 305" transform="translate(-1914.74 2372.69)">
      <g id="Group_278" data-name="Group 278" transform="translate(0 248.258)" opacity="0.246">
        <ellipse id="Ellipse_66" data-name="Ellipse 66" cx="296.041" cy="146.938" rx="296.041" ry="146.938" transform="translate(0 20.973) rotate(-2.03)" fill="#fff" opacity="0"/>
        <ellipse id="Ellipse_67" data-name="Ellipse 67" cx="292.449" cy="145.015" rx="292.449" ry="145.015" transform="translate(4.619 21.956) rotate(-2.109)" fill="#fbfafd" opacity="0.02"/>
        <ellipse id="Ellipse_68" data-name="Ellipse 68" cx="288.86" cy="143.091" rx="288.86" ry="143.091" transform="matrix(0.999, -0.038, 0.038, 0.999, 9.236, 22.94)" fill="#f7f5fa" opacity="0.039"/>
        <ellipse id="Ellipse_69" data-name="Ellipse 69" cx="285.271" cy="141.17" rx="285.271" ry="141.17" transform="matrix(0.999, -0.04, 0.04, 0.999, 13.854, 23.922)" fill="#f3f1f8" opacity="0.059"/>
        <ellipse id="Ellipse_70" data-name="Ellipse 70" cx="281.684" cy="139.25" rx="281.684" ry="139.25" transform="matrix(0.999, -0.041, 0.041, 0.999, 18.471, 24.902)" fill="#f0ecf6" opacity="0.078"/>
        <ellipse id="Ellipse_71" data-name="Ellipse 71" cx="278.099" cy="137.331" rx="278.099" ry="137.331" transform="translate(23.088 25.883) rotate(-2.444)" fill="#ece7f3" opacity="0.098"/>
        <ellipse id="Ellipse_72" data-name="Ellipse 72" cx="274.515" cy="135.413" rx="274.515" ry="135.413" transform="matrix(0.999, -0.044, 0.044, 0.999, 27.703, 26.862)" fill="#e8e2f1" opacity="0.118"/>
        <path id="Path_884" data-name="Path 884" d="M532.777,85.415c114.719,43.228,130.107,127.1,34.55,186.977-95.653,59.932-266.57,73.516-381.288,30.288C71.435,259.5,55.826,175.634,151.488,115.7,247.046,55.828,418.173,42.234,532.777,85.415Z" transform="translate(-50.322 -45.263)" fill="#e4ddef" opacity="0.137"/>
        <ellipse id="Ellipse_73" data-name="Ellipse 73" cx="267.352" cy="131.584" rx="267.352" ry="131.584" transform="matrix(0.999, -0.047, 0.047, 0.999, 36.934, 28.816)" fill="#e0d9ec" opacity="0.157"/>
        <ellipse id="Ellipse_74" data-name="Ellipse 74" cx="263.773" cy="129.672" rx="263.773" ry="129.672" transform="translate(41.549 29.79) rotate(-2.817)" fill="#dcd4ea" opacity="0.176"/>
        <path id="Path_885" data-name="Path 885" d="M515.324,83.491C626.049,124.06,641.86,204.19,550.8,262.135c-91.151,57.993-255.165,72.153-365.89,31.584C74.286,253.2,58.274,173.077,149.434,115.074,240.489,57.139,404.714,42.96,515.324,83.491Z" transform="translate(-37.593 -43.483)" fill="#d8cfe8" opacity="0.196"/>
        <ellipse id="Ellipse_75" data-name="Ellipse 75" cx="256.62" cy="125.852" rx="256.62" ry="125.852" transform="translate(50.775 31.739) rotate(-3.019)" fill="#d5cae5" opacity="0.216"/>
        <path id="Path_886" data-name="Path 886" d="M503.693,82.216c108.066,38.8,124.155,116.447,36.086,173.1-88.146,56.706-247.562,71.25-355.628,32.457C76.2,249.014,59.91,171.38,148.065,114.674,236.135,58.025,395.742,43.462,503.693,82.216Z" transform="translate(-29.11 -42.314)" fill="#d1c5e3" opacity="0.235"/>
        <path id="Path_887" data-name="Path 887" d="M497.889,81.585C604.621,119.495,620.844,195.9,534.273,251.9c-86.649,56.063-243.76,70.809-350.492,32.9C77.155,246.924,60.73,170.537,147.388,114.484,233.95,58.478,391.263,43.713,497.889,81.585Z" transform="translate(-24.871 -41.731)" fill="#cdc1e1" opacity="0.255"/>
        <ellipse id="Ellipse_76" data-name="Ellipse 76" cx="245.906" cy="120.139" rx="245.906" ry="120.139" transform="translate(64.61 34.65) rotate(-3.345)" fill="#c9bcde" opacity="0.275"/>
        <ellipse id="Ellipse_77" data-name="Ellipse 77" cx="242.34" cy="118.238" rx="242.34" ry="118.238" transform="translate(69.22 35.618) rotate(-3.459)" fill="#c5b7dc" opacity="0.294"/>
        <ellipse id="Ellipse_78" data-name="Ellipse 78" cx="238.775" cy="116.341" rx="238.775" ry="116.341" transform="translate(73.828 36.584) rotate(-3.578)" fill="#c1b2da" opacity="0.314"/>
        <ellipse id="Ellipse_79" data-name="Ellipse 79" cx="235.212" cy="114.445" rx="235.212" ry="114.445" transform="matrix(0.998, -0.065, 0.065, 0.998, 78.437, 37.549)" fill="#bdadd7" opacity="0.333"/>
        <path id="Path_888" data-name="Path 888" d="M468.846,78.485c100.079,33.484,117,103.65,37.929,156.43-79.151,52.828-224.762,68.553-324.841,35.068C81.951,236.537,64.854,166.382,144,113.553,223.079,60.773,368.873,45.039,468.846,78.485Z" transform="translate(-3.699 -38.88)" fill="#b9a9d5" opacity="0.353"/>
        <ellipse id="Ellipse_80" data-name="Ellipse 80" cx="228.096" cy="110.661" rx="228.096" ry="110.661" transform="translate(87.65 39.472) rotate(-3.956)" fill="#b6a4d3" opacity="0.373"/>
        <ellipse id="Ellipse_81" data-name="Ellipse 81" cx="224.542" cy="108.774" rx="224.542" ry="108.774" transform="translate(92.254 40.432) rotate(-4.09)" fill="#b29fd0" opacity="0.392"/>
        <path id="Path_889" data-name="Path 889" d="M451.445,76.67c96.085,30.825,113.423,97.266,38.841,148.107-74.649,50.889-213.357,67.19-309.443,36.374-95.989-30.8-113.5-97.218-38.851-148.107C216.574,62.2,355.455,45.884,451.445,76.67Z" transform="translate(8.988 -37.219)" fill="#ae9ace" opacity="0.412"/>
        <path id="Path_890" data-name="Path 890" d="M445.645,76.076C540.4,106.009,557.878,171.211,484.794,221.4c-73.151,50.246-209.556,66.748-304.316,36.816-94.655-29.913-112.3-95.087-39.148-145.333C214.4,62.694,350.981,46.172,445.645,76.076Z" transform="translate(13.213 -36.673)" fill="#aa95cc" opacity="0.431"/>
        <path id="Path_891" data-name="Path 891" d="M439.849,75.489c93.426,29.049,111.042,92.994,39.455,142.549-71.644,49.6-205.754,66.3-299.18,37.238-93.33-29.02-111.109-92.946-39.465-142.549C212.245,63.182,346.519,46.468,439.849,75.489Z" transform="translate(17.435 -36.134)" fill="#a691c9" opacity="0.451"/>
        <ellipse id="Ellipse_82" data-name="Ellipse 82" cx="210.357" cy="101.254" rx="210.357" ry="101.254" transform="translate(110.661 44.249) rotate(-4.673)" fill="#a28cc7" opacity="0.471"/>
        <ellipse id="Ellipse_83" data-name="Ellipse 83" cx="206.819" cy="99.383" rx="206.819" ry="99.383" transform="translate(115.259 45.197) rotate(-4.832)" fill="#9e87c5" opacity="0.49"/>
        <ellipse id="Ellipse_84" data-name="Ellipse 84" cx="203.285" cy="97.515" rx="203.285" ry="97.515" transform="translate(119.856 46.142) rotate(-4.995)" fill="#9b82c2" opacity="0.51"/>
        <ellipse id="Ellipse_85" data-name="Ellipse 85" cx="199.755" cy="95.652" rx="199.755" ry="95.652" transform="matrix(0.996, -0.09, 0.09, 0.996, 124.45, 47.086)" fill="#977dc0" opacity="0.529"/>
        <path id="Path_892" data-name="Path 892" d="M410.9,72.628c86.764,24.624,105.08,82.348,40.991,128.667-64.146,46.377-186.756,64.041-273.529,39.427-86.677-24.6-105.138-82.3-40.991-128.667C201.46,65.726,324.214,48.033,410.9,72.628Z" transform="translate(38.521 -33.532)" fill="#9378be" opacity="0.549"/>
        <ellipse id="Ellipse_86" data-name="Ellipse 86" cx="192.709" cy="91.937" rx="192.709" ry="91.937" transform="translate(133.634 48.965) rotate(-5.524)" fill="#8f74bb" opacity="0.569"/>
        <ellipse id="Ellipse_87" data-name="Ellipse 87" cx="189.192" cy="90.087" rx="189.192" ry="90.087" transform="matrix(0.995, -0.1, 0.1, 0.995, 138.223, 49.899)" fill="#8b6fb9" opacity="0.588"/>
        <path id="Path_893" data-name="Path 893" d="M393.559,71c82.78,21.965,101.5,75.945,41.913,120.334-59.644,44.428-175.351,62.687-258.131,40.723C94.647,210.121,75.784,156.15,135.428,111.722,195.014,67.332,310.866,49.054,393.559,71Z" transform="translate(51.14 -32.047)" fill="#876ab7" opacity="0.608"/>
        <path id="Path_894" data-name="Path 894" d="M387.781,70.472C469.226,91.543,488.09,144.285,430,188.032c-58.146,43.785-171.55,62.236-253,41.155-81.359-21.052-100.367-73.775-42.22-117.56C192.874,67.889,306.422,49.41,387.781,70.472Z" transform="translate(55.343 -31.568)" fill="#8365b4" opacity="0.627"/>
        <ellipse id="Ellipse_88" data-name="Ellipse 88" cx="178.675" cy="84.567" rx="178.675" ry="84.567" transform="translate(151.975 52.683) rotate(-6.329)" fill="#8060b2" opacity="0.647"/>
        <ellipse id="Ellipse_89" data-name="Ellipse 89" cx="175.181" cy="82.739" rx="175.181" ry="82.739" transform="matrix(0.993, -0.114, 0.114, 0.993, 156.554, 53.602)" fill="#7c5cb0" opacity="0.667"/>
        <ellipse id="Ellipse_90" data-name="Ellipse 90" cx="171.693" cy="80.917" rx="171.693" ry="80.917" transform="matrix(0.993, -0.118, 0.118, 0.993, 161.129, 54.519)" fill="#7857ad" opacity="0.686"/>
        <ellipse id="Ellipse_91" data-name="Ellipse 91" cx="168.212" cy="79.101" rx="168.212" ry="79.101" transform="translate(165.702 55.43) rotate(-7.022)" fill="#7452ab" opacity="0.706"/>
        <path id="Path_895" data-name="Path 895" d="M358.975,67.972c74.793,16.646,94.348,63.167,43.756,103.679-50.649,40.559-152.552,59.98-227.344,43.334-74.716-16.627-94.405-63.119-43.756-103.679C182.231,70.795,284.259,51.345,358.975,67.972Z" transform="translate(76.287 -29.328)" fill="#704da9" opacity="0.725"/>
        <path id="Path_896" data-name="Path 896" d="M353.22,67.509c73.458,15.763,93.157,61.036,44.063,100.9-49.142,39.907-148.75,59.529-222.208,43.766-73.382-15.744-93.215-60.988-44.063-100.9C180.1,71.406,279.838,51.765,353.22,67.509Z" transform="translate(80.468 -28.912)" fill="#6c48a6" opacity="0.745"/>
        <ellipse id="Ellipse_92" data-name="Ellipse 92" cx="157.815" cy="73.701" rx="157.815" ry="73.701" transform="matrix(0.991, -0.136, 0.136, 0.991, 179.397, 58.135)" fill="#6844a4" opacity="0.765"/>
        <path id="Path_897" data-name="Path 897" d="M341.731,66.62c70.8,13.987,90.777,56.764,44.678,95.346-46.147,38.62-141.147,58.626-211.946,44.639-70.722-13.977-90.825-56.735-44.678-95.346C175.884,72.677,271.009,52.642,341.731,66.62Z" transform="translate(88.807 -28.119)" fill="#643fa2" opacity="0.784"/>
        <path id="Path_898" data-name="Path 898" d="M335.994,66.2c69.465,13.094,89.586,54.633,44.985,92.562-44.639,37.977-137.346,58.185-206.81,45.081-69.4-13.094-89.634-54.6-44.985-92.572C173.784,73.33,266.606,53.1,335.994,66.2Z" transform="translate(92.971 -27.745)" fill="#613a9f" opacity="0.804"/>
        <path id="Path_899" data-name="Path 899" d="M330.272,65.785c68.13,12.221,88.386,52.511,45.283,89.8-43.142,37.324-133.544,57.724-201.684,45.513-68.063-12.211-88.434-52.473-45.283-89.8C171.682,74.012,262.2,53.583,330.272,65.785Z" transform="translate(97.127 -27.39)" fill="#5d359d" opacity="0.824"/>
        <ellipse id="Ellipse_93" data-name="Ellipse 93" cx="144.078" cy="66.625" rx="144.078" ry="66.625" transform="translate(197.591 61.658) rotate(-9.036)" fill="#59309b" opacity="0.843"/>
        <path id="Path_900" data-name="Path 900" d="M318.83,65.023c65.471,10.445,86.005,48.239,45.907,84.239-40.147,36.038-125.95,56.822-191.422,46.377C107.9,185.2,87.262,147.438,127.408,111.4,167.507,75.4,253.426,54.588,318.83,65.023Z" transform="translate(105.421 -26.724)" fill="#552c98" opacity="0.863"/>
        <path id="Path_901" data-name="Path 901" d="M313.117,64.67c64.137,9.552,84.815,46.108,46.214,81.465-38.649,35.385-122.149,56.37-186.3,46.809-64.07-9.552-84.853-46.079-46.2-81.465C165.432,76.123,249.037,55.118,313.117,64.67Z" transform="translate(109.56 -26.419)" fill="#512796" opacity="0.882"/>
        <path id="Path_902" data-name="Path 902" d="M307.415,64.333c62.812,8.678,83.625,43.987,46.521,78.69-37.142,34.742-118.347,55.919-181.159,47.251-62.745-8.669-83.663-43.948-46.521-78.69C163.369,76.88,244.671,55.674,307.415,64.333Z" transform="translate(113.687 -26.14)" fill="#4d2294" opacity="0.902"/>
        <path id="Path_903" data-name="Path 903" d="M301.72,64.024c61.478,7.785,82.434,41.846,46.828,75.916C312.9,174.029,234,195.408,172.525,187.622c-61.42-7.786-82.473-41.817-46.828-75.916C161.3,77.646,240.309,56.248,301.72,64.024Z" transform="translate(117.808 -25.878)" fill="#491d91" opacity="0.922"/>
        <ellipse id="Ellipse_94" data-name="Ellipse 94" cx="127.182" cy="58.052" rx="127.182" ry="58.052" transform="translate(220.182 65.887) rotate(-10.95)" fill="#46188f" opacity="0.941"/>
        <ellipse id="Ellipse_95" data-name="Ellipse 95" cx="123.85" cy="56.383" rx="123.85" ry="56.383" transform="translate(224.673 66.704) rotate(-11.397)" fill="#42148d" opacity="0.961"/>
        <ellipse id="Ellipse_96" data-name="Ellipse 96" cx="120.537" cy="54.734" rx="120.537" ry="54.734" transform="translate(229.152 67.507) rotate(-11.868)" fill="#3e0f8a" opacity="0.98"/>
        <path id="Path_904" data-name="Path 904" d="M279.048,63.037c56.15,4.243,77.663,33.321,48.047,64.809-29.635,31.507-99.34,53.663-155.5,49.42-56.092-4.234-77.692-33.292-48.047-64.809C153.155,80.979,222.946,58.8,279.048,63.037Z" transform="translate(134.192 -25.093)" fill="#3a0a88"/>
      </g>
      <g id="Group_304" data-name="Group 304" transform="translate(166.997 0)">
        <g id="Group_287" data-name="Group 287">
          <g id="Group_286" data-name="Group 286">
            <path id="Path_905" data-name="Path 905" d="M497.089,162.157,274.717,33.768c-6.384-3.379-10.9,2.486-10.9,6.509V230.8L492.615,366.4l-147.051,85.18a20.107,20.107,0,0,1-20.141.019L105.106,324.4a4.7,4.7,0,0,1-2.035-5.8c-1.968,3.389-.634,7.785,3.667,10.445L325.424,455.309a20.107,20.107,0,0,0,20.141-.01l156.209-83.471v-.01a6.271,6.271,0,0,0,3.043-5.386V175.54A15.449,15.449,0,0,0,497.089,162.157Z" transform="translate(-102.182 -32.76)" fill="#deafff"/>
            <g id="Group_285" data-name="Group 285" transform="translate(0.563 2.132)">
              <g id="Group_281" data-name="Group 281" transform="translate(161.075)">
                <g id="Group_279" data-name="Group 279">
                  <path id="Path_906" data-name="Path 906" d="M356.963,175.473V359.186L119.02,222.109V38.223a5.227,5.227,0,0,1,7.843-4.531L349.235,162.081A15.465,15.465,0,0,1,356.963,175.473Z" transform="translate(-119.02 -32.982)" fill="#fff"/>
                </g>
                <g id="Group_280" data-name="Group 280" transform="translate(9.866 14.335)">
                  <path id="Path_907" data-name="Path 907" d="M338.263,160.462V330.3L120.048,204.76V34.475Z" transform="translate(-120.048 -34.475)" fill="url(#linear-gradient)"/>
                </g>
              </g>
              <path id="Path_908" data-name="Path 908" d="M501.25,189.767,345.04,280.275a20.112,20.112,0,0,1-20.131,0l-175.294-101.2-45.023-25.987a4.724,4.724,0,0,1,0-8.169L233.307,70.153l30.029-17.472Z" transform="translate(-102.241 136.427)" fill="url(#linear-gradient-2)"/>
              <g id="Group_283" data-name="Group 283" transform="translate(75.945 198.988)">
                <g id="Group_282" data-name="Group 282">
                  <path id="Path_909" data-name="Path 909" d="M412.587,177.689,325.331,228.08,110.152,104.1,197.087,53.71Z" transform="translate(-110.152 -53.71)" fill="#d6ccff"/>
                </g>
                <path id="Path_910" data-name="Path 910" d="M366.969,160.009l-13.133-7.584L343.728,158.3l13.133,7.584,10.109-5.875m-18.845-10.886-13.142-7.584-10.109,5.875L338.006,155l10.118-5.875m-18.864-10.886-13.123-7.574-10.109,5.866,13.123,7.584,10.109-5.875M310.407,127.35l-13.123-7.574-10.109,5.866,13.123,7.584,10.109-5.875m-18.845-10.886-13.133-7.574-10.109,5.875,13.133,7.574,10.109-5.875m-18.854-10.886L259.575,98l-10.109,5.875,13.133,7.574,10.109-5.875M253.844,94.691l-13.123-7.574-10.109,5.875,13.123,7.574,10.109-5.875M235,83.814l-13.133-7.584-10.109,5.875,13.133,7.584L235,83.814M216.145,72.928l-13.133-7.584L192.9,71.219,206.037,78.8l10.109-5.875M197.291,62.042l-13.133-7.584L174.05,60.333l13.133,7.584,10.109-5.875M370.233,179.957,357.1,172.373l-10.109,5.875,13.133,7.574,10.109-5.866m-18.854-10.9-13.133-7.574-10.109,5.875,13.133,7.574,10.109-5.875m-18.845-10.877L319.392,150.6l-10.109,5.875,13.133,7.584,10.118-5.875M313.671,147.3l-13.123-7.584-10.109,5.875,13.123,7.584,10.109-5.875m-18.854-10.886-13.123-7.584L271.585,134.7l13.123,7.584,10.109-5.875m-18.845-10.886-13.133-7.574-10.109,5.875,13.133,7.574,10.109-5.875M257.118,114.64l-13.133-7.574-10.109,5.875,13.133,7.574,10.109-5.875m-18.864-10.886-13.123-7.574-10.109,5.875,13.123,7.574,10.109-5.875M219.409,92.877l-13.133-7.584-10.109,5.875L209.3,98.752l10.109-5.875M200.555,81.99l-13.133-7.584-10.109,5.875,13.133,7.584,10.109-5.875M181.7,71.1,168.568,63.52,158.46,69.4l13.133,7.584L181.7,71.1M354.643,189.01l-13.133-7.574L331.4,187.311l13.133,7.574,10.109-5.875m-18.854-10.886-13.133-7.574-10.109,5.875L325.68,184l10.109-5.875m-18.845-10.877L303.8,159.663l-10.109,5.875,13.133,7.584,10.118-5.875M298.08,156.361l-13.123-7.584-10.109,5.875,13.123,7.584,10.109-5.875m-18.854-10.886L266.1,137.891l-10.109,5.875,13.123,7.574,10.109-5.866m-18.845-10.886L247.249,127l-10.109,5.875,13.133,7.584,10.109-5.875M241.527,123.7l-13.133-7.584-10.109,5.875,13.133,7.584,10.109-5.875m-18.864-10.886-13.123-7.584-10.109,5.875,13.123,7.584,10.109-5.875m-18.845-10.886-13.133-7.574-10.109,5.875L193.71,107.8l10.109-5.875M184.965,91.043l-13.133-7.574-10.109,5.875,13.133,7.574,10.109-5.875M166.111,80.157l-13.133-7.574-10.109,5.875L156,86.032l10.109-5.875M339.053,198.072,307.066,179.6l-10.109,5.875,31.987,18.47,10.109-5.875m-37.7-21.772-13.142-7.584L278.1,174.591l13.133,7.584,10.118-5.875M282.49,165.413l-13.123-7.574-10.109,5.875,13.123,7.574,10.109-5.875m-18.854-10.886-13.123-7.574L240.4,152.828l13.123,7.574,10.109-5.875M244.791,143.65l-13.133-7.584-10.109,5.875,13.133,7.584,10.109-5.875m-18.854-10.886L212.8,125.18,202.7,131.055l13.133,7.584,10.109-5.875m-18.864-10.886-13.123-7.584-10.109,5.875,13.123,7.584,10.109-5.875m-18.845-10.886L175.1,103.408l-10.109,5.875,13.133,7.584,10.109-5.875m-18.854-10.886-31.987-18.47L127.279,87.51l31.987,18.47,10.109-5.875M323.462,207.135l-13.133-7.584-10.109,5.875,13.133,7.584,10.109-5.875m-18.854-10.886-13.133-7.584-10.109,5.875,13.133,7.584,10.109-5.875m-18.845-10.886-13.142-7.584-10.109,5.875,13.133,7.584,10.118-5.875M266.9,174.476l-88.54-51.119-10.109,5.875,88.54,51.119,10.109-5.875m-94.261-54.422-13.133-7.584L149.4,118.345l13.133,7.584,10.109-5.875m-18.854-10.886-13.133-7.584-10.109,5.875,13.133,7.584,10.109-5.875M134.93,98.281,121.8,90.7l-10.109,5.875,13.133,7.584,10.109-5.875m250.893,72.614-13.133-7.584-10.109,5.875,13.133,7.584,10.109-5.875" transform="translate(-96.935 -47.279)" fill="#fff"/>
              </g>
              <path id="Path_911" data-name="Path 911" d="M165.016,64.017,111.635,94.424l69.452,40.016,53.485-30.408Z" transform="translate(-21.455 233.912)" fill="#fff"/>
              <g id="Group_284" data-name="Group 284" transform="translate(384.398 331.513)">
                <path id="Path_912" data-name="Path 912" d="M142.283,73.059v5.3l9.571-5.544v-5.3Z" transform="translate(-142.283 -67.515)" fill="#9f63ff"/>
                <path id="Path_913" data-name="Path 913" d="M147.355,72.815l-4.548-2.666,4.548-2.634Z" transform="translate(-137.785 -67.515)" fill="#8641ff"/>
              </g>
              <path id="Path_914" data-name="Path 914" d="M165.016,64.7l68.958,39.672.6-.34L165.016,64.017,111.635,94.424l.6.344Z" transform="translate(-21.455 233.913)" fill="#6622e4"/>
            </g>
          </g>
        </g>
        <g id="Group_291" data-name="Group 291" transform="translate(184.024 60.048)">
          <g id="Group_289" data-name="Group 289" transform="translate(6.251)">
            <g id="Group_288" data-name="Group 288">
              <path id="Path_915" data-name="Path 915" d="M274.113,161.634v6.672l9.35,5.328v-6.672l-9.35-5.328m-60.844-39.11v10.637l9.35,5.338V127.872l-9.35-5.347m30.422,9.168v19.037l9.321,5.338.048-19.037-9.369-5.338M152.415,76.858V98.026l9.36,5.328V82.2l-9.36-5.338m30.393,8.928v29.808l9.427,5.338V91.114l-9.427-5.328m76.156,43.123v30.6l9.341,5.338v-30.6l-9.341-5.338M122,47.415V80.458l9.379,5.338V52.752L122,47.415m45.657,23.75v35.644l9.379,5.338V76.5l-9.379-5.337M198.1,83.606v40.771l9.379,5.338V88.934L198.1,83.606m91.448,47.462V177.09l9.235,5.328V136.406l-9.235-5.338M137.228,39.015V89.242l9.418,5.328V44.353l-9.418-5.338M228.514,88.7v53.241l9.437,5.338V94.032L228.514,88.7" transform="translate(-122.003 -39.015)" fill="#fff"/>
              <path id="Path_916" data-name="Path 916" d="M237.95,110.157v15.859l-9.437-5.338V104.819Zm5.741,3.446v26.2l9.245,5.338.077-26.2ZM213.269,96.035v23.107l9.35,5.338V101.373Zm45.7,26.352v7.161l9.341,5.328v-7.152Zm30.585,17.577v14.323l9.235,5.338V145.292Zm-15.436-8.784v31.555l9.35,5.338V136.508ZM198.1,87.251v5.942l9.379,5.338V92.589ZM137.228,52.116V62.733l9.418,5.338V57.444ZM122,59.191l9.379,5.328V48.67L122,43.332ZM167.66,69.684v13.1l9.379,5.328V75.021ZM152.415,60.9V83.008l9.36,5.328V66.228Zm30.393,17.568v36.912l9.427,5.328v-36.9Z" transform="translate(-122.003 -1.889)" fill="#d6ccff"/>
            </g>
          </g>
        </g>
        <g id="Group_297" data-name="Group 297" transform="translate(182.326 139.581)" opacity="0.3">
          <g id="Group_292" data-name="Group 292" transform="translate(0 39.383)">
            <path id="Path_918" data-name="Path 918" d="M215.519,109.392l-94.344-54.47V51.4l94.344,54.275Z" transform="translate(-121.175 -51.402)" fill="#fff"/>
          </g>
          <g id="Group_293" data-name="Group 293" transform="translate(0 29.537)">
            <path id="Path_919" data-name="Path 919" d="M215.519,108.367,121.175,53.9v-3.52l94.344,54.275Z" transform="translate(-121.175 -50.377)" fill="#fff"/>
          </g>
          <g id="Group_294" data-name="Group 294" transform="translate(0 19.691)">
            <path id="Path_920" data-name="Path 920" d="M215.519,107.341l-94.344-54.47v-3.52l94.344,54.275Z" transform="translate(-121.175 -49.351)" fill="#fff"/>
          </g>
          <g id="Group_295" data-name="Group 295" transform="translate(0 9.846)">
            <path id="Path_921" data-name="Path 921" d="M215.519,106.315l-94.344-54.47v-3.52L215.519,102.6Z" transform="translate(-121.175 -48.325)" fill="#fff"/>
          </g>
          <g id="Group_296" data-name="Group 296">
            <path id="Path_922" data-name="Path 922" d="M184.618,87.449,121.175,50.82V47.3l63.443,36.5Z" transform="translate(-121.175 -47.3)" fill="#fff"/>
          </g>
        </g>
        <g id="Group_303" data-name="Group 303" transform="translate(288.48 201.69)" opacity="0.3">
          <g id="Group_298" data-name="Group 298" transform="translate(0 39.383)">
            <path id="Path_923" data-name="Path 923" d="M218.313,111.092l-86.08-49.7v-3.52l86.08,49.521Z" transform="translate(-132.233 -57.872)" fill="#fff"/>
          </g>
          <g id="Group_299" data-name="Group 299" transform="translate(0 29.537)">
            <path id="Path_924" data-name="Path 924" d="M218.313,110.066l-86.08-49.7v-3.52l86.08,49.521Z" transform="translate(-132.233 -56.846)" fill="#fff"/>
          </g>
          <g id="Group_300" data-name="Group 300" transform="translate(0 19.691)">
            <path id="Path_925" data-name="Path 925" d="M218.313,109.041l-86.08-49.7V55.821l86.08,49.521Z" transform="translate(-132.233 -55.821)" fill="#fff"/>
          </g>
          <g id="Group_301" data-name="Group 301" transform="translate(0 9.846)">
            <path id="Path_926" data-name="Path 926" d="M218.313,108.015l-86.08-49.7V54.8l86.08,49.521Z" transform="translate(-132.233 -54.795)" fill="#fff"/>
          </g>
          <g id="Group_302" data-name="Group 302">
            <path id="Path_927" data-name="Path 927" d="M195.675,93.919,132.233,57.29V53.77l63.443,36.5Z" transform="translate(-132.233 -53.77)" fill="#fff"/>
          </g>
        </g>
      </g>
    </g>
    <g id="Group_322" data-name="Group 322" transform="translate(-1640.093 2172.631)">
      <g id="Group_321" data-name="Group 321">
        <path id="Path_951" data-name="Path 951" d="M378.052,201.961c9.264-5.779,8.669-22.733-1.8-39.312a66.942,66.942,0,0,0-8.179-10.473c3.552-4,2.746-12.393-2.467-20.63-5.338-8.448-13.536-13.949-19.661-13.641-2.381-35.116-30.489-78.124-64.828-98.13-19.526-11.366-37.036-12.941-48.95-6.25-.048.029-20.985,12.24-21,12.249-13.181-7.037-24.873-7.594-32.745-2.63-.048.029-21.744,12.777-21.8,12.806-6.528,4.042-10.464,11.837-10.464,22.848,0,24.989,20.256,57.043,45.244,71.586l142.779,83.145c7.277,4.243,14.563,4.589,20.122,2.266a13.49,13.49,0,0,0,1.958-1.018C356.3,214.739,377.995,201.99,378.052,201.961Z" transform="translate(-146.148 -9.559)" fill="#fff"/>
        <path id="Path_952" data-name="Path 952" d="M354.293,164a67.478,67.478,0,0,0-8.179-10.483c3.552-3.994,2.746-12.384-2.467-20.621-5.338-8.458-13.536-13.949-19.66-13.641-2.381-35.126-30.489-78.124-64.828-98.13C229.5,3.863,204.506,9.162,196.691,31.751c-1.738-1.219-3.5-2.362-5.3-3.408-24.988-14.553-45.244-6.086-45.244,18.9s20.256,57.043,45.244,71.586l142.779,83.145c7.277,4.243,14.563,4.589,20.122,2.266C365.409,199.6,365.409,181.586,354.293,164Z" transform="translate(-146.148 1.995)" fill="url(#linear-gradient-3)"/>
      </g>
    </g>
  </g>
</svg>
