<svg xmlns="http://www.w3.org/2000/svg" width="73" height="73" viewBox="0 0 73 73">
  <g id="migrating" transform="translate(-1 -1)">
    <path id="Path_3021" data-name="Path 3021" d="M21,14.474A3.474,3.474,0,1,0,24.474,11,3.478,3.478,0,0,0,21,14.474Zm3.474-1.158a1.158,1.158,0,1,1-1.158,1.158A1.16,1.16,0,0,1,24.474,13.316Z" transform="translate(3.59 1.795)" fill="#a765e6"/>
    <path id="Path_3022" data-name="Path 3022" d="M41,11h2.316v6.948H41Z" transform="translate(7.123 1.795)" fill="#a765e6"/>
    <path id="Path_3023" data-name="Path 3023" d="M37,11h2.316v6.948H37Z" transform="translate(6.41 1.795)" fill="#a765e6"/>
    <path id="Path_3024" data-name="Path 3024" d="M40.474,23a3.474,3.474,0,1,0,3.474,3.474A3.478,3.478,0,0,0,40.474,23Zm0,4.632a1.158,1.158,0,1,1,1.158-1.158A1.16,1.16,0,0,1,40.474,27.632Z" transform="translate(6.462 3.949)" fill="#a765e6"/>
    <path id="Path_3025" data-name="Path 3025" d="M21,23h2.316v6.948H21Z" transform="translate(3.561 3.949)" fill="#a765e6"/>
    <path id="Path_3026" data-name="Path 3026" d="M25,23h2.316v6.948H25Z" transform="translate(4.274 3.949)" fill="#a765e6"/>
    <path id="Path_3027" data-name="Path 3027" d="M5.632,44.951V32H3.316V44.951a3.474,3.474,0,1,0,2.316,0ZM4.474,49.37a1.158,1.158,0,1,1,1.158-1.158A1.16,1.16,0,0,1,4.474,49.37Z" transform="translate(0 5.728)" fill="#a765e6"/>
    <path id="Path_3028" data-name="Path 3028" d="M11.316,33v6a3.474,3.474,0,1,0,2.316,0V33Zm1.158,10.422a1.158,1.158,0,1,1,1.158-1.158A1.16,1.16,0,0,1,12.474,43.422Z" transform="translate(1.264 5.812)" fill="#a765e6"/>
    <path id="Path_3029" data-name="Path 3029" d="M71.645,45.525a3.532,3.532,0,1,0-2.355,0V54.6A10.534,10.534,0,0,0,63.4,52.806h-.185a16.243,16.243,0,0,0-.993-3.675V38.461a3.532,3.532,0,1,0-2.355,0V45.02a16.663,16.663,0,0,0-4.71-4.1V29.258h10.6a3.537,3.537,0,0,0,3.532-3.532V7.848a3.532,3.532,0,1,0-2.355,0V25.726A1.179,1.179,0,0,1,65.758,26.9h-10.6v-4.71h3.532a3.537,3.537,0,0,0,3.532-3.532V17.267a3.532,3.532,0,1,0-2.355,0v1.394a1.179,1.179,0,0,1-1.177,1.177H55.161V13.952a5.894,5.894,0,0,0-5.887-5.887h-7.7A16.449,16.449,0,0,0,11.782,15.13H11.6a10.6,10.6,0,1,0,0,21.194h8.242V51.484a10.637,10.637,0,0,0-.582,1.353c-.2-.012-.394-.031-.6-.031a10.6,10.6,0,0,0,0,21.194H63.4a10.586,10.586,0,0,0,8.242-17.242Zm-10.6-11.558a1.177,1.177,0,1,1-1.177,1.177A1.179,1.179,0,0,1,61.048,33.968ZM68.113,3.355a1.177,1.177,0,1,1-1.177,1.177A1.179,1.179,0,0,1,68.113,3.355Zm-7.065,9.419a1.177,1.177,0,1,1-1.177,1.177A1.179,1.179,0,0,1,61.048,12.774Zm9.419,28.258A1.177,1.177,0,1,1,69.29,42.21,1.179,1.179,0,0,1,70.468,41.032ZM46.919,38.677a16.482,16.482,0,0,0-13.974,7.74,10.533,10.533,0,0,0-1.617-.469,3.533,3.533,0,1,0-6.157.613,10.549,10.549,0,0,0-2.979,1.873V38.677H52.806v1.1A16.306,16.306,0,0,0,46.919,38.677ZM26.9,44.565a1.177,1.177,0,1,1,1.177,1.177A1.179,1.179,0,0,1,26.9,44.565Zm-4.71-20.016H52.806V36.323H22.194Zm30.613-10.6v8.242H22.194V13.952a3.537,3.537,0,0,1,3.532-3.532H49.274A3.537,3.537,0,0,1,52.806,13.952ZM11.6,33.968a8.242,8.242,0,0,1,0-16.484,8.1,8.1,0,0,1,1.08.08l1.239.161L14,16.478A14.1,14.1,0,0,1,38.586,8.065H25.726a5.894,5.894,0,0,0-5.887,5.887V33.968ZM63.4,71.645H18.661A8.242,8.242,0,1,1,26.9,63.4h2.355a10.61,10.61,0,0,0-7.625-10.165,8.235,8.235,0,0,1,15.867,3.1h2.355a10.59,10.59,0,0,0-4.77-8.841A14.094,14.094,0,0,1,61,54.156l.088,1.247,1.239-.161a8.1,8.1,0,0,1,1.08-.08,8.242,8.242,0,1,1,0,16.484Z" transform="translate(0 0)" fill="#a765e6"/>
    <path id="Path_3030" data-name="Path 3030" d="M40,37v2.316a9.275,9.275,0,0,1,9.264,9.264H51.58A11.593,11.593,0,0,0,40,37Z" transform="translate(7.065 6.522)" fill="#a765e6"/>
    <path id="Path_3031" data-name="Path 3031" d="M13.316,54.79a3.478,3.478,0,0,1,3.474-3.474V49a5.79,5.79,0,1,0,0,11.58H33V58.264H16.79A3.478,3.478,0,0,1,13.316,54.79Z" transform="translate(1.86 8.788)" fill="#a765e6"/>
    <path id="Path_3032" data-name="Path 3032" d="M32,57h2.316v2.316H32Z" transform="translate(5.52 10.052)" fill="#a765e6"/>
    <path id="Path_3033" data-name="Path 3033" d="M36,57h2.316v2.316H36Z" transform="translate(6.232 10.052)" fill="#a765e6"/>
    <path id="Path_3034" data-name="Path 3034" d="M55,50v2.316a2.318,2.318,0,0,1,2.316,2.316h2.316A4.637,4.637,0,0,0,55,50Z" transform="translate(9.736 8.946)" fill="#a765e6"/>
    <path id="Path_3035" data-name="Path 3035" d="M7.316,22H5a5.8,5.8,0,0,0,5.79,5.79h1.158V25.474H10.79A3.478,3.478,0,0,1,7.316,22Z" transform="translate(0.632 3.762)" fill="#a765e6"/>
    <path id="Path_3036" data-name="Path 3036" d="M13,25h2.316v2.316H13Z" transform="translate(2.137 4.274)" fill="#a765e6"/>
  </g>
</svg>
