<svg id="pay" xmlns="http://www.w3.org/2000/svg" width="73" height="73" viewBox="0 0 73 73">
  <g id="Group_837" data-name="Group 837">
    <g id="Group_836" data-name="Group 836">
      <path id="Path_2999" data-name="Path 2999" d="M63.831,15.772h-1.4L42.477,4.993a17.735,17.735,0,0,0-8.4-2.125H11.968V1.434A1.43,1.43,0,0,0,10.543,0H1.425A1.43,1.43,0,0,0,0,1.434V25.385a1.43,1.43,0,0,0,1.425,1.434h9.119a1.43,1.43,0,0,0,1.425-1.434V23.162h1.425V43.6a1.43,1.43,0,0,0,1.425,1.434H63.831A1.43,1.43,0,0,0,65.255,43.6v-26.4A1.43,1.43,0,0,0,63.831,15.772ZM9.119,23.951H2.85V2.868H9.119Zm52.966-5.306c.037,0,.074,0,.11,0h.211v3.273a4.926,4.926,0,0,1-3.25-3.268ZM13.514,20.294H11.968V5.737H34.077A14.89,14.89,0,0,1,41.13,7.521l15.277,8.251H38.062c-.031,0-.062,0-.092,0H34.987A3.083,3.083,0,0,0,33.423,21.5L39.2,24.96a1.7,1.7,0,0,1,.631,2.242,1.669,1.669,0,0,1-2.139.778l-12.9-5.415A28.985,28.985,0,0,0,13.514,20.294Zm22.5,14.247a4.169,4.169,0,0,0,1.825,1.227,1.423,1.423,0,0,0,2.844,0,3.975,3.975,0,0,0,2.756-3.713,3.852,3.852,0,0,0-1.423-2.965,4.685,4.685,0,0,0,.34-.556,4.589,4.589,0,0,0-.278-4.7A7.146,7.146,0,1,1,32.3,28.826l4.292,1.8a4.536,4.536,0,0,0,1.76.358,4.477,4.477,0,0,0,.613-.042,1.425,1.425,0,0,0,.292.03,1.1,1.1,0,1,1,0,2.161,1.441,1.441,0,0,1-1.09-.468,1.418,1.418,0,0,0-2.01-.148A1.441,1.441,0,0,0,36.014,34.541ZM16.243,42.167V38.894a4.926,4.926,0,0,1,3.251,3.273Zm46.163,0H59.154a4.926,4.926,0,0,1,3.251-3.273Zm0-6.22a7.782,7.782,0,0,0-6.18,6.22h-33.8a7.782,7.782,0,0,0-6.18-6.22V23.3a26.168,26.168,0,0,1,7.45,1.909l5.953,2.5a9.98,9.98,0,1,0,7.762-7.161L34.88,19.037a.213.213,0,0,1-.1-.182.211.211,0,0,1,.21-.211h21.24a7.783,7.783,0,0,0,6.179,6.216Z" fill="#a765e6"/>
    </g>
  </g>
  <g id="Group_839" data-name="Group 839" transform="translate(4.58 18.768)">
    <g id="Group_838" data-name="Group 838">
      <path id="Path_3000" data-name="Path 3000" d="M33.387,131.667h-.019a1.434,1.434,0,0,0,0,2.868h.019a1.434,1.434,0,0,0,0-2.868Z" transform="translate(-31.934 -131.667)" fill="#a765e6"/>
    </g>
  </g>
  <g id="Group_841" data-name="Group 841" transform="translate(7.708 46.181)">
    <g id="Group_840" data-name="Group 840">
      <path id="Path_3001" data-name="Path 3001" d="M117.611,325h-9.119a1.43,1.43,0,0,0-1.425,1.434v2.906l-6.722-2.314a17.972,17.972,0,0,0-13.371.649L77.4,332.047a5.018,5.018,0,0,0-2.546,6.456,2.592,2.592,0,0,1-1.163-.293l-12-6.282a5.421,5.421,0,0,0-7.393,2.452,5.506,5.506,0,0,0,2.182,7.155l14.435,8.323a11.34,11.34,0,0,0,7.508,1.364l28.649-4.74v3.9a1.43,1.43,0,0,0,1.425,1.434h9.119a1.43,1.43,0,0,0,1.425-1.434V326.434A1.43,1.43,0,0,0,117.611,325Zm-10.544,18.574-29.111,4.817a8.515,8.515,0,0,1-5.629-1.023l-14.435-8.323a2.62,2.62,0,0,1-1.039-3.405,2.58,2.58,0,0,1,3.519-1.167l12,6.282a5.439,5.439,0,0,0,2.511.618h2.9c.048,0,.1,0,.142-.007a4.9,4.9,0,0,0,3.12-.019l9.567-3.258a1.433,1.433,0,0,0-.913-2.717l-9.567,3.258a2.136,2.136,0,0,1-1.558-3.971l9.573-4.372a15.149,15.149,0,0,1,11.271-.547l7.645,2.631Zm9.119,5.377h-6.269V327.868h6.269Z" transform="translate(-53.743 -325)" fill="#a765e6"/>
    </g>
  </g>
  <g id="Group_843" data-name="Group 843" transform="translate(65.533 51.363)">
    <g id="Group_842" data-name="Group 842">
      <path id="Path_3002" data-name="Path 3002" d="M461.388,360.333h-.019a1.434,1.434,0,1,0,0,2.868h.019a1.434,1.434,0,0,0,0-2.868Z" transform="translate(-459.935 -360.333)" fill="#a765e6"/>
    </g>
  </g>
  <g id="Group_845" data-name="Group 845" transform="translate(21.59 28.81)">
    <g id="Group_844" data-name="Group 844">
      <path id="Path_3003" data-name="Path 3003" d="M155.97,202.112h-3.031a1.434,1.434,0,0,0,0,2.868h3.031a1.434,1.434,0,1,0,0-2.868Z" transform="translate(-151.505 -202.112)" fill="#a765e6"/>
    </g>
  </g>
  <g id="Group_847" data-name="Group 847" transform="translate(51.067 28.81)">
    <g id="Group_846" data-name="Group 846">
      <path id="Path_3004" data-name="Path 3004" d="M362.819,202.112h-3.031a1.434,1.434,0,0,0,0,2.868h3.031a1.434,1.434,0,0,0,0-2.868Z" transform="translate(-358.354 -202.112)" fill="#a765e6"/>
    </g>
  </g>
  <g id="Group_849" data-name="Group 849" transform="translate(20.442 8.605)">
    <g id="Group_848" data-name="Group 848">
      <path id="Path_3005" data-name="Path 3005" d="M155.63,60H145a1.434,1.434,0,0,0,0,2.868H155.63a1.434,1.434,0,0,0,0-2.868Z" transform="translate(-143.563 -60)" fill="#a765e6"/>
    </g>
  </g>
  <g id="Group_851" data-name="Group 851" transform="translate(15.442 8.605)">
    <g id="Group_850" data-name="Group 850">
      <path id="Path_3006" data-name="Path 3006" d="M110.778,60.42a1.433,1.433,0,1,0,.42,1.014A1.442,1.442,0,0,0,110.778,60.42Z" transform="translate(-108.33 -60)" fill="#a765e6"/>
    </g>
  </g>
</svg>
