<svg xmlns="http://www.w3.org/2000/svg" xmlns:xlink="http://www.w3.org/1999/xlink" width="710" height="762.98" viewBox="0 0 710 762.98">
  <defs>
    <linearGradient id="linear-gradient" x1="3.182" y1="1.027" x2="3.261" y2="0.863" gradientUnits="objectBoundingBox">
      <stop offset="0.005" stop-color="#3685fc"/>
      <stop offset="0.995" stop-color="#609ffd"/>
    </linearGradient>
    <linearGradient id="linear-gradient-2" x1="11.969" y1="0.039" x2="11.763" y2="0.953" gradientUnits="objectBoundingBox">
      <stop offset="0" stop-color="#bddff4"/>
      <stop offset="1" stop-color="#e7e9ff"/>
    </linearGradient>
    <linearGradient id="linear-gradient-4" x1="4.616" y1="1.027" x2="4.695" y2="0.863" xlink:href="#linear-gradient"/>
    <linearGradient id="linear-gradient-5" x1="0.5" x2="0.46" y2="0.955" gradientUnits="objectBoundingBox">
      <stop offset="0" stop-color="#fafaff"/>
      <stop offset="1" stop-color="#cfd6fd"/>
    </linearGradient>
    <linearGradient id="linear-gradient-6" x1="0.5" x2="0.137" y2="1.186" gradientUnits="objectBoundingBox">
      <stop offset="0" stop-color="#e7e9ff"/>
      <stop offset="1" stop-color="#fff"/>
    </linearGradient>
    <linearGradient id="linear-gradient-7" x2="0.207" y2="1.062" xlink:href="#linear-gradient-6"/>
    <linearGradient id="linear-gradient-8" x1="2.167" y1="0.5" x2="3.167" y2="0.5" gradientUnits="objectBoundingBox">
      <stop offset="0" stop-color="#e2f1f7"/>
      <stop offset="0.984" stop-color="#90caf4"/>
    </linearGradient>
    <linearGradient id="linear-gradient-9" x1="3.076" y1="0.5" x2="4.076" y2="0.5" xlink:href="#linear-gradient-8"/>
    <linearGradient id="linear-gradient-10" x1="4.295" y1="0.066" x2="3.632" y2="0.808" gradientUnits="objectBoundingBox">
      <stop offset="0" stop-color="#bddff4"/>
      <stop offset="1" stop-color="#cfd6fd"/>
    </linearGradient>
    <linearGradient id="linear-gradient-11" x1="2.644" y1="0.298" x2="2.128" y2="0.902" xlink:href="#linear-gradient-10"/>
    <linearGradient id="linear-gradient-12" x1="1.14" y1="0.641" x2="1.004" y2="0.205" xlink:href="#linear-gradient-8"/>
    <linearGradient id="linear-gradient-13" x1="-18.998" y1="1.046" x2="-18.849" y2="0.626" gradientUnits="objectBoundingBox">
      <stop offset="0" stop-color="#2c65d6"/>
      <stop offset="0.989" stop-color="#3046b5"/>
    </linearGradient>
    <linearGradient id="linear-gradient-14" x1="-5.461" y1="0.126" x2="-5.396" y2="0.839" xlink:href="#linear-gradient-13"/>
    <linearGradient id="linear-gradient-15" x1="-6.105" y1="-0.051" x2="-5.419" y2="0.983" xlink:href="#linear-gradient-13"/>
  </defs>
  <g id="Group_907" data-name="Group 907" transform="translate(4146 -3076)">
    <g id="Group_864" data-name="Group 864" transform="translate(-1969 -9082)">
      <rect id="Rectangle_509" data-name="Rectangle 509" width="710" height="762.98" transform="translate(-2177 12158)" fill="none"/>
    </g>
    <g id="Group_906" data-name="Group 906" transform="translate(-4998.982 2852.451)">
      <g id="Group_738" data-name="Group 738" transform="translate(971 409.152)">
        <g id="Group_702" data-name="Group 702" transform="translate(0 0)">
          <g id="Group_704" data-name="Group 704" transform="translate(116.105 22.89)">
            <g id="Group_703" data-name="Group 703" transform="translate(44.691 44.151)">
              <path id="Path_2042" data-name="Path 2042" d="M886.168,595.112l3.441-1.954,43.359,25.033a9.251,9.251,0,0,1,4.185,7.249,2.883,2.883,0,0,1-1.3,2.74s-3.355,1.91-3.355,1.91a2.96,2.96,0,0,1-2.974-.28,9.384,9.384,0,0,1-4.028-5.862l-39.331-22.707Z" transform="translate(-885.918 -593.158)" fill="url(#linear-gradient)"/>
              <path id="Path_2043" data-name="Path 2043" d="M885.728,598.55l43.359,25.033a9.25,9.25,0,0,1,4.185,7.249c0,2.669-1.874,3.751-4.185,2.416a9.385,9.385,0,0,1-4.028-5.862l-39.581-22.847Z" transform="translate(-885.478 -596.596)" fill="#2c65d6"/>
            </g>
            <path id="Path_2044" data-name="Path 2044" d="M824.906,747.743l-40.637-23.462,1.993-1.151,41.006-23.675L867.9,722.917Z" transform="translate(-776.258 -616.781)" fill="#609ffd"/>
            <path id="Path_2045" data-name="Path 2045" d="M784.269,587.163l.7-79.073,41.956-23.729-.7,79.073Z" transform="translate(-776.258 -479.639)" fill="#3685fc"/>
            <path id="Path_2046" data-name="Path 2046" d="M762.866,536.81l8.012,4.721-.7,79.073-8.012-4.721Z" transform="translate(-762.162 -513.08)" fill="#2c65d6"/>
            <path id="Path_2047" data-name="Path 2047" d="M806.055,471.332l8.013,4.722-41.956,23.729-8.013-4.722Z" transform="translate(-763.397 -471.332)" fill="#609ffd"/>
            <path id="Path_2048" data-name="Path 2048" d="M807.468,781.155V819.87l-45.305-26.157V755Z" transform="translate(-762.162 -652.195)" fill="#2c65d6"/>
          </g>
          <g id="Group_707" data-name="Group 707" transform="translate(124.236)">
            <g id="Group_705" data-name="Group 705" transform="translate(2.965)">
              <path id="Path_2049" data-name="Path 2049" d="M810.94,709.6s-5.1,15.357,2.088,23.475,37.238,24.586,37.238,24.586l15.447-13.221S853.7,729.135,846.93,722.873s-13.117-13.27-13.117-13.27Z" transform="translate(-803.238 -600.361)" fill="#3046b5"/>
              <path id="Path_2050" data-name="Path 2050" d="M874.293,695.637s-2.841,15.931,5.442,22.931,40.387,18.976,40.387,18.976l13.385-15.3s-14.094-13.421-21.689-18.646-16.026-12.074-16.026-12.074Z" transform="translate(-844.451 -588.831)" fill="#3046b5"/>
              <path id="Path_2051" data-name="Path 2051" d="M820.433,514.327s-5.772-2.831-12.044,2.34c-14.35,11.834-15.612,21.5-15.612,21.5s10.657,17.765,9.613,24.056-4.745,23.56-2.278,25.054c.925.56,11.719,2.057,24.131,1.124,17.047-1.282,21.473-8.126,19.9-12.871-2.521-7.593-.861-13.139,1.972-20.369s3.336-23.835-2.572-29.507S820.433,514.327,820.433,514.327Z" transform="translate(-792.778 -475.362)" fill="#a765e6"/>
              <path id="Path_2052" data-name="Path 2052" d="M840.908,487.638q-.083-.618-.166-1.236c-.012-.073-.022-.145-.034-.217a6.352,6.352,0,0,1-.036-.748,4.386,4.386,0,0,0-1.347-3.254c5.179-4.724,10.487-21.748,10.769-22.792l11.628,27.721c2.867,3.717-9.507,4.709-17.094,3.558a25.357,25.357,0,0,1-4.216-.964A4.618,4.618,0,0,0,840.908,487.638Z" transform="translate(-822.456 -440.828)" fill="#ef9baa"/>
              <ellipse id="Ellipse_109" data-name="Ellipse 109" cx="13.313" cy="18.175" rx="13.313" ry="18.175" transform="translate(19.612 7.632) rotate(-12.766)" fill="#f8bcb4"/>
              <path id="Path_2053" data-name="Path 2053" d="M856.9,441.349c-2.218-9.79,1.8-19.043,8.968-20.668s14.782,4.994,17,14.784a24.716,24.716,0,0,1,.539,3.573c-6.2-.162-16.546,1.5-16.074,16.4C862.562,453.383,858.437,448.13,856.9,441.349Z" transform="translate(-833.273 -415.991)" fill="#ef9baa"/>
              <path id="Path_2054" data-name="Path 2054" d="M841.14,436.3c1.114,2.489,3.378,6.95,6.835,6.219,4.995-1.057,2.289-7.174,3.461-9.527.63,2.045,2.492,4.908,4.571,4.337,2.1-.576,3.422-8.852,3.441-11.2a11.658,11.658,0,0,0,1.728,1.3c3.2,1.824,9.531,1.69,11.132-2.278a11.3,11.3,0,0,0-2.281-11.507C857.022,399.541,831.475,414.717,841.14,436.3Z" transform="translate(-822.252 -408.171)" fill="#3046b5"/>
              <path id="Path_2055" data-name="Path 2055" d="M866.85,478.075l-1.728-4.416.227-.524s-1.6-5.016-3.957-2.575-.356,8.721,3.236,10.641,3.044,2.551,3.044,2.551Z" transform="translate(-835.875 -447.523)" fill="#ef9baa"/>
              <path id="Path_2056" data-name="Path 2056" d="M838.411,509.394c-1.57,9.66,11.875,11.177,13.469,10.908l-1.931,8.6c-11.429-2.94-22.824-8.68-14.644-17.116A12.981,12.981,0,0,1,838.411,509.394Z" transform="translate(-818.122 -472.71)" fill="url(#linear-gradient-2)"/>
              <path id="Path_2057" data-name="Path 2057" d="M885.928,529.078c2.848-1.413,4.8-3.137,3.563-5.919a13.955,13.955,0,0,1,3.526,5.518c.81,2.98-1.707,7.971-1.707,7.971Z" transform="translate(-852.17 -481.486)" fill="url(#linear-gradient-2)"/>
              <path id="Path_2058" data-name="Path 2058" d="M883.374,539.492l3.424,4.816-.606,4.171-4.269-2.525Z" transform="translate(-849.616 -491.9)" fill="#3f5ac0"/>
              <path id="Path_2059" data-name="Path 2059" d="M886.894,555.59l.375.254,3.707,2.509s3.241,9.208,2.776,17a118.191,118.191,0,0,1-1.456,13.133s-4.454-14.993-6.264-21.618-1.461-6.914-1.461-6.914Z" transform="translate(-851.286 -502.164)" fill="#3f5ac0"/>
            </g>
            <g id="Group_706" data-name="Group 706" transform="translate(0 87.557)">
              <path id="Path_2060" data-name="Path 2060" d="M785.288,651.721l3.441-1.954L832.088,674.8a9.251,9.251,0,0,1,4.185,7.248,2.884,2.884,0,0,1-1.3,2.741s-3.355,1.91-3.355,1.91a2.96,2.96,0,0,1-2.974-.281,9.382,9.382,0,0,1-4.028-5.862L785.288,657.85Z" transform="translate(-785.038 -649.767)" fill="url(#linear-gradient-4)"/>
              <path id="Path_2061" data-name="Path 2061" d="M784.848,655.159l43.359,25.033a9.25,9.25,0,0,1,4.185,7.249c0,2.669-1.874,3.751-4.185,2.416a9.384,9.384,0,0,1-4.028-5.862L784.6,661.148Z" transform="translate(-784.598 -653.205)" fill="#2c65d6"/>
              <path id="Path_2062" data-name="Path 2062" d="M857,685.689c-8.266-1.1-23.338-3.758-26.148-8.738a15.337,15.337,0,0,1-2.093-7.566Z" transform="translate(-812.757 -662.275)" fill="#2c65d6" opacity="0.5"/>
            </g>
          </g>
          <g id="Group_709" data-name="Group 709" transform="translate(69.477 35.221)">
            <path id="Union_8" data-name="Union 8" d="M126.927,208.306v-61.18L381.756,0V61.182l-5.046,2.913L323.724,94.685,130.711,206.121V267.3l-3.785,2.185ZM0,196.206V74.588l126.927,72.538V269.488Z" transform="translate(0 72.834)" stroke="rgba(0,0,0,0)" stroke-miterlimit="10" stroke-width="1" fill="url(#linear-gradient-5)"/>
            <path id="Path_2066" data-name="Path 2066" d="M1672.96,939.24l5.046-2.913V875.146l-5.046,2.914Z" transform="translate(-1296.251 -741.131)" fill="#2c65d6"/>
            <path id="Path_2067" data-name="Path 2067" d="M1526.759,913.776l52.985,30.591v-61.18Z" transform="translate(-1203.034 -746.257)" fill="#3046b5"/>
            <path id="Path_2069" data-name="Path 2069" d="M1015.258,578.19,760.429,725.316,633.5,652.778l255.6-147.422Z" transform="translate(-633.502 -505.356)" fill="#fafaff"/>
          </g>
          <path id="Path_2071" data-name="Path 2071" d="M956.545,634.759l98.06,56.615-105.672,61.01-98.06-56.616Z" transform="translate(-702.618 -552.642)" fill="#e2f1f7"/>
          <g id="Group_711" data-name="Group 711" transform="translate(140.242 197.361)">
            <path id="Path_2072" data-name="Path 2072" d="M858.8,954.472v-.246l2.954-.974c4.517.625,9.287,1.425,14.274,2.444,5.228,1.069,10.143,2.268,14.728,3.531L910.408,970.6h-1.667v9.483l-14.469,4.77V985l-18.956,6.249-46.553-26.877Z" transform="translate(-828.763 -953.07)" fill="url(#linear-gradient-6)"/>
            <g id="Group_710" data-name="Group 710" transform="translate(23.675)">
              <path id="Path_2073" data-name="Path 2073" d="M1043.858,968.415l.28-.243v3.107l-4.316,18.133s-.249.248-.355.235c-1.433-.164-5.7-.742-5.7-.742Z" transform="translate(-983.148 -962.583)" fill="#fe5773"/>
              <path id="Path_2074" data-name="Path 2074" d="M1054.262,964.477l.28-.243v3.107l-4.456,18.718v-3.047Z" transform="translate(-993.552 -960.073)" fill="#90caf4"/>
              <path id="Path_2075" data-name="Path 2075" d="M961.923,957.061,957.5,975.69l-52.625-4.162,4.455-18.777,52.626,4.162Z" transform="translate(-900.968 -952.75)" fill="#bddff4"/>
              <path id="Path_2076" data-name="Path 2076" d="M950.715,1008.725l-52.625-4.162-3.858,2.861,52.626,4.162Z" transform="translate(-894.18 -985.786)" fill="#ef9baa"/>
              <path id="Path_2077" data-name="Path 2077" d="M946.717,1017.359l.05-.741-52.625-4.162-.051.741,3.6.285Z" transform="translate(-894.091 -990.818)" fill="#f74169"/>
              <path id="Path_2078" data-name="Path 2078" d="M1009.808,979.011l3.544-14.937-8.132-.643-3.544,14.937Z" transform="translate(-962.687 -959.56)" fill="#fe5773"/>
              <path id="Path_2079" data-name="Path 2079" d="M955.541,973.093l2.127-8.962-22.176-1.754-2.126,8.962Z" transform="translate(-919.132 -958.888)" fill="#fe5773"/>
              <path id="Path_2080" data-name="Path 2080" d="M904.032,1015.287l49.027,3.874,1.235-.916.423-.313.259-.193.432-.32.186-.137.927-.688.209-.136c-.006.087-.112,1.5-.1,1.412,0,.085-.01.3-.008.212,0,.1-.005.194-.005.194s0,.152,0,.152c0,.086,0,.5,0,.417,0,.085.012.32.009.235.006.085.022.286.015.2l.111.405-52.668-4.185Z" transform="translate(-900.429 -992.623)" fill="#f74169"/>
            </g>
          </g>
          <g id="Group_714" data-name="Group 714" transform="translate(78.803 156.503)">
            <path id="Path_2081" data-name="Path 2081" d="M681.99,873.076v-.306l5.311-1.75c6.151,5.861,18.611,3.688,25.71-1.073L729.969,886.9h-1.406v8l-12.206,4.023v.127l-15.99,5.271-41.133-23.748Z" transform="translate(-659.234 -859.097)" fill="url(#linear-gradient-7)"/>
            <g id="Group_713" data-name="Group 713" transform="translate(15.813)">
              <path id="Path_2082" data-name="Path 2082" d="M872.721,902.817l-.123-.071L851.18,915.111v.141Z" transform="translate(-797.43 -880.01)" fill="#f8bcb4"/>
              <path id="Path_2083" data-name="Path 2083" d="M872.721,902.942l-21.54,12.436v.565l21.54-12.436Z" transform="translate(-797.43 -880.135)" fill="#ef9baa"/>
              <path id="Path_2084" data-name="Path 2084" d="M848.167,932.849v-3.392l-.245.631-.868-.077c-.036.055-.1.16-.1.16l-.051.092-.05.094-.047.095-.044.1c-.028.063-.074.177-.074.177l-.041.111-.034.1-.03.1-.028.1-.024.1-.021.095-.018.093-.014.093-.011.092-.008.091-.005.089v.171l.005.083.008.082.011.078.014.077.018.073.021.071a2.381,2.381,0,0,0,.231.407l.091.085.1.069a4.674,4.674,0,0,0,.841.046l.073-.029.075-.033.149-.071Z" transform="translate(-794.417 -897.041)" fill="#ef9baa"/>
              <path id="Path_2085" data-name="Path 2085" d="M872.721,898.918l-.123-.071L851.18,911.212v.141L872.6,898.989Z" transform="translate(-797.43 -877.524)" fill="#bddff4"/>
              <path id="Path_2086" data-name="Path 2086" d="M872.721,899.7l-.123-.071L851.18,911.993v.141L872.6,899.768Z" transform="translate(-797.43 -878.022)" fill="#bddff4"/>
              <path id="Path_2087" data-name="Path 2087" d="M872.721,902.038l-.123-.07L851.18,914.332v.141L872.6,902.109Z" transform="translate(-797.43 -879.514)" fill="#bddff4"/>
              <path id="Path_2088" data-name="Path 2088" d="M872.721,901.647l-.123-.071L851.18,913.942v.141L872.6,901.718Z" transform="translate(-797.43 -879.264)" fill="#bddff4"/>
              <path id="Path_2089" data-name="Path 2089" d="M872.721,900.478l-.123-.071L851.18,912.772v.141L872.6,900.548Z" transform="translate(-797.43 -878.519)" fill="#bddff4"/>
              <path id="Path_2090" data-name="Path 2090" d="M872.721,899.308l-.123-.07L851.18,911.6v.142L872.6,899.379Z" transform="translate(-797.43 -877.774)" fill="#bddff4"/>
              <path id="Path_2091" data-name="Path 2091" d="M872.721,902.428l-.123-.071L851.18,914.722v.142L872.6,902.5Z" transform="translate(-797.43 -879.762)" fill="#bddff4"/>
              <path id="Path_2092" data-name="Path 2092" d="M872.721,900.867l-.123-.071L851.18,913.162v.141L872.6,900.938Z" transform="translate(-797.43 -878.767)" fill="#bddff4"/>
              <path id="Path_2093" data-name="Path 2093" d="M872.721,901.257l-.123-.07L851.18,913.552v.142L872.6,901.328Z" transform="translate(-797.43 -879.016)" fill="#bddff4"/>
              <path id="Path_2094" data-name="Path 2094" d="M872.721,900.087l-.123-.071L851.18,912.382v.141L872.6,900.158Z" transform="translate(-797.43 -878.27)" fill="#bddff4"/>
              <path id="Path_2095" data-name="Path 2095" d="M851.18,910.823v.142L872.6,898.6l.123-.071-.123-.07Z" transform="translate(-797.43 -877.276)" fill="#bddff4"/>
              <path id="Path_2096" data-name="Path 2096" d="M851.18,910.432v.141L872.6,898.208l.123-.071-.123-.071Z" transform="translate(-797.43 -877.027)" fill="#bddff4"/>
              <path id="Path_2097" data-name="Path 2097" d="M851.18,908.483v.141L872.6,896.259l.123-.071-.123-.071Z" transform="translate(-797.43 -875.784)" fill="#bddff4"/>
              <path id="Path_2098" data-name="Path 2098" d="M851.18,909.263v.141L872.6,897.039l.123-.071-.123-.071Z" transform="translate(-797.43 -876.281)" fill="#bddff4"/>
              <path id="Path_2099" data-name="Path 2099" d="M851.18,909.653v.141L872.6,897.429l.123-.071-.123-.07Z" transform="translate(-797.43 -876.531)" fill="#bddff4"/>
              <path id="Path_2100" data-name="Path 2100" d="M851.18,908.093v.142L872.6,895.869l.123-.07-.123-.071Z" transform="translate(-797.43 -875.536)" fill="#bddff4"/>
              <path id="Path_2101" data-name="Path 2101" d="M851.18,910.042v.142L872.6,897.818l.123-.07-.123-.071Z" transform="translate(-797.43 -876.779)" fill="#bddff4"/>
              <path id="Path_2102" data-name="Path 2102" d="M851.18,908.873v.142L872.6,896.649l.123-.071-.123-.07Z" transform="translate(-797.43 -876.033)" fill="#bddff4"/>
              <path id="Path_2103" data-name="Path 2103" d="M831.438,929.5l5.887.526h.218c-.036.072-.47.813-.434.741l-.189.669c-.01.072-.036.257-.026.185,0,.072-.019.339-.015.267,0,.072.009.24.006.168.009.072.028.232.02.161.015.071.047.221.032.15l.021.071a2.528,2.528,0,0,0,.189.359Z" transform="translate(-784.843 -897.065)" fill="#fe5773"/>
              <path id="Path_2104" data-name="Path 2104" d="M817.688,927.157l.244-.631L799.28,924.86l-.245.631,11.7,1.044.178.016.08.007.092.008.1.009.111.01.119.011.13.012.139.012.149.013.157.014.165.015.172.015.18.017.188.016.2.018.2.018.207.018.213.019.218.019.225.02.231.021.167.014.3.027.24.022.325.029.289.026.291.025.289.026.29.026.289.026.155.014Z" transform="translate(-764.183 -894.11)" fill="#ef9baa"/>
              <path id="Path_2105" data-name="Path 2105" d="M738.395,889.46l18.653,1.666L739.8,886.185l-27.884-16.1-8.375-.748Z" transform="translate(-703.298 -858.71)" fill="#f8bcb4"/>
              <path id="Path_2106" data-name="Path 2106" d="M737.719,890.091l.245-.631-34.852-20.121-.245.631Z" transform="translate(-702.867 -858.71)" fill="#fe5773"/>
              <path id="Path_2107" data-name="Path 2107" d="M811.622,860.132l-.122.071-21.418,12.365v-.141l-34.729-20.051,21.417-12.365Z" transform="translate(-736.332 -840.011)" fill="#e2f1f7"/>
              <path id="Path_2108" data-name="Path 2108" d="M742.275,880.423l17.247,4.941-34.729-20.051-.122-.071L707.423,860.3l6.968,4.023Z" transform="translate(-705.772 -852.948)" fill="#bddff4"/>
              <g id="Group_712" data-name="Group 712" transform="translate(24.352 3.113)">
                <path id="Path_2109" data-name="Path 2109" d="M833.272,896.009l18.906-10.915-.89-.514L832.382,895.5Z" transform="translate(-809.797 -871.541)" fill="#2c65d6"/>
                <path id="Path_2110" data-name="Path 2110" d="M788.758,870.308l18.9-10.915-.89-.514-18.9,10.915Z" transform="translate(-781.415 -855.155)" fill="#2c65d6"/>
                <path id="Path_2111" data-name="Path 2111" d="M797.661,875.45l18.9-10.915-.89-.514-18.905,10.915Z" transform="translate(-787.092 -858.433)" fill="#2c65d6"/>
                <path id="Path_2112" data-name="Path 2112" d="M806.564,880.589l18.905-10.915-.891-.514-18.9,10.915Z" transform="translate(-792.768 -861.71)" fill="#2c65d6"/>
                <path id="Path_2113" data-name="Path 2113" d="M815.467,885.73l18.9-10.916-.89-.513-18.905,10.915Z" transform="translate(-798.445 -864.988)" fill="#2c65d6"/>
                <path id="Path_2114" data-name="Path 2114" d="M842.177,901.15l18.905-10.915-.891-.514-18.9,10.915Z" transform="translate(-815.474 -874.819)" fill="#2c65d6"/>
                <path id="Path_2115" data-name="Path 2115" d="M824.37,890.869l18.905-10.914-.891-.514-18.9,10.915Z" transform="translate(-804.121 -868.264)" fill="#2c65d6"/>
                <path id="Path_2116" data-name="Path 2116" d="M779.855,865.169l18.9-10.915-.889-.514-18.905,10.915Z" transform="translate(-775.738 -851.878)" fill="#2c65d6"/>
                <path id="Path_2117" data-name="Path 2117" d="M770.952,860.03l18.905-10.915-.891-.513-18.9,10.915Z" transform="translate(-770.062 -848.601)" fill="#2c65d6"/>
              </g>
            </g>
          </g>
          <g id="Group_723" data-name="Group 723" transform="translate(126.816 36.998)">
            <g id="Group_719" data-name="Group 719" transform="translate(56.315 56.182)">
              <path id="Path_2151" data-name="Path 2151" d="M1002.653,773.945l-1.744,1.007v-.617l1.744-1.007Z" transform="translate(-981.411 -734.172)" fill="#bddff4"/>
              <path id="Path_2152" data-name="Path 2152" d="M997.46,774.734,995.5,773.6v-.617l1.96,1.132Z" transform="translate(-977.962 -733.953)" fill="#90caf4"/>
              <path id="Path_2153" data-name="Path 2153" d="M995.5,771.212l1.744-1.007,1.96,1.132-1.744,1.007Z" transform="translate(-977.962 -732.181)" fill="#e2f1f7"/>
              <path id="Path_2154" data-name="Path 2154" d="M1004.1,770.9l-1.961-1.132v-.617l1.961,1.132Z" transform="translate(-982.194 -731.509)" fill="#90caf4"/>
              <path id="Path_2155" data-name="Path 2155" d="M1009.291,770.113l-1.744,1.007V770.5l1.744-1.007Z" transform="translate(-985.643 -731.729)" fill="#bddff4"/>
              <path id="Path_2156" data-name="Path 2156" d="M1003.882,766.372l1.96,1.132-1.744,1.007-1.961-1.132Z" transform="translate(-982.194 -729.737)" fill="#e2f1f7"/>
              <path id="Path_2157" data-name="Path 2157" d="M982.708,773.6l-1.96-1.132v-.618l1.96,1.132Z" transform="translate(-968.556 -733.229)" fill="#90caf4"/>
              <path id="Path_2158" data-name="Path 2158" d="M987.9,772.81l-1.745,1.007V773.2l1.745-1.007Z" transform="translate(-972.005 -733.448)" fill="#bddff4"/>
              <path id="Path_2159" data-name="Path 2159" d="M984.452,770.2l-1.745,1.008-1.96-1.132,1.744-1.007Z" transform="translate(-968.556 -731.457)" fill="#e2f1f7"/>
              <path id="Path_2160" data-name="Path 2160" d="M991.067,778.424l-1.96-1.132v-.617l1.96,1.132Z" transform="translate(-973.886 -736.306)" fill="#90caf4"/>
              <path id="Path_2161" data-name="Path 2161" d="M996.261,777.636l-1.744,1.007v-.618l1.744-1.007Z" transform="translate(-977.335 -736.526)" fill="#bddff4"/>
              <path id="Path_2162" data-name="Path 2162" d="M991.067,776.034l-1.96-1.132,1.745-1.008,1.96,1.132Z" transform="translate(-973.886 -734.534)" fill="#e2f1f7"/>
              <path id="Path_2163" data-name="Path 2163" d="M994.294,769.119l-1.745,1.007v-.618l1.745-1.007Z" transform="translate(-976.081 -731.095)" fill="#bddff4"/>
              <path id="Path_2164" data-name="Path 2164" d="M989.1,769.907l-1.96-1.132v-.617l1.96,1.132Z" transform="translate(-972.632 -730.876)" fill="#90caf4"/>
              <path id="Path_2165" data-name="Path 2165" d="M989.1,767.517l-1.96-1.132,1.745-1.007,1.96,1.132Z" transform="translate(-972.632 -729.104)" fill="#e2f1f7"/>
              <path id="Path_2166" data-name="Path 2166" d="M1107.833,702.685l-3.172,1.831V703.9l3.172-1.831Z" transform="translate(-1047.562 -688.737)" fill="#bddff4"/>
              <path id="Path_2167" data-name="Path 2167" d="M1101.212,705.747l-1.96-1.132V704l1.96,1.132Z" transform="translate(-1044.113 -689.968)" fill="#90caf4"/>
              <path id="Path_2168" data-name="Path 2168" d="M1104.384,700.076l-3.172,1.831-1.96-1.132,3.172-1.831Z" transform="translate(-1044.113 -686.746)" fill="#e2f1f7"/>
              <path id="Path_2169" data-name="Path 2169" d="M976.069,777.431l-1.96-1.132v-.617l1.96,1.132Z" transform="translate(-964.324 -735.673)" fill="#90caf4"/>
              <path id="Path_2170" data-name="Path 2170" d="M981.262,776.643l-1.745,1.007v-.618l1.745-1.007Z" transform="translate(-967.772 -735.892)" fill="#bddff4"/>
              <path id="Path_2171" data-name="Path 2171" d="M975.853,772.9l1.96,1.132-1.744,1.007-1.96-1.132Z" transform="translate(-964.324 -733.9)" fill="#e2f1f7"/>
              <path id="Path_2172" data-name="Path 2172" d="M973.886,772.384l-1.744,1.007v-.617l1.744-1.007Z" transform="translate(-963.069 -733.177)" fill="#bddff4"/>
              <path id="Path_2173" data-name="Path 2173" d="M968.693,773.172l-1.961-1.132v-.617l1.961,1.132Z" transform="translate(-959.62 -732.958)" fill="#90caf4"/>
              <path id="Path_2174" data-name="Path 2174" d="M968.693,770.783l-1.961-1.132,1.745-1.007,1.96,1.132Z" transform="translate(-959.62 -731.185)" fill="#e2f1f7"/>
              <path id="Path_2175" data-name="Path 2175" d="M1141.874,681.421l-4.758,2.747v-.617l4.758-2.747Z" transform="translate(-1068.255 -675.179)" fill="#bddff4"/>
              <path id="Path_2176" data-name="Path 2176" d="M1133.667,687.009l-1.96-1.132v-.617l1.96,1.132Z" transform="translate(-1064.806 -678.021)" fill="#90caf4"/>
              <path id="Path_2177" data-name="Path 2177" d="M1133.667,681.559l-1.96-1.132,4.758-2.747,1.96,1.132Z" transform="translate(-1064.806 -673.188)" fill="#e2f1f7"/>
              <path id="Path_2178" data-name="Path 2178" d="M980.525,768.551l-1.745,1.007v-.617l1.745-1.007Z" transform="translate(-967.302 -730.733)" fill="#bddff4"/>
              <path id="Path_2179" data-name="Path 2179" d="M975.332,769.339l-1.96-1.132v-.617l1.96,1.132Z" transform="translate(-963.853 -730.514)" fill="#90caf4"/>
              <path id="Path_2180" data-name="Path 2180" d="M975.116,764.811l1.961,1.132-1.745,1.007-1.96-1.132Z" transform="translate(-963.853 -728.742)" fill="#e2f1f7"/>
              <path id="Path_2181" data-name="Path 2181" d="M1128.75,720.794l-1.961-1.132v-.617l1.961,1.132Z" transform="translate(-1061.671 -699.562)" fill="#90caf4"/>
              <path id="Path_2182" data-name="Path 2182" d="M1135.37,717.732l-3.172,1.832v-.618l3.172-1.831Z" transform="translate(-1065.12 -698.331)" fill="#bddff4"/>
              <path id="Path_2183" data-name="Path 2183" d="M1126.789,715.823l3.172-1.831,1.96,1.132-3.172,1.831Z" transform="translate(-1061.671 -696.34)" fill="#e2f1f7"/>
              <path id="Path_2184" data-name="Path 2184" d="M1167.032,700.257l-2.379,1.374v-.617l2.379-1.374Z" transform="translate(-1085.813 -687.189)" fill="#bddff4"/>
              <path id="Path_2185" data-name="Path 2185" d="M1161.2,702.056l-1.96-1.132v-.618l1.96,1.132Z" transform="translate(-1082.364 -687.614)" fill="#90caf4"/>
              <path id="Path_2186" data-name="Path 2186" d="M1161.623,696.517l1.96,1.132-2.379,1.374-1.96-1.132Z" transform="translate(-1082.364 -685.199)" fill="#e2f1f7"/>
              <path id="Path_2187" data-name="Path 2187" d="M995.738,766.074l-1.96-1.132v-.617l1.96,1.132Z" transform="translate(-976.864 -728.432)" fill="#90caf4"/>
              <path id="Path_2188" data-name="Path 2188" d="M1000.932,765.286l-1.745,1.007v-.617l1.745-1.007Z" transform="translate(-980.313 -728.651)" fill="#bddff4"/>
              <path id="Path_2189" data-name="Path 2189" d="M993.778,762.553l1.744-1.007,1.96,1.132-1.745,1.007Z" transform="translate(-976.864 -726.66)" fill="#e2f1f7"/>
              <path id="Path_2190" data-name="Path 2190" d="M1175.392,705.084l-2.379,1.374v-.617l2.379-1.373Z" transform="translate(-1091.143 -690.267)" fill="#bddff4"/>
              <path id="Path_2191" data-name="Path 2191" d="M1169.564,706.883l-1.96-1.132v-.617l1.96,1.132Z" transform="translate(-1087.694 -690.692)" fill="#90caf4"/>
              <path id="Path_2192" data-name="Path 2192" d="M1169.564,703.849l-1.96-1.132,2.379-1.374,1.96,1.132Z" transform="translate(-1087.694 -688.275)" fill="#e2f1f7"/>
              <path id="Path_2193" data-name="Path 2193" d="M981.724,765.648l-1.96-1.132V763.9l1.96,1.132Z" transform="translate(-967.929 -728.16)" fill="#90caf4"/>
              <path id="Path_2194" data-name="Path 2194" d="M986.918,764.86l-1.745,1.007v-.617l1.745-1.008Z" transform="translate(-971.378 -728.379)" fill="#bddff4"/>
              <path id="Path_2195" data-name="Path 2195" d="M981.724,763.259l-1.96-1.132,1.745-1.007,1.96,1.132Z" transform="translate(-967.929 -726.389)" fill="#e2f1f7"/>
              <path id="Path_2196" data-name="Path 2196" d="M984.428,782.257l-1.96-1.132v-.617l1.96,1.132Z" transform="translate(-969.653 -738.75)" fill="#90caf4"/>
              <path id="Path_2197" data-name="Path 2197" d="M989.622,781.469l-1.745,1.007v-.617l1.745-1.007Z" transform="translate(-973.102 -738.969)" fill="#bddff4"/>
              <path id="Path_2198" data-name="Path 2198" d="M982.468,778.736l1.745-1.007,1.96,1.132-1.745,1.007Z" transform="translate(-969.653 -736.978)" fill="#e2f1f7"/>
              <path id="Path_2199" data-name="Path 2199" d="M1021.8,788.786l-1.96-1.132v-.617l1.96,1.132Z" transform="translate(-993.482 -742.913)" fill="#90caf4"/>
              <path id="Path_2200" data-name="Path 2200" d="M1026.994,788l-1.745,1.007v-.617l1.745-1.007Z" transform="translate(-996.93 -743.132)" fill="#bddff4"/>
              <path id="Path_2201" data-name="Path 2201" d="M1021.585,784.259l1.96,1.132L1021.8,786.4l-1.96-1.132Z" transform="translate(-993.482 -741.141)" fill="#e2f1f7"/>
              <path id="Path_2202" data-name="Path 2202" d="M966.9,779.558l-4.455-2.572v-.617l4.455,2.572Z" transform="translate(-956.884 -736.111)" fill="#90caf4"/>
              <path id="Path_2203" data-name="Path 2203" d="M976.16,781.812l-1.426.823v-.617l1.426-.823Z" transform="translate(-964.723 -739.188)" fill="#bddff4"/>
              <path id="Path_2204" data-name="Path 2204" d="M963.867,774.1l4.455,2.572-1.426.823-4.455-2.572Z" transform="translate(-956.884 -734.663)" fill="#e2f1f7"/>
              <path id="Path_2205" data-name="Path 2205" d="M1017.405,774.8l-1.744,1.007v-.617l1.744-1.007Z" transform="translate(-990.817 -734.715)" fill="#bddff4"/>
              <path id="Path_2206" data-name="Path 2206" d="M1012.212,775.585l-1.96-1.132v-.618l1.96,1.132Z" transform="translate(-987.368 -734.496)" fill="#90caf4"/>
              <path id="Path_2207" data-name="Path 2207" d="M1013.956,772.189l-1.744,1.007-1.96-1.132,1.744-1.007Z" transform="translate(-987.368 -732.724)" fill="#e2f1f7"/>
              <path id="Path_2208" data-name="Path 2208" d="M1010.767,778.63l-1.745,1.007v-.617l1.745-1.007Z" transform="translate(-986.584 -737.159)" fill="#bddff4"/>
              <path id="Path_2209" data-name="Path 2209" d="M1005.573,779.418l-1.96-1.132v-.617l1.96,1.132Z" transform="translate(-983.135 -736.94)" fill="#90caf4"/>
              <path id="Path_2210" data-name="Path 2210" d="M1003.613,775.9l1.744-1.007,1.96,1.132-1.745,1.007Z" transform="translate(-983.135 -735.168)" fill="#e2f1f7"/>
              <path id="Path_2211" data-name="Path 2211" d="M1005.6,790.7l-1.745,1.007v-.617l1.745-1.007Z" transform="translate(-983.292 -744.852)" fill="#bddff4"/>
              <path id="Path_2212" data-name="Path 2212" d="M1000.41,791.483l-1.961-1.132v-.618l1.961,1.132Z" transform="translate(-979.843 -744.633)" fill="#90caf4"/>
              <path id="Path_2213" data-name="Path 2213" d="M1000.41,789.095l-1.961-1.132,1.745-1.007,1.96,1.132Z" transform="translate(-979.843 -742.861)" fill="#e2f1f7"/>
              <path id="Path_2214" data-name="Path 2214" d="M1018.635,783.173l-1.745,1.007v-.617l1.745-1.007Z" transform="translate(-991.6 -740.055)" fill="#bddff4"/>
              <path id="Path_2215" data-name="Path 2215" d="M1013.442,783.96l-1.96-1.132v-.617l1.96,1.132Z" transform="translate(-988.152 -739.836)" fill="#90caf4"/>
              <path id="Path_2216" data-name="Path 2216" d="M1015.186,780.564l-1.745,1.007-1.96-1.132,1.745-1.007Z" transform="translate(-988.152 -738.064)" fill="#e2f1f7"/>
              <path id="Path_2217" data-name="Path 2217" d="M1020.08,780.127l-1.96-1.132v-.617l1.96,1.132Z" transform="translate(-992.384 -737.392)" fill="#90caf4"/>
              <path id="Path_2218" data-name="Path 2218" d="M1025.273,779.339l-1.745,1.007v-.617l1.745-1.007Z" transform="translate(-995.833 -737.612)" fill="#bddff4"/>
              <path id="Path_2219" data-name="Path 2219" d="M1021.824,776.731l-1.744,1.007-1.96-1.132,1.745-1.007Z" transform="translate(-992.384 -735.62)" fill="#e2f1f7"/>
              <path id="Path_2220" data-name="Path 2220" d="M1008.77,796.31l-1.961-1.132v-.617l1.961,1.132Z" transform="translate(-985.173 -747.71)" fill="#90caf4"/>
              <path id="Path_2221" data-name="Path 2221" d="M1013.963,795.522l-1.744,1.007v-.618l1.744-1.007Z" transform="translate(-988.622 -747.93)" fill="#bddff4"/>
              <path id="Path_2222" data-name="Path 2222" d="M1008.77,793.921l-1.961-1.132,1.745-1.007,1.96,1.132Z" transform="translate(-985.173 -745.938)" fill="#e2f1f7"/>
              <path id="Path_2223" data-name="Path 2223" d="M1020.6,791.689l-1.745,1.007v-.617l1.745-1.007Z" transform="translate(-992.855 -745.486)" fill="#bddff4"/>
              <path id="Path_2224" data-name="Path 2224" d="M1015.408,792.477l-1.96-1.132v-.618l1.96,1.132Z" transform="translate(-989.406 -745.266)" fill="#90caf4"/>
              <path id="Path_2225" data-name="Path 2225" d="M1013.448,788.956l1.745-1.007,1.96,1.132-1.745,1.007Z" transform="translate(-989.406 -743.495)" fill="#e2f1f7"/>
              <path id="Path_2226" data-name="Path 2226" d="M1012.242,786.863l-1.745,1.007v-.617l1.745-1.007Z" transform="translate(-987.525 -742.408)" fill="#bddff4"/>
              <path id="Path_2227" data-name="Path 2227" d="M1007.049,787.651l-1.96-1.132V785.9l1.96,1.132Z" transform="translate(-984.076 -742.189)" fill="#90caf4"/>
              <path id="Path_2228" data-name="Path 2228" d="M1006.833,783.123l1.96,1.132-1.745,1.007-1.96-1.132Z" transform="translate(-984.076 -740.418)" fill="#e2f1f7"/>
              <path id="Path_2229" data-name="Path 2229" d="M1028.44,784.954l-1.96-1.132V783.2l1.96,1.132Z" transform="translate(-997.714 -740.47)" fill="#90caf4"/>
              <path id="Path_2230" data-name="Path 2230" d="M1033.633,784.166l-1.744,1.007v-.617l1.744-1.007Z" transform="translate(-1001.163 -740.689)" fill="#bddff4"/>
              <path id="Path_2231" data-name="Path 2231" d="M1028.44,782.564l-1.96-1.132,1.744-1.007,1.961,1.132Z" transform="translate(-997.714 -738.697)" fill="#e2f1f7"/>
              <path id="Path_2232" data-name="Path 2232" d="M996.892,796.876l-4.455-2.572v-.617l4.455,2.572Z" transform="translate(-976.009 -747.153)" fill="#90caf4"/>
              <path id="Path_2233" data-name="Path 2233" d="M1006.156,799.13l-1.426.823v-.617l1.426-.823Z" transform="translate(-983.847 -750.23)" fill="#bddff4"/>
              <path id="Path_2234" data-name="Path 2234" d="M992.437,792.238l1.426-.823,4.455,2.573-1.426.823Z" transform="translate(-976.009 -745.704)" fill="#e2f1f7"/>
              <path id="Path_2235" data-name="Path 2235" d="M1004.374,782.321l-1.745,1.007v-.617l1.745-1.007Z" transform="translate(-982.508 -739.512)" fill="#bddff4"/>
              <path id="Path_2236" data-name="Path 2236" d="M999.181,783.108l-1.96-1.132v-.617l1.96,1.132Z" transform="translate(-979.059 -739.293)" fill="#90caf4"/>
              <path id="Path_2237" data-name="Path 2237" d="M1000.925,779.712l-1.744,1.007-1.96-1.132,1.744-1.007Z" transform="translate(-979.059 -737.521)" fill="#e2f1f7"/>
              <path id="Path_2238" data-name="Path 2238" d="M982.14,788.359l-4.455-2.573v-.617l4.455,2.572Z" transform="translate(-966.604 -741.722)" fill="#90caf4"/>
              <path id="Path_2239" data-name="Path 2239" d="M991.4,790.613l-1.426.823v-.618L991.4,790Z" transform="translate(-974.442 -744.799)" fill="#bddff4"/>
              <path id="Path_2240" data-name="Path 2240" d="M982.14,786.293l-4.455-2.572,1.426-.823,4.455,2.572Z" transform="translate(-966.604 -740.274)" fill="#e2f1f7"/>
              <path id="Path_2241" data-name="Path 2241" d="M992.542,786.942l-1.96-1.132v-.617l1.96,1.132Z" transform="translate(-974.827 -741.737)" fill="#90caf4"/>
              <path id="Path_2242" data-name="Path 2242" d="M997.736,786.153l-1.745,1.007v-.617l1.745-1.007Z" transform="translate(-978.275 -741.956)" fill="#bddff4"/>
              <path id="Path_2243" data-name="Path 2243" d="M992.327,782.413l1.96,1.132-1.745,1.007-1.96-1.132Z" transform="translate(-974.827 -739.965)" fill="#e2f1f7"/>
              <path id="Path_2244" data-name="Path 2244" d="M1179.957,694.224l-4.9-2.83v-.617l4.9,2.83Z" transform="translate(-1092.446 -681.538)" fill="#90caf4"/>
              <path id="Path_2245" data-name="Path 2245" d="M1179.957,691.977l-4.9-2.83,1.6-.926,4.9,2.829Z" transform="translate(-1092.446 -679.909)" fill="#e2f1f7"/>
              <path id="Path_2246" data-name="Path 2246" d="M1188.58,697.572v-.617l1.6-.926v.618Z" transform="translate(-1101.068 -684.887)" fill="#bddff4"/>
              <path id="Path_2247" data-name="Path 2247" d="M1002.423,752.541l-.535.309v-.617l1.426-.823v.617Z" transform="translate(-982.036 -720.197)" fill="#bddff4"/>
              <path id="Path_2248" data-name="Path 2248" d="M1007,754.156l-1.426.823v-.617l1.426-.823Z" transform="translate(-984.387 -721.554)" fill="#bddff4"/>
              <path id="Path_2249" data-name="Path 2249" d="M995.069,756.606l-.8-.463v-.617l.8.463Z" transform="translate(-977.177 -722.822)" fill="#90caf4"/>
              <path id="Path_2250" data-name="Path 2250" d="M1004.166,755.612l-.8-.463v-.617l.8.463Z" transform="translate(-982.976 -722.188)" fill="#90caf4"/>
              <path id="Path_2251" data-name="Path 2251" d="M997.906,755.149l-1.426.823v-.617l1.426-.823Z" transform="translate(-978.587 -722.188)" fill="#bddff4"/>
              <path id="Path_2252" data-name="Path 2252" d="M1000.479,753.483l-.534-.309-.267-.154V752.4l.8.463Z" transform="translate(-980.626 -720.831)" fill="#90caf4"/>
              <path id="Path_2253" data-name="Path 2253" d="M1000.479,751.418l-.8-.463,1.425-.823.535.309.267.155Z" transform="translate(-980.626 -719.382)" fill="#e2f1f7"/>
              <path id="Path_2254" data-name="Path 2254" d="M1004.166,753.547l-.8-.463.891-.515.535-.309.8.463Z" transform="translate(-982.976 -720.74)" fill="#e2f1f7"/>
              <path id="Path_2255" data-name="Path 2255" d="M1005.086,747.832l1.425-.823.8.463-1.426.823Z" transform="translate(-984.074 -717.391)" fill="#e2f1f7"/>
              <path id="Path_2256" data-name="Path 2256" d="M1005.086,749.9v-.617l.8.463v.617l-.535-.309Z" transform="translate(-984.074 -718.839)" fill="#90caf4"/>
              <path id="Path_2257" data-name="Path 2257" d="M1007.3,749.109l1.426-.823v.617l-1.426.823Z" transform="translate(-985.485 -718.206)" fill="#bddff4"/>
              <path id="Path_2258" data-name="Path 2258" d="M996.5,753.717l-1.426.823-.8-.463,1.425-.823.535.309Z" transform="translate(-977.177 -721.374)" fill="#e2f1f7"/>
              <path id="Path_2259" data-name="Path 2259" d="M1143.73,722.558l-3.172,1.831v-.617l3.172-1.831Z" transform="translate(-1070.45 -701.408)" fill="#bddff4"/>
              <path id="Path_2260" data-name="Path 2260" d="M1137.109,725.62l-1.96-1.132v-.617l1.96,1.132Z" transform="translate(-1067.001 -702.639)" fill="#90caf4"/>
              <path id="Path_2261" data-name="Path 2261" d="M1138.321,718.818l1.96,1.132-3.172,1.832-1.96-1.132Z" transform="translate(-1067.001 -699.417)" fill="#e2f1f7"/>
              <path id="Path_2262" data-name="Path 2262" d="M1017.612,763.666l-1.96-1.132v-.617l1.96,1.132Z" transform="translate(-990.811 -726.897)" fill="#90caf4"/>
              <path id="Path_2263" data-name="Path 2263" d="M1025.66,758.33l-4.6,2.655v-.617l4.6-2.655Z" transform="translate(-994.259 -724.217)" fill="#bddff4"/>
              <path id="Path_2264" data-name="Path 2264" d="M1015.651,757.246l4.6-2.655,1.96,1.132-4.6,2.655Z" transform="translate(-990.811 -722.226)" fill="#e2f1f7"/>
              <path id="Path_2265" data-name="Path 2265" d="M1158.254,713.413l-1.96-1.132v-.617l1.96,1.132Z" transform="translate(-1080.482 -694.855)" fill="#90caf4"/>
              <path id="Path_2266" data-name="Path 2266" d="M1164.875,710.351l-3.172,1.831v-.617l3.172-1.831Z" transform="translate(-1083.932 -693.625)" fill="#bddff4"/>
              <path id="Path_2267" data-name="Path 2267" d="M1158.254,709.573l-1.96-1.132,3.172-1.831,1.961,1.132Z" transform="translate(-1080.482 -691.633)" fill="#e2f1f7"/>
              <path id="Path_2268" data-name="Path 2268" d="M1132.42,679.4l-3.172,1.831v-.617l3.172-1.831Z" transform="translate(-1063.239 -673.894)" fill="#bddff4"/>
              <path id="Path_2269" data-name="Path 2269" d="M1125.8,682.467l-1.96-1.132v-.617l1.96,1.132Z" transform="translate(-1059.789 -675.125)" fill="#90caf4"/>
              <path id="Path_2270" data-name="Path 2270" d="M1127.01,675.664l1.96,1.132-3.172,1.831-1.96-1.132Z" transform="translate(-1059.789 -671.903)" fill="#e2f1f7"/>
              <path id="Path_2271" data-name="Path 2271" d="M1126.273,712.48l-3.172,1.831v-.617l3.172-1.832Z" transform="translate(-1059.319 -694.982)" fill="#bddff4"/>
              <path id="Path_2272" data-name="Path 2272" d="M1119.652,715.541l-1.96-1.132v-.617l1.96,1.132Z" transform="translate(-1055.871 -696.213)" fill="#90caf4"/>
              <path id="Path_2273" data-name="Path 2273" d="M1117.692,710.571l3.172-1.831,1.96,1.132-3.172,1.831Z" transform="translate(-1055.871 -692.991)" fill="#e2f1f7"/>
              <path id="Path_2274" data-name="Path 2274" d="M993.556,761.027l-1.745,1.007v-.617l1.745-1.007Z" transform="translate(-975.61 -725.936)" fill="#bddff4"/>
              <path id="Path_2275" data-name="Path 2275" d="M988.363,761.816l-1.96-1.132v-.617l1.96,1.132Z" transform="translate(-972.162 -725.717)" fill="#90caf4"/>
              <path id="Path_2276" data-name="Path 2276" d="M986.4,758.295l1.744-1.007,1.96,1.132-1.745,1.007Z" transform="translate(-972.162 -723.945)" fill="#e2f1f7"/>
              <path id="Path_2277" data-name="Path 2277" d="M1019.513,752.227l-4.6,2.655v-.617l4.6-2.655Z" transform="translate(-990.34 -720.325)" fill="#bddff4"/>
              <path id="Path_2278" data-name="Path 2278" d="M1011.465,757.562l-1.96-1.132v-.617l1.96,1.132Z" transform="translate(-986.892 -723.005)" fill="#90caf4"/>
              <path id="Path_2279" data-name="Path 2279" d="M1016.064,749.618l-4.6,2.655-1.96-1.132,4.6-2.656Z" transform="translate(-986.892 -718.333)" fill="#e2f1f7"/>
              <path id="Path_2280" data-name="Path 2280" d="M1139.814,693.113l-1.96-1.132v-.617l1.96,1.132Z" transform="translate(-1068.725 -681.913)" fill="#90caf4"/>
              <path id="Path_2281" data-name="Path 2281" d="M1148.02,687.525l-4.758,2.747v-.617l4.758-2.747Z" transform="translate(-1072.174 -679.071)" fill="#bddff4"/>
              <path id="Path_2282" data-name="Path 2282" d="M1142.611,683.784l1.96,1.132-4.758,2.747-1.96-1.132Z" transform="translate(-1068.725 -677.08)" fill="#e2f1f7"/>
              <path id="Path_2283" data-name="Path 2283" d="M1121.11,685.935l-3.172,1.831v-.617l3.172-1.831Z" transform="translate(-1056.028 -678.058)" fill="#bddff4"/>
              <path id="Path_2284" data-name="Path 2284" d="M1114.489,689l-1.961-1.132v-.617l1.961,1.132Z" transform="translate(-1052.579 -679.288)" fill="#90caf4"/>
              <path id="Path_2285" data-name="Path 2285" d="M1112.529,684.025l3.172-1.832,1.961,1.132-3.172,1.831Z" transform="translate(-1052.579 -676.066)" fill="#e2f1f7"/>
              <path id="Path_2286" data-name="Path 2286" d="M1128.978,690.477l-3.172,1.831v-.617l3.172-1.831Z" transform="translate(-1061.044 -680.954)" fill="#bddff4"/>
              <path id="Path_2287" data-name="Path 2287" d="M1122.357,693.539l-1.96-1.132v-.617l1.96,1.132Z" transform="translate(-1057.595 -682.184)" fill="#90caf4"/>
              <path id="Path_2288" data-name="Path 2288" d="M1120.4,688.568l3.172-1.832,1.96,1.132-3.172,1.831Z" transform="translate(-1057.595 -678.962)" fill="#e2f1f7"/>
              <path id="Path_2289" data-name="Path 2289" d="M1103.917,694.483v.617l-1.96-1.132v-.617Z" transform="translate(-1045.838 -683.18)" fill="#90caf4"/>
              <path id="Path_2290" data-name="Path 2290" d="M1107.365,693.87v-.617l3.172-1.831v.617Z" transform="translate(-1049.287 -681.949)" fill="#bddff4"/>
              <path id="Path_2291" data-name="Path 2291" d="M1107.089,689.43l-3.172,1.831-1.96-1.132,3.172-1.831Z" transform="translate(-1045.838 -679.958)" fill="#e2f1f7"/>
              <path id="Path_2292" data-name="Path 2292" d="M1070.485,761.2l1.96,1.132v.617l-1.96-1.132Z" transform="translate(-1025.772 -726.442)" fill="#90caf4"/>
              <path id="Path_2293" data-name="Path 2293" d="M1072.445,759.115l-1.96-1.132,3.172-1.831,1.96,1.132Z" transform="translate(-1025.772 -723.221)" fill="#e2f1f7"/>
              <path id="Path_2294" data-name="Path 2294" d="M1075.894,761.106l3.172-1.831v.617l-3.172,1.831Z" transform="translate(-1029.221 -725.212)" fill="#bddff4"/>
              <path id="Path_2295" data-name="Path 2295" d="M1145.721,717.767l1.96,1.132v.617l-1.96-1.132Z" transform="translate(-1073.742 -698.747)" fill="#90caf4"/>
              <path id="Path_2296" data-name="Path 2296" d="M1147.681,715.677l-1.96-1.132,3.172-1.831,1.96,1.132Z" transform="translate(-1073.742 -695.525)" fill="#e2f1f7"/>
              <path id="Path_2297" data-name="Path 2297" d="M1151.13,717.669l3.172-1.831v.617l-3.172,1.831Z" transform="translate(-1077.191 -697.517)" fill="#bddff4"/>
              <path id="Path_2298" data-name="Path 2298" d="M1048.575,773.855l1.96,1.132v.618l-1.96-1.132Z" transform="translate(-1011.802 -734.508)" fill="#90caf4"/>
              <path id="Path_2299" data-name="Path 2299" d="M1050.535,771.483l-1.96-1.132,3.449-1.992,1.96,1.132Z" transform="translate(-1011.802 -731.004)" fill="#e2f1f7"/>
              <path id="Path_2300" data-name="Path 2300" d="M1053.984,773.474l3.449-1.991v.617l-3.449,1.992Z" transform="translate(-1015.251 -732.996)" fill="#bddff4"/>
              <path id="Path_2301" data-name="Path 2301" d="M1092.122,748.712l1.96,1.132v.617l-1.96-1.132Z" transform="translate(-1039.567 -718.477)" fill="#90caf4"/>
              <path id="Path_2302" data-name="Path 2302" d="M1094.082,746.623l-1.96-1.132,3.172-1.831,1.961,1.132Z" transform="translate(-1039.567 -715.256)" fill="#e2f1f7"/>
              <path id="Path_2303" data-name="Path 2303" d="M1097.531,748.614l3.172-1.831v.617l-3.172,1.831Z" transform="translate(-1043.016 -717.247)" fill="#bddff4"/>
              <path id="Path_2304" data-name="Path 2304" d="M1124.576,726.753l3.172-1.831,1.96,1.132-3.172,1.831Z" transform="translate(-1060.26 -703.309)" fill="#e2f1f7"/>
              <path id="Path_2305" data-name="Path 2305" d="M1129.985,729.876l3.172-1.832v.618l-3.172,1.831Z" transform="translate(-1063.709 -705.3)" fill="#bddff4"/>
              <path id="Path_2306" data-name="Path 2306" d="M1124.576,729.975l1.96,1.132v.617l-1.96-1.132Z" transform="translate(-1060.26 -706.531)" fill="#bddff4"/>
              <path id="Path_2307" data-name="Path 2307" d="M1105.866,737.555l1.96,1.132-3.172,1.832-1.961-1.132Z" transform="translate(-1046.308 -711.364)" fill="#e2f1f7"/>
              <path id="Path_2308" data-name="Path 2308" d="M1102.694,742.609l1.961,1.132v.617l-1.961-1.132Z" transform="translate(-1046.308 -714.586)" fill="#90caf4"/>
              <path id="Path_2309" data-name="Path 2309" d="M1108.1,742.51l3.172-1.832v.617l-3.172,1.831Z" transform="translate(-1049.757 -713.355)" fill="#bddff4"/>
              <path id="Path_2310" data-name="Path 2310" d="M1059.913,764.087l3.172-1.831,1.96,1.132-3.172,1.831Z" transform="translate(-1019.031 -727.113)" fill="#e2f1f7"/>
              <path id="Path_2311" data-name="Path 2311" d="M1059.913,767.309l1.96,1.132v.618l-1.96-1.132Z" transform="translate(-1019.031 -730.334)" fill="#90caf4"/>
              <path id="Path_2312" data-name="Path 2312" d="M1065.322,767.21l3.172-1.831V766l-3.172,1.831Z" transform="translate(-1022.48 -729.104)" fill="#bddff4"/>
              <path id="Path_2313" data-name="Path 2313" d="M1116.438,731.452l1.961,1.132-3.172,1.831-1.961-1.132Z" transform="translate(-1053.049 -707.472)" fill="#e2f1f7"/>
              <path id="Path_2314" data-name="Path 2314" d="M1118.676,736.406l3.172-1.831v.617l-3.172,1.831Z" transform="translate(-1056.498 -709.464)" fill="#bddff4"/>
              <path id="Path_2315" data-name="Path 2315" d="M1113.266,736.5l1.961,1.132v.617l-1.961-1.132Z" transform="translate(-1053.049 -710.694)" fill="#90caf4"/>
              <path id="Path_2316" data-name="Path 2316" d="M1081.795,751.453l3.172-1.831,1.961,1.132-3.172,1.831Z" transform="translate(-1032.983 -719.058)" fill="#e2f1f7"/>
              <path id="Path_2317" data-name="Path 2317" d="M1081.795,754.675l1.96,1.132v.617l-1.96-1.132Z" transform="translate(-1032.983 -722.279)" fill="#90caf4"/>
              <path id="Path_2318" data-name="Path 2318" d="M1087.2,754.576l3.172-1.831v.617l-3.172,1.832Z" transform="translate(-1036.432 -721.049)" fill="#bddff4"/>
              <path id="Path_2319" data-name="Path 2319" d="M1143.585,673.224v-.618l4.9,2.83v.617Z" transform="translate(-1072.38 -669.953)" fill="#90caf4"/>
              <path id="Path_2320" data-name="Path 2320" d="M1157.108,679.4v-.618l1.6-.926v.617Z" transform="translate(-1081.002 -673.302)" fill="#bddff4"/>
              <path id="Path_2321" data-name="Path 2321" d="M1150.09,672.881l-1.6.926-4.9-2.83,1.12-.646.484-.28Z" transform="translate(-1072.38 -668.324)" fill="#e2f1f7"/>
              <path id="Path_2322" data-name="Path 2322" d="M1145.84,669.842l-4.9-2.83-.484.279-1.544-.754-1.992-1.15,1.782-.1,12.935,7.468-4.9-2.393-.9-.437Z" transform="translate(-1068.13 -665.285)" fill="#2c65d6"/>
              <path id="Path_2323" data-name="Path 2323" d="M1159.321,682.31v-.617l4.9,2.829v.617Z" transform="translate(-1082.413 -675.746)" fill="#90caf4"/>
              <path id="Path_2324" data-name="Path 2324" d="M1164.222,682.9l-4.9-2.829,1.6-.922c.1.049,4.909,2.825,4.909,2.825Z" transform="translate(-1082.413 -674.125)" fill="#e2f1f7"/>
              <path id="Path_2325" data-name="Path 2325" d="M1172.844,688.488v-.618l1.6-.926v.617Z" transform="translate(-1091.035 -679.095)" fill="#bddff4"/>
              <path id="Path_2326" data-name="Path 2326" d="M1082.1,700.847l-70.572,40.744v-.926l70.572-40.745Z" transform="translate(-988.18 -687.368)" fill="#609ffd"/>
              <path id="Path_2327" data-name="Path 2327" d="M970.454,787.77l-23.346-13.479,1.772-1.944,1.987,1.147C950.882,773.486,970.454,787.77,970.454,787.77Z" transform="translate(-947.108 -733.547)" fill="#331d48"/>
              <path id="Path_2328" data-name="Path 2328" d="M952.007,772.317l1.992,1.15c-.015.008-2-1.139-2-1.139S952.007,772.317,952.007,772.317Z" transform="translate(-950.224 -733.528)" fill="#bddff4"/>
              <path id="Path_2329" data-name="Path 2329" d="M977.093,788.848v.926L957.521,775.49Z" transform="translate(-953.747 -735.551)" fill="#2c65d6"/>
              <path id="Path_2330" data-name="Path 2330" d="M1115.7,717.966v.617l-3.172,1.831V719.8Z" transform="translate(-1052.579 -698.874)" fill="#bddff4"/>
              <path id="Path_2331" data-name="Path 2331" d="M1109.08,721.029v.617l-1.96-1.132V719.9Z" transform="translate(-1049.13 -700.105)" fill="#90caf4"/>
              <path id="Path_2332" data-name="Path 2332" d="M1109.08,717.807l-1.96-1.132,3.172-1.831,1.96,1.132Z" transform="translate(-1049.13 -696.883)" fill="#e2f1f7"/>
              <path id="Path_2333" data-name="Path 2333" d="M1094.827,716.823v-.618l1.96,1.132v.617Z" transform="translate(-1041.292 -697.751)" fill="#90caf4"/>
              <path id="Path_2334" data-name="Path 2334" d="M1096.787,714.116l-1.96-1.132,3.172-1.831,1.96,1.132Z" transform="translate(-1041.292 -694.53)" fill="#e2f1f7"/>
              <path id="Path_2335" data-name="Path 2335" d="M1100.235,716.724v-.617l3.172-1.831v.617Z" transform="translate(-1044.74 -696.521)" fill="#bddff4"/>
              <path id="Path_2336" data-name="Path 2336" d="M1110.808,710l3.172-1.831v.617l-3.172,1.831Z" transform="translate(-1051.481 -692.629)" fill="#bddff4"/>
              <path id="Path_2337" data-name="Path 2337" d="M1110.531,706.18l-3.172,1.832-1.96-1.132,3.172-1.832Z" transform="translate(-1048.033 -690.638)" fill="#e2f1f7"/>
              <path id="Path_2338" data-name="Path 2338" d="M1107.359,711.234v.618l-1.96-1.132V710.1Z" transform="translate(-1048.033 -693.86)" fill="#90caf4"/>
              <path id="Path_2339" data-name="Path 2339" d="M1083.516,722.735l1.96,1.132v.617l-1.96-1.132Z" transform="translate(-1034.08 -701.915)" fill="#90caf4"/>
              <path id="Path_2340" data-name="Path 2340" d="M1085.476,720.646l-1.96-1.132,3.172-1.831,1.96,1.132Z" transform="translate(-1034.08 -698.693)" fill="#e2f1f7"/>
              <path id="Path_2341" data-name="Path 2341" d="M1088.925,723.254v-.617l3.172-1.832v.617Z" transform="translate(-1037.529 -700.684)" fill="#bddff4"/>
              <path id="Path_2342" data-name="Path 2342" d="M1027.946,766.225v-.617l1.96,1.132v.617Z" transform="translate(-998.649 -729.25)" fill="#90caf4"/>
              <path id="Path_2343" data-name="Path 2343" d="M1033.354,764.677v-.618l4.6-2.655v.617Z" transform="translate(-1002.098 -726.57)" fill="#bddff4"/>
              <path id="Path_2344" data-name="Path 2344" d="M1027.946,760.937l4.6-2.655,1.96,1.132-4.6,2.655Z" transform="translate(-998.649 -724.578)" fill="#e2f1f7"/>
              <path id="Path_2345" data-name="Path 2345" d="M1104.907,731.679l1.96,1.132v.617l-1.96-1.132Z" transform="translate(-1047.719 -707.617)" fill="#90caf4"/>
              <path id="Path_2346" data-name="Path 2346" d="M1106.867,729.588l-1.96-1.132,3.172-1.831,1.96,1.132Z" transform="translate(-1047.719 -704.395)" fill="#e2f1f7"/>
              <path id="Path_2347" data-name="Path 2347" d="M1110.316,732.2v-.617l3.172-1.831v.617Z" transform="translate(-1051.168 -706.386)" fill="#bddff4"/>
              <path id="Path_2348" data-name="Path 2348" d="M1073.436,750.466v-.617l1.96,1.132v.617Z" transform="translate(-1027.653 -719.202)" fill="#90caf4"/>
              <path id="Path_2349" data-name="Path 2349" d="M1073.436,746.627l3.172-1.831,1.96,1.132-3.172,1.831Z" transform="translate(-1027.653 -715.98)" fill="#e2f1f7"/>
              <path id="Path_2350" data-name="Path 2350" d="M1078.845,750.367v-.617l3.172-1.831v.617Z" transform="translate(-1031.102 -717.971)" fill="#bddff4"/>
              <path id="Path_2351" data-name="Path 2351" d="M1051.552,763.1v-.617l1.96,1.131v.618Z" transform="translate(-1013.701 -727.257)" fill="#90caf4"/>
              <path id="Path_2352" data-name="Path 2352" d="M1056.962,763v-.618l3.172-1.831v.617Z" transform="translate(-1017.15 -726.027)" fill="#bddff4"/>
              <path id="Path_2353" data-name="Path 2353" d="M1056.685,758.561l-3.172,1.831-1.96-1.132,3.172-1.831Z" transform="translate(-1013.701 -724.035)" fill="#e2f1f7"/>
              <path id="Path_2354" data-name="Path 2354" d="M1030.162,750.317l3.172-1.831,1.96,1.132-3.172,1.831Z" transform="translate(-1000.062 -718.333)" fill="#e2f1f7"/>
              <path id="Path_2355" data-name="Path 2355" d="M1030.162,754.157v-.617l1.961,1.132v.617Z" transform="translate(-1000.062 -721.555)" fill="#90caf4"/>
              <path id="Path_2356" data-name="Path 2356" d="M1035.572,754.058v-.617l3.172-1.831v.617Z" transform="translate(-1003.512 -720.325)" fill="#bddff4"/>
              <path id="Path_2357" data-name="Path 2357" d="M1042.456,754.008l3.172-1.831,1.961,1.132-3.172,1.831Z" transform="translate(-1007.901 -720.687)" fill="#e2f1f7"/>
              <path id="Path_2358" data-name="Path 2358" d="M1042.456,757.847v-.617l1.96,1.132v.617Z" transform="translate(-1007.901 -723.909)" fill="#90caf4"/>
              <path id="Path_2359" data-name="Path 2359" d="M1047.865,757.131l3.172-1.831v.617l-3.172,1.831Z" transform="translate(-1011.35 -722.678)" fill="#bddff4"/>
              <path id="Path_2360" data-name="Path 2360" d="M1085.723,745.018v.617l-1.96-1.132v-.617Z" transform="translate(-1034.238 -715.401)" fill="#90caf4"/>
              <path id="Path_2361" data-name="Path 2361" d="M1089.172,744.4v-.617l3.172-1.831v.617Z" transform="translate(-1037.686 -714.17)" fill="#bddff4"/>
              <path id="Path_2362" data-name="Path 2362" d="M1088.895,739.965l-3.172,1.831-1.96-1.132,3.172-1.831Z" transform="translate(-1034.238 -712.179)" fill="#e2f1f7"/>
              <path id="Path_2363" data-name="Path 2363" d="M1055.217,735.853l1.96,1.132L1054,738.816l-1.96-1.132Z" transform="translate(-1014.015 -710.278)" fill="#e2f1f7"/>
              <path id="Path_2364" data-name="Path 2364" d="M1060.625,738.975v.617l-3.172,1.831v-.618Z" transform="translate(-1017.463 -712.269)" fill="#bddff4"/>
              <path id="Path_2365" data-name="Path 2365" d="M1052.045,741.523v-.617l1.96,1.132v.617Z" transform="translate(-1014.015 -713.5)" fill="#90caf4"/>
              <path id="Path_2366" data-name="Path 2366" d="M1116.217,725.149l1.96,1.132v.618l-1.96-1.132Z" transform="translate(-1054.93 -703.454)" fill="#90caf4"/>
              <path id="Path_2367" data-name="Path 2367" d="M1118.177,723.059l-1.96-1.132,3.172-1.831,1.96,1.132Z" transform="translate(-1054.93 -700.232)" fill="#e2f1f7"/>
              <path id="Path_2368" data-name="Path 2368" d="M1121.626,725.668v-.617l3.172-1.831v.617Z" transform="translate(-1058.379 -702.223)" fill="#bddff4"/>
              <path id="Path_2369" data-name="Path 2369" d="M1082.778,716.532l3.172-1.831v.617l-3.172,1.831Z" transform="translate(-1033.61 -696.792)" fill="#bddff4"/>
              <path id="Path_2370" data-name="Path 2370" d="M1082.5,712.71l-3.172,1.831-1.96-1.132,3.172-1.831Z" transform="translate(-1030.161 -694.801)" fill="#e2f1f7"/>
              <path id="Path_2371" data-name="Path 2371" d="M1079.33,717.763v.618l-1.96-1.132v-.617Z" transform="translate(-1030.161 -698.023)" fill="#bddff4"/>
              <path id="Path_2372" data-name="Path 2372" d="M1064.338,741.375l3.172-1.831,1.96,1.132-3.172,1.831Z" transform="translate(-1021.853 -712.632)" fill="#e2f1f7"/>
              <path id="Path_2373" data-name="Path 2373" d="M1064.338,745.214V744.6l1.96,1.132v.617Z" transform="translate(-1021.853 -715.853)" fill="#90caf4"/>
              <path id="Path_2374" data-name="Path 2374" d="M1069.747,745.115V744.5l3.172-1.831v.617Z" transform="translate(-1025.302 -714.623)" fill="#bddff4"/>
              <path id="Path_2375" data-name="Path 2375" d="M1072.944,725.618l3.172-1.832,1.96,1.132-3.172,1.832Z" transform="translate(-1027.34 -702.585)" fill="#e2f1f7"/>
              <path id="Path_2376" data-name="Path 2376" d="M1072.944,729.457v-.617l1.96,1.132v.617Z" transform="translate(-1027.34 -705.807)" fill="#90caf4"/>
              <path id="Path_2377" data-name="Path 2377" d="M1081.524,726.909v.617l-3.172,1.831v-.617Z" transform="translate(-1030.788 -704.576)" fill="#bddff4"/>
              <path id="Path_2378" data-name="Path 2378" d="M1077.837,733.581l1.96,1.132-3.172,1.831-1.96-1.132Z" transform="translate(-1028.437 -708.83)" fill="#e2f1f7"/>
              <path id="Path_2379" data-name="Path 2379" d="M1083.246,736.7v.617l-3.172,1.831v-.617Z" transform="translate(-1031.886 -710.822)" fill="#bddff4"/>
              <path id="Path_2380" data-name="Path 2380" d="M1076.625,739.766v.618l-1.96-1.132v-.618Z" transform="translate(-1028.437 -712.052)" fill="#90caf4"/>
              <path id="Path_2381" data-name="Path 2381" d="M1104.391,724.5v.617l-3.172,1.831v-.617Z" transform="translate(-1045.368 -703.037)" fill="#bddff4"/>
              <path id="Path_2382" data-name="Path 2382" d="M1095.81,727.044v-.617l1.961,1.132v.617Z" transform="translate(-1041.919 -704.268)" fill="#90caf4"/>
              <path id="Path_2383" data-name="Path 2383" d="M1097.77,724.336l-1.961-1.132,3.172-1.831,1.96,1.132Z" transform="translate(-1041.919 -701.046)" fill="#e2f1f7"/>
              <path id="Path_2384" data-name="Path 2384" d="M1043.169,740.019,1040,741.85v-.617l3.172-1.831Z" transform="translate(-1006.333 -712.541)" fill="#bddff4"/>
              <path id="Path_2385" data-name="Path 2385" d="M1036.548,743.081l-1.96-1.132v-.617l1.96,1.132Z" transform="translate(-1002.884 -713.772)" fill="#90caf4"/>
              <path id="Path_2386" data-name="Path 2386" d="M1036.548,739.242l-1.96-1.132,3.172-1.831,1.96,1.132Z" transform="translate(-1002.884 -710.55)" fill="#e2f1f7"/>
              <path id="Path_2387" data-name="Path 2387" d="M1075.378,721.423l-3.172,1.832v-.617l3.172-1.832Z" transform="translate(-1026.869 -700.684)" fill="#bddff4"/>
              <path id="Path_2388" data-name="Path 2388" d="M1068.757,724.485l-1.96-1.132v-.618l1.96,1.132Z" transform="translate(-1023.42 -701.915)" fill="#90caf4"/>
              <path id="Path_2389" data-name="Path 2389" d="M1069.969,717.683l1.961,1.132-3.172,1.831-1.96-1.132Z" transform="translate(-1023.42 -698.693)" fill="#e2f1f7"/>
              <path id="Path_2390" data-name="Path 2390" d="M1124.552,702.685l-3.172,1.831V703.9l3.172-1.831Z" transform="translate(-1058.222 -688.737)" fill="#bddff4"/>
              <path id="Path_2391" data-name="Path 2391" d="M1117.932,705.747l-1.96-1.132V704l1.96,1.132Z" transform="translate(-1054.774 -689.968)" fill="#90caf4"/>
              <path id="Path_2392" data-name="Path 2392" d="M1121.1,700.076l-3.172,1.831-1.96-1.132,3.172-1.831Z" transform="translate(-1054.774 -686.746)" fill="#e2f1f7"/>
              <path id="Path_2393" data-name="Path 2393" d="M1032.6,746.122l-3.172,1.831v-.617l3.172-1.831Z" transform="translate(-999.592 -716.433)" fill="#bddff4"/>
              <path id="Path_2394" data-name="Path 2394" d="M1025.976,749.185l-1.96-1.132v-.617l1.96,1.132Z" transform="translate(-996.143 -717.664)" fill="#90caf4"/>
              <path id="Path_2395" data-name="Path 2395" d="M1029.148,743.514l-3.172,1.831-1.96-1.132,3.172-1.831Z" transform="translate(-996.143 -714.442)" fill="#e2f1f7"/>
              <path id="Path_2396" data-name="Path 2396" d="M1070.706,755.066l-3.172,1.831v-.617l3.172-1.831Z" transform="translate(-1023.891 -722.135)" fill="#bddff4"/>
              <path id="Path_2397" data-name="Path 2397" d="M1064.085,758.127l-1.96-1.132v-.617l1.96,1.132Z" transform="translate(-1020.442 -723.365)" fill="#90caf4"/>
              <path id="Path_2398" data-name="Path 2398" d="M1065.3,751.325l1.96,1.132-3.172,1.831-1.96-1.132Z" transform="translate(-1020.442 -720.143)" fill="#e2f1f7"/>
              <path id="Path_2399" data-name="Path 2399" d="M1128.5,699.643l-1.96-1.132v-.618l1.96,1.132Z" transform="translate(-1061.515 -686.076)" fill="#90caf4"/>
              <path id="Path_2400" data-name="Path 2400" d="M1135.124,696.581l-3.172,1.831v-.617l3.172-1.831Z" transform="translate(-1064.963 -684.845)" fill="#bddff4"/>
              <path id="Path_2401" data-name="Path 2401" d="M1131.675,693.972,1128.5,695.8l-1.96-1.132,3.172-1.831Z" transform="translate(-1061.515 -682.854)" fill="#e2f1f7"/>
              <path id="Path_2402" data-name="Path 2402" d="M1054.479,733.489l-3.172,1.831V734.7l3.172-1.831Z" transform="translate(-1013.544 -708.378)" fill="#bddff4"/>
              <path id="Path_2403" data-name="Path 2403" d="M1047.858,736.55l-1.96-1.132V734.8l1.96,1.132Z" transform="translate(-1010.096 -709.608)" fill="#90caf4"/>
              <path id="Path_2404" data-name="Path 2404" d="M1047.858,732.712l-1.96-1.132,3.172-1.831,1.96,1.132Z" transform="translate(-1010.096 -706.386)" fill="#e2f1f7"/>
              <path id="Path_2405" data-name="Path 2405" d="M1061.609,749.813l-3.172,1.832v-.617l3.172-1.831Z" transform="translate(-1018.091 -718.786)" fill="#bddff4"/>
              <path id="Path_2406" data-name="Path 2406" d="M1054.989,752.875l-1.96-1.132v-.618l1.96,1.132Z" transform="translate(-1014.642 -720.017)" fill="#90caf4"/>
              <path id="Path_2407" data-name="Path 2407" d="M1058.16,747.205l-3.172,1.831-1.96-1.132,3.172-1.831Z" transform="translate(-1014.642 -716.795)" fill="#e2f1f7"/>
              <path id="Path_2408" data-name="Path 2408" d="M1049.316,746.122l-3.172,1.831v-.617l3.172-1.831Z" transform="translate(-1010.252 -716.433)" fill="#bddff4"/>
              <path id="Path_2409" data-name="Path 2409" d="M1042.695,749.185l-1.961-1.132v-.617l1.961,1.132Z" transform="translate(-1006.803 -717.664)" fill="#90caf4"/>
              <path id="Path_2410" data-name="Path 2410" d="M1045.867,743.514l-3.172,1.831-1.961-1.132,3.172-1.831Z" transform="translate(-1006.803 -714.442)" fill="#e2f1f7"/>
              <path id="Path_2411" data-name="Path 2411" d="M1015.649,746.062l-1.96-1.132v-.617l1.96,1.132Z" transform="translate(-989.559 -715.672)" fill="#90caf4"/>
              <path id="Path_2412" data-name="Path 2412" d="M1022.27,743l-3.172,1.831v-.617l3.172-1.831V743Z" transform="translate(-993.008 -714.442)" fill="#bddff4"/>
              <path id="Path_2413" data-name="Path 2413" d="M1032.1,737.322l-3.172,1.831v-.617l3.172-1.831Z" transform="translate(-999.279 -710.822)" fill="#bddff4"/>
              <path id="Path_2414" data-name="Path 2414" d="M1025.484,740.383l-.392-.227v-.164l-1.568-.905v-.453l1.96,1.132Z" transform="translate(-995.83 -712.052)" fill="#90caf4"/>
              <path id="Path_2415" data-name="Path 2415" d="M1023.524,735.412l3.172-1.831,1.96,1.132-3.172,1.831Z" transform="translate(-995.83 -708.83)" fill="#e2f1f7"/>
              <path id="Path_2416" data-name="Path 2416" d="M1013.689,741.091l3.172-1.832.392.227,1.568.905-3.172,1.832Z" transform="translate(-989.559 -712.45)" fill="#e2f1f7"/>
              <path id="Path_2417" data-name="Path 2417" d="M1035.811,734.421l-1.96-1.132v-.617l1.96,1.132Z" transform="translate(-1002.414 -708.25)" fill="#90caf4"/>
              <path id="Path_2418" data-name="Path 2418" d="M1042.431,731.36l-3.172,1.831v-.617l3.172-1.831Z" transform="translate(-1005.863 -707.02)" fill="#bddff4"/>
              <path id="Path_2419" data-name="Path 2419" d="M1038.983,728.751l-3.172,1.831-1.96-1.132,3.172-1.831Z" transform="translate(-1002.414 -705.028)" fill="#e2f1f7"/>
              <path id="Path_2420" data-name="Path 2420" d="M1048.205,727.266l-1.96-1.132v-.617l1.96,1.132Z" transform="translate(-1010.317 -703.688)" fill="#90caf4"/>
              <path id="Path_2421" data-name="Path 2421" d="M1065.927,706.518l-14.273,8.241v-.617l14.273-8.241Z" transform="translate(-1013.766 -691.181)" fill="#bddff4"/>
              <path id="Path_2422" data-name="Path 2422" d="M1046.245,711.019l14.274-8.241,1.96,1.132-14.274,8.241Z" transform="translate(-1010.317 -689.19)" fill="#e2f1f7"/>
              <path id="Path_2423" data-name="Path 2423" d="M1111.785,699.643l-1.96-1.132v-.618l1.96,1.132Z" transform="translate(-1050.854 -686.076)" fill="#90caf4"/>
              <path id="Path_2424" data-name="Path 2424" d="M1118.405,696.581l-3.172,1.831v-.617l3.172-1.831Z" transform="translate(-1054.303 -684.845)" fill="#bddff4"/>
              <path id="Path_2425" data-name="Path 2425" d="M1111.785,695.8l-1.96-1.132,3.172-1.831,1.96,1.132Z" transform="translate(-1050.854 -682.854)" fill="#e2f1f7"/>
              <path id="Path_2426" data-name="Path 2426" d="M1145.943,711.628l-3.172,1.831v-.617l3.172-1.831Z" transform="translate(-1071.861 -694.439)" fill="#bddff4"/>
              <path id="Path_2427" data-name="Path 2427" d="M1139.322,714.69l-1.961-1.131v-.617l1.961,1.132Z" transform="translate(-1068.412 -695.67)" fill="#90caf4"/>
              <path id="Path_2428" data-name="Path 2428" d="M1140.533,707.888l1.96,1.131-3.172,1.831-1.961-1.132Z" transform="translate(-1068.412 -692.448)" fill="#e2f1f7"/>
              <path id="Path_2429" data-name="Path 2429" d="M1064.806,727.527l-3.172,1.831v-.617l3.172-1.832Z" transform="translate(-1020.128 -704.576)" fill="#bddff4"/>
              <path id="Path_2430" data-name="Path 2430" d="M1058.185,730.589l-1.96-1.132v-.617l1.96,1.132Z" transform="translate(-1016.68 -705.807)" fill="#90caf4"/>
              <path id="Path_2431" data-name="Path 2431" d="M1056.224,725.618l3.172-1.832,1.96,1.132-3.172,1.832Z" transform="translate(-1016.68 -702.585)" fill="#e2f1f7"/>
              <path id="Path_2432" data-name="Path 2432" d="M1093.818,731.218l-3.172,1.831v-.617l3.172-1.831Z" transform="translate(-1038.627 -706.93)" fill="#bddff4"/>
              <path id="Path_2433" data-name="Path 2433" d="M1087.2,734.28l-1.961-1.132v-.617l1.961,1.132Z" transform="translate(-1035.178 -708.16)" fill="#90caf4"/>
              <path id="Path_2434" data-name="Path 2434" d="M1085.237,729.308l3.172-1.832,1.96,1.132-3.171,1.831Z" transform="translate(-1035.178 -704.938)" fill="#e2f1f7"/>
              <path id="Path_2435" data-name="Path 2435" d="M1070.952,733.631l-3.172,1.831v-.618l3.172-1.831Z" transform="translate(-1024.047 -708.468)" fill="#bddff4"/>
              <path id="Path_2436" data-name="Path 2436" d="M1064.331,736.693l-1.96-1.132v-.617l1.96,1.132Z" transform="translate(-1020.599 -709.699)" fill="#90caf4"/>
              <path id="Path_2437" data-name="Path 2437" d="M1064.331,732.853l-1.96-1.132,3.172-1.831,1.96,1.132Z" transform="translate(-1020.599 -706.477)" fill="#e2f1f7"/>
              <path id="Path_2438" data-name="Path 2438" d="M1042.175,770.777l-1.96-1.132v-.617l1.96,1.132Z" transform="translate(-1006.472 -731.431)" fill="#90caf4"/>
              <path id="Path_2439" data-name="Path 2439" d="M1049.074,767.273l-3.45,1.992v-.617l3.45-1.992Z" transform="translate(-1009.921 -729.918)" fill="#bddff4"/>
              <path id="Path_2440" data-name="Path 2440" d="M1045.625,764.665l-3.45,1.992-1.96-1.132,3.449-1.991Z" transform="translate(-1006.472 -727.927)" fill="#e2f1f7"/>
              <path id="Path_2441" data-name="Path 2441" d="M1096.295,739.532l-1.961-1.132v-.617l1.961,1.132Z" transform="translate(-1040.977 -711.509)" fill="#90caf4"/>
              <path id="Path_2442" data-name="Path 2442" d="M1102.916,736.47l-3.172,1.831v-.617l3.172-1.831Z" transform="translate(-1044.427 -710.278)" fill="#bddff4"/>
              <path id="Path_2443" data-name="Path 2443" d="M1096.295,735.693l-1.961-1.132,3.172-1.831,1.961,1.132Z" transform="translate(-1040.977 -708.287)" fill="#e2f1f7"/>
              <path id="Path_2444" data-name="Path 2444" d="M1154.9,687.475l1.96,1.132-4.758,2.747-1.96-1.132Z" transform="translate(-1076.564 -679.433)" fill="#e2f1f7"/>
              <path id="Path_2445" data-name="Path 2445" d="M1160.313,690.6v.617l-4.758,2.747v-.617Z" transform="translate(-1080.013 -681.425)" fill="#bddff4"/>
              <path id="Path_2446" data-name="Path 2446" d="M1152.107,696.187v.617l-1.96-1.132v-.617Z" transform="translate(-1076.564 -684.266)" fill="#90caf4"/>
              <path id="Path_2447" data-name="Path 2447" d="M1130.225,708.82v.617l-1.96-1.132v-.617Z" transform="translate(-1062.612 -692.321)" fill="#90caf4"/>
              <path id="Path_2448" data-name="Path 2448" d="M1133.673,708.207v-.617l3.172-1.831v.617Z" transform="translate(-1066.06 -691.091)" fill="#bddff4"/>
              <path id="Path_2449" data-name="Path 2449" d="M1133.4,703.767l-3.172,1.831-1.96-1.132,3.172-1.831Z" transform="translate(-1062.612 -689.099)" fill="#e2f1f7"/>
              <path id="Path_2450" data-name="Path 2450" d="M1094.556,694.4l1.96,1.132-3.172,1.832-1.96-1.132Z" transform="translate(-1039.097 -683.85)" fill="#e2f1f7"/>
              <path id="Path_2451" data-name="Path 2451" d="M1099.964,697.525v.618l-3.172,1.831v-.617Z" transform="translate(-1042.546 -685.841)" fill="#bddff4"/>
              <path id="Path_2452" data-name="Path 2452" d="M1091.384,700.073v-.617l1.96,1.132v.617Z" transform="translate(-1039.097 -687.072)" fill="#90caf4"/>
              <path id="Path_2453" data-name="Path 2453" d="M1156.515,704.907v.617l-3.172,1.831v-.617Z" transform="translate(-1078.602 -690.547)" fill="#bddff4"/>
              <path id="Path_2454" data-name="Path 2454" d="M1151.106,701.784l1.96,1.132-3.172,1.831-1.96-1.132Z" transform="translate(-1075.153 -688.556)" fill="#e2f1f7"/>
              <path id="Path_2455" data-name="Path 2455" d="M1147.934,707.454v-.618l1.96,1.132v.617Z" transform="translate(-1075.153 -691.778)" fill="#90caf4"/>
              <path id="Path_2456" data-name="Path 2456" d="M1142.009,696.531l1.96,1.132-3.172,1.831-1.96-1.132Z" transform="translate(-1069.353 -685.207)" fill="#e2f1f7"/>
              <path id="Path_2457" data-name="Path 2457" d="M1147.418,699.655v.617l-3.172,1.831v-.617Z" transform="translate(-1072.801 -687.199)" fill="#bddff4"/>
              <path id="Path_2458" data-name="Path 2458" d="M1138.837,701.585l1.96,1.132v.617l-1.96-1.132Z" transform="translate(-1069.353 -688.429)" fill="#90caf4"/>
              <path id="Path_2459" data-name="Path 2459" d="M1090.64,711.234v.618l-1.96-1.132V710.1Z" transform="translate(-1037.373 -693.86)" fill="#90caf4"/>
              <path id="Path_2460" data-name="Path 2460" d="M1094.089,710.62V710l3.172-1.831v.617Z" transform="translate(-1040.822 -692.629)" fill="#bddff4"/>
              <path id="Path_2461" data-name="Path 2461" d="M1091.852,705.048l1.96,1.132-3.172,1.832-1.96-1.132Z" transform="translate(-1037.373 -690.638)" fill="#e2f1f7"/>
              <g id="Group_718" data-name="Group 718" transform="translate(1.782 0.103)">
                <path id="Path_2462" data-name="Path 2462" d="M1021.448,668.119v.618l4.9,2.83,1.6-.926V670.1l.794.388-1.6.922v.617l4.9,2.83,1.6-.926v-.618l-4.807-2.775,4.9,2.393,10.411,5.085-70.572,40.745L954.017,705.4l-1.992-1.15,67.007-38.687,1.992,1.15,1.544.754Zm-51.707,38.127,1.744-1.007v-.618l-1.96-1.132-1.745,1.007v.617Zm.445-2.521,1.96,1.132,1.744-1.007v-.617l-1.96-1.132-1.744,1.008Zm-7.752.977,1.96,1.132,1.745-1.007v-.617l-1.961-1.131-1.744,1.007Zm3.03,1.749,1.96,1.132,1.744-1.007v-.617l-1.96-1.132-1.745,1.007Zm1.247-1.955,1.745-1.007v-.617l-1.96-1.132-1.745,1.007v.617Zm40.63-23.253,3.172-1.831V678.8l-1.96-1.132-3.172,1.831v.617Zm-47.313,24.847,1.96,1.132,1.745-1.007V705.6l-1.961-1.132-1.744,1.008Zm-.713-.411,1.744-1.007v-.618l-1.96-1.131-1.744,1.007v.617Zm59.788-31.226,4.758-2.747v-.618l-1.96-1.131-4.757,2.747v.617Zm-57.382,29.837,1.744-1.007v-.617l-1.96-1.132-1.745,1.007v.617Zm53.639-18.725,1.961,1.132,3.171-1.832v-.617l-1.96-1.132-3.172,1.831Zm13.722-5.659,2.379-1.374v-.617l-1.96-1.132-2.379,1.374v.617Zm-61.927,22.069,1.96,1.132,1.745-1.008v-.617l-1.96-1.132-1.745,1.007Zm64.956-20.32,2.379-1.374v-.617l-1.96-1.132-2.379,1.374v.617Zm-70.036,20.165,1.961,1.131,1.745-1.007v-.617l-1.961-1.132-1.745,1.007Zm.98,6.019,1.96,1.132,1.744-1.007v-.618l-1.96-1.131-1.745,1.007Zm13.544,2.367,1.96,1.131,1.745-1.007v-.618l-1.96-1.132L976.6,709.59Zm-20.8-3.867,4.455,2.572,1.426-.823v-.618l-4.455-2.572-1.426.823Zm19.287.214,1.744-1.007v-.617l-1.96-1.132-1.744,1.007v.618Zm-2.406,1.389,1.745-1.007v-.617l-1.96-1.132-1.745,1.008v.617Zm-1.871,4.373,1.745-1.007v-.617l-1.96-1.132-1.745,1.007v.617Zm4.723-2.726,1.745-1.008v-.617l-1.961-1.132-1.744,1.007v.618Zm.445-2.521,1.96,1.132,1.745-1.007v-.617l-1.96-1.132-1.745,1.007Zm-4.1,5.864,1.96,1.132,1.744-1.008v-.617l-1.96-1.132-1.745,1.007Zm4.366-.257,1.745-1.008v-.617l-1.961-1.132-1.744,1.007v.617Zm-3.03-1.749,1.745-1.007V709.3L973,708.171l-1.744,1.007v.617Zm5.792-2.109,1.96,1.132,1.745-1.007v-.617l-1.961-1.132-1.744,1.007Zm-12.338,3.8,4.455,2.572,1.426-.823v-.617l-4.455-2.572L966.67,712Zm3.694-3.336,1.744-1.007v-.617l-1.96-1.131-1.745,1.007v.618Zm-9.04.249,4.455,2.573,1.426-.823v-.617l-4.455-2.572-1.425.823Zm4.674.009,1.96,1.132,1.745-1.008v-.617l-1.961-1.132L966,708.921Zm66.855-34.217,4.9,2.83,1.6-.926v-.618l-4.9-2.829-1.6.926Zm-62.758,22.8.535-.309v.618l.8.463,1.426-.823v-.617l-.8-.463,1.426-.823v-.617l-.8-.463-1.425.823v.617l-.535-.309-1.425.823v.617l-.535-.308-1.426.823v.617l.8.463,1.426-.823v-.618Zm50.255-9.671,3.173-1.831V686l-1.96-1.132-3.172,1.832v.617ZM975.084,701.1l1.96,1.131,4.6-2.655v-.617l-1.96-1.131-4.6,2.655Zm50.97-18.213,1.96,1.132,3.172-1.831v-.617l-1.961-1.132-3.172,1.831Zm-9.8-10.083,3.172-1.831v-.617l-1.961-1.132-3.172,1.832v.617Zm-2.228,11.987,3.172-1.831v-.617l-1.961-1.132-3.172,1.831v.617Zm-47.581,16.77,1.745-1.007v-.617l-1.96-1.132-1.745,1.008v.617Zm8.373-1.541,4.6-2.655v-.617l-1.96-1.132-4.6,2.655v.618Zm44.554-24.489,1.961,1.132,4.758-2.747V673.3l-1.96-1.132-4.758,2.747Zm-7.217-.36,3.172-1.831v-.617l-1.96-1.132-3.172,1.831v.618Zm2.852,1.646,3.172-1.831v-.617l-1.96-1.132-3.172,1.832v.618Zm-3.511-1.265v-.618l-1.96-1.131-3.172,1.831v.618l1.96,1.132Zm-11.405,23.973-1.96-1.132-3.172,1.831v.618l1.96,1.132,3.172-1.831Zm25.306-16.874-3.172,1.831v.617l1.96,1.132,3.173-1.831v-.617ZM990.465,702.82l-3.449,1.992v.617l1.96,1.132,3.449-1.992v-.617Zm15.5-8.951L1002.8,695.7v.618l1.961,1.131,3.172-1.831V695Zm11.762-6.791-3.172,1.831v.617l1.961,1.132,3.172-1.831v-.617Zm-5.97,5.71-1.96-1.132-3.172,1.832v.617l1.96,1.132,3.172-1.832Zm-17.465,7.82-3.171,1.831v.617l1.96,1.132,3.172-1.832v-.617Zm21.3-10.032-1.961-1.132-3.172,1.831v.617l1.96,1.132,3.172-1.831Zm-13.366,5.453-3.172,1.831v.617l1.96,1.132,3.172-1.831v-.617Zm11.138-10.855v-.617l-1.96-1.132-3.172,1.831v.617l1.961,1.132Zm-9.587-1.256v.617l1.96,1.132,3.172-1.831v-.617l-1.96-1.132Zm5.792-.463,3.172-1.831v-.618l-1.961-1.132-3.172,1.832v.617Zm-9.891,2.829v.618l1.96,1.132,3.172-1.831v-.618l-1.961-1.131Zm-20.139,15.538v.617l1.96,1.132,4.6-2.656V700.3l-1.96-1.132Zm27.892-12.3v.617l1.96,1.132,3.172-1.831v-.617l-1.96-1.132Zm-11.406,6.585v.617l1.96,1.132,3.172-1.831v-.617l-1.961-1.132Zm-7.931,4.578v.617l1.96,1.132,3.172-1.831v-.618l-1.96-1.132Zm-4.58-5.072-3.172,1.831v.617l1.96,1.132,3.172-1.831v-.617Zm4.455,1.338-3.172,1.831v.617l1.96,1.132,3.172-1.831v-.618Zm11.8-3v.617l1.96,1.131,3.172-1.831v-.618l-1.96-1.131Zm-6.362-1.78-1.96-1.131-3.172,1.831v.617l1.96,1.132,3.172-1.831Zm18.124-5.011v.617l1.96,1.132,3.172-1.831v-.617l-1.96-1.132Zm-12.118-1.338,3.172-1.831v-.617l-1.96-1.132-3.172,1.831v.618Zm-3.511,6.555-3.172,1.831v.618l1.96,1.132,3.172-1.832v-.617Zm3.119-5.711-3.172,1.832v.617l1.96,1.132,3.172-1.832V687.8Zm2.584,4.682-1.96-1.132-3.172,1.831v.618l1.96,1.132,3.172-1.831Zm7.663-3.807v-.618l-1.96-1.132-3.172,1.831v.617l1.96,1.131Zm-25.359,7.233,3.172-1.831v-.618l-1.96-1.131-3.172,1.831v.617Zm11.673-6.739,3.172-1.831v-.618l-1.961-1.131-3.172,1.831v.618Zm17.821-6.791,3.172-1.831V678.8l-1.96-1.132-3.172,1.831v.617Zm-33.325,15.742,3.172-1.831v-.618l-1.961-1.132-3.172,1.832v.617Zm13.811,3.241,3.172-1.831v-.618l-1.96-1.132-3.172,1.831v.618Zm21.385-22.327,1.96,1.132,3.172-1.831v-.617l-1.96-1.132-3.172,1.831Zm-27.266,14.507,3.172-1.831v-.617l-1.96-1.131-3.172,1.831v.618Zm2.584,5.916,3.172-1.832v-.617l-1.961-1.132-3.172,1.831v.617Zm-4.455-1.338,3.172-1.831v-.618l-1.96-1.132-3.172,1.832v.617Zm-11.762-2.263,1.96,1.131,3.172-1.831v-.453l.392.227,3.172-1.831v-.618l-1.96-1.132-3.172,1.831v.453l-.392-.227-3.172,1.832Zm7.307-4.218,1.961,1.131,3.171-1.831v-.617l-1.96-1.132-3.172,1.831Zm4.492-2.594,1.96,1.132L1002.4,680.8v-.617l-1.96-1.132-14.273,8.241Zm23.042-10.01,1.96,1.132,3.172-1.831v-.617l-1.96-1.132-3.172,1.831Zm11.94,6.585,3.171-1.831v-.617l-1.96-1.132-3.172,1.831v.617Zm-29.405,5.762,3.172-1.832V687.8l-1.96-1.132-3.172,1.832v.617Zm10.515,1.338,3.171-1.831v-.617l-1.96-1.132-3.172,1.831v.617Zm-8.287.874,3.172-1.831v-.618l-1.96-1.132-3.172,1.832v.617Zm-9.99,11.221,1.96,1.132,3.449-1.992V702.2l-1.96-1.132-3.449,1.991Zm19.613-11.324,1.961,1.132,3.172-1.832v-.617l-1.961-1.132-3.172,1.831Zm26.945-17.717-1.96-1.132-4.757,2.747v.617l1.96,1.132,4.758-2.747Zm-12.688,7.943,3.172-1.831v-.617l-1.96-1.132-3.172,1.832v.617Zm-10.194-5.432-1.96-1.132-3.172,1.832v.617l1.96,1.131,3.172-1.831Zm20.494,3.292v-.617l-1.96-1.132-3.172,1.831v.618l1.96,1.131Zm-3.3-2.52-1.961-1.132-3.172,1.832v.617l1.96,1.132,3.172-1.831Zm-18.178,3.7v-.618l-1.961-1.132-3.171,1.832v.617l1.96,1.132Z" transform="translate(-952.025 -665.568)" fill="#a765e6"/>
              </g>
            </g>
            <g id="Group_720" data-name="Group 720" transform="translate(46.067 59.054)" opacity="0.63" style="mix-blend-mode: multiply;isolation: isolate">
              <path id="Path_2463" data-name="Path 2463" d="M1045.248,691.916c-3.287.461-24.241-4.117-24.241-4.117l-1.242-5.371,15.967-9.219,9.729,3.92s4.653,4.069,6.608,5.867S1048.535,691.454,1045.248,691.916Z" transform="translate(-983.185 -673.209)" fill="url(#linear-gradient-8)"/>
              <path id="Path_2464" data-name="Path 2464" d="M961.941,718.382c.285,3.838,1.409,11.952-4.99,13.17-5.785,1.1-32.96-1.319-38.121-1.794l26.647-15.385,6.641-.055S961.656,714.545,961.941,718.382Z" transform="translate(-918.83 -699.42)" fill="url(#linear-gradient-9)"/>
            </g>
            <g id="Group_721" data-name="Group 721" transform="translate(0 21.007)">
              <path id="Path_2465" data-name="Path 2465" d="M956.6,714.652c-.613,2.6-.576,4.841.084,5s1.691-1.83,2.3-4.435.575-4.841-.084-5S957.214,712.048,956.6,714.652Z" transform="translate(-896.568 -658.753)" fill="#90caf4"/>
              <path id="Path_2466" data-name="Path 2466" d="M954.626,709.335s3.2.563,4.553.761a7.429,7.429,0,0,1,4.261-1.439,39.995,39.995,0,0,1,11.564.259c4.219.833,6.4.909,5.876,2.416a1.493,1.493,0,0,1-.818.787c2.24.923,5.273,2.671,5.171,3.2-.122.632-1.88,2-4.6.721a26.035,26.035,0,0,0-5.322-1.649c1.5.569,3.005,1.138,3.841,1.45,2.085.777,6.246,3.439,6.081,4.061s-2.014,1.863-4.641.4c-2.587-1.441-5.5-2-7.429-2.75,1.309.766,2.749,1.585,3.652,2.028,2,.98,5.876,4.039,5.65,4.642s-2.188,1.655-4.658-.06c-2.675-1.858-5.838-2.7-7.627-3.755a31.579,31.579,0,0,0,3.092,1.843c2,.98,6.1,4.256,5.877,4.859s-2.545.93-5.2-.485c-2.157-1.15-4.144-2.062-5.733-2.927-1.627-.5-8.545-4.758-9.6-4.908s-7-1.775-7-1.775Z" transform="translate(-893.667 -657.575)" fill="#f8bcb4"/>
              <path id="Path_2467" data-name="Path 2467" d="M796.57,568.231c1.174.067,7.742.414,11.517,5.942,7.679,11.245,13.41,30.21,14.8,31.051.658.4,5.642,2.057,9.679,3.7a193.85,193.85,0,0,1,21.49,10.763c-.66-.155-1.691,1.83-2.3,4.435s-.575,4.841.084,5c-6.424-1.885-32.452-9.746-36.055-12.578-3.716-2.921-21.252-25.925-23.329-34.106S793.009,568.028,796.57,568.231Z" transform="translate(-791.718 -568.226)" fill="url(#linear-gradient-10)"/>
            </g>
            <g id="Group_722" data-name="Group 722" transform="translate(37.114)">
              <path id="Path_2468" data-name="Path 2468" d="M1050.227,661.319c.468.821,2.832.354,5.279-1.043s4.053-3.193,3.585-4.014-2.832-.354-5.28,1.042S1049.759,660.5,1050.227,661.319Z" transform="translate(-993.603 -603.092)" fill="#5ea6d3"/>
              <path id="Path_2469" data-name="Path 2469" d="M1045.814,655.028c-1.6-1.194-3.889-2.928-6.369-4.862,2.166-2.55,6.073-4.146,9.029-5.047,1.929,2.817,3.707,5.241,4.819,6.727a7.433,7.433,0,0,1,2.121,1.554c.914.931,12.974,10.786,10.719,11.944a2.287,2.287,0,0,1-1.516-.258c.95,1.055,1.614,2.009,1.235,2.592-.611.938-2.034-.217-3.2-1.087-.531-.4-1.914-1.583-3.42-2.781a23.245,23.245,0,0,0,1.215,2.533c1.2,2.061,2.805,4.385,2,5.16s-1.932-.673-2.867-1.784c-.641-.761-2.742-3.684-4.512-5.662a32.98,32.98,0,0,0,1.388,4.58c.933,2.194,2.238,4.7,1.339,5.369s-1.833-.909-2.623-2.127c-.765-1.18-3.883-7-5.435-8.136-1.239-.577-1.922-.794-2.469.164-.738,1.294.022,5.842-1.14,7.076s-1.6,1.63-1.83.9a77.424,77.424,0,0,1-1.266-10.038C1043.12,660.591,1044.813,656.891,1045.814,655.028Z" transform="translate(-986.78 -596.246)" fill="#f8bcb4"/>
              <path id="Path_2470" data-name="Path 2470" d="M894.126,513.719a10.053,10.053,0,0,0,3.9-.095,10.528,10.528,0,0,0,5.532-3.362,5.508,5.508,0,0,1,1.872.249c3.816,1.4,27.821,26.767,30.067,28.694s9.694,3.975,15.223,11.926c5.272,7.581,8.883,12.272,8.883,12.272-.514-.777-2.846-.31-5.267,1.071-2.448,1.4-4.053,3.194-3.585,4.014a.64.64,0,0,0,.141.134c-.022.013-15.34-12.454-17.6-16.525-1.593-2.874-13.622-9.955-20.561-13.874-.228-5.862-1.572-11.566-4.574-14.447-2.792-2.68-8.1-5.357-12.933-7.435Z" transform="translate(-894.126 -510.261)" fill="url(#linear-gradient-11)"/>
            </g>
          </g>
          <g id="Group_724" data-name="Group 724" transform="translate(214.512 50.536)">
            <path id="Path_2471" data-name="Path 2471" d="M1066.1,826.774l25.534,19.931v5.9l-20.789,6.947s-37.341-20.315-37.141-22.092Z" transform="translate(-1033.699 -725.605)" opacity="0.63" fill="url(#linear-gradient-12)" style="mix-blend-mode: multiply;isolation: isolate"/>
            <path id="Path_2472" data-name="Path 2472" d="M1145.707,867.453l-27.193-15.7,2.867-1.655,24.326,14.044Z" transform="translate(-1087.776 -740.476)" fill="#90caf4"/>
            <path id="Path_2473" data-name="Path 2473" d="M1233.426,828.632l-39.878,23.024v-3.311l39.878-23.023Z" transform="translate(-1135.617 -724.679)" fill="#bddff4"/>
            <path id="Path_2474" data-name="Path 2474" d="M1185.507,618.473l-25.916,14.963-3.12-11.3-23.927,13.814v10.064l.723,2.617-21.453,12.386-2.867,1.656-5.439,3.14V600.889l82-47.342v64.926Zm-60.6,14.19,44.132-25.48V595.236l-.532.307-43.6,25.172v11.948Z" transform="translate(-1078.209 -551.398)" fill="#bddff4"/>
            <path id="Path_2475" data-name="Path 2475" d="M1183.627,790.993V780.929l9.175,33.23-3.306-1.909-5.147-18.639Z" transform="translate(-1129.292 -696.374)" fill="#90caf4"/>
            <path id="Path_2476" data-name="Path 2476" d="M1183.627,756.626l23.927-13.814,3.119,11.3,3,10.851,3.06,11.081L1192.8,789.855Z" transform="translate(-1129.292 -672.071)" fill="#bddff4"/>
            <path id="Path_2477" data-name="Path 2477" d="M1153.025,826.912l3.306,1.909,23.927-13.814-3.06-11.081,13.43,7.754L1150.751,834.7l-24.325-14.044,21.453-12.386Z" transform="translate(-1092.821 -711.037)" fill="#e2f1f7"/>
            <path id="Path_2478" data-name="Path 2478" d="M1096.961,680.4v64.926l-3.722-2.149V678.249Z" transform="translate(-1071.661 -630.907)" fill="#90caf4"/>
            <path id="Path_2479" data-name="Path 2479" d="M1178.959,549.766l-82,47.342-3.722-2.149.138-.08,81.861-47.263,2.376,1.372Z" transform="translate(-1071.661 -547.617)" fill="#e2f1f7"/>
            <path id="Path_2480" data-name="Path 2480" d="M1197.066,728.2l6.38-3.683.532.307-6.38,3.684Z" transform="translate(-1137.86 -660.405)" fill="#609ffd"/>
            <path id="Path_2481" data-name="Path 2481" d="M1197.066,737.665v-2.987l.532.307v2.987Z" transform="translate(-1137.86 -666.885)" fill="#3046b5"/>
            <path id="Path_2482" data-name="Path 2482" d="M1198.533,729.044l6.38-3.684v2.987l-6.38,3.684Z" transform="translate(-1138.796 -660.944)" fill="#3685fc"/>
            <path id="Path_2483" data-name="Path 2483" d="M1172.857,746.855v-2.987l6.381-3.684v2.987Z" transform="translate(-1122.425 -670.396)" fill="#3685fc"/>
            <path id="Path_2484" data-name="Path 2484" d="M1171.922,749.808V752.8l-.531-.307V749.5Z" transform="translate(-1121.49 -676.337)" fill="#3046b5"/>
            <path id="Path_2485" data-name="Path 2485" d="M1178.3,739.644l-6.381,3.684-.531-.307,6.38-3.684Z" transform="translate(-1121.49 -669.856)" fill="#609ffd"/>
            <path id="Path_2486" data-name="Path 2486" d="M1283.39,680.527l-.532-.307V668.886l.532-.307Z" transform="translate(-1192.561 -624.741)" fill="#5ea6d3"/>
            <path id="Path_2487" data-name="Path 2487" d="M1206.152,700.7l.532.307-44.132,25.479v-.614Z" transform="translate(-1115.854 -645.221)" fill="#e2f1f7"/>
            <path id="Path_2488" data-name="Path 2488" d="M1206.152,680.76l-43.6,25.173V694.6l43.6-25.172Zm-24.711,8.631-6.38,3.683v2.987l.532.307,6.381-3.684V689.7Zm-15.154,12.349,6.381-3.684V695.07l-.531-.307-6.381,3.684v2.987Zm25.522-14.735v-2.987l-.531-.307-6.38,3.684v2.987l.532.307Z" transform="translate(-1115.854 -625.281)" fill="#90caf4"/>
            <path id="Path_2489" data-name="Path 2489" d="M1232.055,709.689v2.987l-6.38,3.684v-2.987Z" transform="translate(-1156.101 -650.953)" fill="#3685fc"/>
            <path id="Path_2490" data-name="Path 2490" d="M1230.589,708.843l.532.307-6.38,3.684-.531-.307Z" transform="translate(-1155.166 -650.413)" fill="#609ffd"/>
            <path id="Path_2491" data-name="Path 2491" d="M1224.74,722.3l-.531-.307v-2.987l.531.307Z" transform="translate(-1155.166 -656.894)" fill="#3046b5"/>
          </g>
          <g id="Group_730" data-name="Group 730" transform="translate(0 267.651)">
            <path id="Path_2493" data-name="Path 2493" d="M557.991,1205.485l57.063,32.945v-42.86l-57.063-32.945Z" transform="translate(-515.88 -1156.855)" fill="#474d64"/>
            <path id="Path_2494" data-name="Path 2494" d="M725.466,1280.438l-10.039,5.8v-42.859l10.039-5.8Z" transform="translate(-616.259 -1204.645)" fill="#596077"/>
            <g id="Group_727" data-name="Group 727" transform="translate(42.119)">
              <path id="Path_2495" data-name="Path 2495" d="M558.014,1152.5l57.063,32.946,10.039-5.8L568.053,1146.7Z" transform="translate(-558.014 -1146.704)" fill="#7782a5"/>
              <g id="Group_725" data-name="Group 725" transform="translate(21.951 12.952)">
                <path id="Path_2496" data-name="Path 2496" d="M660.929,1206.458a1,1,0,0,0,0,1.9l3.529,2.037a3.643,3.643,0,0,0,3.3,0,1,1,0,0,0,0-1.9l-3.529-2.038a3.645,3.645,0,0,0-3.3,0Z" transform="translate(-645.148 -1197.503)" fill="#bddff4"/>
                <path id="Path_2497" data-name="Path 2497" d="M619.267,1182.837a1,1,0,0,0,0,1.9l3.529,2.038a3.643,3.643,0,0,0,3.3,0,1,1,0,0,0,0-1.9l-3.529-2.037a3.642,3.642,0,0,0-3.3,0Z" transform="translate(-618.585 -1182.443)" fill="#bddff4"/>
              </g>
              <g id="Group_726" data-name="Group 726" transform="translate(5.034 2.906)">
                <path id="Path_2498" data-name="Path 2498" d="M697.068,1231.237l4.315,2.491,7.358-4.248-4.315-2.491Z" transform="translate(-651.707 -1200.799)" fill="#bddff4"/>
                <path id="Path_2499" data-name="Path 2499" d="M571.9,1158.971l4.315,2.492,7.358-4.248-4.315-2.492Z" transform="translate(-571.904 -1154.723)" fill="#bddff4"/>
              </g>
            </g>
            <g id="Group_729" data-name="Group 729" transform="translate(66.621 6.362)">
              <g id="Group_728" data-name="Group 728" transform="translate(0 0.152)">
                <path id="Path_2500" data-name="Path 2500" d="M625.622,1171.986l2.955,1.706V1170.6c0-1.882,1.325-2.647,2.955-1.706l6.279,3.625a6.54,6.54,0,0,1,2.955,5.118v3.092l2.955,1.706v-3.092a13.08,13.08,0,0,0-5.909-10.235l-6.279-3.625c-3.258-1.881-5.91-.351-5.91,3.412Z" transform="translate(-625.622 -1164.677)" fill="#bddff4"/>
              </g>
              <path id="Path_2501" data-name="Path 2501" d="M638.376,1168.227l8.853,5.112v-3.968l-8.853-5.111Z" transform="translate(-633.754 -1164.259)" fill="none"/>
            </g>
          </g>
        </g>
        <g id="Group_703-2" data-name="Group 703" transform="translate(324.968 47.255)">
          <g id="Group_737" data-name="Group 737" transform="translate(0 0)">
            <g id="Group_732" data-name="Group 732" transform="translate(71.961 59.616)">
              <path id="Path_2502" data-name="Path 2502" d="M1676.685,968.155c.534-4.84,3.773-7.966,3.811-9.833a39.2,39.2,0,0,1,.654-5.031l6.207,1.982c-.18,3.177.173,3.84.585,4.855a9.279,9.279,0,0,1,.6,6.846c-1.077,4.11-1.6,7.571-3.765,9.889s-3.834,3.492-3.632,2.534a21.669,21.669,0,0,1,.877-3.028c-.131.165-.251.339-.4.494-2.163,2.318-3.834,3.492-3.632,2.534a15.291,15.291,0,0,1,1.9-5.037,5.2,5.2,0,0,0,.766-1.554C1678.429,972.051,1676.433,970.434,1676.685,968.155Z" transform="translate(-1671.266 -891.273)" fill="#ef9baa"/>
              <path id="Path_2503" data-name="Path 2503" d="M1667.019,782.162s6.924-.06,8.869,5.251,1.8,24.116,2.95,27.1,4.434,12.139,1.537,21.041-1.176,12.153-3.7,12.85-5.589.838-5.738-4.336-2.792-16.23-2.35-19.329-6.811-21.478-6.811-21.478Z" transform="translate(-1661.772 -782.162)" fill="url(#linear-gradient-13)"/>
            </g>
            <g id="Group_733" data-name="Group 733" transform="translate(14.351 133.613)">
              <path id="Path_2504" data-name="Path 2504" d="M1505.772,1374.5c4.742.771,9.193,3.685,11.073,3.726,6.117.135,9.457-2.145,9.457-2.145l3.33,6.915s3.5,6.742,2.433,10.222-4.512,4.767-11.789,1.045-13.358-6.264-15.355-8.781S1501.032,1373.734,1505.772,1374.5Z" transform="translate(-1502.806 -1233.801)" fill="#3046b5"/>
              <path id="Path_2505" data-name="Path 2505" d="M1652.127,1293.705a34.24,34.24,0,0,0,1.165,4.587c.781,2.323,3.311,16.818-1.817,17.309s-10.226-6.191-14.639-6.565-10.429-4.519-12.49-7.113c-3.674-4.622-.694-8.087,4.13-8.218s13.565,5.079,14.454,2.529-2.072-11.408-2.072-11.408Z" transform="translate(-1579.251 -1176.652)" fill="#3046b5"/>
              <path id="Path_2506" data-name="Path 2506" d="M1546.068,999.062c.122-5.252,10.211-10.655,23.176-12.264,12.8-1.589,23.788,1.1,25.407,6.039,5.165,15.03,4.255,53.23,6.987,63.374,3,11.134,1.909,41.247,2.918,51.7.936,9.689-11.876-.356-11.876-.356s-8.916-47.8-11.981-55.2c-2.132-5.148-5.006-21.925-6.559-31.662-4.036,13.6-11.168,39.034-9.883,44.9,1.776,8.109-.489,28.123-2.426,45s-3.831,28.781-3.831,28.781-9.1,4.462-9.878-2.593-3.6-51.829-2.014-64.672C1547.568,1060.323,1543.062,1014.73,1546.068,999.062Z" transform="translate(-1529.715 -986.342)" fill="#3685fc"/>
            </g>
            <g id="Group_734" data-name="Group 734" transform="translate(31.186)">
              <path id="Path_2507" data-name="Path 2507" d="M1620.765,740.4a40.535,40.535,0,0,0-16.17,5,13.624,13.624,0,0,0,.187-2.461c-.164-7.205.272-15.174.272-15.174l15.72-7.125S1619.088,734.008,1620.765,740.4Z" transform="translate(-1584.541 -683.321)" fill="#ef9baa"/>
              <path id="Path_2508" data-name="Path 2508" d="M1579.312,693.315c-4.563,8.69-3.373,18.3,2.658,21.469s14.62-1.309,19.183-10,3.373-18.3-2.658-21.469S1583.876,684.625,1579.312,693.315Z" transform="translate(-1566.653 -658.874)" fill="#ef9baa"/>
              <path id="Path_2509" data-name="Path 2509" d="M1583.263,731.955c-.123.255-.227.512-.36.765a23.923,23.923,0,0,1-5.569,7.065,17.93,17.93,0,0,1-.331-9.193A19.737,19.737,0,0,0,1583.263,731.955Z" transform="translate(-1566.671 -689.665)" fill="#f8bcb4"/>
              <path id="Path_2510" data-name="Path 2510" d="M1557.085,617.92c7.634-1.869,9.869,6.858,10.437,12.756,3.261-3.982,6.927-2.288,7.462,2.207.119.994-.483,3.359,1.224,3.079,4.831-.791,8.331,2.008,11.275,6.108,8.444,11.757-2.263,30.769-7.682,29.274-2.584-.713-4.008-2.9-4.767-5.453-1.689,1.389-3.649,1.119-4.122-3.244a19.646,19.646,0,0,1,.11-3.814s-19.386-6.232-21.576-23.291C1548.68,629.586,1550.138,619.621,1557.085,617.92Z" transform="translate(-1549.262 -617.663)" fill="#f76441"/>
              <path id="Path_2511" data-name="Path 2511" d="M1564.283,629.749a27.906,27.906,0,0,1,2.679-11.879c7.386-1.562,9.573,7,10.132,12.819,3.262-3.982,6.927-2.288,7.462,2.207.119.994-.483,3.359,1.224,3.079,4.832-.791,8.331,2.008,11.276,6.108,3.99,5.556,3.7,12.732,1.716,18.6-5.257-.2-12.642-2.551-14.844-13.646C1580.391,629.225,1564.566,640.362,1564.283,629.749Z" transform="translate(-1558.835 -617.675)" fill="#fe7e57"/>
            </g>
            <path id="Path_2512" data-name="Path 2512" d="M1544.819,863.823c.405-6.531,6.874-33.41,4.861-40.795s-5.239-27.084,2.86-29.963a20.756,20.756,0,0,0,7.051-4.366c-.5-1.006-.6-1.676-.1-1.833,3.09-.973,4.638-6.6,4.935-9.1s2.2-2.684,9.2-5.633,10.059-2.527,10.059-2.527l3.5,5.054c5.328-.906,8.668-1.017,11.972,3,3.589,4.358,1.64,20.6-3,28.916s-7.072,10.174-5.976,15.929,4.808,26.451,6.885,35.2-4,14.406-27.078,14.406a135.116,135.116,0,0,1-16.953-.724l-1.768-8.154-1.919,7.4C1545.272,869.4,1544.6,867.284,1544.819,863.823Z" transform="translate(-1515.22 -714.531)" fill="url(#linear-gradient-14)"/>
            <g id="Group_735" data-name="Group 735" transform="translate(0 71.701)">
              <path id="Path_2513" data-name="Path 2513" d="M1463.433,1063.442c1.22-6.036,3.713-6.7,7.582-8.662l6.577-.176c-.14.116-3.039,3.25-2.6,4.943,1.247,4.854-.687,9.035-.78,12.561-.057,2.146,3.291,2.093,3.16,3.141-.085.687-3.4.462-4.625-1.1a.782.782,0,0,0,.109.164c.941.977,2.281,1.193,2.119,1.929-.1.457-1.632.365-2.948-.257a.573.573,0,0,1,.164.583c-.206.615-3.041-.118-4.126-1.676a3.894,3.894,0,0,1-2.469-2.344,36.994,36.994,0,0,1-.425-6.52c-.4.542-.816,1.071-1.133,1.42C1463.116,1068.458,1463.04,1065.389,1463.433,1063.442Z" transform="translate(-1463.208 -967.954)" fill="#f8bcb4"/>
              <path id="Path_2514" data-name="Path 2514" d="M1463.684,1064.082c.017-.1.033-.2.052-.29,1.215-6.011,3.693-6.7,7.536-8.639l4.873,2.036a3.988,3.988,0,0,0-.854,2.708c.064.249.114.495.162.741C1472.68,1060.9,1465.409,1061.791,1463.684,1064.082Z" transform="translate(-1463.512 -968.304)" fill="#ef9baa"/>
              <path id="Path_2515" data-name="Path 2515" d="M1521.612,815.512c-1.511-.057-16.384.527-18.924,15.013s-6.116,31.854-7.988,37.482-14,29.373-16.5,34.007,3.927,8.06,5.983,5.088c3.2-4.623,8.156-7.461,12.776-15.476s16.19-26.3,18.034-37.779S1521.612,815.512,1521.612,815.512Z" transform="translate(-1472.405 -815.509)" fill="url(#linear-gradient-15)"/>
            </g>
          </g>
        </g>
      </g>
    </g>
  </g>
</svg>
