<svg xmlns="http://www.w3.org/2000/svg" width="73" height="73" viewBox="0 0 73 73">
  <g id="Cheklist_notepad" data-name="Cheklist, notepad" transform="translate(-1 -1)">
    <path id="Path_3141" data-name="Path 3141" d="M52.744,5.71H38.183L36.156,1.651A1.176,1.176,0,0,0,35.1,1H20.992a1.176,1.176,0,0,0-1.052.651L17.913,5.71H2.176A1.177,1.177,0,0,0,1,6.887V72.823A1.177,1.177,0,0,0,2.176,74H52.744a1.177,1.177,0,0,0,1.176-1.177V6.887A1.177,1.177,0,0,0,52.744,5.71Zm-5.88,52.984H38.632a1.177,1.177,0,0,0-1.176,1.177v8.242H8.056V11.6h2.352v2.355a1.177,1.177,0,0,0,1.176,1.177H43.336a1.177,1.177,0,0,0,1.176-1.177V11.6h2.352ZM45.2,61.048l-5.393,5.4v-5.4ZM18.64,8.065a1.176,1.176,0,0,0,1.052-.651l2.027-4.059H34.377L36.4,7.414a1.176,1.176,0,0,0,1.052.651h4.7v4.71H12.76V8.065ZM51.568,71.645H3.352V8.065h7.056V9.242H6.88A1.177,1.177,0,0,0,5.7,10.419V69.29A1.177,1.177,0,0,0,6.88,70.468H38.632a1.18,1.18,0,0,0,.831-.345L48.871,60.7a1.318,1.318,0,0,0,.345-.832V10.419A1.177,1.177,0,0,0,48.04,9.242H44.512V8.065h7.056Z" transform="translate(0)" fill="#a765e6"/>
    <path id="Path_3142" data-name="Path 3142" d="M65.338,12.116l-7.087-10.6a1.228,1.228,0,0,0-1.966,0L49.2,12.116a1.39,1.39,0,0,0-.2.653V65.753a8.268,8.268,0,0,0,16.537,0V12.769a1.39,1.39,0,0,0-.2-.653Zm-9.251,50.1V13.947H58.45V62.221Zm-4.725,0V13.947h2.362V62.221Zm9.45-48.274h2.362V62.221H60.812ZM57.268,4.3l4.88,7.3h-9.76Zm0,67.345a5.9,5.9,0,0,1-5.906-5.887V64.576H63.174v1.177a5.9,5.9,0,0,1-5.906,5.887Z" transform="translate(8.463 0.005)" fill="#a765e6"/>
    <path id="Path_3143" data-name="Path 3143" d="M19.631,23.087a1.181,1.181,0,0,0-1.181,1.181V25.45H11.362V18.362h5.906a1.181,1.181,0,1,0,0-2.362H10.181A1.181,1.181,0,0,0,9,17.181v9.45a1.181,1.181,0,0,0,1.181,1.181h9.45a1.181,1.181,0,0,0,1.181-1.181V24.268A1.181,1.181,0,0,0,19.631,23.087Z" transform="translate(1.45 2.65)" fill="#a765e6"/>
    <path id="Path_3144" data-name="Path 3144" d="M20.615,16.346l-5.071,5.071L14.016,19.89a1.181,1.181,0,1,0-1.67,1.67l2.363,2.362a1.181,1.181,0,0,0,1.67,0l5.906-5.906a1.181,1.181,0,1,0-1.67-1.67Z" transform="translate(1.945 2.654)" fill="#a765e6"/>
    <path id="Path_3145" data-name="Path 3145" d="M19.631,28h-9.45A1.181,1.181,0,0,0,9,29.181v9.45a1.181,1.181,0,0,0,1.181,1.181h9.45a1.181,1.181,0,0,0,1.181-1.181v-9.45A1.181,1.181,0,0,0,19.631,28ZM18.45,37.45H11.362V30.362H18.45Z" transform="translate(1.45 4.771)" fill="#a765e6"/>
    <path id="Path_3146" data-name="Path 3146" d="M19.631,40h-9.45A1.181,1.181,0,0,0,9,41.181v9.45a1.181,1.181,0,0,0,1.181,1.181h9.45a1.181,1.181,0,0,0,1.181-1.181v-9.45A1.181,1.181,0,0,0,19.631,40ZM18.45,49.45H11.362V42.362H18.45Z" transform="translate(1.45 6.891)" fill="#a765e6"/>
    <path id="Path_3147" data-name="Path 3147" d="M39.718,18H23.181a1.181,1.181,0,0,0,0,2.362H39.718a1.181,1.181,0,0,0,0-2.362Z" transform="translate(3.698 3.014)" fill="#a765e6"/>
    <path id="Path_3148" data-name="Path 3148" d="M23.181,24.362h7.087a1.181,1.181,0,0,0,0-2.362H23.181a1.181,1.181,0,1,0,0,2.362Z" transform="translate(3.714 3.723)" fill="#a765e6"/>
    <path id="Path_3149" data-name="Path 3149" d="M39.718,30H23.181a1.181,1.181,0,0,0,0,2.362H39.718a1.181,1.181,0,0,0,0-2.362Z" transform="translate(3.698 5.142)" fill="#a765e6"/>
    <path id="Path_3150" data-name="Path 3150" d="M23.181,36.362h7.087a1.181,1.181,0,0,0,0-2.362H23.181a1.181,1.181,0,1,0,0,2.362Z" transform="translate(3.714 5.851)" fill="#a765e6"/>
    <path id="Path_3151" data-name="Path 3151" d="M39.718,42H23.181a1.181,1.181,0,0,0,0,2.362H39.718a1.181,1.181,0,0,0,0-2.362Z" transform="translate(3.698 7.269)" fill="#a765e6"/>
    <path id="Path_3152" data-name="Path 3152" d="M30.268,46H23.181a1.181,1.181,0,1,0,0,2.362h7.087a1.181,1.181,0,0,0,0-2.362Z" transform="translate(3.714 7.978)" fill="#a765e6"/>
  </g>
</svg>
