<svg xmlns="http://www.w3.org/2000/svg" width="73" height="73.42" viewBox="0 0 73 73.42">
  <g id="social" transform="translate(-2 -2)">
    <path id="Path_3015" data-name="Path 3015" d="M4.105,70.917l2.284.835c.386-1.045.836-2.052,1.317-3.04l5.589-.929,3.208,3.2a1.216,1.216,0,0,0,.86.356,1.132,1.132,0,0,0,.2-.017l7.3-1.212a1.215,1.215,0,0,0,.812-.524l2.3-3.434,3.448-2.29a1.211,1.211,0,0,0,.543-1.009V59.214a1.215,1.215,0,0,0-.2-.673l-2.3-3.437-.831-4.14a33.7,33.7,0,0,1,20.222.212l-1.031,4.107a1.206,1.206,0,0,0,.092.836l2.042,4.067-3.03,3.018a1.246,1.246,0,0,0-.229.315l-1.217,2.424a1.21,1.21,0,0,0,.075,1.215L47.991,70.8A1.223,1.223,0,0,0,49,71.336a1.138,1.138,0,0,0,.239-.024l5.967-1.188h4.747a1.22,1.22,0,0,0,1.013-.539l2.072-3.1H67.88a33.586,33.586,0,0,1,2.5,5.267l2.284-.835A36.619,36.619,0,0,0,42.92,47.4V39.356l1.761-.878a1.21,1.21,0,0,0,.673-1.084V31.334a6.052,6.052,0,0,0-3.517-5.474,4.79,4.79,0,0,0,1.083-3.011,4.868,4.868,0,0,0-9.736,0,4.79,4.79,0,0,0,1.083,3.011,6.052,6.052,0,0,0-3.517,5.474v6.061a1.213,1.213,0,0,0,.673,1.085l1.761.876V47.48A36.63,36.63,0,0,0,4.1,70.917Zm23.019-15.1a1.2,1.2,0,0,0,.18.434l2.229,3.332V62.2l-3.109,2.064a1.2,1.2,0,0,0-.337.336l-2.142,3.2-6.164,1.023-3.208-3.2a1.209,1.209,0,0,0-1.061-.338l-4.331.719A34.245,34.245,0,0,1,26.307,51.757Zm39.2,8.248h-3.93a1.22,1.22,0,0,0-1.013.539l-2.072,3.1H55.089a1.13,1.13,0,0,0-.239.024l-5.285,1.053L47.975,66.4l.813-1.619,3.511-3.5a1.21,1.21,0,0,0,.229-1.4L50.3,55.438l.86-3.428A34.313,34.313,0,0,1,66.321,64.063ZM38.052,20.424a2.424,2.424,0,1,1-2.434,2.424A2.432,2.432,0,0,1,38.052,20.424Zm-3.107,17.1-1.761-.876V31.334A3.648,3.648,0,0,1,36.835,27.7h2.434a3.648,3.648,0,0,1,3.651,3.637v5.312l-1.761.878a1.21,1.21,0,0,0-.673,1.084v8.568c-.7-.041-1.4-.082-2.1-.082-.929,0-1.851.038-2.766.108V38.607A1.213,1.213,0,0,0,34.945,37.522Z" transform="translate(0.447 3.666)" fill="#a765e6"/>
    <path id="Path_3016" data-name="Path 3016" d="M75,12.966a10.947,10.947,0,0,0-21.828-1.218H23.828A10.949,10.949,0,1,0,11.733,23.861v8.673A10.963,10.963,0,1,0,23.828,44.647h6.155V42.21H23.828a10.974,10.974,0,0,0-9.662-9.676V23.861a10.974,10.974,0,0,0,9.662-9.676H53.172a10.974,10.974,0,0,0,9.662,9.676v8.673a10.974,10.974,0,0,0-9.662,9.676H47.017v2.437h6.155A10.949,10.949,0,1,0,65.267,32.534V23.861A10.974,10.974,0,0,0,75,12.966ZM64.05,14.185a2.437,2.437,0,1,1,2.433-2.437A2.438,2.438,0,0,1,64.05,14.185Zm-1.217,2.437h2.433a3.645,3.645,0,0,1,3.62,3.357,8.468,8.468,0,0,1-9.673,0,3.645,3.645,0,0,1,3.62-3.357ZM12.95,14.185a2.437,2.437,0,1,1,2.433-2.437A2.438,2.438,0,0,1,12.95,14.185Zm-1.217,2.437h2.433a3.645,3.645,0,0,1,3.62,3.357,8.468,8.468,0,0,1-9.672,0,3.645,3.645,0,0,1,3.62-3.357ZM8.114,50.441a3.645,3.645,0,0,1,3.62-3.357h2.433a3.645,3.645,0,0,1,3.62,3.357,8.468,8.468,0,0,1-9.672,0Zm4.836-5.794a2.437,2.437,0,1,1,2.433-2.437A2.438,2.438,0,0,1,12.95,44.647Zm8.517-1.218A8.478,8.478,0,0,1,19.8,48.472a6.108,6.108,0,0,0-3.068-3.235,4.867,4.867,0,1,0-7.568,0A6.108,6.108,0,0,0,6.1,48.472a8.516,8.516,0,1,1,15.369-5.043ZM19.8,18.01a6.108,6.108,0,0,0-3.068-3.235,4.867,4.867,0,1,0-7.568,0A6.108,6.108,0,0,0,6.1,18.01a8.517,8.517,0,1,1,13.7,0Zm35.731-5.043A8.517,8.517,0,1,1,70.9,18.01a6.108,6.108,0,0,0-3.068-3.235,4.867,4.867,0,1,0-7.568,0A6.108,6.108,0,0,0,57.2,18.01,8.479,8.479,0,0,1,55.533,12.966Zm3.68,37.474a3.645,3.645,0,0,1,3.62-3.357h2.433a3.645,3.645,0,0,1,3.62,3.357,8.468,8.468,0,0,1-9.673,0Zm4.836-5.794a2.437,2.437,0,1,1,2.433-2.437A2.438,2.438,0,0,1,64.05,44.647Zm8.517-1.218A8.478,8.478,0,0,1,70.9,48.472a6.108,6.108,0,0,0-3.068-3.235,4.867,4.867,0,1,0-7.568,0A6.108,6.108,0,0,0,57.2,48.472a8.516,8.516,0,1,1,15.369-5.043Z" transform="translate(0)" fill="#a765e6"/>
  </g>
</svg>
