<svg xmlns="http://www.w3.org/2000/svg" xmlns:xlink="http://www.w3.org/1999/xlink" width="74" height="74" viewBox="0 0 74 74">
  <defs>
    <clipPath id="clip-path">
      <rect id="Rectangle_445" data-name="Rectangle 445" width="74" height="74" fill="#fff" stroke="#707070" stroke-width="1"/>
    </clipPath>
  </defs>
  <g id="Mask_Group_17" data-name="Mask Group 17" clip-path="url(#clip-path)">
    <g id="_1323488" data-name="1323488" transform="translate(0.015)">
      <path id="Path_428" data-name="Path 428" d="M10.013,69.692,39.785,39.92a4.337,4.337,0,0,0,4.935-.847l1.021-1.021L48.98,41.29a4.336,4.336,0,0,0,6.979,4.934l14.3-14.3a4.336,4.336,0,0,0-4.934-6.979L46.588,6.2a4.334,4.334,0,0,0-6.977-4.932l-14.3,14.3a4.336,4.336,0,0,0,4.934,6.979l3.239,3.239-1.021,1.021a4.342,4.342,0,0,0-.846,4.933L1.841,61.519a5.779,5.779,0,1,0,8.172,8.173ZM32.46,20.683l8.173-8.173L51.872,23.748A1.445,1.445,0,0,0,53.916,21.7L42.676,10.466l2.044-2.045,18.39,18.39L50.85,39.073Zm35.759,7.151a1.447,1.447,0,0,1,0,2.044l-14.3,14.3a1.445,1.445,0,0,1-2.044-2.043l14.3-14.3h0A1.443,1.443,0,0,1,68.219,27.834ZM27.352,19.661a1.446,1.446,0,0,1,0-2.044l14.3-14.3A1.445,1.445,0,0,1,43.7,5.357l-14.3,14.3A1.446,1.446,0,0,1,27.352,19.661ZM43.7,36.008l-1.021,1.021a1.445,1.445,0,0,1-2.044,0L34.5,30.9a1.447,1.447,0,0,1,0-2.044l1.022-1.021ZM3.884,63.562l29.6-29.6,4.086,4.086-29.6,29.6a2.889,2.889,0,0,1-4.085-4.087Zm0,0" transform="translate(-0.146 0)" fill="#a765e6"/>
      <path id="Path_429" data-name="Path 429" d="M99.818,122.564v-3.382a4.34,4.34,0,0,0-4.335-4.335H72.365a4.34,4.34,0,0,0-4.335,4.335v3.387a8.684,8.684,0,0,0-5.78,8.172,1.445,1.445,0,0,0,1.445,1.445h40.457a1.445,1.445,0,0,0,1.445-1.445A8.674,8.674,0,0,0,99.818,122.564Zm-28.9-3.382a1.446,1.446,0,0,1,1.444-1.444H95.484a1.447,1.447,0,0,1,1.445,1.444v2.89H70.921Zm-5.6,10.114a5.789,5.789,0,0,1,5.6-4.335H96.928a5.785,5.785,0,0,1,5.6,4.335Zm0,0" transform="translate(-31.619 -58.2)" fill="#a765e6"/>
    </g>
  </g>
</svg>
