<svg xmlns="http://www.w3.org/2000/svg" xmlns:xlink="http://www.w3.org/1999/xlink" width="73" height="73" viewBox="0 0 73 73">
  <defs>
    <clipPath id="clip-path">
      <rect id="Rectangle_451" data-name="Rectangle 451" width="73" height="73" transform="translate(0)" fill="#fff"/>
    </clipPath>
  </defs>
  <g id="Mask_Group_24" data-name="Mask Group 24" transform="translate(0)" clip-path="url(#clip-path)">
    <g id="_1900303" data-name="1900303" transform="translate(0.003 0)">
      <path id="Path_479" data-name="Path 479" d="M60.36,66.963a1.234,1.234,0,0,0,.878.367,1.21,1.21,0,0,0,.467-.092,1.233,1.233,0,0,0,.766-1.141V56.233a1.233,1.233,0,0,0-2.111-.866L55.5,60.3a1.233,1.233,0,0,0,0,1.731ZM60,59.239V63.09l-1.9-1.925Z" transform="translate(-30.41 -30.338)" fill="#a765e6"/>
      <path id="Path_480" data-name="Path 480" d="M90.757,67.236a1.235,1.235,0,0,0,1.342-.26l5-4.932a1.233,1.233,0,0,0,0-1.756l-5-4.932a1.233,1.233,0,0,0-2.1.878V66.1A1.234,1.234,0,0,0,90.757,67.236Zm1.709-8.055,2.012,1.984L92.466,63.15Z" transform="translate(-48.075 -30.338)" fill="#a765e6"/>
      <path id="Path_481" data-name="Path 481" d="M46.706,38.881a6.163,6.163,0,0,0,.363,8.865l6.724,5.978L48.592,75.2a1.232,1.232,0,0,0,1.2,1.523h6.165a1.233,1.233,0,0,0,1.181-.878l5.141-17.087,5.274,17.1a1.232,1.232,0,0,0,1.178.869h6.165a1.234,1.234,0,0,0,1.2-1.524l-5.2-21.476,6.634-5.9a6.168,6.168,0,0,0,.265-8.968l-4.722-4.72a6.135,6.135,0,0,0-4.36-1.805h-.947a7.4,7.4,0,1,0-11,0H55.6a6.19,6.19,0,0,0-4.459,1.908ZM57.331,27.4a4.932,4.932,0,1,1,4.932,4.932A4.937,4.937,0,0,1,57.331,27.4ZM55.6,34.8H68.71a3.722,3.722,0,0,1,2.615,1.084l4.722,4.72a3.7,3.7,0,0,1-.159,5.381L68.7,52.373a1.229,1.229,0,0,0-.379,1.211l5.006,20.673H69.639l-6.2-20.093a1.235,1.235,0,0,0-1.179-.869h0a1.233,1.233,0,0,0-1.176.878L55.039,74.256H51.357l5.006-20.673a1.232,1.232,0,0,0-.379-1.211L48.708,45.9a3.7,3.7,0,0,1-.217-5.32l4.434-4.643A3.71,3.71,0,0,1,55.6,34.8Z" transform="translate(-25.27 -12.601)" fill="#a765e6"/>
      <path id="Path_482" data-name="Path 482" d="M5,18.564A1.233,1.233,0,0,0,6.233,19.8H18.564A1.233,1.233,0,0,0,19.8,18.564V6.233A1.233,1.233,0,0,0,18.564,5H6.233A1.233,1.233,0,0,0,5,6.233Zm2.466-4.422,3.189,3.189H7.466ZM9.21,12.4,12.4,9.21,15.587,12.4,12.4,15.587Zm4.932,4.932,3.189-3.189v3.189Zm3.189-6.676L14.142,7.466h3.189ZM10.655,7.466,7.466,10.655V7.466Z" transform="translate(-5 -5)" fill="#a765e6"/>
      <path id="Path_483" data-name="Path 483" d="M137.2,11.495a1.235,1.235,0,0,0-.983-.827l-4.461-.683-2.006-4.275a1.234,1.234,0,0,0-2.233,0l-2.006,4.275-4.461.683a1.234,1.234,0,0,0-.7,2.08l3.264,3.345-.772,4.74a1.234,1.234,0,0,0,1.814,1.279l3.974-2.2,3.976,2.2a1.234,1.234,0,0,0,1.814-1.279l-.772-4.74,3.264-3.345a1.228,1.228,0,0,0,.286-1.25Zm-5.751,3.321a1.231,1.231,0,0,0-.334,1.059l.464,2.848-2.35-1.3a1.232,1.232,0,0,0-1.194,0l-2.35,1.3.464-2.848a1.23,1.23,0,0,0-.334-1.059l-2.024-2.074,2.74-.419a1.231,1.231,0,0,0,.93-.694l1.173-2.492,1.17,2.492a1.228,1.228,0,0,0,.93.694l2.74.419Z" transform="translate(-63.279 -5)" fill="#a765e6"/>
      <path id="Path_484" data-name="Path 484" d="M13.632,137.263A8.632,8.632,0,1,0,5,128.632,8.642,8.642,0,0,0,13.632,137.263Zm0-14.8a6.165,6.165,0,1,1-6.165,6.165A6.172,6.172,0,0,1,13.632,122.466Z" transform="translate(-5 -63.277)" fill="#a765e6"/>
      <path id="Path_485" data-name="Path 485" d="M128.632,134.729a1.234,1.234,0,0,0,.684-.207l7.4-4.932a1.235,1.235,0,0,0,.549-1.026v-7.4a1.235,1.235,0,0,0-.549-1.026l-7.4-4.932a1.227,1.227,0,0,0-1.367,0l-7.4,4.932a1.233,1.233,0,0,0-.55,1.026v7.4a1.235,1.235,0,0,0,.549,1.026l7.4,4.932A1.234,1.234,0,0,0,128.632,134.729Zm-6.165-12.9,6.165-4.11,6.165,4.11V127.9l-6.165,4.11-6.165-4.11Z" transform="translate(-63.277 -60.743)" fill="#a765e6"/>
      <path id="Path_486" data-name="Path 486" d="M18.7,137.4a3.7,3.7,0,1,0-3.7-3.7A3.7,3.7,0,0,0,18.7,137.4Zm0-4.932a1.233,1.233,0,1,1-1.233,1.233A1.234,1.234,0,0,1,18.7,132.466Z" transform="translate(-10.068 -68.345)" fill="#a765e6"/>
      <path id="Path_487" data-name="Path 487" d="M137.4,133.666v-4.932a1.233,1.233,0,0,0-1.233-1.233h-4.932A1.233,1.233,0,0,0,130,128.733v4.932a1.233,1.233,0,0,0,1.233,1.233h4.932A1.233,1.233,0,0,0,137.4,133.666Zm-2.466-1.233h-2.466v-2.466h2.466Z" transform="translate(-68.345 -67.078)" fill="#a765e6"/>
      <path id="Path_488" data-name="Path 488" d="M135,22.5h2.466v2.466H135Z" transform="translate(-70.879 -13.868)" fill="#a765e6"/>
      <path id="Path_489" data-name="Path 489" d="M82.643,55h2.466v2.466H82.643Z" transform="translate(-44.346 -30.338)" fill="#a765e6"/>
      <path id="Path_490" data-name="Path 490" d="M82.643,65h2.466v2.466H82.643Z" transform="translate(-44.346 -35.406)" fill="#a765e6"/>
      <path id="Path_491" data-name="Path 491" d="M72.643,65h2.466v2.466H72.643Z" transform="translate(-39.279 -35.406)" fill="#a765e6"/>
      <path id="Path_492" data-name="Path 492" d="M72.643,55h2.466v2.466H72.643Z" transform="translate(-39.279 -30.338)" fill="#a765e6"/>
      <path id="Path_493" data-name="Path 493" d="M0,0H2.467V8.893H0Z" transform="matrix(0.555, -0.832, 0.832, 0.555, 17.818, 14.596)" fill="#a765e6"/>
      <path id="Path_494" data-name="Path 494" d="M0,0H8.893V2.467H0Z" transform="matrix(0.832, -0.555, 0.555, 0.832, 47.409, 17.455)" fill="#a765e6"/>
      <path id="Path_495" data-name="Path 495" d="M0,0H2.467V8.893H0Z" transform="matrix(0.555, -0.832, 0.832, 0.555, 51.12, 50.368)" fill="#a765e6"/>
      <path id="Path_496" data-name="Path 496" d="M0,0H8.893V2.467H0Z" transform="matrix(0.832, -0.555, 0.555, 0.832, 15.36, 53.222)" fill="#a765e6"/>
    </g>
  </g>
</svg>
