<svg xmlns="http://www.w3.org/2000/svg" xmlns:xlink="http://www.w3.org/1999/xlink" width="73" height="73" viewBox="0 0 73 73">
  <defs>
    <clipPath id="clip-path">
      <rect id="Rectangle_456" data-name="Rectangle 456" width="73" height="73" fill="#fff"/>
    </clipPath>
  </defs>
  <g id="Mask_Group_23" data-name="Mask Group 23" clip-path="url(#clip-path)">
    <g id="_977597" data-name="977597" transform="translate(0.002 1.233)">
      <g id="Group_92" data-name="Group 92" transform="translate(0 0)">
        <g id="Group_91" data-name="Group 91">
          <path id="Path_469" data-name="Path 469" d="M69.052,2.5H4.934A4.94,4.94,0,0,0,0,7.434V48.125a1.234,1.234,0,0,0,1.233,1.233h71.52a1.234,1.234,0,0,0,1.233-1.233V7.434A4.939,4.939,0,0,0,69.052,2.5ZM71.52,46.891H2.466V7.434A2.47,2.47,0,0,1,4.934,4.966H69.052A2.47,2.47,0,0,1,71.52,7.434Z" transform="translate(0 -2.5)" fill="#a765e6"/>
        </g>
      </g>
      <g id="Group_94" data-name="Group 94" transform="translate(0 44.392)">
        <g id="Group_93" data-name="Group 93">
          <path id="Path_470" data-name="Path 470" d="M72.753,92.5H1.233A1.234,1.234,0,0,0,0,93.733V99.9a4.939,4.939,0,0,0,4.934,4.934H69.052A4.939,4.939,0,0,0,73.986,99.9V93.733A1.234,1.234,0,0,0,72.753,92.5ZM71.52,99.9a2.47,2.47,0,0,1-2.467,2.467H4.934A2.47,2.47,0,0,1,2.466,99.9V94.966H71.52V99.9Z" transform="translate(0 -92.5)" fill="#a765e6"/>
        </g>
      </g>
      <g id="Group_96" data-name="Group 96" transform="translate(32.061 49.324)">
        <g id="Group_95" data-name="Group 95">
          <path id="Path_471" data-name="Path 471" d="M73.632,102.5h-7.4a1.233,1.233,0,1,0,0,2.466h7.4a1.233,1.233,0,1,0,0-2.466Z" transform="translate(-65 -102.5)" fill="#a765e6"/>
        </g>
      </g>
      <g id="Group_98" data-name="Group 98" transform="translate(4.932 4.932)">
        <g id="Group_97" data-name="Group 97">
          <path id="Path_472" data-name="Path 472" d="M72.888,12.5H11.233A1.234,1.234,0,0,0,10,13.733V53.192a1.234,1.234,0,0,0,1.233,1.233H72.888a1.234,1.234,0,0,0,1.233-1.233V13.733A1.234,1.234,0,0,0,72.888,12.5ZM71.655,51.959H12.466V14.966H71.655Z" transform="translate(-10 -12.5)" fill="#a765e6"/>
        </g>
      </g>
      <g id="Group_100" data-name="Group 100" transform="translate(17.263 64.121)">
        <g id="Group_99" data-name="Group 99">
          <path id="Path_473" data-name="Path 473" d="M70.76,132.5H38.7a3.7,3.7,0,1,0,0,7.4H70.76a3.7,3.7,0,1,0,0-7.4Zm0,4.932H38.7a1.233,1.233,0,1,1,0-2.466H70.76a1.233,1.233,0,1,1,0,2.466Z" transform="translate(-35 -132.5)" fill="#a765e6"/>
        </g>
      </g>
      <g id="Group_102" data-name="Group 102" transform="translate(22.196 54.257)">
        <g id="Group_101" data-name="Group 101">
          <path id="Path_474" data-name="Path 474" d="M73.361,122.365c-4.091,0-6.166-2.9-6.166-8.632a1.234,1.234,0,0,0-1.233-1.233H53.632a1.234,1.234,0,0,0-1.233,1.233c0,5.728-2.074,8.632-6.166,8.632a1.233,1.233,0,1,0,0,2.466H73.361a1.233,1.233,0,1,0,0-2.466Zm-21.122,0c1.518-1.682,2.412-4.186,2.592-7.4h9.933c.179,3.212,1.073,5.717,2.592,7.4Z" transform="translate(-45 -112.5)" fill="#a765e6"/>
        </g>
      </g>
      <g id="Group_104" data-name="Group 104" transform="translate(43.167 25.895)">
        <g id="Group_103" data-name="Group 103">
          <path id="Path_475" data-name="Path 475" d="M103.272,65.437,100.3,62.46l1.656-1.656a1.233,1.233,0,0,0-.517-2.053L89.1,55.052a1.233,1.233,0,0,0-1.535,1.535l3.7,12.331a1.232,1.232,0,0,0,2.053.518l1.744-1.745,2.977,2.978a1.233,1.233,0,0,0,1.744,0l3.487-3.488A1.232,1.232,0,0,0,103.272,65.437Zm-4.359,2.617L96.2,65.342a1.612,1.612,0,0,0-2.276,0l-.89.89-2.448-8.159,8.159,2.448-.954.954a1.4,1.4,0,0,0,0,1.974l2.861,2.861Z" transform="translate(-87.517 -54.999)" fill="#a765e6"/>
        </g>
      </g>
      <g id="Group_106" data-name="Group 106" transform="translate(16.03 9.865)">
        <g id="Group_105" data-name="Group 105">
          <path id="Path_476" data-name="Path 476" d="M68.26,22.5H33.733A1.234,1.234,0,0,0,32.5,23.733V29.9a1.234,1.234,0,0,0,1.233,1.233H68.26A1.234,1.234,0,0,0,69.493,29.9V23.733A1.234,1.234,0,0,0,68.26,22.5Zm-1.233,6.166H34.966v-3.7H67.027Z" transform="translate(-32.5 -22.5)" fill="#a765e6"/>
        </g>
      </g>
      <g id="Group_108" data-name="Group 108" transform="translate(20.963 23.429)">
        <g id="Group_107" data-name="Group 107">
          <path id="Path_477" data-name="Path 477" d="M53.6,50H43.733A1.234,1.234,0,0,0,42.5,51.233v4.932A1.234,1.234,0,0,0,43.733,57.4H53.6a1.234,1.234,0,0,0,1.233-1.233V51.233A1.234,1.234,0,0,0,53.6,50Zm-1.233,4.932h-7.4V52.466h7.4Z" transform="translate(-42.5 -50)" fill="#a765e6"/>
        </g>
      </g>
      <g id="Group_110" data-name="Group 110" transform="translate(16.03 9.865)">
        <g id="Group_109" data-name="Group 109">
          <path id="Path_478" data-name="Path 478" d="M68.26,22.5H33.733A1.234,1.234,0,0,0,32.5,23.733V47.162a1.234,1.234,0,0,0,1.233,1.233H63.088a1.234,1.234,0,0,0,1.181-1.588l-1.561-5.2,5.2,1.56a1.234,1.234,0,0,0,1.587-1.181V23.733A1.234,1.234,0,0,0,68.26,22.5ZM67.027,40.323l-5.8-1.741a1.234,1.234,0,0,0-1.535,1.537l1.744,5.81H34.966V24.966H67.027Z" transform="translate(-32.5 -22.5)" fill="#a765e6"/>
        </g>
      </g>
    </g>
  </g>
</svg>
