<svg xmlns="http://www.w3.org/2000/svg" width="73" height="72.969" viewBox="0 0 73 72.969">
  <g id="network" transform="translate(-3 -3.025)">
    <path id="Path_3139" data-name="Path 3139" d="M35.976,34.08l-4.065,4.178-1.774-1.812a1.258,1.258,0,1,0-1.8,1.749l2.668,2.756a1.258,1.258,0,0,0,1.812,0l4.958-5.122a1.255,1.255,0,1,0-1.8-1.749Z" transform="translate(6.443 7.931)" fill="#a765e6"/>
    <path id="Path_3140" data-name="Path 3140" d="M74.741,52.08H64.672V44.528a1.259,1.259,0,0,0-1.259-1.259H48.31V40.891a1.259,1.259,0,0,0-.994-1.259A11.919,11.919,0,0,1,41.023,36.1a1.1,1.1,0,0,0-.289-.2V32.42a14.436,14.436,0,0,0,6.948-2.442,9.352,9.352,0,1,0,5.991-16.186A14.726,14.726,0,0,0,26.1,11.628H26.02a10.434,10.434,0,1,0,6.092,18.879,14.487,14.487,0,0,0,6.129,1.888v3.524a1.1,1.1,0,0,0-.289.2,11.919,11.919,0,0,1-6.293,3.537,1.259,1.259,0,0,0-.994,1.259v2.354H15.586a1.259,1.259,0,0,0-1.259,1.259V52.08H4.259A1.259,1.259,0,0,0,3,53.338V69.7a1.259,1.259,0,0,0,1.259,1.259H11.81v2.517a1.259,1.259,0,1,0,0,2.517H18.1a1.259,1.259,0,1,0,0-2.517V70.959h7.552A1.259,1.259,0,0,0,26.914,69.7V53.338a1.259,1.259,0,0,0-1.259-1.259h-8.81V45.787H30.853a14.008,14.008,0,0,0,8.118,9.956,1.259,1.259,0,0,0,1.057,0,13.958,13.958,0,0,0,8.106-9.956H62.155V52.08h-8.81a1.259,1.259,0,0,0-1.259,1.259V69.7a1.259,1.259,0,0,0,1.259,1.259H60.9v2.517a1.259,1.259,0,1,0,0,2.517H67.19a1.259,1.259,0,1,0,0-2.517V70.959h7.552A1.259,1.259,0,0,0,76,69.7V53.338A1.259,1.259,0,0,0,74.741,52.08ZM32.729,27.914a1.259,1.259,0,0,0-1.523.1,7.9,7.9,0,0,1-13.1-5.966,8.03,8.03,0,0,1,8.684-7.866,1.259,1.259,0,0,0,1.259-.806A12.221,12.221,0,0,1,51.457,15.4,1.259,1.259,0,0,0,52.9,16.4,7.061,7.061,0,0,1,60.9,23.132a6.834,6.834,0,0,1-12.083,4.38,1.259,1.259,0,0,0-1.762-.189A12.171,12.171,0,0,1,32.729,27.914ZM15.586,73.476H14.328V70.33a.629.629,0,0,1,1.259,0ZM24.4,54.6V68.442H17.462a3.121,3.121,0,0,0-5.034,0H5.517V54.6Zm21.4-10.069A11.252,11.252,0,0,1,39.5,53.187a11.328,11.328,0,0,1-6.293-8.546V41.872A14.273,14.273,0,0,0,39.4,38.235h.2a14.273,14.273,0,0,0,6.192,3.637ZM64.672,73.476H63.414V70.33a.629.629,0,1,1,1.259,0Zm8.81-5.034H66.548a3.121,3.121,0,0,0-5.034,0H54.6V54.6H73.483Z" transform="translate(0 0)" fill="#a765e6"/>
  </g>
</svg>
