<svg id="surface1" xmlns="http://www.w3.org/2000/svg" width="73" height="73.001" viewBox="0 0 73 73.001">
  <path id="Path_3134" data-name="Path 3134" d="M186.6,216.434a3.326,3.326,0,0,0-3.13,2.214h-6.315v-1.291a1.107,1.107,0,0,0-2.214,0v5.4a22.409,22.409,0,0,1-5.211,14.634,44.046,44.046,0,0,1-17.59,12.363,44.3,44.3,0,0,1-16.072-10.684,1.107,1.107,0,0,0-1.6,1.526,45.221,45.221,0,0,0,4.91,4.446v8.408a3.32,3.32,0,1,0,2.214,0v-6.786a48.183,48.183,0,0,0,9.935,5.226,1.706,1.706,0,0,0,1.233,0,46.263,46.263,0,0,0,18.654-13.057,23.729,23.729,0,0,0,4.886-9.407h3.741a3.32,3.32,0,1,0,0-2.214h-3.26a26.37,26.37,0,0,0,.376-4.455v-1.891h6.315a3.32,3.32,0,1,0,3.13-4.427Zm-46.117,41.247a1.107,1.107,0,1,1,1.107-1.107A1.108,1.108,0,0,1,140.484,257.682Zm42.686-30.474a1.107,1.107,0,1,1-1.107,1.107A1.108,1.108,0,0,1,183.17,227.207Zm3.431-6.346a1.107,1.107,0,1,1,1.107-1.107A1.108,1.108,0,0,1,186.6,220.862Zm0,0" transform="translate(-116.922 -186.895)" fill="#a765e6"/>
  <path id="Path_3135" data-name="Path 3135" d="M14.979,38.415V18.281a44.259,44.259,0,0,0,12.545-5.321,19.817,19.817,0,0,1,20.511,0,51.389,51.389,0,0,0,5.657,2.963c.021.01.042.02.063.028a39.233,39.233,0,0,0,6.825,2.331v10a1.107,1.107,0,1,0,2.214,0V17.874a1.691,1.691,0,0,0-1.3-1.654,36.1,36.1,0,0,1-6.229-2.027V6.451a3.32,3.32,0,1,0-2.214,0v6.732q-1.924-.943-3.876-2.119a22.024,22.024,0,0,0-22.8,0A41.663,41.663,0,0,1,14.062,16.22a1.691,1.691,0,0,0-1.3,1.654v6.7H6.451a3.32,3.32,0,1,0,0,2.214h6.315V33.13H9.882a3.32,3.32,0,1,0,0,2.214h2.883v3.071A24.781,24.781,0,0,0,17.2,52.8,1.107,1.107,0,1,0,19,51.527,22.578,22.578,0,0,1,14.979,38.415ZM54.16,2.214A1.107,1.107,0,1,1,53.053,3.32,1.108,1.108,0,0,1,54.16,2.214ZM3.32,26.785a1.107,1.107,0,1,1,1.107-1.107A1.108,1.108,0,0,1,3.32,26.785Zm3.431,8.559a1.107,1.107,0,1,1,1.107-1.107A1.108,1.108,0,0,1,6.752,35.344Zm0,0" fill="#a765e6"/>
  <path id="Path_3136" data-name="Path 3136" d="M124.388,89.9a1.057,1.057,0,0,0,.47-1.408,1.033,1.033,0,0,0-1.391-.476,42.6,42.6,0,0,1-5.861,2.426,1.6,1.6,0,0,0-1.106,1.534v16.3a19.318,19.318,0,0,0,4.386,12.524,39.087,39.087,0,0,0,14.346,10.595,1.447,1.447,0,0,0,1.153,0A39.079,39.079,0,0,0,150.728,120.8a19.321,19.321,0,0,0,4.387-12.526v-16.3a1.6,1.6,0,0,0-1.106-1.534,45.983,45.983,0,0,1-9.655-4.533,16.389,16.389,0,0,0-17.093,0l-.221.134a1.058,1.058,0,0,0-.36,1.441,1.031,1.031,0,0,0,1.423.365l.23-.14a14.334,14.334,0,0,1,14.949,0,48.379,48.379,0,0,0,9.757,4.624v15.944a17.2,17.2,0,0,1-3.886,11.157,36.984,36.984,0,0,1-13.345,9.924,36.989,36.989,0,0,1-13.346-9.925,17.2,17.2,0,0,1-3.886-11.157V92.329A45,45,0,0,0,124.388,89.9Zm0,0" transform="translate(-99.308 -71.178)" fill="#a765e6"/>
  <path id="Path_3137" data-name="Path 3137" d="M206.986,175.5a5.54,5.54,0,0,0-5.534,5.534v1.845h-.369a2.586,2.586,0,0,0-2.583,2.583v8.854a2.586,2.586,0,0,0,2.583,2.583h11.806a2.586,2.586,0,0,0,2.583-2.583v-8.854a2.586,2.586,0,0,0-2.583-2.583h-.369v-1.845A5.54,5.54,0,0,0,206.986,175.5Zm-3.32,5.534a3.32,3.32,0,0,1,6.641,0v1.845h-6.641Zm9.592,4.427v8.854a.369.369,0,0,1-.369.369H201.083a.369.369,0,0,1-.369-.369v-8.854a.369.369,0,0,1,.369-.369h11.806A.369.369,0,0,1,213.257,185.461Zm0,0" transform="translate(-170.486 -150.824)" fill="#a765e6"/>
  <path id="Path_3138" data-name="Path 3138" d="M236.82,243a3.32,3.32,0,0,0-1.107,6.451v1.3a1.107,1.107,0,0,0,2.214,0v-1.3A3.32,3.32,0,0,0,236.82,243Zm0,4.427a1.107,1.107,0,1,1,1.107-1.107A1.108,1.108,0,0,1,236.82,247.427Zm0,0" transform="translate(-200.32 -208.515)" fill="#a765e6"/>
</svg>
