<svg xmlns="http://www.w3.org/2000/svg" xmlns:xlink="http://www.w3.org/1999/xlink" width="710" height="762.98" viewBox="0 0 710 762.98">
  <defs>
    <linearGradient id="linear-gradient" x1="0.807" y1="0.016" x2="0.374" y2="1.014" gradientUnits="objectBoundingBox">
      <stop offset="0" stop-color="#a765e6"/>
      <stop offset="1" stop-color="#0a060e"/>
    </linearGradient>
  </defs>
  <g id="Group_904" data-name="Group 904" transform="translate(4416 -4237)">
    <g id="Group_903" data-name="Group 903" transform="translate(-2548 -8384)">
      <rect id="Rectangle_509" data-name="Rectangle 509" width="710" height="762.98" transform="translate(-1868 12621)" fill="none"/>
    </g>
    <g id="Group_902" data-name="Group 902" transform="translate(-951.659 136.17)">
      <g id="Group_873" data-name="Group 873" transform="translate(-3236.994 4190)">
        <g id="Group_869" data-name="Group 869" transform="translate(0 0)">
          <g id="Group_868" data-name="Group 868">
            <path id="Path_3047" data-name="Path 3047" d="M2023.969,728.69a42.328,42.328,0,0,0,4.425,17.871c4.013,8.438,10.389,16.089,17.589,20.233l124.176,71.689c6.151,3.563,11.72,3.881,15.752,1.519a6.7,6.7,0,0,0,.6-.394c.019,0,.037-.019.056-.019l.057-.056a.252.252,0,0,0,.075-.056c.169-.113.319-.225.469-.338a.187.187,0,0,1,.094-.075l.056-.056.038-.038a5.613,5.613,0,0,0,.506-.45c.019-.019.038-.019.056-.038,0-.019.019-.038.037-.056a7.149,7.149,0,0,0,.525-.544l.038-.038.056-.056a.4.4,0,0,0,.056-.094l.394-.45a.19.19,0,0,1,.075-.094c0-.019.019-.037.037-.056s.019-.056.038-.075a5.675,5.675,0,0,0,.375-.544.191.191,0,0,0,.075-.094c.019-.018.019-.037.038-.056.15-.244.3-.488.45-.75,0-.019.019-.038.019-.056.15-.244.281-.525.413-.788,0-.019,0-.019.018-.019a.068.068,0,0,1,.019-.056c0-.019.019-.037.019-.056.113-.244.206-.469.3-.713.019-.038.038-.056.056-.094a11.266,11.266,0,0,0,.037-.112c.094-.263.188-.544.282-.825a.059.059,0,0,0,.018-.038c0-.019.019-.038.019-.056a.069.069,0,0,1,.019-.056l.169-.619a1.81,1.81,0,0,0,.094-.3c0-.019,0-.038.019-.038.019-.094.038-.188.056-.262.038-.169.075-.357.113-.525.018-.094.037-.169.056-.263a.066.066,0,0,0,.019-.038.939.939,0,0,1,.038-.225c.038-.206.075-.412.094-.6.019-.094.038-.187.056-.262v-.038c0-.056.019-.131.019-.187.038-.225.056-.45.075-.675a1.441,1.441,0,0,0,.038-.281v-.038a.319.319,0,0,0,.019-.131c.019-.263.038-.543.056-.806,0-.094.019-.169.019-.263v-.075c.019-.394.038-.806.038-1.219l.488-175.294.356-123.67c0-.394,0-.787-.019-1.2,0-.131-.019-.263-.019-.394l-.056-.844c-.019-.131-.019-.281-.037-.432-.019-.281-.056-.581-.094-.881a2.074,2.074,0,0,0-.037-.357c-.038-.412-.094-.825-.169-1.256,0-.056-.019-.094-.019-.15-.075-.375-.131-.731-.206-1.106a3.833,3.833,0,0,0-.094-.45c-.057-.263-.113-.544-.169-.825-.038-.169-.075-.338-.113-.487-.075-.281-.131-.544-.206-.825-.038-.15-.094-.319-.131-.488-.075-.281-.169-.582-.244-.863a2.689,2.689,0,0,0-.131-.412c-.131-.431-.263-.863-.394-1.275a.259.259,0,0,1-.038-.112c-.132-.394-.281-.769-.413-1.163-.056-.131-.094-.243-.15-.375l-.338-.9c-.056-.131-.112-.263-.168-.412-.131-.3-.263-.619-.394-.919a2.335,2.335,0,0,0-.131-.319c-.187-.412-.356-.825-.562-1.237-.037-.094-.094-.187-.15-.3-.15-.319-.3-.637-.45-.938-.113-.225-.225-.45-.337-.656-.131-.244-.244-.469-.357-.694-.056-.113-.131-.206-.187-.319-.15-.3-.319-.582-.488-.882-.075-.112-.132-.244-.206-.356-.131-.225-.263-.431-.394-.656s-.281-.469-.413-.694c-.131-.206-.262-.394-.393-.6-.131-.225-.281-.45-.432-.675-.15-.244-.318-.488-.487-.731-.094-.131-.169-.244-.244-.357-.263-.375-.525-.75-.806-1.125l-.019-.019c-.3-.412-.6-.806-.919-1.219-.244-.3-.507-.619-.75-.919a1.03,1.03,0,0,1-.132-.169c-.3-.357-.6-.713-.9-1.05-.094-.113-.187-.206-.281-.3-.206-.244-.431-.488-.656-.713a3.91,3.91,0,0,0-.375-.412c-.187-.187-.375-.394-.582-.581a4.26,4.26,0,0,0-.412-.413c-.187-.187-.375-.375-.563-.543-.15-.15-.3-.281-.45-.432l-.563-.506-.45-.394c-.187-.169-.394-.338-.581-.488-.15-.131-.3-.244-.45-.375-.206-.15-.412-.319-.619-.469a3.459,3.459,0,0,0-.412-.319l-.675-.506c-.132-.075-.244-.169-.356-.244-.356-.244-.694-.469-1.051-.694-.019-.019-.037-.019-.056-.038-.357-.225-.712-.45-1.069-.656l-124.176-71.689c-.206-.113-.394-.225-.582-.319-.075-.038-.131-.075-.206-.112a.018.018,0,0,1-.019-.019l-.337-.169c-.094-.056-.169-.094-.244-.131a.564.564,0,0,1-.15-.075l-.112-.056c-.019,0-.038-.019-.057-.019a1.7,1.7,0,0,0-.262-.131,2.221,2.221,0,0,1-.3-.15c-.094-.038-.169-.075-.244-.112-.038,0-.056-.019-.094-.038a1.141,1.141,0,0,1-.225-.094,1.329,1.329,0,0,0-.244-.093c-.113-.056-.206-.094-.3-.132a1.486,1.486,0,0,0-.262-.094c-.094-.038-.188-.075-.3-.113a1.309,1.309,0,0,0-.244-.093h-.019a1.255,1.255,0,0,0-.15-.056.9.9,0,0,0-.131-.056c-.075-.019-.169-.056-.244-.075a1.679,1.679,0,0,0-.281-.093c-.094-.019-.169-.056-.263-.075-.094-.038-.187-.056-.281-.094-.075-.019-.169-.038-.244-.056-.094-.019-.187-.056-.263-.075h-.019c-.075-.019-.169-.038-.244-.056a1.605,1.605,0,0,1-.281-.075,1.1,1.1,0,0,1-.243-.038c-.019,0-.038-.019-.056-.019a.547.547,0,0,1-.169-.038h-.037a1.273,1.273,0,0,0-.263-.038.669.669,0,0,0-.187-.038c-.019,0-.056-.019-.075-.019a1.1,1.1,0,0,1-.244-.037c-.056,0-.113-.019-.187-.019a.142.142,0,0,1-.075-.019,1.153,1.153,0,0,1-.244-.019c-.056,0-.113-.019-.169-.019h-.075a1.152,1.152,0,0,0-.244-.019.518.518,0,0,0-.169-.019h-.094a.912.912,0,0,0-.225-.019H2036.4a.911.911,0,0,1-.225.019c-.075,0-.15.019-.244.019-.075,0-.15.019-.225.019-.075.019-.15.019-.225.038-.075,0-.15.019-.225.019a430.456,430.456,0,0,0-.225.038c-.075.018-.15.018-.225.037-.056.019-.094.019-.15.038h-.075l-.226.056-.225.056c-.056.019-.131.038-.206.056h-.056c-.037.019-.075.019-.112.038a.069.069,0,0,0-.056.019c-.056.019-.131.038-.206.056a1.427,1.427,0,0,0-.206.075c-.075.019-.131.038-.206.056-.037.019-.094.038-.131.056-.019,0-.056.019-.075.019-.075.038-.131.056-.207.094a1.434,1.434,0,0,0-.15.056c-.019,0-.037.019-.056.019a.877.877,0,0,0-.187.094h-.019c-.056.019-.112.056-.169.075h-.019a1.779,1.779,0,0,1-.187.094c-.038.019-.056.038-.075.038-.037.019-.094.056-.131.075a.9.9,0,0,0-.188.094c-.056.038-.131.075-.187.113-3.994,2.288-6.469,7.2-6.488,14.176Z" transform="translate(-2023.969 -405.827)" fill="#fff"/>
            <path id="Path_3048" data-name="Path 3048" d="M2195.434,535.013s-.015-.291-.019-.38l-.038-.57c-.012-.12-.02-.226-.026-.315l-.009-.071-.013-.2c-.006-.088-.037-.336-.056-.484l-.052-.417v-.061l-.01-.111c-.02-.218-.051-.45-.1-.71,0,0-.109-.634-.114-.661-.025-.141-.051-.283-.08-.427l-.046-.23-.03-.132c-.057-.271-.116-.561-.175-.854-.015-.07-.03-.139-.046-.2-.044-.168-.084-.332-.124-.5-.021-.086-.041-.171-.064-.26l-.021-.079c-.045-.156-.088-.316-.128-.478-.021-.073-.138-.477-.173-.6l-.013-.029-.126-.415c-.093-.306-.186-.613-.28-.91-.052-.142-.1-.285-.142-.429l-.079-.215c-.066-.181-.132-.361-.2-.544-.016-.039-.031-.08-.048-.123l-.04-.094-.341-.909c-.049-.116-.1-.234-.146-.358s-.275-.646-.331-.774l-.123-.283-.025-.073q-.083-.185-.164-.37c-.077-.174-.151-.349-.238-.523l-.22-.444c-.127-.27-.253-.54-.379-.793-.076-.151-.151-.3-.242-.472-.121-.223-.229-.434-.333-.642-.086-.142-.195-.332-.308-.557-.053-.106-.115-.207-.174-.311l-.079-.139c-.077-.128-.141-.242-.19-.332,0,0-.133-.223-.177-.3-.087-.143-.174-.287-.259-.433-.052-.09-.275-.461-.329-.551l-.069-.1c-.092-.139-.185-.278-.277-.423l-.067-.106-.063-.109c-.066-.112-.143-.222-.222-.339l-.067-.1-.064-.1c-.08-.13-.172-.259-.262-.389-.11-.155-.2-.293-.294-.429-.12-.172-.241-.344-.364-.516l-.028-.028-.32-.44c-.244-.336-.488-.657-.746-.99l-.587-.719c-.129-.148-.241-.288-.338-.417-.207-.245-.413-.488-.619-.72l-.209-.211-.178-.211c-.083-.1-.182-.2-.279-.3l-.337-.338-.113-.151c-.062-.063-.26-.268-.3-.306l-.257-.234-.152-.173-.055-.048-.158-.158c-.1-.1-.2-.208-.308-.3l-.12-.107-.124-.124s-.231-.217-.306-.29l-.424-.382-.486-.427c-.09-.081-.19-.16-.28-.232l-.091-.07-.115-.1-.232-.19-.238-.182c-.052-.04-.1-.081-.155-.119l-.218-.158-.124-.107-.623-.468c-.14-.094-.255-.176-.339-.237-.278-.19-.542-.366-.821-.542l-.582-.367q-.16-.1-.319-.191L2053.43,432.369l-4.963-2.244-.19-.052c-.021,0-.2-.044-.279-.063h-.478l-.5-.169h-.314l-.093-.019h-.59l-.112-.038h-.143l-.1.006-.351.088h-.171l-.374.123-.432.214h-.216l-.827.544h-.216c-1.6,1.357-2.537,4.26-2.547,7.973l-.844,298.985a35.86,35.86,0,0,0,3.775,14.968c3.582,7.533,9.144,14,14.885,17.3l124.184,71.694a13.674,13.674,0,0,0,6.537,2.131,4.909,4.909,0,0,0,2.316-.515l.285-.286.292-.145.383-.306.352-.4q.063-.088.129-.175l.021-.038,1.623-4.936,0-.041v-1.2l.112-.221c.011-.254.02-.485.02-.693l.488-175.295.357-123.65C2195.446,535.567,2195.446,535.273,2195.434,535.013Z" transform="translate(-2032.975 -414.833)" fill="url(#linear-gradient)"/>
            <path id="Path_3049" data-name="Path 3049" d="M2217.087,506.6c0-.064,0-.128,0-.192,0-.134-.012-.269-.019-.4-.008-.157-.019-.314-.029-.471-.008-.123-.013-.246-.023-.369-.01-.142-.021-.284-.033-.427-.008-.093-.02-.186-.029-.278-.019-.2-.039-.409-.062-.614-.013-.118-.025-.235-.04-.353,0-.038-.011-.077-.016-.116-.047-.369-.1-.739-.156-1.11,0-.009,0-.017,0-.025-.008-.052-.019-.1-.027-.157-.05-.31-.106-.621-.165-.932-.011-.056-.019-.113-.03-.169-.029-.148-.06-.3-.09-.444-.037-.179-.076-.358-.115-.538-.022-.1-.042-.2-.065-.3-.036-.161-.074-.323-.113-.485-.029-.122-.061-.245-.091-.368-.038-.15-.073-.3-.112-.449s-.084-.325-.128-.487c-.021-.079-.045-.157-.067-.236-.059-.213-.119-.427-.182-.64-.04-.137-.079-.274-.12-.412-.012-.039-.025-.077-.037-.116-.117-.381-.237-.762-.364-1.142l0-.013c-.012-.036-.025-.071-.037-.107-.113-.335-.232-.669-.354-1-.019-.054-.037-.107-.057-.161-.046-.126-.095-.253-.142-.379-.068-.18-.139-.36-.208-.54-.045-.116-.088-.232-.135-.348-.056-.14-.112-.28-.169-.42-.042-.1-.085-.2-.128-.3-.085-.2-.169-.409-.257-.613-.047-.108-.092-.217-.139-.325l-.052-.114c-.158-.356-.318-.712-.484-1.066l-.021-.046c-.048-.1-.1-.2-.147-.3q-.195-.409-.4-.814c-.021-.043-.041-.087-.063-.13-.111-.221-.227-.44-.341-.66-.093-.179-.185-.357-.28-.535-.027-.05-.052-.1-.079-.152-.057-.106-.116-.211-.174-.317q-.243-.444-.495-.885c-.067-.117-.133-.235-.2-.351-.046-.079-.093-.156-.14-.234q-.126-.214-.254-.427c-.138-.23-.276-.459-.417-.686-.126-.2-.255-.4-.384-.6-.144-.225-.288-.449-.435-.671l-.148-.22c-.117-.175-.234-.35-.352-.523-.082-.12-.163-.24-.246-.359q-.391-.561-.794-1.11h0l-.015-.019q-.454-.616-.925-1.214l-.043-.053q-.35-.445-.71-.88c-.044-.053-.087-.108-.131-.162l-.009-.011q-.421-.507-.854-1l-.042-.05c-.087-.1-.178-.2-.266-.294q-.275-.307-.552-.607c-.035-.037-.068-.076-.1-.113-.125-.134-.253-.265-.379-.4s-.281-.292-.422-.436c-.052-.053-.1-.107-.155-.16-.137-.138-.276-.274-.415-.41q-.18-.176-.361-.349c-.068-.065-.135-.131-.2-.2-.15-.142-.3-.281-.452-.421-.105-.1-.211-.191-.317-.286-.082-.074-.163-.149-.245-.222q-.227-.2-.456-.4c-.094-.08-.188-.158-.282-.237s-.2-.169-.3-.251c-.149-.123-.3-.245-.448-.365-.079-.063-.158-.123-.237-.186-.126-.1-.251-.2-.377-.3s-.277-.214-.417-.318c-.057-.043-.116-.083-.174-.126q-.256-.188-.512-.371c-.117-.083-.234-.169-.352-.25-.031-.021-.063-.041-.094-.063-.31-.213-.622-.422-.935-.622l-.008-.006-.068-.042c-.286-.181-.573-.353-.862-.523-.071-.042-.141-.088-.212-.129L2070.925,397.79q-.325-.187-.647-.361l-.057-.031-.094-.05q-.363-.195-.722-.374l-.088-.045-.037-.018c-.261-.129-.521-.251-.78-.368l-.078-.035-.094-.042c-.263-.116-.525-.229-.786-.333h0c-.268-.107-.533-.206-.8-.3l-.1-.034-.065-.023q-.386-.134-.768-.251l-.051-.015-.082-.024c-.273-.081-.544-.157-.813-.225l-.016,0h0c-.275-.068-.548-.128-.819-.182l-.084-.017-.077-.015-.225-.041-.275-.047-.225-.034-.165-.023-.1-.014-.242-.029c-.086-.009-.171-.019-.256-.026l-.239-.02-.144-.01-.1-.007c-.093-.006-.185-.01-.277-.014-.077,0-.154-.007-.23-.009-.092,0-.184,0-.276,0h-.217c-.135,0-.269.005-.4.01l-.131,0c-.176.009-.35.021-.524.036l-.022,0-.067.007q-.249.024-.493.058l-.163.023q-.242.036-.48.083l-.071.013-.013,0c-.238.048-.471.1-.7.167l-.107.029c-.223.062-.443.132-.66.207l-.068.024-.082.029q-.133.048-.263.1c-.059.023-.119.047-.177.071-.089.037-.177.076-.265.115l-.164.074c-.1.045-.189.092-.283.139l-.135.067c-.138.072-.273.146-.407.225l-14.171,8.235.039-.022c.064-.037.128-.071.193-.107s.125-.069.188-.1l.123-.061.074-.037c.064-.032.128-.064.192-.094l.017-.007.165-.075.019-.009c.066-.029.131-.059.2-.087l.047-.019.158-.064c.067-.026.133-.054.2-.079l.082-.029.129-.046c.068-.024.136-.048.2-.071s.143-.044.214-.067.138-.043.208-.063l.054-.015.107-.029.058-.016c.071-.018.14-.038.211-.055s.15-.034.224-.05.142-.032.214-.047l.079-.015.15-.028c.072-.013.144-.027.217-.039l.113-.016.121-.018c.073-.01.146-.022.22-.031s.157-.017.236-.025.15-.017.226-.023.159-.011.238-.017.151-.011.228-.015h0l.128,0,.113,0,.231-.006h.249c.077,0,.154,0,.232,0l.07,0,.184.007c.078,0,.156.005.234.009l.089.006.169.012.236.017.08.009.178.018c.081.009.162.016.243.026l.077.01.18.025c.083.012.166.022.25.035l.063.011.2.034c.083.014.165.027.247.043l.051.01.16.032.06.012c.083.017.164.032.247.05s.184.043.276.064l.247.058.01,0,.272.072c.082.022.164.042.247.066s.188.055.283.084l.01,0,.011,0c.076.022.152.044.228.068.094.029.188.061.282.092s.171.055.257.084l.122.044.137.049.022.008.007,0c.085.03.17.059.255.091s.2.076.294.114.169.064.254.1c.1.04.2.084.3.125.083.035.166.068.25.1s.15.067.225.1l.085.038c.082.037.165.072.247.11.1.047.207.1.311.148.083.04.167.078.25.119l.06.03.125.063.135.068c.082.041.163.081.245.123.114.059.228.121.342.183l.019.01c.069.037.138.073.208.111q.285.156.571.322l124.176,71.693c.107.062.214.126.321.19q.379.225.754.462l.068.041c.349.222.694.453,1.038.69.118.082.234.167.352.25.23.163.459.327.686.5.14.1.279.212.417.319q.308.237.614.481c.15.12.3.242.448.365q.291.241.579.488.229.2.456.4.282.25.562.508.227.208.452.42c.189.179.376.362.563.545.139.136.278.272.415.41.194.2.385.395.577.6.126.132.253.263.379.4.221.237.438.477.655.72.088.1.178.195.266.294q.458.521.906,1.057c.044.053.086.108.131.162q.38.462.753.934.47.6.925,1.214l.015.02h0q.4.549.795,1.11c.083.119.164.239.246.359q.253.369.5.742c.147.222.291.447.435.671.128.2.257.4.384.6.141.228.279.457.417.687s.265.438.394.66c.068.117.135.235.2.353q.25.439.493.883c.059.107.118.212.175.319.122.227.239.456.358.684s.231.44.342.662q.235.469.46.943c.049.1.1.2.147.3q.287.611.557,1.227c.047.108.093.217.14.325q.2.458.385.918.086.21.169.421.176.443.342.886c.048.127.1.253.143.38q.214.581.41,1.164c.012.035.025.071.037.107q.213.635.4,1.271c.041.137.08.275.12.412.085.292.169.584.249.875.044.163.086.325.128.487.07.272.139.545.2.817.038.162.076.323.113.485q.1.421.18.841c.031.148.062.3.091.444q.105.551.195,1.1c.009.052.019.1.027.157q.1.628.175,1.251c.014.117.026.235.039.352q.051.448.091.893c.012.142.023.284.034.427q.031.421.051.841c.007.135.014.269.019.4s.008.28.012.419c.006.256.011.512.01.766l-.848,298.975c0,.412-.012.815-.031,1.213,0,.02,0,.04,0,.06v.011c0,.089-.013.174-.019.263-.016.273-.034.543-.058.809,0,.047-.006.1-.01.141v.021c-.01.1-.025.2-.036.294-.024.225-.051.449-.08.668-.009.064-.014.13-.023.193l0,.028c-.013.088-.031.173-.045.26-.032.2-.067.4-.1.6-.015.078-.025.161-.041.238l-.006.035c-.018.088-.04.169-.059.256-.038.178-.079.354-.121.528-.02.085-.037.173-.059.257l-.01.041c-.027.1-.061.2-.089.307-.058.207-.115.415-.178.616-.007.02-.012.042-.018.062l-.014.044c0,.014-.01.026-.014.039q-.138.426-.3.833c-.007.018-.012.037-.02.056l-.018.048c-.014.036-.031.07-.045.106q-.143.357-.3.7c-.01.021-.018.044-.027.065s-.016.034-.023.051l-.01.02q-.192.409-.4.795l-.028.052q-.217.391-.454.758l-.032.053c-.022.034-.047.064-.069.1q-.184.278-.379.542c-.015.02-.029.042-.044.062l-.038.052c-.025.032-.052.062-.077.094-.124.16-.25.314-.38.465-.024.028-.047.059-.071.087l-.043.051c-.01.012-.022.022-.033.034-.172.193-.349.379-.531.556l-.05.049c-.016.016-.034.029-.051.045q-.248.236-.508.454l-.039.035c-.018.015-.036.032-.055.047s-.064.048-.1.073q-.223.178-.453.344c-.027.02-.053.042-.081.061l-.061.043c-.016.011-.032.02-.048.031-.2.137-.4.268-.613.391l-.042.026h0l14.171-8.235c.223-.13.44-.271.654-.417.064-.044.127-.091.191-.136q.23-.165.453-.343c.063-.051.127-.1.19-.154q.26-.218.508-.453c.026-.026.054-.049.081-.075.189-.183.372-.377.551-.576.05-.056.1-.115.147-.173q.195-.226.38-.465c.053-.069.107-.138.159-.209q.2-.263.379-.542c.033-.049.067-.1.1-.148.009-.013.016-.027.024-.041.152-.238.3-.482.44-.736l0-.006c.136-.248.265-.505.39-.768.009-.02.02-.038.029-.058.021-.045.04-.091.061-.136.1-.228.2-.461.3-.7.028-.07.056-.139.083-.21.019-.049.036-.1.054-.151.084-.224.167-.449.242-.682.016-.048.03-.1.046-.145.034-.109.064-.223.1-.334.028-.094.056-.187.082-.282.055-.2.108-.4.157-.6.019-.08.037-.161.055-.242s.045-.19.066-.286q.056-.261.106-.529c.017-.087.031-.177.046-.266.019-.111.04-.221.058-.333.025-.159.05-.319.072-.481.011-.079.019-.161.029-.241.018-.142.036-.284.051-.428s.034-.3.047-.456c.005-.059.008-.12.013-.18.017-.208.032-.418.045-.63.006-.111.016-.221.021-.334,0-.026,0-.054,0-.08.015-.351.025-.706.027-1.069,0-.022,0-.043,0-.064l.847-298.976C2217.106,507.266,2217.1,506.934,2217.087,506.6Z" transform="translate(-2033.754 -394.763)" fill="#cfd6fd"/>
          </g>
          <path id="Path_3050" data-name="Path 3050" d="M2168.077,1243.672v.038a17.637,17.637,0,0,0,3.131,9.282,16.534,16.534,0,0,0,5.176,5.044c4.594,2.663,8.326.525,8.345-4.744v-.019a15.759,15.759,0,0,0-1.594-6.563,17.808,17.808,0,0,0-6.676-7.763c0-.019-.019-.019-.038-.038-.037-.019-.056-.037-.094-.037C2171.79,1236.3,2168.1,1238.441,2168.077,1243.672Z" transform="translate(-2106.552 -877.867)" fill="#cfd6fd"/>
          <path id="Path_3051" data-name="Path 3051" d="M2171.591,1249.928v.038a16.057,16.057,0,0,0,1.631,6.6,16.53,16.53,0,0,0,5.176,5.044c4.594,2.663,8.325.525,8.344-4.744v-.019a15.763,15.763,0,0,0-1.594-6.563,16.343,16.343,0,0,0-5.175-5.1c0-.019-.019-.019-.038-.019a.251.251,0,0,0-.094-.056,7.507,7.507,0,0,0-3.638-1.088C2173.485,1244.021,2171.61,1246.177,2171.591,1249.928Z" transform="translate(-2108.565 -881.44)" fill="#fff"/>
        </g>
        <g id="Group_871" data-name="Group 871" transform="translate(28.358 186.599)">
          <g id="Group_870" data-name="Group 870" transform="translate(3.798 1.995)">
            <path id="Path_3052" data-name="Path 3052" d="M2115.685,958.619a.363.363,0,0,1-.352-.038,1.048,1.048,0,0,1-.363-.386,126.1,126.1,0,0,1-11.491-27.362,102.711,102.711,0,0,1-4.19-28.154v-.242a60.544,60.544,0,0,1,3.812-22.211c.076-.193.269-.225.475-.107a.9.9,0,0,1,.176.137.984.984,0,0,1,.3.92,59.581,59.581,0,0,0-3.747,21.846c-.05,17.438,5.563,37.406,15.4,54.783C2115.892,958.146,2115.886,958.511,2115.685,958.619Z" transform="translate(-2099.288 -861.456)" fill="#cfd6fd"/>
            <path id="Path_3053" data-name="Path 3053" d="M2234.651,1109.991c-2.825,7.7-7.39,13.505-13.2,16.775a24.943,24.943,0,0,1-14.4,3.029,40.736,40.736,0,0,1-17.116-5.757,72.465,72.465,0,0,1-15.456-12.27.967.967,0,0,1-.285-.918c.079-.185.27-.215.473-.1a.868.868,0,0,1,.184.144,70.707,70.707,0,0,0,15.087,11.98c11.312,6.53,22.251,7.474,30.8,2.654,5.7-3.21,10.177-8.9,12.953-16.471.073-.2.27-.237.479-.116a.825.825,0,0,1,.166.128A.99.99,0,0,1,2234.651,1109.991Z" transform="translate(-2142.194 -992.587)" fill="#cfd6fd"/>
            <path id="Path_3054" data-name="Path 3054" d="M2299.477,982.839v.237c0,.321-.228.45-.508.289a1.114,1.114,0,0,1-.5-.874c.051-18.458-6.118-39.383-16.929-57.409-.2-.338-.211-.71-.019-.833a.353.353,0,0,1,.368.03,1.032,1.032,0,0,1,.347.358C2293.2,942.922,2299.477,964.122,2299.477,982.839Z" transform="translate(-2203.637 -886.763)" fill="#cfd6fd"/>
            <path id="Path_3055" data-name="Path 3055" d="M2173.279,851.822c-.064.22-.266.27-.488.143a.846.846,0,0,1-.138-.1,66.978,66.978,0,0,0-11.332-8.358c-14.374-8.3-27.784-7.539-36.788,2.088a.327.327,0,0,1-.418.009.99.99,0,0,1-.288-.269c-.228-.317-.284-.712-.123-.883a24.468,24.468,0,0,1,16.4-7.88c6.543-.459,13.576,1.423,20.9,5.593l.315.181h0a68.692,68.692,0,0,1,11.607,8.561A1.026,1.026,0,0,1,2173.279,851.822Z" transform="translate(-2113.227 -836.5)" fill="#cfd6fd"/>
            <path id="Path_3056" data-name="Path 3056" d="M2280.926,982.109c-.024,8.575-1.664,16.149-4.743,21.9-2.983,5.576-7.3,9.447-12.492,11.194a.392.392,0,0,1-.315-.054,1.074,1.074,0,0,1-.395-.448c-.174-.352-.135-.7.083-.77,10.5-3.537,16.8-15.651,16.852-32.406.048-16.312-5.622-34.571-15.547-50.095-.212-.331-.237-.713-.054-.852a.339.339,0,0,1,.385.018.993.993,0,0,1,.328.329,106.275,106.275,0,0,1,11.608,24.858A86.842,86.842,0,0,1,2280.926,982.109Z" transform="translate(-2193.031 -890.382)" fill="#cfd6fd"/>
            <path id="Path_3057" data-name="Path 3057" d="M2192.387,875.6c-.06.225-.265.28-.489.15a.787.787,0,0,1-.131-.1,55.115,55.115,0,0,0-8.835-6.426c-7.363-4.251-14.54-5.677-20.757-4.122a.4.4,0,0,1-.294-.061,1.063,1.063,0,0,1-.411-.478c-.162-.355-.109-.689.118-.746,6.389-1.6,13.77-.13,21.348,4.246a56.571,56.571,0,0,1,9.094,6.615A1.037,1.037,0,0,1,2192.387,875.6Z" transform="translate(-2134.868 -851.795)" fill="#cfd6fd"/>
            <path id="Path_3058" data-name="Path 3058" d="M2126.948,946.077a.41.41,0,0,1-.286-.064,1.077,1.077,0,0,1-.417-.494,102.743,102.743,0,0,1-6.162-18.462,82.722,82.722,0,0,1-2.186-18.6c.031-10.787,2.542-19.711,7.261-25.812.1-.124.262-.127.434-.029a.97.97,0,0,1,.264.238.83.83,0,0,1,.164.9c-4.622,5.972-7.08,14.717-7.11,25.288-.033,11.554,2.793,24.11,8.171,36.309C2127.239,945.7,2127.179,946.029,2126.948,946.077Z" transform="translate(-2109.952 -862.885)" fill="#cfd6fd"/>
            <path id="Path_3059" data-name="Path 3059" d="M2189.052,1090.5a37.7,37.7,0,0,1-10.111-4.147c-8.678-5.01-16.923-13.358-23.841-24.141-.212-.331-.237-.712-.056-.853a.343.343,0,0,1,.386.018,1,1,0,0,1,.327.328c6.734,10.493,14.751,18.615,23.188,23.485a36.658,36.658,0,0,0,9.82,4.029.581.581,0,0,1,.146.058,1.128,1.128,0,0,1,.483.7C2189.472,1090.33,2189.318,1090.566,2189.052,1090.5Z" transform="translate(-2131.17 -965.331)" fill="#cfd6fd"/>
            <path id="Path_3060" data-name="Path 3060" d="M2208.151,1067.671a16.022,16.022,0,0,1-10.165,3.289,25.915,25.915,0,0,1-12.515-3.857c-6.944-4.009-13.526-10.706-19.033-19.363-.212-.332-.233-.714-.05-.851a.342.342,0,0,1,.384.02,1,1,0,0,1,.33.331c5.322,8.367,11.675,14.834,18.375,18.7,8.3,4.792,16.079,4.98,21.908.534a.341.341,0,0,1,.385.019.988.988,0,0,1,.329.328C2208.31,1067.151,2208.333,1067.533,2208.151,1067.671Z" transform="translate(-2137.669 -957.036)" fill="#cfd6fd"/>
            <path id="Path_3061" data-name="Path 3061" d="M2275.386,999.706c-.02,7.149-1.453,13.381-4.144,18.021-.089.154-.268.169-.454.061a1.018,1.018,0,0,1-.45-1.1c2.621-4.519,4.017-10.594,4.037-17.565a71.357,71.357,0,0,0-6.51-28.736c-.157-.355-.1-.684.133-.733a.4.4,0,0,1,.286.061,1.084,1.084,0,0,1,.415.492,81.341,81.341,0,0,1,4.935,14.69A65.334,65.334,0,0,1,2275.386,999.706Z" transform="translate(-2195.843 -912.801)" fill="#cfd6fd"/>
            <path id="Path_3062" data-name="Path 3062" d="M2219.34,913.766a.332.332,0,0,1-.406,0,.977.977,0,0,1-.3-.289c-4.945-7.1-10.7-12.659-16.634-16.088a29.794,29.794,0,0,0-6.67-2.891.535.535,0,0,1-.125-.054,1.131,1.131,0,0,1-.489-.722c-.067-.351.1-.572.368-.495a30.848,30.848,0,0,1,6.919,3c6.156,3.553,12.115,9.316,17.237,16.665C2219.463,913.212,2219.507,913.6,2219.34,913.766Z" transform="translate(-2153.965 -868.999)" fill="#cfd6fd"/>
            <path id="Path_3063" data-name="Path 3063" d="M2152.68,893.806c-8.859,2.349-14.172,11.982-14.211,25.766a69.685,69.685,0,0,0,4.675,24.251c.134.359.045.663-.2.676a.456.456,0,0,1-.245-.067,1.12,1.12,0,0,1-.442-.556,71.555,71.555,0,0,1-4.8-24.888c.02-7.052,1.417-13.221,4.039-17.838a17.328,17.328,0,0,1,10.59-8.626.4.4,0,0,1,.3.058,1.089,1.089,0,0,1,.41.473C2152.957,893.411,2152.907,893.746,2152.68,893.806Z" transform="translate(-2121.161 -868.6)" fill="#cfd6fd"/>
            <path id="Path_3064" data-name="Path 3064" d="M2250.49,986.8c-.021,7.661-2.259,13.659-6.3,16.892a.341.341,0,0,1-.389-.015,1,1,0,0,1-.324-.322c-.214-.329-.241-.711-.063-.856,3.887-3.112,6.041-8.894,6.063-16.284.027-9.5-3.523-20.43-9.493-29.23-.22-.325-.258-.713-.087-.869a.335.335,0,0,1,.4.007.976.976,0,0,1,.309.3C2246.823,965.587,2250.519,976.943,2250.49,986.8Z" transform="translate(-2179.805 -905.013)" fill="#cfd6fd"/>
            <path id="Path_3065" data-name="Path 3065" d="M2200.26,929.328c-.07.208-.27.25-.485.125a.812.812,0,0,1-.151-.114,31.613,31.613,0,0,0-5.827-4.406c-4.512-2.6-8.844-3.3-12.531-2.015a.384.384,0,0,1-.316-.053,1.063,1.063,0,0,1-.394-.445c-.176-.351-.14-.7.078-.773,3.868-1.35,8.42-.616,13.166,2.123a33.256,33.256,0,0,1,6.132,4.638A1.012,1.012,0,0,1,2200.26,929.328Z" transform="translate(-2145.796 -884.917)" fill="#cfd6fd"/>
            <path id="Path_3066" data-name="Path 3066" d="M2163.218,933.047c-2.6,3.341-3.983,8.244-4,14.177a47.113,47.113,0,0,0,2.029,13.376c.105.358-.019.626-.278.6a.5.5,0,0,1-.193-.067,1.118,1.118,0,0,1-.467-.63,48.793,48.793,0,0,1-2.1-13.861c.017-6.147,1.453-11.231,4.152-14.7a.317.317,0,0,1,.431-.028.955.955,0,0,1,.265.241A.821.821,0,0,1,2163.218,933.047Z" transform="translate(-2133.052 -891.138)" fill="#cfd6fd"/>
            <path id="Path_3067" data-name="Path 3067" d="M2199.923,1041.438c-3.546.756-7.618-.113-11.775-2.513-6.6-3.81-12.857-11.173-17.168-20.2-.169-.352-.124-.693.1-.759a.394.394,0,0,1,.306.057,1.078,1.078,0,0,1,.4.461c4.118,8.625,10.084,15.651,16.366,19.277,3.95,2.282,7.823,3.108,11.2,2.388a.413.413,0,0,1,.287.063,1.075,1.075,0,0,1,.416.494C2200.212,1041.06,2200.152,1041.389,2199.923,1041.438Z" transform="translate(-2140.313 -940.484)" fill="#cfd6fd"/>
            <path id="Path_3068" data-name="Path 3068" d="M2215.067,979.493c0,.321-.228.451-.508.289a1.115,1.115,0,0,1-.5-.874c.026-8.923-5.456-19.359-12.221-23.265a8.85,8.85,0,0,0-6.5-1.3.413.413,0,0,1-.3-.061,1.073,1.073,0,0,1-.411-.479c-.163-.355-.108-.689.118-.746a9.661,9.661,0,0,1,7.095,1.42C2209.158,958.71,2215.094,969.93,2215.067,979.493Z" transform="translate(-2153.867 -903.179)" fill="#cfd6fd"/>
            <path id="Path_3069" data-name="Path 3069" d="M2182.883,979.559a.44.44,0,0,1-.231-.068,1.1,1.1,0,0,1-.449-.576,29.543,29.543,0,0,1-1.777-9.773,15.3,15.3,0,0,1,1.688-7.457c.089-.155.27-.171.457-.065a.94.94,0,0,1,.222.188.907.907,0,0,1,.229.912,14.378,14.378,0,0,0-1.585,7.006,27.769,27.769,0,0,0,1.667,9.177C2183.231,979.262,2183.131,979.556,2182.883,979.559Z" transform="translate(-2145.785 -908.162)" fill="#cfd6fd"/>
            <path id="Path_3070" data-name="Path 3070" d="M2219.707,1036.9c-2.46,1.509-5.645,1.285-8.97-.635a1.106,1.106,0,0,1-.5-.873c0-.322.227-.452.506-.291,3.047,1.76,5.974,1.962,8.241.57a.354.354,0,0,1,.365.033,1.009,1.009,0,0,1,.349.365C2219.9,1036.4,2219.9,1036.776,2219.707,1036.9Z" transform="translate(-2162.867 -950.269)" fill="#cfd6fd"/>
          </g>
          <path id="Path_3071" data-name="Path 3071" d="M2272.482,1009.208v.017a8.045,8.045,0,0,0,1.428,4.235,7.545,7.545,0,0,0,2.361,2.3c2.1,1.215,3.8.24,3.807-2.165v-.009a7.191,7.191,0,0,0-.727-2.994,8.123,8.123,0,0,0-3.046-3.542c0-.009-.009-.009-.017-.017s-.026-.017-.042-.017C2274.176,1005.845,2272.49,1006.82,2272.482,1009.208Z" transform="translate(-2194.74 -931.937)" fill="#cfd6fd"/>
          <path id="Path_3072" data-name="Path 3072" d="M2090.391,947.311v.017a8.047,8.047,0,0,0,1.429,4.235,7.545,7.545,0,0,0,2.361,2.3c2.1,1.215,3.8.24,3.807-2.164v-.009a7.19,7.19,0,0,0-.727-2.994,8.126,8.126,0,0,0-3.045-3.542c0-.008-.009-.008-.018-.017s-.026-.017-.042-.017C2092.085,943.948,2090.4,944.924,2090.391,947.311Z" transform="translate(-2090.391 -896.466)" fill="#cfd6fd"/>
          <path id="Path_3073" data-name="Path 3073" d="M2281.379,1136.162v.017a8.045,8.045,0,0,0,1.428,4.235,7.544,7.544,0,0,0,2.361,2.3c2.1,1.215,3.8.24,3.807-2.164v-.008a7.191,7.191,0,0,0-.727-2.995,8.131,8.131,0,0,0-3.046-3.542c0-.009-.009-.009-.017-.017s-.025-.017-.043-.017C2283.073,1132.8,2281.387,1133.776,2281.379,1136.162Z" transform="translate(-2199.839 -1004.69)" fill="#cfd6fd"/>
          <path id="Path_3074" data-name="Path 3074" d="M2172.9,960.9v.017a8.044,8.044,0,0,0,1.429,4.235,7.54,7.54,0,0,0,2.361,2.3c2.1,1.215,3.8.24,3.807-2.164v-.009a7.194,7.194,0,0,0-.727-2.994,8.121,8.121,0,0,0-3.046-3.542c0-.009-.008-.009-.017-.017s-.025-.017-.042-.017C2174.6,957.537,2172.914,958.513,2172.9,960.9Z" transform="translate(-2137.677 -904.254)" fill="#cfd6fd"/>
          <path id="Path_3075" data-name="Path 3075" d="M2123.613,1044.4v.017a8.043,8.043,0,0,0,1.428,4.235,7.543,7.543,0,0,0,2.362,2.3c2.1,1.215,3.8.24,3.807-2.165v-.008a7.2,7.2,0,0,0-.727-2.995,8.125,8.125,0,0,0-3.046-3.542c0-.009-.009-.009-.017-.017s-.026-.017-.043-.017C2125.307,1041.042,2123.622,1042.017,2123.613,1044.4Z" transform="translate(-2109.429 -952.107)" fill="#cfd6fd"/>
          <path id="Path_3076" data-name="Path 3076" d="M2114.716,904.03v.018a8.046,8.046,0,0,0,1.428,4.235,7.543,7.543,0,0,0,2.362,2.3c2.1,1.215,3.8.24,3.807-2.165v-.008a7.191,7.191,0,0,0-.727-2.994,8.122,8.122,0,0,0-3.046-3.542c0-.009-.009-.009-.017-.017s-.026-.017-.043-.017C2116.41,900.668,2114.725,901.643,2114.716,904.03Z" transform="translate(-2104.331 -871.664)" fill="#cfd6fd"/>
          <path id="Path_3077" data-name="Path 3077" d="M2185.383,834.512v.017a8.045,8.045,0,0,0,1.428,4.235,7.551,7.551,0,0,0,2.362,2.3c2.1,1.215,3.8.24,3.807-2.164v-.009a7.193,7.193,0,0,0-.727-2.995,8.128,8.128,0,0,0-3.046-3.541c0-.009-.009-.009-.017-.017s-.026-.018-.042-.018C2187.077,831.15,2185.392,832.125,2185.383,834.512Z" transform="translate(-2144.827 -831.826)" fill="#cfd6fd"/>
          <path id="Path_3078" data-name="Path 3078" d="M2203.127,1086.764v.017a8.045,8.045,0,0,0,1.429,4.235,7.543,7.543,0,0,0,2.361,2.3c2.1,1.215,3.8.24,3.807-2.164v-.008a7.193,7.193,0,0,0-.727-2.995,8.128,8.128,0,0,0-3.046-3.542c0-.009-.009-.009-.017-.017s-.026-.017-.042-.017C2204.821,1083.4,2203.135,1084.376,2203.127,1086.764Z" transform="translate(-2154.996 -976.382)" fill="#cfd6fd"/>
        </g>
        <g id="Group_872" data-name="Group 872" transform="translate(72.802 130.393)">
          <path id="Path_3079" data-name="Path 3079" d="M2217.053,727.543c0-.05-.005-.1-.009-.148,0-.014,0-.028,0-.042,0-.042-.006-.084-.011-.126s-.01-.1-.017-.148-.017-.125-.027-.186c0-.005,0-.01,0-.017-.011-.071-.024-.141-.038-.213s-.031-.148-.048-.223-.032-.13-.049-.195c0-.01,0-.019-.007-.028-.021-.075-.041-.149-.064-.225s-.045-.141-.068-.213-.053-.155-.083-.233-.056-.148-.087-.222-.06-.146-.093-.22-.065-.145-.1-.218-.084-.175-.128-.26c-.021-.042-.043-.085-.066-.127-.089-.167-.184-.331-.284-.492-.036-.059-.073-.117-.111-.175s-.088-.134-.134-.2h0c-.046-.067-.092-.131-.14-.2s-.075-.1-.115-.15c-.119-.155-.243-.3-.37-.445-.034-.04-.069-.078-.1-.115l-.027-.028c-.05-.054-.1-.107-.153-.158q-.164-.164-.336-.315c-.065-.057-.132-.112-.2-.166-.043-.036-.088-.07-.132-.1-.065-.05-.13-.1-.2-.144q-.18-.124-.366-.232l-13.781-7.956.023-8.106c.011-3.738,2.667-5.251,5.92-3.372a12.985,12.985,0,0,1,5.883,10.188l-.015,5.148.905.521.014-5.148c0-.146,0-.295-.009-.444q-.009-.184-.022-.37c0-.024-.005-.048-.007-.073-.009-.1-.019-.191-.029-.287l0-.029c-.01-.087-.022-.175-.034-.261l-.015-.108c0-.014,0-.027-.007-.041-.014-.092-.029-.183-.046-.275-.012-.07-.026-.142-.041-.212-.018-.093-.037-.185-.059-.278-.024-.113-.051-.227-.08-.342-.019-.075-.039-.152-.059-.227-.035-.134-.074-.268-.114-.4-.055-.183-.115-.366-.177-.548l-.069-.2c-.015-.043-.03-.085-.047-.127-.005-.013-.01-.027-.015-.041-.047-.128-.1-.254-.148-.381-.028-.07-.057-.139-.087-.209q-.136-.323-.287-.641c-.03-.064-.06-.126-.092-.19-.043-.089-.088-.178-.134-.266-.032-.062-.064-.123-.1-.186-.041-.079-.083-.157-.126-.235s-.078-.141-.118-.211-.084-.147-.128-.221c-.128-.219-.262-.436-.4-.648l-.126-.19q-.135-.2-.279-.4c-.031-.043-.061-.085-.093-.127s-.08-.111-.122-.166c-.056-.075-.114-.15-.172-.224l-.069-.089c-.009-.012-.017-.022-.026-.032-.117-.146-.236-.291-.357-.432-.048-.058-.1-.114-.148-.169s-.121-.137-.182-.2-.124-.134-.186-.2-.125-.13-.189-.193-.127-.128-.191-.19a.144.144,0,0,1-.016-.017c-.123-.119-.248-.234-.374-.347-.064-.056-.127-.112-.19-.167l-.015-.013c-.065-.055-.13-.11-.2-.163s-.106-.088-.162-.13l-.079-.063-.128-.1c-.075-.057-.152-.113-.229-.167l-.016-.012q-.113-.08-.226-.157l-.172-.114c-.052-.034-.106-.067-.159-.1-.023-.015-.047-.031-.071-.045l-.071-.042-.027-.017-.018-.01-.043-.026-.041-.023c-.07-.039-.139-.078-.208-.114-.09-.049-.181-.1-.27-.138-.045-.023-.088-.043-.132-.064l-.031-.014c-.061-.028-.122-.056-.182-.082l-.094-.041-.076-.031c-.038-.015-.077-.031-.115-.044l-.113-.042c-.075-.028-.149-.053-.224-.076l-.031-.009c-.031-.012-.061-.021-.092-.03-.062-.019-.125-.035-.187-.052s-.124-.032-.187-.046c-.1-.023-.2-.042-.3-.059l-.107-.017c-.092-.014-.184-.024-.274-.032l-.082-.006-.1-.006c-.069,0-.138-.005-.205-.005s-.129,0-.192.005-.116.006-.173.012l-.042,0-.162.02c-.062.009-.122.019-.184.032s-.114.024-.172.038l-.015,0c-.047.011-.094.025-.142.039l-.029.009c-.056.017-.111.036-.165.056s-.112.042-.166.067-.1.044-.15.069a3.192,3.192,0,0,0-.35.2c-.039.026-.079.053-.117.081s-.1.07-.142.108-.092.075-.136.116-.083.075-.122.115a.159.159,0,0,0-.014.014c-.041.041-.082.084-.121.127s-.085.1-.127.15-.082.1-.121.158h0c-.039.053-.078.109-.115.167s-.073.116-.108.176h0c-.026.043-.051.088-.074.134s-.035.065-.051.1-.048.1-.07.145c-.06.133-.116.27-.166.413-.025.072-.048.146-.071.219s-.043.15-.064.227-.04.156-.056.236c-.009.043-.019.088-.027.132-.011.061-.023.123-.033.186-.006.034-.013.069-.017.1-.009.058-.017.118-.024.178s-.013.1-.018.153c-.009.088-.017.177-.023.268s-.012.181-.014.274-.005.187-.005.283l-.022,8.1-.663-.383c-1.981-1.143-3.59-.224-3.6,2.051l-.041,14.067-.01,3.567v.018a7.881,7.881,0,0,0,3.563,6.166.072.072,0,0,0,.011.008l15.347,8.861.015.009c1.973,1.129,3.575.209,3.583-2.06l.05-17.636v-.014C2217.059,727.686,2217.057,727.615,2217.053,727.543Zm-9,6.506.754,7.719-6.123-3.534.8-6.824a8.592,8.592,0,0,1-1.726-4.805c.008-2.553,1.815-3.583,4.037-2.3a8.839,8.839,0,0,1,4.01,6.945C2209.795,732.826,2209.1,733.821,2208.053,734.05Z" transform="translate(-2194.489 -700.176)" fill="#cfd6fd"/>
        </g>
      </g>
      <g id="Group_880" data-name="Group 880" transform="translate(-3142.874 4620.323)">
        <g id="Group_874" data-name="Group 874" transform="translate(0 37.026)">
          <path id="Path_3081" data-name="Path 3081" d="M2245.039,1500.934c.007.09.021.181.033.271s.019.172.033.258.037.18.055.27.033.172.055.257.052.179.078.269.048.171.076.256.067.177.1.266.061.171.1.255.082.176.123.264.076.168.119.251.1.179.149.268.088.161.136.242.115.178.173.266.1.158.156.237.133.177.2.265.112.154.173.23.148.174.223.26.126.152.195.226.163.17.246.255.139.148.214.221.186.173.28.259c.075.069.146.139.224.207.1.088.208.173.312.259.079.064.154.131.236.195.113.089.234.176.352.263.08.059.156.12.24.179.145.1.3.2.452.3.062.041.12.083.183.123.22.14.446.277.68.413l55.071,31.795c.449.259.915.5,1.4.729.16.075.328.141.491.213.333.148.666.3,1.011.43.109.042.22.08.33.121q.569.21,1.156.395c.134.042.267.085.4.125.249.074.5.136.756.2.391.1.783.2,1.183.29.26.057.523.109.787.159.335.064.671.123,1.01.176q.423.066.849.12.474.06.951.106.438.042.879.073c.321.022.642.039.965.052.29.011.579.02.87.024.349,0,.7,0,1.045,0,.274-.005.548-.011.822-.023.431-.019.859-.05,1.287-.086.255-.021.511-.037.764-.064.128-.014.255-.03.383-.046q.664-.079,1.318-.186c.107-.017.215-.033.322-.051.26-.046.514-.1.77-.156.352-.071.7-.141,1.049-.224.253-.061.5-.133.748-.2.329-.089.658-.178.979-.279.462-.146.92-.3,1.364-.468.054-.021.107-.045.161-.066.416-.162.821-.336,1.218-.52.117-.054.233-.108.348-.164.44-.213.871-.434,1.283-.674q.346-.2.67-.41c.04-.026.077-.053.117-.079l.106-.072c.136-.091.274-.181.4-.274.04-.028.076-.057.115-.085l.113-.085c.119-.089.241-.177.356-.268.038-.031.073-.062.111-.093l.123-.1c.1-.085.208-.169.306-.255.037-.033.071-.067.107-.1l.119-.111c.091-.084.184-.167.27-.252s.144-.149.216-.224.162-.165.238-.248.133-.156.2-.233.145-.166.211-.25l.019-.024c.042-.053.079-.107.119-.16l.038-.05c.065-.086.132-.171.192-.257.014-.02.026-.041.04-.061.041-.06.078-.12.117-.181.056-.085.114-.171.166-.257.021-.034.037-.068.057-.1.028-.049.055-.1.082-.146.048-.086.1-.172.142-.258.019-.037.034-.074.052-.111s.042-.09.064-.136c.041-.088.084-.176.122-.265.018-.043.031-.086.048-.129s.031-.08.046-.12c.033-.09.07-.179.1-.269.014-.044.025-.088.039-.133s.022-.077.034-.115c.026-.091.055-.182.078-.272.012-.047.019-.094.03-.141s.015-.073.023-.109c.019-.091.04-.183.055-.274.009-.051.012-.1.02-.154,0-.032.008-.064.012-.1.012-.092.025-.184.032-.276,0-.055,0-.11.007-.165,0-.029,0-.058,0-.088.12-2.919-1.746-5.864-5.6-8.091l-55.071-31.8c-7.452-4.3-19.5-4.3-26.9,0-3.687,2.143-5.526,4.951-5.522,7.761,0,.09.007.181.01.272S2245.032,1500.848,2245.039,1500.934Z" transform="translate(-2244.762 -1489.416)" fill="#8b8bc7"/>
          <path id="Path_3082" data-name="Path 3082" d="M2337.773,1547.24c0,.029,0,.058,0,.088,0,.055,0,.11-.007.165-.007.092-.021.184-.032.276,0,.032-.008.064-.012.1-.007.051-.011.1-.02.154-.015.091-.036.183-.055.274-.008.036-.014.073-.022.109s-.018.094-.029.141c-.023.091-.052.181-.078.272-.011.038-.022.077-.034.115s-.024.089-.039.133c-.03.09-.066.179-.1.269-.015.04-.03.08-.045.12s-.031.086-.049.129c-.037.089-.081.176-.122.265-.021.045-.042.09-.064.136s-.033.075-.052.111c-.044.087-.094.173-.142.258-.027.048-.053.1-.082.146s-.036.068-.057.1c-.052.086-.111.172-.166.257-.039.06-.076.121-.117.181-.014.021-.026.041-.04.061-.061.086-.127.172-.192.257l-.038.05c-.04.053-.078.107-.12.16l-.018.024c-.067.084-.141.167-.211.25s-.13.156-.2.233-.158.166-.238.249-.14.15-.215.224-.18.168-.27.252l-.119.111c-.037.033-.07.067-.107.1-.1.086-.2.17-.306.255l-.123.1c-.038.031-.073.062-.111.093-.115.09-.237.178-.356.268l-.113.084c-.039.028-.075.058-.115.085-.129.093-.267.183-.4.274l-.106.072c-.041.026-.077.053-.118.079q-.324.209-.67.409c-.412.24-.843.461-1.283.674-.115.056-.231.11-.348.164-.4.184-.8.358-1.218.52-.055.021-.107.045-.161.066-.445.169-.9.322-1.365.468-.321.1-.649.19-.979.279-.249.068-.495.14-.747.2-.346.084-.7.153-1.049.225-.257.052-.51.111-.77.156-.107.018-.215.034-.322.051q-.654.107-1.318.186c-.128.015-.254.032-.383.046-.253.027-.509.043-.764.064-.428.036-.856.067-1.287.086-.274.012-.548.017-.822.023-.349.006-.7.01-1.045,0-.29,0-.58-.012-.87-.024-.323-.013-.644-.029-.965-.052q-.441-.031-.878-.073-.478-.046-.951-.106-.427-.055-.849-.12c-.339-.053-.675-.112-1.01-.176-.263-.05-.526-.1-.786-.159-.4-.088-.792-.186-1.183-.29-.252-.067-.507-.129-.756-.2-.135-.04-.268-.083-.4-.125q-.587-.185-1.156-.394c-.11-.041-.221-.079-.33-.121-.345-.134-.678-.281-1.011-.43-.163-.072-.331-.138-.491-.214-.48-.228-.946-.469-1.4-.729l-55.071-31.795q-.351-.2-.68-.413c-.062-.04-.121-.082-.183-.123-.153-.1-.306-.2-.452-.3-.083-.058-.159-.119-.239-.178-.119-.087-.239-.174-.353-.263-.082-.064-.157-.13-.236-.195-.1-.086-.212-.172-.312-.259-.078-.068-.149-.138-.224-.207-.094-.086-.19-.172-.28-.259s-.143-.147-.214-.221-.168-.169-.246-.255-.13-.151-.195-.226-.152-.173-.223-.26-.115-.153-.173-.23-.136-.176-.2-.265-.1-.158-.156-.237-.119-.177-.173-.266-.091-.161-.136-.241-.1-.178-.149-.268-.079-.167-.119-.251-.085-.175-.123-.264-.065-.17-.1-.255-.07-.177-.1-.266-.051-.17-.076-.256-.056-.179-.078-.269-.037-.171-.055-.257-.04-.18-.055-.27-.023-.172-.033-.259-.026-.181-.033-.271-.009-.172-.012-.258-.01-.181-.011-.272c0-.009,0-.018,0-.028l-.253,75.436c-.008,2.838,1.865,5.681,5.615,7.846l55.07,31.795c.449.259.916.5,1.4.728.16.076.329.141.491.214.282.125.566.249.857.365.052.021.1.045.153.065.109.042.221.08.33.12q.569.211,1.158.4c.133.042.265.084.4.124.088.026.181.047.27.073.161.046.325.088.488.131.39.1.783.2,1.182.29.1.023.21.042.315.064.157.032.314.065.473.1.334.064.67.123,1.008.175.134.021.27.038.4.057s.3.044.446.063q.473.06.95.106c.151.015.3.026.454.038s.283.026.425.035q.481.033.965.052c.161.006.323.009.484.013.129,0,.258.009.387.011.348,0,.695,0,1.042,0,.174,0,.346-.009.52-.015.1,0,.2,0,.305-.008.431-.019.859-.05,1.287-.086.172-.014.346-.026.518-.043.081-.008.164-.012.245-.021.129-.014.257-.031.385-.046q.662-.079,1.315-.186c.107-.017.217-.033.324-.052.053-.009.1-.022.157-.032.206-.037.408-.083.613-.124.352-.071.7-.141,1.05-.224.253-.062.5-.134.748-.2.329-.089.658-.178.979-.28.071-.022.14-.049.211-.072.389-.126.778-.252,1.154-.4.053-.021.1-.044.158-.064.417-.162.823-.337,1.221-.521.117-.054.233-.108.348-.164.439-.213.871-.434,1.283-.673.08-.047.154-.1.232-.142s.139-.084.208-.127c.117-.073.233-.146.347-.219s.2-.136.3-.2.217-.15.322-.226.19-.141.283-.212.2-.155.3-.233.177-.146.263-.219.184-.158.273-.239c.038-.035.075-.07.113-.105l.1-.088q.224-.213.431-.429c.046-.048.094-.1.139-.145.175-.19.34-.382.494-.576l.021-.028c.034-.043.065-.087.1-.131.093-.123.184-.245.269-.369.047-.068.089-.136.133-.2.072-.112.142-.224.208-.337.02-.034.038-.068.057-.1s.048-.085.071-.128c.052-.1.1-.19.148-.286q.058-.119.112-.24c.042-.1.083-.193.122-.289.019-.047.037-.1.054-.143s.026-.068.039-.1c.032-.091.062-.183.091-.275s.051-.168.073-.252.047-.185.068-.277c.013-.058.025-.117.037-.175,0-.025.011-.051.016-.076.018-.095.032-.19.045-.285s.023-.167.031-.251.015-.191.02-.286.012-.189.013-.283c0-.017,0-.035,0-.053l.253-75.437C2337.784,1547.076,2337.776,1547.158,2337.773,1547.24Z" transform="translate(-2244.422 -1504.127)" fill="#4949a8"/>
        </g>
        <g id="Group_875" data-name="Group 875" transform="translate(19.931 81.422)">
          <path id="Path_3083" data-name="Path 3083" d="M2310.594,1623.919l3.337,26.99-15.74-9.085-1.9-1.1-4.205-2.43,3.47-23.063a25.131,25.131,0,0,1-4.449-13.27v-.06c.02-7.582,5.37-10.654,11.958-6.9a.363.363,0,0,1,.086.046.176.176,0,0,1,.046.027,19.9,19.9,0,0,1,3.543,2.682.006.006,0,0,1,.006.006c4.854,4.549,8.363,11.786,8.363,17.951v.053C2315.1,1620.1,2313.335,1622.965,2310.594,1623.919Z" transform="translate(-2291.106 -1593.402)" fill="#50508c"/>
          <path id="Path_3084" data-name="Path 3084" d="M2318.726,1629.077l3.337,26.99-15.74-9.085,3.423-22.746a25.152,25.152,0,0,1-4.449-13.27v-.059c.02-6.642,4.125-9.827,9.575-7.992a.006.006,0,0,1,.006.006c4.854,4.549,8.363,11.786,8.363,17.951v.053C2323.229,1625.262,2321.467,1628.123,2318.726,1629.077Z" transform="translate(-2299.238 -1598.559)" fill="#03293a"/>
        </g>
        <g id="Group_879" data-name="Group 879" transform="translate(16.65 0)">
          <g id="Group_878" data-name="Group 878" style="isolation: isolate">
            <g id="Group_876" data-name="Group 876" transform="translate(4.869)">
              <path id="Path_3085" data-name="Path 3085" d="M2301.277,1424.814c-.221.129-.436.268-.647.412-.064.044-.126.09-.189.135q-.227.163-.445.337c-.064.051-.128.1-.19.155q-.253.211-.494.441c-.029.027-.06.053-.089.081-.187.181-.367.372-.544.569-.049.055-.1.113-.145.169q-.192.224-.376.459c-.053.069-.107.138-.159.209q-.189.255-.368.524c-.035.053-.071.1-.106.157l-.033.049c-.132.207-.257.421-.38.64-.015.027-.031.052-.047.078q-.207.376-.4.774c0,.011-.009.022-.014.033-.167.355-.322.725-.466,1.105-.013.035-.029.066-.042.1-.032.088-.058.182-.089.271-.079.225-.156.453-.228.686-.02.064-.044.124-.062.189-.026.087-.045.18-.07.268q-.081.293-.155.593c-.021.084-.045.164-.065.249s-.035.182-.055.271q-.055.257-.1.519c-.017.092-.038.18-.055.274s-.031.213-.048.318c-.024.157-.048.314-.07.473-.011.083-.027.163-.037.247-.017.134-.028.275-.042.412s-.033.3-.047.449c-.006.062-.014.122-.019.184-.017.2-.026.408-.038.613-.006.11-.015.217-.02.327,0,.028,0,.055,0,.083q-.023.515-.025,1.049v.062l-.09,31.808,6.909-4.015.09-31.807c0-.406.013-.8.03-1.194,0-.111.014-.218.02-.327.016-.269.034-.536.057-.8.014-.152.031-.3.047-.449.024-.222.05-.442.079-.659.022-.159.046-.316.071-.473q.047-.3.1-.591c.033-.175.067-.349.1-.52s.078-.348.119-.52q.073-.3.155-.594c.043-.154.086-.306.132-.457.071-.233.148-.461.228-.686.044-.124.086-.25.132-.371.145-.381.3-.751.466-1.106.13-.276.267-.546.41-.806.016-.029.034-.055.05-.083.131-.234.268-.463.41-.684.034-.053.071-.1.106-.157q.179-.269.368-.524c.053-.07.105-.14.159-.208q.184-.237.376-.46c.048-.056.1-.114.145-.169.176-.2.357-.387.544-.569.028-.028.059-.053.087-.08q.242-.229.495-.441c.062-.052.126-.1.19-.154q.219-.175.446-.338c.063-.045.125-.091.188-.135.211-.144.426-.284.647-.412h0Z" transform="translate(-2294.824 -1413.068)" fill="#e7e9ff"/>
              <path id="Path_3086" data-name="Path 3086" d="M2354.283,1451.157c0-.076-.008-.154-.011-.231-.006-.161-.015-.323-.023-.485-.01-.19-.015-.378-.027-.568-.009-.149-.024-.3-.035-.447-.013-.17-.025-.341-.041-.512-.01-.111-.016-.221-.026-.333-.024-.251-.055-.5-.084-.755-.016-.137-.028-.274-.046-.411-.005-.045-.009-.09-.015-.135q-.085-.665-.19-1.335c0-.013,0-.026-.006-.039-.012-.076-.027-.152-.04-.228-.059-.359-.119-.717-.186-1.077-.013-.07-.029-.141-.043-.212-.034-.18-.073-.36-.11-.54-.043-.213-.083-.424-.129-.637-.027-.125-.059-.251-.088-.377q-.066-.291-.136-.582c-.035-.146-.066-.291-.1-.436-.045-.185-.1-.37-.146-.555s-.1-.388-.153-.582c-.025-.092-.047-.184-.073-.276-.073-.264-.154-.529-.231-.793-.048-.162-.093-.324-.142-.486-.013-.043-.025-.086-.038-.129q-.211-.69-.442-1.38l-.01-.027c-.021-.061-.043-.122-.063-.183-.13-.384-.263-.768-.4-1.151-.024-.068-.051-.135-.076-.2-.057-.155-.116-.31-.175-.465-.08-.213-.157-.426-.24-.639-.056-.142-.115-.285-.172-.427q-.1-.255-.2-.509c-.049-.12-.1-.24-.145-.36-.1-.252-.215-.5-.323-.753-.056-.13-.11-.26-.167-.389-.02-.045-.038-.09-.058-.134q-.286-.648-.588-1.291c-.009-.019-.019-.038-.028-.057-.06-.127-.124-.253-.184-.38-.155-.325-.309-.65-.47-.972-.026-.052-.054-.1-.08-.155-.135-.27-.276-.536-.416-.8-.111-.214-.218-.43-.332-.643-.021-.039-.044-.077-.065-.117q-.557-1.037-1.153-2.055c-.034-.058-.064-.117-.1-.174-.1-.17-.206-.336-.307-.505-.169-.283-.339-.565-.513-.845-.151-.243-.305-.484-.46-.725-.176-.276-.353-.551-.534-.824-.061-.093-.119-.187-.181-.279s-.116-.163-.173-.247c-.49-.726-.99-1.444-1.508-2.146l-.007-.01c-.048-.065-.1-.127-.146-.192q-.482-.649-.978-1.284c-.019-.024-.037-.05-.056-.074-.257-.327-.52-.647-.782-.968-.077-.093-.151-.189-.227-.281l-.018-.022q-.508-.611-1.029-1.2l-.045-.05c-.1-.115-.2-.225-.306-.339-.228-.255-.455-.511-.686-.76-.04-.043-.081-.083-.121-.126-.15-.161-.3-.318-.455-.476-.172-.18-.342-.363-.516-.54-.061-.062-.123-.12-.183-.181-.166-.167-.333-.33-.5-.495-.147-.144-.292-.293-.441-.436-.079-.076-.161-.149-.24-.224-.18-.171-.362-.338-.544-.505-.129-.119-.256-.242-.386-.359-.1-.088-.2-.17-.293-.256q-.273-.242-.549-.479c-.114-.1-.227-.2-.341-.3s-.239-.194-.358-.292q-.269-.223-.54-.441c-.1-.077-.19-.158-.286-.234-.149-.118-.3-.229-.452-.345-.168-.129-.335-.259-.5-.385-.07-.052-.139-.108-.21-.16-.2-.15-.409-.291-.614-.436-.142-.1-.284-.2-.427-.3-.039-.026-.076-.055-.114-.081q-.561-.384-1.127-.745l-.008,0-.065-.04q-.522-.331-1.05-.643l-.26-.152q-.424-.244-.844-.472c-.108-.058-.214-.11-.322-.167q-.216-.115-.432-.224c-.111-.056-.223-.118-.333-.172-.182-.09-.362-.171-.542-.256-.127-.06-.254-.122-.38-.179-.051-.023-.1-.05-.153-.072q-.535-.24-1.063-.451l-.007,0-.046-.017q-.514-.2-1.021-.384l-.146-.047c-.13-.045-.259-.085-.388-.127-.177-.058-.356-.12-.531-.174-.094-.028-.185-.049-.278-.077-.157-.045-.313-.088-.469-.129-.117-.031-.236-.068-.353-.1s-.256-.056-.385-.086c-.156-.036-.313-.072-.468-.1-.079-.016-.16-.038-.239-.053-.15-.029-.3-.048-.445-.073-.18-.031-.361-.063-.539-.089-.061-.008-.123-.022-.182-.03-.152-.02-.3-.029-.45-.046-.192-.021-.384-.043-.574-.058-.053,0-.108-.013-.161-.017-.131-.009-.258-.006-.388-.013-.229-.011-.457-.021-.683-.022-.061,0-.123-.006-.184-.006-.251,0-.5.009-.746.021l-.1.007c-.178.01-.357.021-.533.037-.119.011-.236.028-.355.042-.086.01-.173.019-.257.03-.313.042-.623.09-.927.151l-.033.008c-.091.018-.178.044-.269.064-.247.055-.493.113-.735.181-.123.035-.242.076-.363.114-.156.049-.315.093-.469.147-.04.014-.078.033-.118.048-.24.088-.473.187-.705.287-.114.05-.23.093-.342.146-.341.159-.675.331-1,.52l-6.909,4.015c.324-.188.658-.36,1-.519.112-.052.228-.1.342-.146.232-.1.466-.2.706-.287.193-.07.389-.134.587-.2.121-.038.24-.079.363-.114.241-.068.488-.126.736-.181.09-.02.177-.045.267-.064.315-.064.636-.115.96-.159.085-.011.172-.021.258-.03.293-.034.588-.062.888-.079l.1-.007c.305-.015.617-.017.929-.015.225,0,.454.012.683.023.183.009.364.015.549.029s.382.037.574.058c.21.023.42.045.632.076.178.026.359.058.539.089.227.039.455.079.684.126.155.032.311.068.468.1.244.056.491.117.739.183.156.042.313.085.469.13.268.077.538.162.808.25.13.042.258.082.388.127.386.133.773.276,1.164.431l.049.018c.4.162.812.339,1.222.526.126.057.252.119.379.179q.437.2.876.428.216.11.432.224c.387.2.775.413,1.166.639q.661.381,1.314.8l.062.038c.419.267.835.545,1.25.831.143.1.284.2.426.3.276.2.552.393.825.6.168.125.335.255.5.383q.372.286.74.58c.181.145.36.292.539.44q.352.291.7.59.275.237.548.478c.228.2.455.409.68.617.181.167.363.334.542.5.229.217.456.438.682.661.167.164.334.327.5.493.236.238.469.481.7.725.151.158.3.314.452.474.273.292.543.591.811.891.1.112.2.221.3.334q.553.628,1.092,1.276c.077.094.153.191.23.284.282.343.562.688.837,1.039q.493.628.97,1.273c.053.072.108.141.161.213.517.7,1.017,1.419,1.507,2.145.119.175.238.349.355.526.18.273.357.548.534.824.154.241.308.482.459.725.174.28.344.562.514.845.136.226.272.452.4.679q.595,1.018,1.154,2.056c.135.251.265.5.4.757.139.268.281.536.416.806q.282.56.55,1.126c.061.127.125.253.185.381q.347.738.673,1.483c.057.129.111.259.167.388q.24.556.468,1.115.1.253.2.507.212.532.412,1.066c.059.155.118.31.175.466q.247.676.477,1.353c.021.061.043.122.064.183q.257.768.49,1.537c.049.161.093.321.14.482.1.357.208.715.305,1.072.052.194.1.388.153.582q.129.495.247.99.07.292.136.584c.076.337.148.674.216,1.011.037.18.075.361.11.542q.123.643.229,1.284c.012.078.028.156.04.234q.12.756.212,1.507c.017.139.03.277.046.415q.062.545.11,1.086c.015.171.028.341.041.511.026.34.046.678.063,1.016.008.162.017.324.022.485.018.478.029.955.027,1.427l-.091,31.807,6.909-4.014.09-31.808Q2354.3,1451.759,2354.283,1451.157Z" transform="translate(-2298.857 -1402.691)" fill="#e7e9ff"/>
            </g>
            <g id="Group_877" data-name="Group 877" transform="translate(0 4.015)">
              <path id="Path_3087" data-name="Path 3087" d="M2310.254,1415.741c14.7,8.486,26.616,29.128,26.568,46.017l-.091,31.807-4.865-2.809.09-31.807c.04-13.8-9.7-30.681-21.717-37.616s-21.82-1.347-21.859,12.457l-.091,31.808-4.869-2.811.09-31.807C2283.558,1414.089,2295.556,1407.255,2310.254,1415.741Z" transform="translate(-2283.42 -1412.095)" fill="#cfd6fd"/>
            </g>
          </g>
        </g>
      </g>
      <g id="Group_888" data-name="Group 888" transform="translate(-3026.028 4428.336)">
        <g id="Group_884" data-name="Group 884" transform="translate(2.853 0)">
          <g id="Group_881" data-name="Group 881">
            <path id="Path_3088" data-name="Path 3088" d="M2668.915,828.706c.035-.024.068-.051.1-.076l.071-.054.024-.018c.033-.027.065-.057.1-.085s.052-.045.077-.07l.012-.01c.031-.03.061-.063.091-.094s.053-.053.078-.081l.006-.007c.03-.033.057-.068.085-.1s.04-.047.058-.072l.02-.024c.027-.036.053-.074.079-.111s.037-.052.054-.078l.018-.025c.026-.039.049-.081.073-.121s.045-.072.066-.11.044-.087.067-.131.039-.074.057-.113l0,0c.021-.046.041-.094.061-.14s.027-.063.04-.095c0-.01.009-.018.012-.028.019-.049.036-.1.053-.149l0-.005c.014-.042.03-.082.044-.123s.031-.106.047-.159l.014-.049c.009-.029.017-.056.025-.086.014-.055.026-.112.039-.169.005-.023.011-.045.015-.068s.012-.047.017-.071c.012-.06.021-.122.031-.183,0-.023.008-.044.011-.067s.009-.048.013-.073c.01-.066.017-.135.024-.2,0-.017,0-.034.006-.052s.007-.055.01-.083c.007-.074.011-.151.017-.227,0-.017,0-.033,0-.05s0-.049,0-.075q.009-.179.009-.366l.044-33.185c0-.112,0-.224-.006-.338,0-.038,0-.076-.006-.114,0-.08-.008-.16-.014-.24,0-.041-.006-.081-.01-.122-.007-.085-.016-.169-.026-.254,0-.034-.007-.067-.011-.1-.015-.118-.031-.237-.05-.356l-.008-.047q-.025-.156-.055-.312c-.008-.042-.017-.084-.026-.126-.016-.08-.033-.16-.051-.24-.01-.046-.021-.092-.032-.138-.019-.078-.038-.155-.058-.233-.012-.047-.024-.093-.037-.139-.023-.083-.047-.166-.071-.25-.012-.039-.022-.078-.034-.117q-.055-.181-.115-.363l-.011-.031q-.056-.165-.116-.331l-.041-.108c-.032-.084-.064-.169-.1-.253-.016-.04-.031-.079-.048-.119q-.053-.131-.11-.263c-.013-.031-.026-.061-.04-.092q-.077-.175-.158-.349l-.043-.088q-.064-.135-.13-.269l-.1-.188c-.034-.065-.067-.131-.1-.2l-.05-.09c-.046-.084-.093-.168-.141-.251l-.058-.1c-.037-.063-.075-.126-.112-.188s-.078-.131-.119-.2-.072-.115-.109-.172-.082-.128-.124-.191-.095-.142-.143-.212l-.07-.1c-.075-.106-.15-.212-.227-.316h0l0,0q-.13-.177-.265-.348c-.07-.09-.142-.178-.214-.266l-.038-.046c-.084-.1-.171-.2-.258-.3l-.076-.084c-.062-.069-.124-.137-.187-.2l-.108-.113c-.054-.057-.109-.114-.164-.17l-.118-.117c-.053-.053-.107-.1-.161-.156l-.128-.12c-.053-.049-.107-.1-.16-.145l-.13-.113q-.082-.071-.165-.14l-.127-.1-.175-.137-.119-.091c-.065-.049-.13-.1-.2-.142l-.1-.071c-.1-.068-.2-.133-.3-.2l-.02-.012c-.1-.064-.2-.126-.306-.185l-133.183-76.893c-.093-.053-.184-.1-.276-.151l-.049-.027-.106-.052-.154-.076-.06-.03-.126-.055c-.064-.028-.127-.056-.19-.082-.045-.018-.089-.033-.134-.05s-.1-.04-.156-.058l-.021-.008c-.045-.015-.09-.028-.135-.042s-.084-.027-.126-.039l-.044-.014c-.045-.013-.09-.023-.135-.034l-.107-.026-.058-.014c-.046-.01-.09-.017-.135-.026l-.079-.015-.08-.015c-.045-.007-.089-.011-.134-.017l-.063-.008-.09-.011c-.044,0-.088-.005-.132-.008l-.044,0-.1-.006c-.044,0-.087,0-.13,0s-.1,0-.142,0-.084.007-.127.01-.074.005-.11.01l-.028,0c-.041.005-.081.013-.122.019s-.09.013-.134.022-.079.019-.119.029-.081.018-.121.03l-.007,0c-.039.011-.077.025-.115.037l-.1.034-.022.008c-.038.014-.074.03-.111.046l-.034.014c-.027.012-.054.022-.08.034l0,0c-.036.017-.071.036-.106.055s-.076.038-.113.06c-1.136.654-1.841,2.051-1.847,4.041l-.044,33.185a13.82,13.82,0,0,0,6.271,10.862l133.183,76.893c1.8,1.038,3.422,1.106,4.573.377.031-.019.061-.038.091-.058Z" transform="translate(-2524.787 -700.866)" fill="#331d48"/>
            <path id="Path_3089" data-name="Path 3089" d="M2676.779,786.342c0-.018,0-.036,0-.055,0-.038,0-.077-.005-.115s-.005-.09-.008-.134,0-.07-.006-.105-.006-.081-.01-.122c0-.026-.005-.052-.008-.079-.005-.058-.011-.117-.018-.175,0-.034-.007-.067-.011-.1,0-.011,0-.022,0-.033-.013-.1-.028-.211-.044-.316V785.1l-.008-.047c-.014-.088-.03-.176-.047-.264,0-.016-.005-.032-.009-.048-.008-.042-.017-.085-.026-.127s-.021-.1-.032-.153c-.007-.029-.012-.058-.019-.087-.01-.046-.021-.092-.032-.138s-.018-.07-.026-.1-.021-.085-.032-.128-.024-.093-.037-.139c-.006-.023-.013-.045-.019-.067-.017-.061-.034-.122-.052-.182-.011-.039-.022-.078-.034-.118l-.01-.032c-.033-.109-.067-.217-.1-.326v0c0-.011-.007-.021-.011-.031-.032-.1-.066-.191-.1-.285-.006-.015-.01-.031-.016-.046l-.041-.109c-.019-.051-.039-.1-.06-.153-.012-.033-.025-.066-.038-.1l-.048-.12-.037-.087-.073-.175c-.014-.031-.027-.062-.041-.093,0-.011-.01-.021-.014-.032q-.067-.153-.138-.3l-.006-.013-.043-.088q-.055-.116-.113-.231l-.018-.037c-.032-.063-.065-.126-.1-.189l-.079-.152-.022-.043-.05-.091c-.046-.084-.093-.168-.141-.251-.019-.034-.038-.067-.058-.1l-.039-.066-.073-.122-.119-.2c-.036-.058-.073-.115-.109-.173s-.082-.128-.124-.191l-.042-.063-.1-.149-.07-.1c-.074-.106-.15-.212-.226-.316h0l0,0q-.13-.176-.265-.347l-.012-.015q-.1-.127-.2-.251l-.038-.047,0,0c-.08-.1-.161-.19-.243-.284l-.012-.014-.077-.085q-.078-.087-.157-.172l-.029-.032c-.035-.038-.072-.076-.108-.114l-.12-.124-.044-.046-.118-.117-.1-.1-.058-.056-.129-.119-.091-.082-.07-.063-.13-.113-.08-.068-.085-.072-.128-.1-.067-.052-.108-.085-.119-.091-.05-.036-.146-.106c-.033-.024-.066-.048-.1-.071l-.027-.018c-.088-.06-.177-.12-.266-.177l0,0-.02-.012c-.081-.051-.163-.1-.245-.149l-.06-.037L2537.33,698.87c-.068-.039-.135-.074-.2-.111l-.073-.041-.1-.053-.082-.04-.125-.061-.091-.043-.039-.017c-.084-.038-.167-.075-.25-.108s-.171-.065-.255-.095l-.031-.012-.091-.029-.131-.041-.061-.019-.111-.031-.089-.022-.086-.021-.11-.025-.062-.011-.1-.019-.127-.021-.048-.006-.1-.012c-.046,0-.092-.01-.136-.014l-.043,0-.088-.005c-.053,0-.107,0-.16-.005h-.049c-.056,0-.114,0-.17,0l-.022,0c-.046,0-.091.008-.136.012l-.076.007-.061.007q-.112.015-.221.037h-.005l-.058.014c-.06.013-.12.027-.178.044l-.084.027c-.04.012-.081.026-.12.04l-.019.006c-.056.021-.111.044-.166.068-.027.012-.054.022-.081.034-.08.037-.159.078-.235.122l-3.664,2.129.011-.006c.037-.021.075-.04.113-.06s.07-.038.106-.055l0,0c.026-.012.054-.023.08-.034l.034-.014c.037-.016.073-.032.111-.046l.022-.008.1-.034c.038-.012.076-.026.115-.037l.007,0c.04-.012.081-.02.121-.03s.078-.021.119-.029.089-.015.134-.022.081-.014.123-.019l.028,0,.111-.01c.042,0,.083-.008.126-.01s.095,0,.143,0,.086,0,.13,0,.069,0,.1.005l.044,0c.044,0,.088,0,.132.008l.09.011.063.008c.044.005.089.01.134.017l.08.015.079.015c.045.009.089.015.135.026l.058.015.107.026c.045.011.089.021.135.034l.044.014c.042.012.084.026.126.039s.09.026.135.042l.021.008c.052.018.1.038.156.058s.089.032.134.049c.063.025.126.054.19.082.042.018.083.035.126.055l.061.029.154.076c.035.017.07.033.106.052l.049.027,0,0c.09.048.18.1.272.149l133.183,76.893q.154.089.306.185l.02.012c.1.063.2.129.3.2l.1.071c.066.047.131.093.2.142l.119.091c.059.045.117.091.175.137l.127.1q.083.069.165.14l.13.113c.054.047.107.1.16.145l.129.12c.054.051.108.1.161.155l.118.117q.083.084.164.17l.108.113c.063.068.125.136.187.2l.076.084c.087.1.174.2.258.3l.038.046c.072.088.144.176.214.266q.134.171.265.348l0,0h0q.115.157.226.316l.07.1.143.212c.042.063.083.127.124.191s.073.115.109.173l.119.2c.038.063.076.125.112.188l.057.1c.048.083.095.167.141.252l.05.091q.052.1.1.2l.1.188c.044.089.088.178.13.268l.043.087q.081.174.158.349l.04.092c.037.088.074.175.11.263.016.04.032.079.048.119.033.084.066.169.1.253l.041.109q.061.165.116.331c0,.011.008.021.011.031q.06.181.115.362c.012.039.023.078.034.117.024.083.048.167.071.25.013.046.025.092.037.139.02.077.039.155.058.233.011.046.022.092.032.138.018.08.035.16.051.24.009.042.018.084.026.126q.03.157.055.313c0,.015.006.031.008.047.019.119.035.238.05.356,0,.034.007.067.011.1.009.085.018.169.026.254,0,.041.007.081.01.122.006.08.01.16.014.24,0,.038,0,.076.006.114,0,.113.006.226.006.338l-.044,33.185c0,.124,0,.246-.01.366,0,.026,0,.05-.005.075s0,.033,0,.05c-.005.076-.009.153-.017.227,0,.028-.007.055-.01.083s0,.035-.006.052c-.008.068-.015.137-.024.2,0,.025-.009.048-.013.073s-.008.044-.011.067c-.01.061-.02.123-.031.183-.005.024-.011.047-.017.071s-.01.045-.015.068c-.013.056-.025.114-.039.169-.008.03-.017.057-.025.086s-.009.032-.014.049c-.015.053-.03.107-.046.159s-.03.082-.044.123v.005c-.018.05-.035.1-.053.15,0,.01-.009.019-.012.028-.013.032-.027.063-.04.095s-.039.094-.061.14l0,0c-.018.039-.038.076-.057.113s-.044.088-.067.131-.044.073-.066.11-.047.082-.073.121l-.018.025c-.018.026-.036.052-.054.078s-.052.076-.08.111l-.02.024c-.019.025-.039.048-.059.072s-.056.07-.086.1l-.006.007c-.025.028-.052.054-.078.081s-.06.064-.091.094l-.012.01c-.025.024-.052.047-.078.07s-.063.059-.1.085l-.024.018-.071.054c-.034.026-.067.052-.1.076l-.01.006c-.03.02-.06.039-.091.058s-.063.042-.1.061l3.663-2.129c.064-.037.126-.077.187-.119l.054-.039c.044-.031.087-.064.129-.1l.054-.044q.074-.062.145-.129l.023-.021c.054-.052.106-.107.157-.164l.042-.049c.037-.043.073-.087.108-.133l.046-.059c.037-.05.073-.1.107-.154.01-.015.02-.028.029-.043l.007-.011c.043-.067.085-.137.125-.209h0c.039-.071.076-.145.112-.221l.009-.016c.006-.013.011-.026.017-.039.03-.065.058-.131.085-.2l.023-.06c.005-.014.01-.029.015-.043s.02-.053.028-.08c.023-.066.046-.132.067-.2l.015-.051.023-.08c.016-.057.031-.114.045-.172l.016-.069c.006-.027.013-.054.019-.082.01-.049.02-.1.03-.15,0-.025.009-.051.013-.076s.011-.063.016-.1.014-.091.021-.137c0-.023.005-.046.009-.069,0-.04.01-.081.014-.122s.01-.086.014-.13c0-.017,0-.034,0-.051,0-.059.009-.119.012-.179,0-.032,0-.063.006-.1,0-.007,0-.015,0-.023,0-.1.007-.2.008-.3v-.018l.044-33.185C2676.784,786.532,2676.781,786.437,2676.779,786.342Z" transform="translate(-2527.31 -698.009)" fill="#c7c3f4"/>
          </g>
          <g id="Group_882" data-name="Group 882" transform="translate(7.897 19.275)">
            <path id="Path_3090" data-name="Path 3090" d="M2598.837,819.269v.018a.463.463,0,0,1,0,.055C2598.837,819.318,2598.837,819.294,2598.837,819.269Z" transform="translate(-2575.118 -786.773)" fill="#fafaff"/>
            <path id="Path_3091" data-name="Path 3091" d="M2567.046,760.609v.02l-.01,3.164-.033,11.84v.036a.461.461,0,0,1,0,.055c0,.05,0,.1,0,.148,0,.117-.011.233-.023.345,0,.021,0,.041-.005.062-.005.052-.01.1-.018.154-.01.084-.023.165-.037.246-.006.039-.014.078-.023.115a4.153,4.153,0,0,1-.134.519c-.01.035-.022.069-.033.1a3.033,3.033,0,0,1-1.1,1.521c-.041.029-.081.056-.124.082a2.6,2.6,0,0,1-.83.33c-.04.008-.079.017-.12.022l-.054.009c-.1.014-.193.024-.293.029a4.711,4.711,0,0,1-2.554-.728l-13.056-7.538a9.665,9.665,0,0,1-2.535-2.2q-.112-.135-.222-.275a12.757,12.757,0,0,1-.817-1.175c-.062-.1-.123-.2-.184-.309a12.7,12.7,0,0,1-.914-1.937c-.041-.11-.08-.222-.118-.332-.092-.277-.175-.555-.244-.832-.028-.11-.053-.222-.077-.332a8.529,8.529,0,0,1-.2-1.791v-.022l.042-15c.01-3.384,2.4-4.748,5.348-3.048l13.058,7.539A11.717,11.717,0,0,1,2567.046,760.609Z" transform="translate(-2543.284 -743.155)" fill="#fafaff"/>
          </g>
          <g id="Group_883" data-name="Group 883" transform="translate(14.247 24.594)">
            <path id="Path_3092" data-name="Path 3092" d="M2568.916,787.534v.02l-.022,7.705-10.736-6.2.022-7.705c.01-3.406,2.421-4.781,5.386-3.069A11.8,11.8,0,0,1,2568.916,787.534Z" transform="translate(-2558.158 -768.185)" fill="#331d48"/>
            <path id="Path_3093" data-name="Path 3093" d="M2569.514,762.1c-.006,2.21-1.57,3.1-3.493,1.991a7.648,7.648,0,0,1-3.471-6.011c.006-2.21,1.57-3.1,3.493-1.991A7.646,7.646,0,0,1,2569.514,762.1Z" transform="translate(-2560.675 -755.613)" fill="#331d48"/>
          </g>
          <path id="Path_3094" data-name="Path 3094" d="M2718.823,849.024l.059-.044.041-.031.014-.01.055-.049.044-.04.007-.006c.018-.017.034-.036.052-.054l.044-.047,0,0c.017-.019.032-.039.049-.059l.034-.041.011-.014c.016-.02.03-.042.045-.064s.022-.029.032-.044l.01-.015c.015-.023.028-.046.042-.07s.026-.041.038-.063.026-.05.039-.075.023-.042.033-.065v0c.012-.026.023-.053.034-.08l.023-.054.007-.016c.011-.028.021-.057.031-.086v0c.009-.023.017-.047.025-.071s.018-.061.027-.091l.008-.028c0-.016.01-.032.014-.049.008-.032.015-.065.022-.1,0-.013.006-.026.009-.039s.007-.027.009-.041c.007-.034.012-.07.018-.105,0-.013,0-.025.006-.038s.006-.027.007-.042c.006-.037.01-.077.014-.116,0-.01,0-.02,0-.029s0-.032.006-.048c0-.042.006-.086.01-.13,0-.01,0-.019,0-.029s0-.028,0-.043c0-.069.005-.138.005-.21l.026-1.315c0-.064,0-.129,0-.193,0-.022,0-.044,0-.066,0-.045,0-.091-.009-.137,0-.024,0-.047-.005-.07,0-.049-.009-.1-.015-.146l-.006-.058c-.009-.068-.018-.136-.029-.2l0-.027c-.01-.059-.02-.119-.032-.179,0-.024-.01-.048-.015-.072-.009-.046-.019-.092-.03-.138q-.008-.04-.018-.079-.016-.067-.033-.133c-.007-.026-.014-.053-.021-.079-.013-.048-.027-.1-.041-.143-.006-.023-.013-.045-.02-.067q-.031-.1-.065-.207l-.007-.017c-.021-.064-.044-.127-.067-.19l-.023-.062c-.018-.048-.037-.1-.056-.145l-.027-.068c-.021-.05-.042-.1-.063-.15l-.022-.053q-.044-.1-.091-.2l-.024-.05c-.025-.052-.049-.1-.075-.154s-.037-.072-.055-.108l-.059-.112-.029-.052c-.026-.048-.053-.1-.081-.144l-.033-.057-.065-.108-.068-.112-.063-.1-.071-.109c-.027-.041-.054-.081-.082-.121l-.04-.058q-.063-.092-.13-.181h0l0,0c-.05-.067-.1-.134-.152-.2s-.082-.1-.123-.152l-.021-.026c-.049-.058-.1-.116-.148-.172l-.043-.048c-.036-.04-.071-.079-.107-.117l-.062-.065c-.031-.032-.062-.065-.094-.1l-.067-.067-.093-.089-.073-.068-.092-.083-.074-.065-.095-.08-.073-.059c-.033-.027-.067-.053-.1-.078l-.068-.052-.112-.081-.057-.041c-.056-.038-.112-.076-.169-.112l-.011-.007q-.087-.055-.176-.106L2639.9,795.2c-.053-.031-.106-.059-.158-.087l-.028-.015-.061-.03-.089-.043-.034-.017-.073-.031c-.036-.016-.073-.032-.109-.047l-.076-.029-.089-.033-.012,0-.077-.024-.073-.022-.025-.008-.077-.019-.061-.015-.034-.008c-.026-.006-.051-.01-.077-.014l-.046-.009-.045-.009-.077-.009-.036,0-.052-.006-.075,0h-.025l-.06,0h-.156l-.073.006-.063.006h-.016l-.071.011-.076.013-.068.016-.069.017h0c-.023.006-.044.014-.066.021l-.058.019-.013,0-.063.026-.019.008-.046.02h0c-.021.009-.041.021-.061.031l-.064.034a2.519,2.519,0,0,0-1.058,2.315l-.025,1.315a7.917,7.917,0,0,0,3.593,6.222l76.291,44.047a2.5,2.5,0,0,0,2.62.216l.052-.033Z" transform="translate(-2588.669 -753.422)" fill="#e7e9ff"/>
          <path id="Path_3095" data-name="Path 3095" d="M2718.823,885.244c.02-.014.039-.029.059-.044l.041-.031.014-.011.055-.049c.014-.013.03-.026.044-.04l.007-.006c.018-.017.034-.036.052-.054l.044-.047,0,0c.017-.019.032-.039.049-.059l.034-.041.011-.014c.016-.021.03-.043.045-.064l.032-.044.01-.015c.015-.023.028-.046.042-.07s.026-.041.038-.063.026-.049.039-.075.023-.043.033-.065v0c.012-.026.023-.053.034-.08l.023-.054.007-.016c.011-.028.021-.057.031-.085v0c.009-.023.017-.047.025-.071s.018-.061.027-.091l.008-.028c0-.016.01-.032.014-.049s.015-.064.022-.1c0-.013.006-.026.009-.039s.007-.027.009-.041c.007-.035.012-.07.018-.105,0-.013,0-.026.006-.038s.006-.027.007-.042c.006-.038.01-.077.014-.116,0-.01,0-.02,0-.029s0-.032.006-.048c0-.042.006-.087.01-.13,0-.009,0-.019,0-.029s0-.028,0-.043q.005-.1.005-.21l.026-1.315c0-.064,0-.129,0-.193,0-.022,0-.044,0-.066,0-.046,0-.091-.009-.137,0-.023,0-.046-.005-.07,0-.048-.009-.1-.015-.146l-.006-.058c-.009-.068-.018-.136-.029-.2l0-.026c-.01-.059-.02-.119-.032-.179,0-.024-.01-.048-.015-.073-.009-.046-.019-.091-.03-.138-.006-.026-.012-.052-.018-.079l-.033-.133c-.007-.026-.014-.053-.021-.079q-.019-.072-.041-.143c-.006-.022-.013-.044-.02-.067q-.031-.1-.065-.208l-.007-.018c-.021-.063-.044-.126-.067-.19l-.023-.062c-.018-.049-.037-.1-.056-.145l-.027-.068c-.021-.05-.042-.1-.063-.15l-.022-.053q-.044-.1-.091-.2l-.024-.05c-.025-.051-.049-.1-.075-.153s-.037-.072-.055-.108l-.059-.112-.029-.052c-.026-.048-.053-.1-.081-.144l-.033-.057-.065-.108-.068-.112-.063-.1-.071-.109q-.04-.062-.082-.122l-.04-.058q-.063-.092-.13-.182h0l0,0c-.05-.068-.1-.134-.152-.2s-.082-.1-.123-.152l-.021-.026q-.073-.088-.148-.173l-.043-.048-.107-.117-.062-.064-.094-.1-.067-.067-.093-.089-.073-.069-.092-.083-.074-.065-.095-.08-.073-.06-.1-.079-.068-.052-.112-.082-.057-.041c-.056-.039-.112-.076-.169-.113l-.011-.007q-.087-.055-.176-.106L2639.9,831.42c-.053-.03-.106-.059-.158-.086l-.028-.016-.061-.029-.089-.043-.034-.017-.073-.031-.109-.047-.076-.028-.089-.033-.012,0-.077-.024-.073-.023-.025-.008-.077-.02-.061-.015-.034-.008-.077-.015-.046-.008-.045-.008c-.026,0-.051-.006-.077-.009l-.036,0-.052-.006c-.025,0-.05,0-.075,0l-.025,0-.06,0h-.156l-.073.006-.063.006h-.016l-.071.011-.076.013-.068.016-.069.017h0c-.023.006-.044.015-.066.022l-.058.019-.013,0c-.021.008-.042.018-.063.026l-.019.008-.046.02h0c-.021.01-.041.021-.061.032s-.043.022-.064.034a2.519,2.519,0,0,0-1.058,2.315l-.025,1.315a7.918,7.918,0,0,0,3.593,6.222l76.291,44.047a2.5,2.5,0,0,0,2.62.216l.052-.033Z" transform="translate(-2588.669 -774.179)" fill="#e7e9ff"/>
        </g>
        <g id="Group_887" data-name="Group 887" transform="translate(0 56.728)">
          <g id="Group_885" data-name="Group 885">
            <path id="Path_3096" data-name="Path 3096" d="M2662.232,942.756c.035-.024.069-.05.1-.076s.048-.035.071-.054l.024-.018c.033-.027.064-.057.1-.085s.052-.045.078-.07l.011-.01c.032-.03.061-.063.092-.094s.052-.053.077-.081l.007-.007c.029-.033.057-.069.085-.1s.04-.047.059-.071l.02-.024c.027-.036.053-.074.079-.112s.037-.051.055-.078l.017-.026c.026-.039.049-.08.073-.121s.045-.072.066-.11.045-.087.067-.131.039-.075.058-.114v0c.021-.045.041-.093.061-.14.013-.032.028-.062.041-.094,0-.01.008-.019.012-.028.019-.049.036-.1.053-.149l0-.006c.014-.041.03-.081.043-.123s.031-.106.047-.159c0-.016.01-.032.014-.049s.017-.056.025-.085c.015-.055.026-.112.039-.169.005-.023.011-.045.016-.068s.012-.047.016-.072c.012-.059.021-.122.032-.183l.012-.067c0-.025.009-.048.012-.073.01-.066.017-.135.025-.2,0-.018,0-.034.006-.052s.007-.055.01-.083c.007-.074.011-.151.016-.227,0-.017,0-.033,0-.05s0-.049.006-.075c.006-.12.009-.242.009-.366l.044-14.363c0-.112,0-.225-.006-.338,0-.038,0-.076-.005-.114,0-.08-.009-.16-.015-.24,0-.041-.006-.081-.01-.122-.008-.085-.016-.169-.026-.254,0-.034-.007-.067-.011-.1q-.022-.177-.05-.356l-.008-.047c-.017-.1-.035-.208-.055-.313-.008-.042-.017-.084-.025-.126-.017-.08-.033-.16-.052-.24-.01-.046-.021-.092-.032-.138-.018-.078-.038-.155-.058-.233-.012-.046-.024-.092-.036-.138q-.034-.125-.071-.25c-.011-.039-.022-.078-.034-.117-.037-.121-.075-.242-.115-.362l-.01-.031q-.057-.165-.116-.331l-.041-.108c-.032-.084-.064-.169-.1-.253l-.048-.119c-.036-.088-.073-.175-.11-.263l-.039-.092c-.052-.117-.1-.234-.159-.349-.014-.029-.028-.058-.042-.088-.043-.09-.086-.179-.131-.269-.032-.063-.064-.125-.1-.188l-.1-.2-.05-.091c-.046-.084-.093-.168-.14-.251l-.058-.1c-.037-.064-.075-.126-.112-.189s-.079-.131-.119-.2l-.109-.172-.124-.191c-.047-.071-.095-.141-.143-.212l-.07-.1c-.074-.106-.15-.212-.227-.316h0l0,0q-.13-.177-.265-.348c-.071-.09-.143-.178-.215-.266l-.037-.046q-.127-.153-.259-.3l-.076-.084c-.062-.069-.124-.137-.187-.2l-.107-.113c-.055-.057-.109-.114-.165-.169-.039-.039-.078-.078-.118-.117s-.107-.1-.161-.156l-.129-.119c-.053-.049-.106-.1-.16-.145l-.13-.114c-.055-.047-.11-.094-.166-.139l-.127-.1-.175-.137-.119-.09c-.065-.049-.131-.1-.2-.142l-.1-.071q-.147-.1-.3-.2l-.02-.012q-.152-.1-.306-.185L2524.46,836.729c-.093-.053-.184-.1-.276-.151l-.049-.027c-.035-.018-.071-.034-.105-.052l-.155-.076-.061-.03c-.042-.019-.084-.036-.126-.054-.063-.028-.127-.056-.19-.082-.045-.018-.089-.033-.133-.049s-.1-.04-.157-.058l-.021-.008c-.046-.015-.09-.028-.135-.042s-.085-.027-.127-.039l-.044-.014c-.046-.013-.09-.023-.135-.034l-.106-.026-.058-.015c-.045-.01-.09-.017-.135-.026l-.079-.015-.08-.015c-.045-.007-.089-.011-.134-.017l-.063-.008-.09-.011c-.045,0-.088-.005-.132-.008l-.045,0c-.034,0-.069,0-.1-.005s-.086,0-.129,0-.1,0-.143,0-.085.007-.127.01-.074.006-.11.01l-.028,0c-.042.005-.082.013-.123.019s-.089.013-.133.022-.08.019-.119.029-.082.018-.121.03l-.007,0c-.039.011-.076.025-.115.037l-.1.034-.022.008c-.037.014-.074.03-.11.046l-.033.015c-.027.012-.054.022-.081.034l0,0c-.036.017-.071.036-.106.055s-.076.038-.113.06c-1.136.654-1.841,2.051-1.846,4.041l-.044,14.363a13.822,13.822,0,0,0,6.271,10.862l133.183,76.893c1.8,1.039,3.423,1.106,4.573.377.03-.019.061-.037.091-.058Z" transform="translate(-2518.104 -833.738)" fill="#331d48"/>
            <path id="Path_3097" data-name="Path 3097" d="M2670.1,919.214c0-.018,0-.036,0-.055,0-.038,0-.077-.005-.115s-.005-.09-.009-.135,0-.07-.006-.105-.006-.081-.01-.122c0-.026-.006-.053-.008-.079-.005-.058-.011-.117-.018-.175,0-.034-.007-.067-.011-.1,0-.011,0-.022,0-.033-.013-.1-.027-.21-.044-.316v-.007c0-.016-.006-.031-.008-.047q-.021-.132-.046-.264c0-.016-.006-.032-.009-.048-.008-.042-.017-.085-.025-.127l-.033-.153c-.006-.029-.012-.058-.019-.087q-.015-.069-.032-.138l-.026-.1c-.01-.043-.021-.085-.032-.128l-.036-.139-.02-.067c-.016-.061-.033-.122-.052-.182-.011-.039-.022-.079-.034-.118l-.01-.032c-.033-.109-.067-.217-.1-.326v0c0-.011-.007-.021-.01-.031-.032-.1-.066-.19-.1-.285l-.016-.046c-.013-.036-.027-.073-.041-.108-.019-.051-.039-.1-.059-.154-.013-.033-.025-.066-.038-.1l-.048-.12-.037-.087c-.024-.058-.048-.117-.073-.175-.013-.031-.026-.062-.04-.093l-.014-.032c-.045-.1-.091-.2-.138-.3l-.006-.013-.043-.088q-.055-.116-.112-.231l-.019-.037c-.031-.063-.065-.126-.1-.189l-.08-.152-.022-.043-.05-.091c-.046-.085-.093-.168-.141-.251l-.058-.1-.039-.066-.073-.122c-.039-.065-.079-.131-.119-.2s-.073-.115-.109-.172-.082-.128-.124-.191l-.042-.063c-.033-.05-.066-.1-.1-.149l-.07-.1c-.074-.106-.149-.212-.227-.316h0l0,0q-.13-.176-.265-.348l-.012-.015c-.067-.085-.134-.168-.2-.251l-.037-.047,0,0q-.12-.144-.243-.284l-.012-.014-.077-.085c-.052-.058-.1-.116-.157-.172l-.029-.032-.109-.114-.12-.124-.044-.046-.118-.117-.1-.1-.058-.056c-.042-.041-.086-.08-.129-.12l-.09-.081-.07-.063-.13-.113-.08-.068-.085-.072-.128-.1-.067-.053-.108-.085-.118-.091-.05-.036-.146-.106-.1-.071-.027-.018c-.088-.061-.177-.12-.267-.177l0,0-.02-.012c-.081-.051-.163-.1-.245-.149l-.061-.037-133.183-76.893c-.068-.039-.135-.074-.2-.111l-.074-.041-.1-.053-.082-.04c-.042-.021-.083-.041-.125-.061l-.091-.043-.039-.017c-.083-.038-.167-.074-.25-.108s-.171-.065-.255-.095l-.031-.012-.091-.029-.131-.041-.061-.019-.111-.03-.089-.022-.086-.021-.111-.025-.062-.011-.1-.019-.127-.021-.048-.006-.1-.012c-.046,0-.091-.01-.136-.014l-.043,0-.088,0c-.053,0-.107-.005-.16-.005h-.049c-.057,0-.115,0-.171,0h-.021c-.046,0-.09.008-.136.012l-.076.007-.061.007c-.075.01-.148.022-.222.036h-.005l-.058.014c-.06.013-.12.027-.178.044-.029.008-.056.018-.084.026s-.081.026-.121.04l-.019.006c-.056.021-.112.044-.166.068-.027.011-.054.022-.081.034-.081.038-.159.078-.235.123l-3.664,2.129.011-.006c.037-.021.075-.04.113-.06s.07-.038.106-.055l0,0c.026-.012.054-.023.081-.034l.033-.015c.037-.015.073-.032.111-.046l.022-.008c.033-.012.067-.023.1-.034s.076-.026.115-.037l.007,0c.04-.012.081-.02.121-.03s.079-.021.119-.029.089-.015.134-.022.082-.014.123-.019l.028,0c.036,0,.073-.006.11-.01s.084-.008.127-.01.095,0,.143,0,.086,0,.129,0,.069,0,.1.006l.045,0c.044,0,.087,0,.132.008l.09.011.063.008c.045.006.089.01.134.017l.079.015.079.014c.045.009.09.015.135.026l.058.015.107.026c.045.011.09.021.135.034l.044.014c.042.012.085.026.127.039s.089.026.135.042l.021.008c.052.018.1.038.156.058s.088.032.133.049c.063.025.126.054.189.082.042.018.084.035.126.054l.061.03.155.076c.035.017.07.033.105.052l.049.027,0,0c.09.048.181.1.271.149l133.183,76.893q.154.089.306.185l.021.012c.1.063.2.129.3.2l.1.071c.066.047.131.093.2.142l.118.091c.059.045.117.09.175.137l.127.1c.056.046.111.092.166.139l.13.114c.053.047.107.1.16.145l.128.119c.054.051.108.1.161.156s.079.077.118.117c.056.056.11.113.165.17l.107.113c.063.067.125.136.187.2l.076.084c.087.1.173.2.258.3l.037.046c.072.088.144.176.215.266q.135.171.265.348l0,0h0c.077.1.152.21.226.316l.07.1q.073.106.143.212c.042.064.083.127.124.191s.074.115.11.173.08.13.119.2l.113.189.057.1c.047.083.094.167.14.251l.05.091c.035.065.068.131.1.2s.065.125.1.188c.045.089.088.178.131.269l.042.088c.055.116.107.232.159.349l.039.092c.038.088.074.175.11.263l.048.119c.034.084.066.169.1.253l.041.108q.06.165.116.331l.011.031q.06.181.115.362c.012.039.022.078.034.117.025.083.049.167.072.25.012.046.024.092.036.138.02.078.04.155.058.233.011.046.022.092.032.138.018.08.035.16.052.24.009.042.018.084.025.126.021.1.039.208.056.313l.008.046q.029.179.05.356c0,.034.007.067.011.1.01.085.019.169.026.254,0,.041.006.081.009.122.006.08.011.16.015.24,0,.038,0,.076.005.114,0,.114.007.226.007.338l-.045,14.363c0,.124,0,.246-.009.366,0,.025,0,.05-.006.075s0,.033,0,.05c-.005.076-.01.153-.016.227,0,.028-.007.055-.01.083s0,.034-.006.052c-.008.068-.015.137-.025.2,0,.025-.009.048-.013.073l-.011.067c-.011.061-.02.124-.032.183,0,.025-.011.047-.016.072l-.016.068c-.013.057-.024.114-.039.169-.008.029-.017.057-.025.085s-.01.033-.014.049c-.015.053-.03.108-.047.159s-.029.082-.044.123l0,.006c-.018.05-.035.1-.053.149,0,.009-.008.018-.012.028-.013.032-.027.063-.041.094-.02.047-.039.095-.061.14v0c-.018.039-.039.076-.057.114s-.044.088-.067.131-.044.073-.066.11-.048.082-.073.121l-.018.026-.055.078c-.026.038-.051.076-.079.112l-.02.024c-.019.024-.039.048-.059.071s-.056.07-.085.1l-.007.007c-.025.028-.052.054-.077.081s-.06.064-.092.094l-.011.01c-.026.024-.052.047-.078.07s-.064.058-.1.085l-.024.018-.071.054c-.034.026-.067.052-.1.076l-.01.006c-.03.02-.06.038-.09.058s-.063.042-.1.061l3.664-2.129c.064-.037.126-.077.186-.119l.055-.039q.066-.047.129-.1l.054-.044c.049-.041.1-.084.144-.129l.023-.021c.054-.053.106-.108.156-.164.015-.016.028-.032.042-.049.037-.043.073-.087.108-.132l.045-.06c.037-.05.073-.1.108-.154l.029-.042.007-.012c.043-.068.086-.137.125-.209h0c.039-.071.076-.146.111-.221a.128.128,0,0,0,.009-.016c.006-.013.011-.026.017-.039.03-.065.058-.131.085-.2l.024-.06c.005-.014.01-.029.015-.043s.019-.053.029-.08c.023-.065.045-.131.066-.2l.015-.052c.008-.026.016-.053.023-.08.016-.057.031-.114.045-.172.006-.023.011-.046.016-.069s.013-.054.019-.082c.011-.05.021-.1.03-.151,0-.025.008-.05.013-.076s.011-.063.017-.095.014-.091.021-.137c0-.023.005-.046.008-.069.005-.04.01-.081.015-.122s.01-.086.013-.13c0-.017,0-.034,0-.051,0-.059.009-.119.013-.179,0-.032,0-.063.006-.1v-.023q.006-.15.008-.3v-.018l.044-14.363C2670.1,919.4,2670.1,919.309,2670.1,919.214Z" transform="translate(-2520.627 -830.881)" fill="#cfd6fd"/>
          </g>
          <g id="Group_886" data-name="Group 886" transform="translate(23.888 25.698)">
            <path id="Path_3098" data-name="Path 3098" d="M2608.935,906.786l1.829,1.053-1.829-1.057Z" transform="translate(-2594.044 -900.076)" fill="#fafaff"/>
            <path id="Path_3099" data-name="Path 3099" d="M2744.992,985.342l1.829,1.057v0Z" transform="translate(-2672.013 -945.095)" fill="#fafaff"/>
            <path id="Path_3100" data-name="Path 3100" d="M2765.452,1008.012l2.562-.5-.228,3.4,1.829,1.057-.2-3.676,2.548,3.448.921-1.26-2.74-3.163,2.747.039-.911-2.348-2.533.484.2-3.38-1.829-1.057.178,3.6-2.523-3.373-.918,1.263,2.765,3.145-2.772-.021Z" transform="translate(-2683.218 -954.098)" fill="#fafaff"/>
            <path id="Path_3101" data-name="Path 3101" d="M2738.24,992.3l2.562-.5-.228,3.4,1.829,1.057-.2-3.679,2.548,3.451.921-1.263-2.74-3.16,2.747.039-.911-2.352-2.53.488.2-3.38v0l-1.829-1.053.178,3.6-2.52-3.373-.921,1.263,2.765,3.146-2.772-.021Z" transform="translate(-2667.624 -945.095)" fill="#fafaff"/>
            <path id="Path_3102" data-name="Path 3102" d="M2711.024,976.592l2.559-.5-.221,3.4,1.829,1.057-.206-3.679,2.548,3.452.922-1.263-2.74-3.16,2.747.039-.911-2.352-2.53.487.2-3.38-1.036-.6-.79-.459.174,3.6-2.519-3.373-.922,1.263,2.765,3.145-2.775-.021Z" transform="translate(-2652.025 -936.092)" fill="#fafaff"/>
            <path id="Path_3103" data-name="Path 3103" d="M2683.813,960.881l2.559-.5-.221,3.4,1.829,1.057-.207-3.679,2.548,3.452.918-1.263-2.737-3.16,2.747.039-.907-2.348-2.533.484.2-3.38-1.829-1.057.181,3.6-2.523-3.373-.921,1.263,2.764,3.146-2.775-.025Z" transform="translate(-2636.432 -927.089)" fill="#fafaff"/>
            <path id="Path_3104" data-name="Path 3104" d="M2656.6,945.171l2.558-.5-.224,3.4,1.615.932.214.125-.2-3.679,2.548,3.451.918-1.263-2.736-3.16,2.747.039-.907-2.352-2.537.487.2-3.384-.715-.413-1.114-.64.178,3.6-2.522-3.373-.918,1.263,2.765,3.145-2.775-.025Z" transform="translate(-2620.838 -918.086)" fill="#fafaff"/>
            <path id="Path_3105" data-name="Path 3105" d="M2629.395,929.461l2.562-.5-.228,3.4,1.491.861.338.2-.206-3.679,2.551,3.451.918-1.263-2.736-3.16,2.747.039-.907-2.352-2.537.487.2-3.384-.815-.47-1.014-.584.178,3.6-2.523-3.373-.918,1.263,2.765,3.145-2.772-.021Z" transform="translate(-2605.249 -909.083)" fill="#fafaff"/>
            <path id="Path_3106" data-name="Path 3106" d="M2602.183,913.746l2.562-.5-.228,3.4,1.37.79.459.263-.207-3.676,2.552,3.451.921-1.263-2.74-3.16,2.747.039-.911-2.352-2.533.484.2-3.38-1.829-1.057v0l.178,3.6-2.523-3.373-.918,1.263,2.764,3.146-2.772-.025Z" transform="translate(-2589.655 -900.076)" fill="#fafaff"/>
            <path id="Path_3107" data-name="Path 3107" d="M2574.967,898.036l2.562-.5-.228,3.4.879.505.95.548-.206-3.676,2.551,3.451.922-1.263-2.74-3.16,2.747.039-.911-2.352-2.533.484.2-3.38-1.1-.633-.729-.423.178,3.6-2.523-3.373-.918,1.263,2.765,3.145-2.775-.025Z" transform="translate(-2574.056 -891.073)" fill="#fafaff"/>
          </g>
        </g>
      </g>
      <g id="Group_901" data-name="Group 901" transform="translate(-3312.383 4406.566)">
        <g id="Group_899" data-name="Group 899" transform="translate(4.019 137.324)">
          <g id="Group_897" data-name="Group 897" transform="translate(40.67 129.671)">
            <path id="Path_3123" data-name="Path 3123" d="M1952.061,1538.283v12.53s6.32,10.6,21.448,2.566c9.844-5.228,19.546-11.715,19.546-11.715a11.8,11.8,0,0,0,.267-3.031c-.1-2.437-1.05-5.606-5.058-6.587-8.191-2.009-19,4.491-19,4.491l2.2-9.149Z" transform="translate(-1952.061 -1527.388)" fill="#603813"/>
            <path id="Path_3124" data-name="Path 3124" d="M1952.061,1564.308v1.6s6.32,10.6,21.448,2.566c9.844-5.228,19.546-11.715,19.546-11.715a11.8,11.8,0,0,0,.267-3.031c-5.114,3.971-21.607,14.672-29.114,15.027C1957.908,1569.051,1954.12,1565.593,1952.061,1564.308Z" transform="translate(-1952.061 -1542.481)" fill="#c18748"/>
          </g>
          <g id="Group_898" data-name="Group 898" transform="translate(1.006 116.943)">
            <path id="Path_3125" data-name="Path 3125" d="M1859.158,1508.472V1521s6.32,10.6,21.449,2.566c9.844-5.229,19.546-11.715,19.546-11.715a11.8,11.8,0,0,0,.267-3.031c-.1-2.437-1.051-5.606-5.058-6.588-8.191-2.008-19,4.491-19,4.491l2.2-9.149Z" transform="translate(-1859.158 -1497.577)" fill="#603813"/>
            <path id="Path_3126" data-name="Path 3126" d="M1859.158,1534.5v1.6s6.32,10.6,21.449,2.566c9.844-5.229,19.546-11.715,19.546-11.715a11.8,11.8,0,0,0,.267-3.031c-5.114,3.971-21.608,14.671-29.114,15.027C1865.006,1539.24,1861.217,1535.782,1859.158,1534.5Z" transform="translate(-1859.158 -1512.67)" fill="#c18748"/>
          </g>
          <path id="Path_3127" data-name="Path 3127" d="M1920.154,1233.919l.47,129.628s-15.657,7.977-25.484,0c0,0-.669-89.3-2.18-96.132s-9.6-12.565-11.373-4.226-2.9,95.336-2.9,95.336-9.01,7.633-21.887-2.185l.553-132.674Z" transform="translate(-1856.801 -1223.666)" fill="#efaca9"/>
        </g>
        <path id="Path_3128" data-name="Path 3128" d="M1916.94,1040.306s-1.059-7.956-5.8-11.386-35.452-19.362-45.025-21.019-18.959,5.65-18.721,21.7,9.656,38.039,7.85,48.8-7.577,35.056-7.577,35.056.621,14.84,27.358,18.541l3.918-26.989.738,29.245s16.124,10.39,36.661-2.7c0,0,.982-18.739-2.712-33.589s-1.346-31.091.259-41.369S1916.8,1044.806,1916.94,1040.306Z" transform="translate(-1847.388 -962.563)" fill="#4949a8"/>
        <g id="Group_900" data-name="Group 900" transform="translate(23.569 0)">
          <path id="Path_3129" data-name="Path 3129" d="M1922.947,956.61a8.864,8.864,0,0,0,2.532,5.027l4.529-.97,3.321,3.954,5.82-19.377,2.787-3.845a31.377,31.377,0,0,1-3.6-.293s.593,2.882-.7,4.25-5.918,4.251-5.781,6.657a49.543,49.543,0,0,0,1.78,7.754l-2.324,1.57s-1.925-3.675-3.812-6.841S1922.6,953.583,1922.947,956.61Z" transform="translate(-1914.24 -924.417)" fill="#f4c49d"/>
          <path id="Path_3130" data-name="Path 3130" d="M1905.418,938.968a15.823,15.823,0,0,0,2.781,4.943c1.084,1.079,1.93.739,2.978.735,1.78,0,2.654-5.409,2.654-5.409a8.864,8.864,0,0,1-2.532-5.027c-.351-3.026,2.663-5.283,4.548-2.115s3.812,6.841,3.812,6.841l2.325-1.57a49.542,49.542,0,0,1-1.78-7.754c-.137-2.406,4.483-5.289,5.781-6.657s.7-4.25.7-4.25a8.15,8.15,0,0,0,3.432.939l1.786.6,2.117-2.08s2.479-2.6,2.06-8.289a9.687,9.687,0,0,0-5.538-7.858s-.723,3.994-6.795,4.442-15.352.5-19.013,7.759S1902.637,932.306,1905.418,938.968Z" transform="translate(-1902.592 -902.017)" fill="#023e60"/>
          <path id="Path_3131" data-name="Path 3131" d="M1915.725,965.585l.806,10.943c7.739,10.112,16.35,4.449,16.35,4.449l-.8-10.811s4.45,1.707,6.428.925,2.4-1.957,3.9-6.517-.053-6.865-.656-9.871.483-5.5.93-8.082-1.136-6.784-1.136-6.784c-.448.7-2.108.861-3.735.834a31.388,31.388,0,0,1-3.6-.293s.594,2.882-.7,4.25-5.918,4.251-5.781,6.657a49.546,49.546,0,0,0,1.78,7.754l-2.324,1.57s-1.925-3.675-3.812-6.841-4.9-.911-4.548,2.115a8.865,8.865,0,0,0,2.532,5.027s-.874,5.407-2.654,5.409C1917.655,966.324,1916.81,966.664,1915.725,965.585Z" transform="translate(-1910.118 -923.691)" fill="#f4c49d"/>
        </g>
        <path id="Path_3132" data-name="Path 3132" d="M2021.329,1029.969l20.5-5.464h0c9.99-6.781,26.58-18.349,28.758-21.848,3.146-5.046,3.992-9.2,6.748-5.976s5.285-4.523,9.368-1.481,2.878,6.478-5.238,14.315c-5.641,5.44-27.608,21.245-37.894,28.56h-.007l-6.08,1.569h0l-14.131,3.645Z" transform="translate(-1947.067 -955.002)" fill="#f7d9b5"/>
        <path id="Path_3133" data-name="Path 3133" d="M1959.074,1062.958a62.643,62.643,0,0,0,18.447.605l.521-.077,3.165,21.359-30.306,4.491c-3.376.5-12.5,2.53-14.818.373-3.9,3.313-4.352-10.065-4.535-12.666S1948.177,1061.035,1959.074,1062.958Z" transform="translate(-1895.616 -994.138)" fill="#4949a8"/>
      </g>
    </g>
  </g>
</svg>
