<svg id="solutions" xmlns="http://www.w3.org/2000/svg" width="73" height="73" viewBox="0 0 73 73">
  <path id="Path_3012" data-name="Path 3012" d="M315.188,141.124a5.24,5.24,0,0,0-5.107,4.094,5.213,5.213,0,0,0-3.971,3.97,5.214,5.214,0,0,0-4.093,5.107v1.746a5.233,5.233,0,0,0-4.9,1.391l-4.856,4.852a10.415,10.415,0,0,0-3.075,7.418v4.716a1.086,1.086,0,0,0,2.173,0V169.7a8.257,8.257,0,0,1,2.438-5.88l4.856-4.853a3.058,3.058,0,0,1,4.325,4.325l-3.082,3.082a1.086,1.086,0,1,0,1.536,1.536l9.33-9.33a4.623,4.623,0,0,0,1.363-3.29c0-11.669,0-8.442,0-9.1a3.058,3.058,0,0,1,6.112.164v13.355a2.463,2.463,0,0,1-.727,1.754l-10.4,10.4a10.323,10.323,0,0,0-3.043,7.348v2.945h-12.71v-2.673a1.086,1.086,0,0,0-2.173,0v2.784a1.422,1.422,0,0,0-.87,1.309V187a1.217,1.217,0,0,0-.354.859v5.773a1.223,1.223,0,0,0,1.222,1.221h17.06a1.223,1.223,0,0,0,1.221-1.221v-5.773a1.217,1.217,0,0,0-.354-.859v-3.415a1.422,1.422,0,0,0-.87-1.309v-3.056a8.164,8.164,0,0,1,2.407-5.811l10.4-10.4a4.623,4.623,0,0,0,1.363-3.29V146.355A5.237,5.237,0,0,0,315.188,141.124Zm-11,13.171a3.049,3.049,0,0,1,1.8-2.789v7.756a2.491,2.491,0,0,1-.082.636,5.216,5.216,0,0,0-1.715-2.767v-2.836Zm5.04,2.751-1.07,1.071v-7.791a3.049,3.049,0,0,1,1.8-2.789v7.756a2.463,2.463,0,0,1-.726,1.753Zm-18.737,29.587v-2.3h14.449v2.3Zm14.8,6.043H290.139v-3.87H305.3Z" transform="translate(-247.419 -121.848)" fill="#a765e6"/>
  <path id="Path_3013" data-name="Path 3013" d="M11.766,173.407a8.164,8.164,0,0,1,2.407,5.811v3.056a1.422,1.422,0,0,0-.87,1.309V187a1.217,1.217,0,0,0-.354.859v5.773a1.223,1.223,0,0,0,1.221,1.221h17.06a1.223,1.223,0,0,0,1.222-1.221v-5.773A1.217,1.217,0,0,0,32.1,187v-3.414a1.422,1.422,0,0,0-.87-1.309V169.7a10.414,10.414,0,0,0-3.075-7.417L23.3,157.435a5.233,5.233,0,0,0-4.9-1.392V154.3a5.214,5.214,0,0,0-4.093-5.107,5.213,5.213,0,0,0-3.971-3.97A5.232,5.232,0,0,0,0,146.358v1.626a1.086,1.086,0,1,0,2.173,0v-1.626a3.058,3.058,0,0,1,6.112-.164c0,.647,0-2.593,0,9.1a4.622,4.622,0,0,0,1.363,3.29l9.33,9.33a1.086,1.086,0,0,0,1.537-1.536L17.437,163.3a3.058,3.058,0,1,1,4.325-4.325l4.856,4.853a8.256,8.256,0,0,1,2.438,5.88v12.459H16.346v-2.945a10.323,10.323,0,0,0-3.043-7.348l-10.4-10.4a2.466,2.466,0,0,1-.726-1.754v-6.659a1.086,1.086,0,0,0-2.173,0v6.659A4.623,4.623,0,0,0,1.363,163Zm4.462-19.11v2.836a5.217,5.217,0,0,0-1.715,2.767,2.492,2.492,0,0,1-.082-.636v-7.756A3.048,3.048,0,0,1,16.229,154.3Zm-5.766,1v-7.756a3.048,3.048,0,0,1,1.793,2.626c.006.95,0-2.854,0,7.954l-1.07-1.07A2.464,2.464,0,0,1,10.462,155.294ZM30.28,192.678H15.123v-3.87h7.472a1.086,1.086,0,0,0,0-2.173H15.477v-2.3H29.926v2.3H27.665a1.086,1.086,0,0,0,0,2.173H30.28Z" transform="translate(0 -121.851)" fill="#a765e6"/>
  <path id="Path_3014" data-name="Path 3014" d="M145.678,30.416V24.137a.583.583,0,0,1,.576-.59.185.185,0,0,1,.139.065,4.513,4.513,0,0,0,3.409,1.575,4.7,4.7,0,0,0,0-9.4,4.513,4.513,0,0,0-3.409,1.575.186.186,0,0,1-.142.064.583.583,0,0,1-.573-.59V10.562a1.6,1.6,0,0,0-1.574-1.62H138a.583.583,0,0,1-.573-.59.2.2,0,0,1,.064-.147A4.765,4.765,0,0,0,139.024,4.7a4.566,4.566,0,1,0-9.128,0,4.765,4.765,0,0,0,1.528,3.508.2.2,0,0,1,.064.147.583.583,0,0,1-.573.59h-6.1a1.6,1.6,0,0,0-1.574,1.62v6.279a.583.583,0,0,1-.576.59.184.184,0,0,1-.139-.065,4.513,4.513,0,0,0-3.409-1.575,4.7,4.7,0,0,0,0,9.4,4.513,4.513,0,0,0,3.409-1.575.186.186,0,0,1,.142-.065.583.583,0,0,1,.573.59v6.279a1.6,1.6,0,0,0,1.574,1.62h6.1a2.728,2.728,0,0,0,2.684-2.765,2.4,2.4,0,0,0-.77-1.766,2.561,2.561,0,0,1-.823-1.886,2.454,2.454,0,1,1,4.906,0,2.561,2.561,0,0,1-.823,1.886,2.4,2.4,0,0,0-.77,1.769A2.728,2.728,0,0,0,138,32.036h6.1a1.6,1.6,0,0,0,1.574-1.62Zm-2.111-.553H138a.583.583,0,0,1-.573-.592.2.2,0,0,1,.063-.144,4.765,4.765,0,0,0,1.53-3.509,4.566,4.566,0,1,0-9.128,0,4.765,4.765,0,0,0,1.53,3.509.2.2,0,0,1,.063.146.583.583,0,0,1-.573.59h-5.562V24.137a2.728,2.728,0,0,0-2.687-2.762,2.272,2.272,0,0,0-1.716.793,2.426,2.426,0,0,1-1.833.847,2.526,2.526,0,0,1,0-5.049,2.426,2.426,0,0,1,1.833.847,2.272,2.272,0,0,0,1.718.793,2.728,2.728,0,0,0,2.684-2.763V11.116h5.562A2.728,2.728,0,0,0,133.6,8.353a2.4,2.4,0,0,0-.771-1.77,2.561,2.561,0,0,1-.822-1.886,2.454,2.454,0,1,1,4.906,0,2.562,2.562,0,0,1-.822,1.886,2.4,2.4,0,0,0-.771,1.769A2.728,2.728,0,0,0,138,11.116h5.562v5.725a2.728,2.728,0,0,0,2.687,2.763,2.271,2.271,0,0,0,1.716-.793,2.426,2.426,0,0,1,1.833-.847,2.526,2.526,0,0,1,0,5.049,2.426,2.426,0,0,1-1.833-.847,2.273,2.273,0,0,0-1.718-.793,2.728,2.728,0,0,0-2.684,2.762v5.726Z" transform="translate(-97.96)" fill="#a765e6"/>
</svg>
