<svg xmlns="http://www.w3.org/2000/svg" width="315.711" height="57.498" viewBox="0 0 315.711 57.498">
  <path id="Path_3322" data-name="Path 3322" d="M18.076,67.623v-47H1.289v-9.57H46.246v9.57H29.5v47Zm72.741,0H79.973V46.708q0-6.637-.695-8.586a6.022,6.022,0,0,0-2.257-3.029,6.452,6.452,0,0,0-3.762-1.081A8.7,8.7,0,0,0,68.2,35.555a7.777,7.777,0,0,0-3.068,4.09q-.83,2.547-.83,9.416V67.623H53.462V26.641H63.534v6.02Q68.9,25.715,77.04,25.715a16.27,16.27,0,0,1,6.56,1.293,10.992,10.992,0,0,1,4.5,3.3,11.952,11.952,0,0,1,2.122,4.554,33.87,33.87,0,0,1,.6,7.293Zm29.791-40.982v8.644H113.2V51.8a41.08,41.08,0,0,0,.212,5.846,2.382,2.382,0,0,0,.965,1.37,3.06,3.06,0,0,0,1.833.54,14.028,14.028,0,0,0,4.361-1.042l.926,8.413a21.555,21.555,0,0,1-8.567,1.621,13.588,13.588,0,0,1-5.287-.984,7.715,7.715,0,0,1-3.454-2.547,10.052,10.052,0,0,1-1.524-4.226,52.563,52.563,0,0,1-.347-7.641V35.285H97.338V26.641h4.978V18.5L113.2,12.17V26.641Zm7.564-15.59h20.877a40.767,40.767,0,0,1,10.766,1.081,18.918,18.918,0,0,1,8.528,5.21,24.716,24.716,0,0,1,5.4,9.165A41.75,41.75,0,0,1,175.6,39.877a37.18,37.18,0,0,1-1.737,12.04,24.942,24.942,0,0,1-6.059,9.995,20.08,20.08,0,0,1-8.027,4.515,34.559,34.559,0,0,1-10.11,1.2H128.172Zm11.423,9.57v37.47h8.528a31.123,31.123,0,0,0,6.908-.54,10.543,10.543,0,0,0,4.611-2.354,11.978,11.978,0,0,0,2.991-5.46,36.906,36.906,0,0,0,1.158-10.361A33.8,33.8,0,0,0,162.632,29.3a12.945,12.945,0,0,0-3.242-5.48,10.87,10.87,0,0,0-5.287-2.663,51.788,51.788,0,0,0-9.377-.54Zm55.993,47H184.744V26.641h10.072v5.827q2.586-4.129,4.65-5.441a8.554,8.554,0,0,1,4.689-1.312,13.763,13.763,0,0,1,7.139,2.045l-3.357,9.454a9.515,9.515,0,0,0-5.094-1.775,6.019,6.019,0,0,0-3.859,1.254,8.573,8.573,0,0,0-2.489,4.534q-.907,3.28-.907,13.738Zm20.375-46.539V11.051h10.844V21.084Zm0,46.539V26.641h10.844V67.623Zm33.226,0L232.672,26.641h11.384l7.718,20.916,2.238,6.985q.888-2.663,1.119-3.512.54-1.737,1.158-3.473l7.8-20.916h11.152L258.952,67.623ZM305.606,54.58l10.805,1.814a17.723,17.723,0,0,1-6.58,9.049,19.329,19.329,0,0,1-11.249,3.106q-10.689,0-15.822-6.985-4.052-5.6-4.052-14.124,0-10.188,5.325-15.957A17.538,17.538,0,0,1,297.5,25.715q9.146,0,14.433,6.039t5.055,18.5H289.823a10.971,10.971,0,0,0,2.624,7.506,8.208,8.208,0,0,0,6.251,2.682,6.64,6.64,0,0,0,4.283-1.389A8.579,8.579,0,0,0,305.606,54.58Zm.617-10.959q-.116-4.708-2.431-7.158a7.825,7.825,0,0,0-11.5.135,10,10,0,0,0-2.277,7.023Z" transform="translate(-1.289 -11.051)" fill="#fff"/>
</svg>
