<svg xmlns="http://www.w3.org/2000/svg" width="73" height="73.11" viewBox="0 0 73 73.11">
  <g id="analyze" transform="translate(-0.36 0)">
    <g id="Group_853" data-name="Group 853" transform="translate(46.622 46.213)">
      <g id="Group_852" data-name="Group 852">
        <path id="Path_3017" data-name="Path 3017" d="M330.883,315.139l-1.688-.745c-.066-.236-.137-.463-.214-.684l.941-1.621a1.226,1.226,0,0,0,.01-1.211,13.81,13.81,0,0,0-1.76-2.458,1.214,1.214,0,0,0-1.183-.376l-1.776.406q-.262-.2-.537-.4l-.172-1.884a1.22,1.22,0,0,0-.7-1,13.233,13.233,0,0,0-2.836-.952,1.215,1.215,0,0,0-1.177.4l-1.244,1.445h-.6l-1.244-1.445a1.209,1.209,0,0,0-1.177-.4,13.229,13.229,0,0,0-2.836.952,1.22,1.22,0,0,0-.7,1l-.172,1.884q-.276.192-.537.4l-1.776-.406a1.217,1.217,0,0,0-1.183.376,13.725,13.725,0,0,0-1.759,2.459,1.224,1.224,0,0,0,.009,1.209l.94,1.62q-.115.331-.214.685l-1.688.745a1.221,1.221,0,0,0-.729,1.119v2.767a1.221,1.221,0,0,0,.729,1.119l1.688.745c.066.236.137.463.214.684l-.941,1.621a1.226,1.226,0,0,0-.01,1.211,13.81,13.81,0,0,0,1.76,2.458,1.216,1.216,0,0,0,1.184.376l1.774-.407c.174.137.355.27.538.4l.172,1.884a1.22,1.22,0,0,0,.7,1,13.235,13.235,0,0,0,2.836.952,1.217,1.217,0,0,0,1.177-.4l1.244-1.445h.6l1.244,1.445a1.22,1.22,0,0,0,.927.425,1.193,1.193,0,0,0,.251-.026,13.227,13.227,0,0,0,2.836-.952,1.22,1.22,0,0,0,.7-1l.172-1.884q.276-.192.537-.4l1.776.406a1.213,1.213,0,0,0,1.183-.376,13.818,13.818,0,0,0,1.76-2.458,1.226,1.226,0,0,0-.01-1.211l-.941-1.621c.076-.221.148-.448.214-.684l1.688-.745a1.221,1.221,0,0,0,.729-1.119v-2.768A1.221,1.221,0,0,0,330.883,315.139Zm-3.221,3.754a1.218,1.218,0,0,0-.7.848,9.13,9.13,0,0,1-.461,1.474,1.226,1.226,0,0,0,.072,1.083l.87,1.5q-.3.458-.638.893l-1.638-.375a1.211,1.211,0,0,0-1.08.275,9.045,9.045,0,0,1-1.22.9,1.224,1.224,0,0,0-.576.929l-.159,1.745c-.328.129-.658.241-.986.334l-1.12-1.3a1.223,1.223,0,0,0-.926-.425h-1.717a1.224,1.224,0,0,0-.926.425l-1.12,1.3c-.328-.093-.658-.205-.986-.334l-.159-1.745a1.224,1.224,0,0,0-.576-.929,8.969,8.969,0,0,1-1.219-.9,1.224,1.224,0,0,0-1.083-.276l-1.637.375c-.228-.288-.441-.586-.638-.892l.87-1.5a1.227,1.227,0,0,0,.072-1.083,9.133,9.133,0,0,1-.461-1.474,1.219,1.219,0,0,0-.7-.848l-1.506-.664v-1.175l1.506-.664a1.218,1.218,0,0,0,.7-.848,9.2,9.2,0,0,1,.461-1.477,1.224,1.224,0,0,0-.072-1.082l-.869-1.5c.2-.3.408-.6.636-.892l1.638.375a1.219,1.219,0,0,0,1.08-.275,9.047,9.047,0,0,1,1.22-.9,1.224,1.224,0,0,0,.576-.929l.159-1.745c.328-.129.658-.241.986-.334l1.12,1.3a1.223,1.223,0,0,0,.927.425H319.1a1.224,1.224,0,0,0,.927-.425l1.12-1.3c.328.093.658.205.986.334l.159,1.745a1.224,1.224,0,0,0,.576.929,9.045,9.045,0,0,1,1.22.9,1.218,1.218,0,0,0,1.08.275l1.638-.375q.342.433.638.893l-.87,1.5a1.227,1.227,0,0,0-.072,1.083,9.13,9.13,0,0,1,.461,1.474,1.219,1.219,0,0,0,.7.848l1.506.664v1.175Z" transform="translate(-304.874 -304.192)" fill="#a765e6"/>
      </g>
    </g>
    <g id="Group_855" data-name="Group 855" transform="translate(53.878 53.549)">
      <g id="Group_854" data-name="Group 854">
        <path id="Path_3018" data-name="Path 3018" d="M358.472,352.2a6.113,6.113,0,1,0,6.113,6.113A6.113,6.113,0,0,0,358.472,352.2Zm0,9.78a3.668,3.668,0,1,1,3.668-3.668A3.668,3.668,0,0,1,358.472,361.981Z" transform="translate(-352.359 -352.201)" fill="#a765e6"/>
      </g>
    </g>
    <g id="Group_857" data-name="Group 857" transform="translate(16.134 4.921)">
      <g id="Group_856" data-name="Group 856">
        <path id="Path_3019" data-name="Path 3019" d="M122.7,32.2a18.338,18.338,0,1,0,18.338,18.338A18.338,18.338,0,0,0,122.7,32.2ZM107.465,55.07a15.876,15.876,0,0,1,19.763-19.757c-.3.2-.609.387-.885.6a1.223,1.223,0,0,0-.426,1.359l.561,1.708c-.23.217-.456.443-.673.673l-1.707-.561a1.231,1.231,0,0,0-1.357.425,18.3,18.3,0,0,0-2.248,3.848,1.222,1.222,0,0,0,.309,1.39l1.36,1.218c-.093.3-.175.611-.248.918l-1.772.373a1.223,1.223,0,0,0-.971,1.2v4.169a1.223,1.223,0,0,0,.971,1.2l1.772.373c.073.307.155.614.247.918L120.8,56.329a1.222,1.222,0,0,0-.309,1.39,18.37,18.37,0,0,0,2.246,3.847,1.223,1.223,0,0,0,1.359.426l1.708-.561c.217.23.443.456.673.673l-.561,1.707a1.224,1.224,0,0,0,.425,1.357c.276.209.588.4.887.6A15.89,15.89,0,0,1,107.465,55.07Zm22.6,9.539a16.857,16.857,0,0,1-1.542-.893l.529-1.609a1.225,1.225,0,0,0-.371-1.316,13.353,13.353,0,0,1-1.565-1.564,1.227,1.227,0,0,0-1.315-.37l-1.614.531a15.961,15.961,0,0,1-1.08-1.841l1.282-1.15a1.223,1.223,0,0,0,.335-1.325,13.166,13.166,0,0,1-.574-2.129,1.222,1.222,0,0,0-.952-.979l-1.582-.333V49.447l1.582-.333a1.223,1.223,0,0,0,.952-.979A13.3,13.3,0,0,1,124.722,46a1.222,1.222,0,0,0-.335-1.324L123.1,43.531a16.064,16.064,0,0,1,1.08-1.841l1.615.531a1.229,1.229,0,0,0,1.316-.371,13.352,13.352,0,0,1,1.564-1.565,1.225,1.225,0,0,0,.37-1.315l-.529-1.609a17.046,17.046,0,0,1,1.542-.892,15.97,15.97,0,0,1,4.435,3.462,10.984,10.984,0,0,0,0,21.216A15.968,15.968,0,0,1,130.063,64.609ZM128.9,49.323a8.539,8.539,0,0,1,7.236-7.236,15.761,15.761,0,0,1,0,16.9A8.538,8.538,0,0,1,128.9,49.323Z" transform="translate(-104.359 -32.201)" fill="#a765e6"/>
      </g>
    </g>
    <g id="Group_859" data-name="Group 859" transform="translate(0.36 0)">
      <g id="Group_858" data-name="Group 858" transform="translate(0)">
        <path id="Path_3020" data-name="Path 3020" d="M66.528,20.811l-1.46-.644c-.05-.175-.1-.346-.159-.514l.815-1.4a1.219,1.219,0,0,0,.01-1.2,12.493,12.493,0,0,0-1.591-2.225,1.213,1.213,0,0,0-1.181-.376l-1.534.351c-.13-.1-.262-.2-.4-.291l-.15-1.633a1.22,1.22,0,0,0-.7-.993,11.908,11.908,0,0,0-2.567-.862,1.214,1.214,0,0,0-1.145.367l-1.344,1.46a23.108,23.108,0,0,0-41.4,20.54q.508,1.025,1.116,2L11.584,39.45a1.223,1.223,0,0,0-.256.923,1.21,1.21,0,0,0,.491.823l2.644,1.923L.632,60.141a1.22,1.22,0,0,0,.18,1.716l0,0L6.9,66.731a1.22,1.22,0,0,0,1.706-.183l14.14-17.4,2.462,1.791a1.218,1.218,0,0,0,1.667-.224l3.8-4.749A22.87,22.87,0,0,0,55.13,33.476l1.332,1.466a1.217,1.217,0,0,0,.9.4,1.189,1.189,0,0,0,.25-.026,11.915,11.915,0,0,0,2.568-.862,1.221,1.221,0,0,0,.7-.993l.15-1.633c.134-.1.266-.193.395-.291l1.535.351a1.209,1.209,0,0,0,1.181-.376,12.517,12.517,0,0,0,1.59-2.223,1.218,1.218,0,0,0-.008-1.206l-.815-1.4c.057-.168.109-.339.159-.514l1.46-.644a1.216,1.216,0,0,0,.726-1.114v-2.48A1.216,1.216,0,0,0,66.528,20.811ZM7.482,64.074,3.3,60.725,16.437,44.553l4.341,3.158ZM25.7,48.283,23.248,46.5l-.138-.1-8.828-6.421L16.3,37.458a23.175,23.175,0,0,0,11.734,7.915Zm8.748-4.42a20.7,20.7,0,1,1,20.7-20.7A20.7,20.7,0,0,1,34.452,43.863ZM64.819,23.612l-1.276.562a1.213,1.213,0,0,0-.7.844,8.225,8.225,0,0,1-.407,1.306,1.217,1.217,0,0,0,.071,1.076l.742,1.279q-.223.341-.477.667l-1.391-.319a1.207,1.207,0,0,0-1.077.272,8.035,8.035,0,0,1-1.08.8,1.219,1.219,0,0,0-.571.923l-.137,1.49q-.373.145-.748.253l-1.59-1.75a22.7,22.7,0,0,0-.008-15.721l1.594-1.731c.25.073.5.158.752.254l.137,1.49a1.22,1.22,0,0,0,.572.924,7.912,7.912,0,0,1,1.078.8,1.211,1.211,0,0,0,1.077.272l1.391-.319q.253.326.477.667l-.742,1.279a1.217,1.217,0,0,0-.071,1.076,8.23,8.23,0,0,1,.407,1.306,1.214,1.214,0,0,0,.7.844l1.276.562v.894Z" transform="translate(-0.36 0)" fill="#a765e6"/>
      </g>
    </g>
  </g>
</svg>
