<svg xmlns="http://www.w3.org/2000/svg" xmlns:xlink="http://www.w3.org/1999/xlink" width="710" height="762.98" viewBox="0 0 710 762.98">
  <defs>
    <linearGradient id="linear-gradient" x1="0.5" x2="-0.337" y2="1.744" gradientUnits="objectBoundingBox">
      <stop offset="0" stop-color="#331d48"/>
      <stop offset="1" stop-color="#a765e6"/>
    </linearGradient>
    <linearGradient id="linear-gradient-3" x1="0.5" x2="-0.227" y2="0.833" gradientUnits="objectBoundingBox">
      <stop offset="0" stop-color="#241234"/>
      <stop offset="1" stop-color="#a765e6"/>
    </linearGradient>
    <linearGradient id="linear-gradient-4" x2="0.174" y2="1.321" xlink:href="#linear-gradient"/>
  </defs>
  <g id="Group_866" data-name="Group 866" transform="translate(3791 -2597)">
    <g id="Group_864" data-name="Group 864" transform="translate(-1614 -9561)">
      <rect id="Rectangle_509" data-name="Rectangle 509" width="710" height="762.98" transform="translate(-2177 12158)" fill="none"/>
    </g>
    <path id="Path_1000" data-name="Path 1000" d="M336.285,297.456,113.457,168.432,284.35,69.971,507.18,198.993ZM118.705,168.437,336.29,294.424l165.639-95.437L284.344,73Z" transform="translate(-3653.565 2833.076)" fill="#a765e6"/>
    <path id="Path_1456" data-name="Path 1456" d="M275.986,284.158l-.66-.387L39.005,145.5,178.83,65.064l1.311,2.273L44.235,145.52l231.757,135.6,70.344-40.733,1.316,2.273Z" transform="translate(-3645.101 2670.307)" fill="#a765e6"/>
    <path id="Path_1427" data-name="Path 1427" d="M169.369,139.806a13.649,13.649,0,0,1-12.345,0c-3.408-1.97-3.408-5.16,0-7.127a13.649,13.649,0,0,1,12.345,0C172.777,134.645,172.777,137.836,169.369,139.806Z" transform="translate(-3588.282 2930.547)" fill="#331d48" stroke="#a765e6" stroke-width="1"/>
    <g id="Group_507" data-name="Group 507" transform="translate(-3500.064 2653.74)">
      <path id="Path_1500" data-name="Path 1500" d="M145.144,119.293,79.915,81.631l65.226-37.659,65.226,37.659ZM85.163,81.631l59.98,34.63,59.973-34.63L145.141,47Z" transform="translate(-79.915 -17.008)" fill="#a765e6"/>
      <g id="Group_506" data-name="Group 506" transform="translate(7.711)">
        <path id="Union_7" data-name="Union 7" d="M51.965,58.579,2.062,29.77A3.547,3.547,0,0,1,0,26.786c0-.055,0-.113,0-.166,0-.02,0-.038,0-.057V8.855l38.649.021,12.45-7.19.183-.1,0,0,.179-.1a.184.184,0,0,0,.025-.013l.16-.08c.015-.008.029-.016.044-.023l.141-.068c.022-.011.044-.02.067-.031l.12-.057.088-.039c.032-.013.065-.028.1-.042l.115-.049.069-.029L52.542,1a.394.394,0,0,0,.039-.016c.058-.021.117-.044.176-.067l.005,0c3.4-1.285,7.679-1.228,10.3.284L76.4,8.9l38.611.023V26.139c.113,1.42-.872,2.948-2.909,4.124L63.916,58.08a13.867,13.867,0,0,1-6.763,1.693A10.563,10.563,0,0,1,51.965,58.579Z" transform="translate(0.008 24.29)" stroke="#a765e6" stroke-width="1" fill="url(#linear-gradient)"/>
        <path id="Path_1505" data-name="Path 1505" d="M134.864,98.791,84.958,69.98c-3.064-1.77-2.68-4.86.858-6.9L134,35.257c3.538-2.042,8.887-2.263,11.951-.5L195.86,63.576c3.061,1.768,2.677,4.857-.858,6.9L146.813,98.3C143.277,100.338,137.928,100.561,134.864,98.791Z" transform="translate(-82.89 -33.568)" stroke="#a765e6" stroke-width="1" fill="url(#linear-gradient)"/>
        <g id="Group_504" data-name="Group 504" transform="translate(92.635 46.045)">
          <path id="Path_1507" data-name="Path 1507" d="M122.661,55.662a4.461,4.461,0,0,1-2.016,3.494c-1.112.64-2.014.119-2.014-1.166a4.457,4.457,0,0,1,2.014-3.491C121.759,53.855,122.661,54.376,122.661,55.662Z" transform="translate(-118.631 -46.735)" fill="#a765e6"/>
          <path id="Path_1508" data-name="Path 1508" d="M125.163,54.218a4.457,4.457,0,0,1-2.014,3.491c-1.115.643-2.016.122-2.016-1.164a4.453,4.453,0,0,1,2.016-3.491C124.261,52.411,125.163,52.932,125.163,54.218Z" transform="translate(-114.648 -49.034)" fill="#a765e6"/>
          <path id="Path_1509" data-name="Path 1509" d="M127.668,52.773a4.46,4.46,0,0,1-2.016,3.491c-1.114.643-2.016.122-2.016-1.164a4.453,4.453,0,0,1,2.016-3.491C126.763,50.966,127.668,51.487,127.668,52.773Z" transform="translate(-110.665 -51.334)" fill="#a765e6"/>
        </g>
      </g>
      <path id="Path_1513" data-name="Path 1513" d="M104.74,72.16a13.633,13.633,0,0,1-12.345,0c-3.408-1.967-3.408-5.158,0-7.125a13.633,13.633,0,0,1,12.345,0C108.148,67,108.148,70.193,104.74,72.16Z" transform="translate(-64.118 14.17)" fill="#331d48" stroke="#a765e6" stroke-width="1"/>
    </g>
    <g id="Group_862" data-name="Group 862" transform="translate(-3484.07 2777.518)">
      <g id="Group_398" data-name="Group 398">
        <path id="Path_1005" data-name="Path 1005" d="M344.393,259.156,188.356,169.069c-4.414-2.55-6.962-9.307-5.689-15.1L210.237,28.587c1.273-5.79,5.881-8.416,10.295-5.868l156.039,90.09c4.414,2.548,6.962,9.307,5.689,15.1L354.69,253.289C353.417,259.079,348.809,261.707,344.393,259.156Z" transform="translate(-59.846 -21.209)" fill="#331d48" stroke="#a765e6" stroke-width="1"/>
        <path id="Path_1006" data-name="Path 1006" d="M357.464,112.588,201.426,22.5a6.165,6.165,0,0,0-6.143-.27,6.421,6.421,0,0,1,4.645.816l156.039,90.087c4.414,2.55,6.962,9.31,5.689,15.1L334.086,253.618a8.783,8.783,0,0,1-4.152,6.135c2.633-.575,4.834-2.965,5.65-6.684l27.569-125.383C364.426,121.9,361.878,115.136,357.464,112.588Z" transform="translate(-39.242 -21.538)" fill="#a765e6"/>
        <path id="Path_1007" data-name="Path 1007" d="M337.071,245.34l-146.75-84.686c-4.041-2.33-6.371-8.517-5.207-13.814l25.413-115.56c1.164-5.3,5.383-7.7,9.421-5.37L366.7,110.6c4.038,2.33,6.368,8.517,5.2,13.814L346.492,239.97C345.328,245.268,341.111,247.673,337.071,245.34Z" transform="translate(-55.906 -15.998)" fill="#fff" stroke="#a765e6" stroke-width="1"/>
        <path id="Path_1008" data-name="Path 1008" d="M337.071,245.34l-146.75-84.686c-4.041-2.33-6.371-8.517-5.207-13.814l25.413-115.56c1.164-5.3,5.383-7.7,9.421-5.37L366.7,110.6c4.038,2.33,6.368,8.517,5.2,13.814L346.492,239.97C345.328,245.268,341.111,247.673,337.071,245.34Z" transform="translate(-55.906 -15.998)" stroke="#a765e6" stroke-width="1" fill="url(#linear-gradient-3)"/>
        <path id="Path_1009" data-name="Path 1009" d="M338.351,244.716,191.6,160.031c-4.038-2.33-6.368-8.517-5.2-13.814l25.413-115.56a8.125,8.125,0,0,1,3.7-5.572c-2.325.6-4.248,2.778-4.976,6.093l-25.413,115.56c-1.164,5.3,1.166,11.484,5.207,13.814l146.75,84.686a5.64,5.64,0,0,0,5.725.2A5.851,5.851,0,0,1,338.351,244.716Z" transform="translate(-55.906 -15.895)" fill="#a765e6"/>
        <path id="Path_1014" data-name="Path 1014" d="M294.095,241.547l-156.036-90.09c-4.414-2.548-3.862-7,1.236-9.942l106.25-61.323c5.1-2.942,12.806-3.263,17.223-.713L418.8,169.566c4.414,2.55,3.862,7-1.236,9.945l-106.25,61.323C306.219,243.776,298.511,244.094,294.095,241.547Z" transform="translate(-135.078 67.954)" fill="#331d48" stroke="#a765e6" stroke-width="1"/>
        <g id="Group_396" data-name="Group 396" transform="translate(61.903 151.26)">
          <path id="Path_1016" data-name="Path 1016" d="M166.4,101.12l-7.06-4.074c-.565-.329-.495-.9.161-1.278l8.333-4.81a2.457,2.457,0,0,1,2.211-.093l7.06,4.077c.568.327.5.9-.158,1.278l-8.335,4.81A2.449,2.449,0,0,1,166.4,101.12Z" transform="translate(-158.962 -62.794)" fill="#331d48" stroke="#a765e6" stroke-width="1"/>
          <path id="Path_1017" data-name="Path 1017" d="M170.611,103.549l-7.06-4.077c-.568-.327-.5-.9.158-1.275l8.333-4.813a2.471,2.471,0,0,1,2.213-.091l7.06,4.077c.565.327.5.9-.161,1.275l-8.333,4.813A2.465,2.465,0,0,1,170.611,103.549Z" transform="translate(-152.266 -58.927)" fill="#331d48" stroke="#a765e6" stroke-width="1"/>
          <path id="Path_1018" data-name="Path 1018" d="M174.816,105.979l-7.058-4.077c-.568-.327-.5-.9.158-1.278l8.333-4.81a2.457,2.457,0,0,1,2.211-.091l7.06,4.074c.568.329.5.9-.158,1.278l-8.333,4.81A2.463,2.463,0,0,1,174.816,105.979Z" transform="translate(-145.569 -55.061)" fill="#331d48" stroke="#a765e6" stroke-width="1"/>
          <path id="Path_1019" data-name="Path 1019" d="M180.634,103.5l-7.058-4.077c-.568-.327-.5-.9.158-1.275l7-4.041a2.465,2.465,0,0,1,2.211-.091L190,98.091c.568.327.5.9-.158,1.275l-7,4.041A2.471,2.471,0,0,1,180.634,103.5Z" transform="translate(-136.308 -57.78)" fill="#331d48" stroke="#a765e6" stroke-width="1"/>
          <path id="Path_1020" data-name="Path 1020" d="M184.842,105.928l-7.06-4.077c-.568-.327-.495-.9.158-1.278l7-4.038a2.454,2.454,0,0,1,2.213-.091l7.06,4.074c.565.329.5.9-.161,1.278l-7,4.038A2.457,2.457,0,0,1,184.842,105.928Z" transform="translate(-129.612 -53.914)" fill="#331d48" stroke="#a765e6" stroke-width="1"/>
          <path id="Path_1021" data-name="Path 1021" d="M189.049,108.355l-7.06-4.074c-.568-.327-.5-.9.158-1.278l7-4.038a2.458,2.458,0,0,1,2.211-.093l7.06,4.077c.568.327.5.9-.158,1.278l-7,4.038A2.449,2.449,0,0,1,189.049,108.355Z" transform="translate(-122.915 -50.048)" fill="#331d48" stroke="#a765e6" stroke-width="1"/>
          <path id="Path_1022" data-name="Path 1022" d="M193.255,110.784l-7.06-4.077c-.565-.327-.5-.9.161-1.275l7-4.038a2.457,2.457,0,0,1,2.211-.093l7.06,4.077c.568.327.495.9-.158,1.275l-7,4.041A2.462,2.462,0,0,1,193.255,110.784Z" transform="translate(-116.219 -46.181)" fill="#331d48" stroke="#a765e6" stroke-width="1"/>
          <path id="Path_1023" data-name="Path 1023" d="M197.462,113.213l-7.06-4.077c-.568-.327-.5-.9.158-1.275l7-4.041a2.463,2.463,0,0,1,2.213-.091l7.06,4.077c.565.327.495.9-.161,1.275l-7,4.038A2.457,2.457,0,0,1,197.462,113.213Z" transform="translate(-109.523 -42.315)" fill="#331d48" stroke="#a765e6" stroke-width="1"/>
          <path id="Path_1024" data-name="Path 1024" d="M201.67,115.643l-7.06-4.077c-.568-.327-.5-.9.158-1.278l7-4.038a2.449,2.449,0,0,1,2.211-.091l7.06,4.074c.568.329.5.9-.158,1.278l-7,4.038A2.458,2.458,0,0,1,201.67,115.643Z" transform="translate(-102.827 -38.449)" fill="#331d48" stroke="#a765e6" stroke-width="1"/>
          <path id="Path_1025" data-name="Path 1025" d="M205.874,118.07,198.814,114c-.565-.329-.5-.9.161-1.278l7-4.038a2.458,2.458,0,0,1,2.211-.093l7.06,4.077c.568.327.5.9-.158,1.278l-7,4.038A2.454,2.454,0,0,1,205.874,118.07Z" transform="translate(-96.13 -34.583)" fill="#331d48" stroke="#a765e6" stroke-width="1"/>
          <path id="Path_1026" data-name="Path 1026" d="M210.082,120.5l-7.06-4.077c-.568-.327-.5-.9.158-1.275l7-4.041a2.471,2.471,0,0,1,2.213-.091l7.06,4.077c.565.327.5.9-.161,1.275l-7,4.041A2.465,2.465,0,0,1,210.082,120.5Z" transform="translate(-89.434 -30.717)" fill="#331d48" stroke="#a765e6" stroke-width="1"/>
          <path id="Path_1027" data-name="Path 1027" d="M214.29,122.929l-7.06-4.077c-.568-.327-.5-.9.158-1.278l7-4.038a2.449,2.449,0,0,1,2.211-.091l7.06,4.074c.568.329.5.9-.158,1.278l-7,4.038A2.458,2.458,0,0,1,214.29,122.929Z" transform="translate(-82.738 -26.851)" fill="#331d48" stroke="#a765e6" stroke-width="1"/>
          <path id="Path_1028" data-name="Path 1028" d="M218.494,125.356l-7.06-4.074c-.565-.329-.495-.9.161-1.278l7-4.038a2.457,2.457,0,0,1,2.211-.093l7.06,4.077c.568.327.5.9-.158,1.278l-7,4.038A2.454,2.454,0,0,1,218.494,125.356Z" transform="translate(-76.042 -22.985)" fill="#331d48" stroke="#a765e6" stroke-width="1"/>
          <path id="Path_1029" data-name="Path 1029" d="M186.835,102.348l-7.06-4.077c-.568-.327-.5-.9.158-1.275l7-4.038a2.458,2.458,0,0,1,2.211-.093l7.06,4.077c.568.327.5.9-.158,1.278l-7,4.038A2.457,2.457,0,0,1,186.835,102.348Z" transform="translate(-126.442 -59.61)" fill="#331d48" stroke="#a765e6" stroke-width="1"/>
          <path id="Path_1030" data-name="Path 1030" d="M182.563,99.883l-7.06-4.074c-.565-.329-.495-.9.161-1.278l7-4.038a2.457,2.457,0,0,1,2.211-.093l7.06,4.077c.568.327.5.9-.158,1.278l-7,4.038A2.454,2.454,0,0,1,182.563,99.883Z" transform="translate(-133.238 -63.534)" fill="#331d48" stroke="#a765e6" stroke-width="1"/>
          <path id="Path_1031" data-name="Path 1031" d="M183.291,100.3l-15.206-8.779c-.568-.327-.5-.9.158-1.278l7-4.038a2.463,2.463,0,0,1,2.213-.091l15.2,8.779c.568.327.5.9-.158,1.278l-7,4.038A2.449,2.449,0,0,1,183.291,100.3Z" transform="translate(-145.048 -70.352)" fill="#331d48" stroke="#a765e6" stroke-width="1"/>
          <path id="Path_1032" data-name="Path 1032" d="M184.52,96.285,172.18,89.16c-.568-.327-.5-.9.158-1.278l7-4.038a2.454,2.454,0,0,1,2.213-.091l12.34,7.122c.565.329.5.9-.161,1.278l-7,4.038A2.458,2.458,0,0,1,184.52,96.285Z" transform="translate(-138.53 -74.116)" fill="#331d48" stroke="#a765e6" stroke-width="1"/>
          <path id="Path_1033" data-name="Path 1033" d="M191.039,104.777l-7.06-4.077c-.565-.327-.5-.9.161-1.275l7-4.041a2.457,2.457,0,0,1,2.211-.091l7.06,4.077c.568.327.5.9-.158,1.275l-7,4.041A2.471,2.471,0,0,1,191.039,104.777Z" transform="translate(-119.745 -55.744)" fill="#331d48" stroke="#a765e6" stroke-width="1"/>
          <path id="Path_1034" data-name="Path 1034" d="M195.247,107.207l-7.06-4.077c-.568-.327-.5-.9.158-1.278l7-4.038a2.454,2.454,0,0,1,2.213-.091l7.06,4.074c.565.329.5.9-.161,1.278l-7,4.038A2.457,2.457,0,0,1,195.247,107.207Z" transform="translate(-113.049 -51.878)" fill="#331d48" stroke="#a765e6" stroke-width="1"/>
          <path id="Path_1035" data-name="Path 1035" d="M199.455,109.634l-7.06-4.074c-.568-.329-.5-.9.158-1.278l7-4.038a2.458,2.458,0,0,1,2.211-.093l7.06,4.077c.568.327.495.9-.158,1.278l-7,4.038A2.449,2.449,0,0,1,199.455,109.634Z" transform="translate(-106.353 -48.012)" fill="#331d48" stroke="#a765e6" stroke-width="1"/>
          <path id="Path_1036" data-name="Path 1036" d="M203.659,112.063l-7.06-4.077c-.565-.327-.5-.9.161-1.275l7-4.041a2.465,2.465,0,0,1,2.211-.091l7.06,4.077c.568.327.5.9-.158,1.275l-7,4.041A2.471,2.471,0,0,1,203.659,112.063Z" transform="translate(-99.656 -44.145)" fill="#331d48" stroke="#a765e6" stroke-width="1"/>
          <path id="Path_1037" data-name="Path 1037" d="M207.867,114.493l-7.06-4.077c-.568-.327-.5-.9.158-1.278l7-4.038a2.449,2.449,0,0,1,2.211-.091l7.06,4.074c.568.329.5.9-.158,1.278l-7,4.038A2.457,2.457,0,0,1,207.867,114.493Z" transform="translate(-92.96 -40.28)" fill="#331d48" stroke="#a765e6" stroke-width="1"/>
          <path id="Path_1038" data-name="Path 1038" d="M212.075,116.92l-7.06-4.074c-.568-.329-.5-.9.158-1.278l7-4.038a2.457,2.457,0,0,1,2.211-.093l7.06,4.077c.568.327.5.9-.158,1.278l-7,4.038A2.449,2.449,0,0,1,212.075,116.92Z" transform="translate(-86.264 -36.414)" fill="#331d48" stroke="#a765e6" stroke-width="1"/>
          <path id="Path_1039" data-name="Path 1039" d="M216.28,119.349l-7.06-4.077c-.565-.327-.495-.9.158-1.275l7-4.041a2.471,2.471,0,0,1,2.213-.091l7.06,4.077c.565.327.5.9-.161,1.275l-7,4.041A2.457,2.457,0,0,1,216.28,119.349Z" transform="translate(-79.568 -32.547)" fill="#331d48" stroke="#a765e6" stroke-width="1"/>
          <path id="Path_1040" data-name="Path 1040" d="M220.487,121.778l-7.06-4.077c-.568-.327-.495-.9.158-1.278l7-4.038a2.457,2.457,0,0,1,2.211-.091l7.06,4.077c.568.327.5.9-.158,1.275l-7,4.038A2.457,2.457,0,0,1,220.487,121.778Z" transform="translate(-72.871 -28.681)" fill="#331d48" stroke="#a765e6" stroke-width="1"/>
          <path id="Path_1041" data-name="Path 1041" d="M224.693,124.208l-7.06-4.077c-.565-.327-.5-.9.161-1.278l7-4.038a2.449,2.449,0,0,1,2.211-.091l7.06,4.074c.568.327.5.9-.158,1.278l-7,4.038A2.463,2.463,0,0,1,224.693,124.208Z" transform="translate(-66.175 -24.815)" fill="#331d48" stroke="#a765e6" stroke-width="1"/>
          <path id="Path_1042" data-name="Path 1042" d="M237.3,131.483l-15.406-8.893c-.565-.329-.495-.9.161-1.278l7-4.038a2.457,2.457,0,0,1,2.211-.093l15.406,8.9c.565.327.5.9-.161,1.278l-7,4.038A2.457,2.457,0,0,1,237.3,131.483Z" transform="translate(-59.396 -20.901)" fill="#331d48" stroke="#a765e6" stroke-width="1"/>
          <path id="Path_1043" data-name="Path 1043" d="M244.012,125.9l-13-7.506c-.565-.329-.5-.9.158-1.278l7-4.038a2.463,2.463,0,0,1,2.213-.093l13,7.509c.568.327.5.9-.158,1.275l-7,4.038A2.458,2.458,0,0,1,244.012,125.9Z" transform="translate(-44.883 -27.576)" fill="#331d48" stroke="#a765e6" stroke-width="1"/>
          <path id="Path_1044" data-name="Path 1044" d="M198.407,104.3l-7.06-4.077c-.568-.327-.5-.9.158-1.278l7-4.038a2.454,2.454,0,0,1,2.213-.091l7.06,4.074c.565.329.5.9-.161,1.278l-7,4.038A2.457,2.457,0,0,1,198.407,104.3Z" transform="translate(-108.019 -56.501)" fill="#331d48" stroke="#a765e6" stroke-width="1"/>
          <path id="Path_1045" data-name="Path 1045" d="M194.1,101.814l-7.06-4.077c-.568-.327-.5-.9.158-1.278l7-4.038a2.449,2.449,0,0,1,2.211-.091l7.06,4.074c.568.329.5.9-.158,1.278l-7,4.038A2.458,2.458,0,0,1,194.1,101.814Z" transform="translate(-114.881 -60.463)" fill="#331d48" stroke="#a765e6" stroke-width="1"/>
          <path id="Path_1046" data-name="Path 1046" d="M189.786,99.323l-7.06-4.074c-.568-.329-.5-.9.158-1.278l7-4.038a2.457,2.457,0,0,1,2.211-.093l7.06,4.077c.568.327.5.9-.158,1.278l-7,4.038A2.449,2.449,0,0,1,189.786,99.323Z" transform="translate(-121.744 -64.425)" fill="#331d48" stroke="#a765e6" stroke-width="1"/>
          <path id="Path_1047" data-name="Path 1047" d="M185.472,96.834l-7.06-4.074c-.565-.329-.5-.9.161-1.278l7-4.038a2.457,2.457,0,0,1,2.211-.093l7.06,4.077c.568.327.495.9-.158,1.278l-7,4.038A2.454,2.454,0,0,1,185.472,96.834Z" transform="translate(-128.607 -68.387)" fill="#331d48" stroke="#a765e6" stroke-width="1"/>
          <path id="Path_1048" data-name="Path 1048" d="M202.615,106.73l-7.06-4.074c-.568-.327-.5-.9.158-1.278l7-4.038a2.458,2.458,0,0,1,2.211-.093l7.06,4.077c.568.327.5.9-.158,1.278l-7,4.038A2.449,2.449,0,0,1,202.615,106.73Z" transform="translate(-101.323 -52.635)" fill="#331d48" stroke="#a765e6" stroke-width="1"/>
          <path id="Path_1049" data-name="Path 1049" d="M206.819,109.159l-7.06-4.077c-.565-.327-.495-.9.161-1.275l7-4.041a2.465,2.465,0,0,1,2.211-.091l7.06,4.077c.568.327.5.9-.158,1.275l-7,4.041A2.462,2.462,0,0,1,206.819,109.159Z" transform="translate(-94.626 -48.768)" fill="#331d48" stroke="#a765e6" stroke-width="1"/>
          <path id="Path_1050" data-name="Path 1050" d="M211.027,111.588l-7.06-4.077c-.568-.327-.5-.9.158-1.275l7-4.041a2.463,2.463,0,0,1,2.213-.091l7.06,4.077c.565.327.5.9-.161,1.275l-7,4.038A2.458,2.458,0,0,1,211.027,111.588Z" transform="translate(-87.93 -44.902)" fill="#331d48" stroke="#a765e6" stroke-width="1"/>
          <path id="Path_1051" data-name="Path 1051" d="M215.235,114.015l-7.06-4.074c-.568-.327-.5-.9.158-1.278l7-4.038a2.449,2.449,0,0,1,2.211-.091l7.06,4.074c.568.327.5.9-.158,1.278l-7,4.038A2.449,2.449,0,0,1,215.235,114.015Z" transform="translate(-81.234 -41.036)" fill="#331d48" stroke="#a765e6" stroke-width="1"/>
          <path id="Path_1052" data-name="Path 1052" d="M219.44,116.445l-7.06-4.074c-.565-.329-.5-.9.161-1.278l7-4.038a2.457,2.457,0,0,1,2.211-.093l7.06,4.077c.568.327.495.9-.158,1.278l-7,4.038A2.462,2.462,0,0,1,219.44,116.445Z" transform="translate(-74.537 -37.17)" fill="#331d48" stroke="#a765e6" stroke-width="1"/>
          <path id="Path_1053" data-name="Path 1053" d="M223.647,118.874l-7.06-4.077c-.568-.327-.5-.9.158-1.275l7-4.041a2.463,2.463,0,0,1,2.213-.091l7.058,4.077c.568.327.5.9-.158,1.275l-7,4.041A2.465,2.465,0,0,1,223.647,118.874Z" transform="translate(-67.841 -33.304)" fill="#331d48" stroke="#a765e6" stroke-width="1"/>
          <path id="Path_1054" data-name="Path 1054" d="M227.855,121.3l-7.06-4.077c-.568-.327-.5-.9.158-1.278l7-4.038a2.448,2.448,0,0,1,2.211-.091l7.06,4.074c.568.329.5.9-.158,1.278l-7,4.038A2.458,2.458,0,0,1,227.855,121.3Z" transform="translate(-61.145 -29.438)" fill="#331d48" stroke="#a765e6" stroke-width="1"/>
          <path id="Path_1055" data-name="Path 1055" d="M232.06,123.731,225,119.656c-.565-.329-.5-.9.158-1.278l7-4.038a2.457,2.457,0,0,1,2.211-.093l7.06,4.077c.565.327.5.9-.161,1.278l-7,4.038A2.449,2.449,0,0,1,232.06,123.731Z" transform="translate(-54.448 -25.572)" fill="#331d48" stroke="#a765e6" stroke-width="1"/>
          <path id="Path_1056" data-name="Path 1056" d="M236.267,126.16l-7.06-4.077c-.568-.327-.495-.9.158-1.275l7-4.038a2.458,2.458,0,0,1,2.211-.093l7.06,4.077c.568.327.5.9-.158,1.275l-7,4.041A2.465,2.465,0,0,1,236.267,126.16Z" transform="translate(-47.752 -21.705)" fill="#331d48" stroke="#a765e6" stroke-width="1"/>
          <path id="Path_1057" data-name="Path 1057" d="M196.192,98.294l-7.06-4.074c-.568-.329-.5-.9.158-1.278l7-4.038a2.463,2.463,0,0,1,2.213-.093l7.06,4.077c.565.327.5.9-.161,1.278l-7,4.038A2.449,2.449,0,0,1,196.192,98.294Z" transform="translate(-111.545 -66.063)" fill="#331d48" stroke="#a765e6" stroke-width="1"/>
          <path id="Path_1058" data-name="Path 1058" d="M192.005,95.878l-7.06-4.077c-.565-.327-.5-.9.161-1.278l7-4.038a2.457,2.457,0,0,1,2.211-.091l7.06,4.077c.568.327.5.9-.158,1.275l-7,4.038A2.463,2.463,0,0,1,192.005,95.878Z" transform="translate(-118.208 -69.91)" fill="#331d48" stroke="#a765e6" stroke-width="1"/>
          <path id="Path_1059" data-name="Path 1059" d="M187.822,93.461l-7.06-4.077c-.568-.327-.5-.9.158-1.275l7-4.038a2.458,2.458,0,0,1,2.211-.093l7.06,4.077c.568.327.5.9-.158,1.278l-7,4.038A2.457,2.457,0,0,1,187.822,93.461Z" transform="translate(-124.871 -73.757)" fill="#331d48" stroke="#a765e6" stroke-width="1"/>
          <path id="Path_1060" data-name="Path 1060" d="M183.635,91.046l-7.06-4.077c-.568-.327-.495-.9.158-1.278l7-4.038a2.449,2.449,0,0,1,2.211-.091L193,85.637c.568.329.5.9-.158,1.278l-7,4.038A2.458,2.458,0,0,1,183.635,91.046Z" transform="translate(-131.534 -77.604)" fill="#331d48" stroke="#a765e6" stroke-width="1"/>
          <path id="Path_1061" data-name="Path 1061" d="M187.939,86.9l-7.06-4.077c-.568-.327-.5-.9.158-1.278l2.315-1.335a2.457,2.457,0,0,1,2.211-.091l7.06,4.074c.568.329.495.9-.158,1.278l-2.315,1.335A2.457,2.457,0,0,1,187.939,86.9Z" transform="translate(-124.682 -79.899)" fill="#331d48" stroke="#a765e6" stroke-width="1"/>
          <path id="Path_1062" data-name="Path 1062" d="M193.4,90.052l-7.06-4.074c-.565-.329-.5-.9.161-1.278l2.312-1.335a2.458,2.458,0,0,1,2.211-.093l7.06,4.077c.568.327.5.9-.158,1.278l-2.312,1.335A2.454,2.454,0,0,1,193.4,90.052Z" transform="translate(-115.987 -74.879)" fill="#331d48" stroke="#a765e6" stroke-width="1"/>
          <path id="Path_1063" data-name="Path 1063" d="M197.571,92.46l-7.06-4.077c-.568-.327-.5-.9.158-1.275l2.312-1.337a2.471,2.471,0,0,1,2.213-.091l7.058,4.077c.568.327.5.9-.158,1.275l-2.312,1.335A2.458,2.458,0,0,1,197.571,92.46Z" transform="translate(-109.352 -71.048)" fill="#331d48" stroke="#a765e6" stroke-width="1"/>
          <path id="Path_1064" data-name="Path 1064" d="M201.738,94.865l-7.06-4.074c-.568-.329-.5-.9.158-1.278l2.312-1.335a2.454,2.454,0,0,1,2.213-.091l7.06,4.074c.565.327.495.9-.161,1.278l-2.312,1.335A2.449,2.449,0,0,1,201.738,94.865Z" transform="translate(-102.717 -67.217)" fill="#331d48" stroke="#a765e6" stroke-width="1"/>
          <path id="Path_1065" data-name="Path 1065" d="M205.906,97.273l-7.06-4.077c-.565-.327-.5-.9.161-1.275l2.312-1.337a2.465,2.465,0,0,1,2.211-.091l7.06,4.077c.568.327.5.9-.158,1.275l-2.312,1.337A2.47,2.47,0,0,1,205.906,97.273Z" transform="translate(-96.081 -63.386)" fill="#331d48" stroke="#a765e6" stroke-width="1"/>
          <path id="Path_1066" data-name="Path 1066" d="M229.177,110.707l-7.06-4.074c-.568-.329-.5-.9.158-1.278l2.315-1.335a2.457,2.457,0,0,1,2.211-.093l7.06,4.077c.568.329.5.9-.158,1.278l-2.315,1.335A2.449,2.449,0,0,1,229.177,110.707Z" transform="translate(-59.038 -42)" fill="#331d48" stroke="#a765e6" stroke-width="1"/>
          <path id="Path_1067" data-name="Path 1067" d="M233.345,113.115l-7.06-4.077c-.565-.327-.5-.9.161-1.275l2.312-1.337a2.465,2.465,0,0,1,2.211-.091l7.06,4.077c.568.327.5.9-.158,1.275l-2.312,1.335A2.463,2.463,0,0,1,233.345,113.115Z" transform="translate(-52.403 -38.168)" fill="#331d48" stroke="#a765e6" stroke-width="1"/>
          <path id="Path_1068" data-name="Path 1068" d="M237.515,115.52l-7.06-4.074c-.568-.327-.5-.9.158-1.278l2.312-1.335a2.449,2.449,0,0,1,2.211-.091l7.06,4.074c.568.329.5.9-.158,1.278l-2.312,1.335A2.449,2.449,0,0,1,237.515,115.52Z" transform="translate(-45.768 -34.338)" fill="#331d48" stroke="#a765e6" stroke-width="1"/>
          <path id="Path_1069" data-name="Path 1069" d="M241.682,117.928l-7.06-4.077c-.568-.327-.5-.9.158-1.275l2.312-1.337a2.471,2.471,0,0,1,2.213-.091l7.06,4.077c.565.327.5.9-.161,1.275l-2.312,1.337A2.465,2.465,0,0,1,241.682,117.928Z" transform="translate(-39.132 -30.507)" fill="#331d48" stroke="#a765e6" stroke-width="1"/>
          <path id="Path_1070" data-name="Path 1070" d="M200.4,100.723l-7.06-4.077c-.568-.327-.5-.9.158-1.275l7-4.038a2.458,2.458,0,0,1,2.211-.093l7.06,4.077c.568.327.5.9-.158,1.275l-7,4.041A2.457,2.457,0,0,1,200.4,100.723Z" transform="translate(-104.849 -62.197)" fill="#331d48" stroke="#a765e6" stroke-width="1"/>
          <path id="Path_1071" data-name="Path 1071" d="M204.6,103.152l-7.06-4.077c-.565-.327-.5-.9.161-1.275l7-4.041a2.457,2.457,0,0,1,2.211-.091l7.06,4.077c.568.327.5.9-.158,1.275l-7,4.041A2.471,2.471,0,0,1,204.6,103.152Z" transform="translate(-98.152 -58.331)" fill="#331d48" stroke="#a765e6" stroke-width="1"/>
          <path id="Path_1072" data-name="Path 1072" d="M208.812,105.582l-7.06-4.077c-.568-.327-.495-.9.158-1.278l7-4.038a2.454,2.454,0,0,1,2.213-.091l7.06,4.074c.565.329.5.9-.161,1.278l-7,4.038A2.457,2.457,0,0,1,208.812,105.582Z" transform="translate(-91.456 -54.465)" fill="#331d48" stroke="#a765e6" stroke-width="1"/>
          <path id="Path_1073" data-name="Path 1073" d="M213.02,108.009l-7.06-4.074c-.568-.329-.5-.9.158-1.278l7-4.038a2.457,2.457,0,0,1,2.211-.093l7.06,4.077c.568.327.495.9-.158,1.278l-7,4.038A2.449,2.449,0,0,1,213.02,108.009Z" transform="translate(-84.76 -50.599)" fill="#331d48" stroke="#a765e6" stroke-width="1"/>
          <path id="Path_1074" data-name="Path 1074" d="M217.224,110.438l-7.06-4.077c-.565-.327-.5-.9.161-1.275l7-4.041a2.465,2.465,0,0,1,2.211-.091l7.06,4.077c.565.327.5.9-.158,1.275l-7,4.041A2.471,2.471,0,0,1,217.224,110.438Z" transform="translate(-78.063 -46.732)" fill="#331d48" stroke="#a765e6" stroke-width="1"/>
          <path id="Path_1075" data-name="Path 1075" d="M221.432,112.868l-7.06-4.077c-.568-.327-.5-.9.158-1.278l7-4.038a2.449,2.449,0,0,1,2.211-.091l7.06,4.074c.568.329.5.9-.158,1.278l-7,4.038A2.458,2.458,0,0,1,221.432,112.868Z" transform="translate(-71.367 -42.867)" fill="#331d48" stroke="#a765e6" stroke-width="1"/>
          <path id="Path_1076" data-name="Path 1076" d="M225.64,115.295l-7.06-4.074c-.568-.329-.5-.9.158-1.278l7-4.038a2.457,2.457,0,0,1,2.211-.093l7.06,4.077c.568.327.5.9-.158,1.278l-7,4.038A2.449,2.449,0,0,1,225.64,115.295Z" transform="translate(-64.671 -39.001)" fill="#331d48" stroke="#a765e6" stroke-width="1"/>
          <path id="Path_1077" data-name="Path 1077" d="M229.845,117.724l-7.06-4.077c-.568-.327-.5-.9.158-1.275l7-4.041a2.471,2.471,0,0,1,2.213-.091l7.06,4.077c.565.327.495.9-.161,1.275l-7,4.041A2.457,2.457,0,0,1,229.845,117.724Z" transform="translate(-57.975 -35.134)" fill="#331d48" stroke="#a765e6" stroke-width="1"/>
          <path id="Path_1078" data-name="Path 1078" d="M234.052,120.153l-7.06-4.077c-.568-.327-.5-.9.158-1.278l7-4.038a2.457,2.457,0,0,1,2.211-.091l7.06,4.074c.568.329.5.9-.158,1.278l-7,4.038A2.458,2.458,0,0,1,234.052,120.153Z" transform="translate(-51.278 -31.268)" fill="#331d48" stroke="#a765e6" stroke-width="1"/>
          <path id="Path_1079" data-name="Path 1079" d="M184.784,105.892,163.989,93.887c-.565-.327-.5-.9.161-1.275l7-4.041a2.465,2.465,0,0,1,2.211-.091l20.792,12.005c.568.327.5.9-.158,1.275l-7,4.041A2.465,2.465,0,0,1,184.784,105.892Z" transform="translate(-151.566 -66.589)" fill="#331d48" stroke="#a765e6" stroke-width="1"/>
          <path id="Path_1080" data-name="Path 1080" d="M236.462,135.729l-20.792-12c-.568-.329-.5-.9.158-1.278l7-4.038a2.458,2.458,0,0,1,2.211-.093l20.794,12.005c.565.327.495.9-.158,1.278l-7,4.038A2.457,2.457,0,0,1,236.462,135.729Z" transform="translate(-69.301 -19.093)" fill="#331d48" stroke="#a765e6" stroke-width="1"/>
          <path id="Path_1081" data-name="Path 1081" d="M211.2,126.986l-7.06-4.074c-.565-.329-.5-.9.161-1.278l8.333-4.81a2.457,2.457,0,0,1,2.211-.093l7.06,4.077c.568.327.495.9-.158,1.278l-8.333,4.81A2.463,2.463,0,0,1,211.2,126.986Z" transform="translate(-87.646 -21.619)" fill="#331d48" stroke="#a765e6" stroke-width="1"/>
          <path id="Path_1082" data-name="Path 1082" d="M183.257,110.85l-11.293-6.518c-.568-.329-.5-.9.158-1.278l8.335-4.81a2.457,2.457,0,0,1,2.211-.093l11.29,6.521c.568.327.5.9-.158,1.275l-8.333,4.813A2.465,2.465,0,0,1,183.257,110.85Z" transform="translate(-138.874 -51.196)" fill="#331d48" stroke="#a765e6" stroke-width="1"/>
          <path id="Path_1083" data-name="Path 1083" d="M209.751,126.147l-11.29-6.518c-.568-.327-.5-.9.158-1.278l8.333-4.81a2.449,2.449,0,0,1,2.211-.091l11.293,6.518c.568.327.5.9-.158,1.275l-8.335,4.813A2.457,2.457,0,0,1,209.751,126.147Z" transform="translate(-96.697 -26.845)" fill="#331d48" stroke="#a765e6" stroke-width="1"/>
          <path id="Path_1084" data-name="Path 1084" d="M189.325,114.354l-11.293-6.518c-.565-.327-.5-.9.161-1.278l8.333-4.81a2.449,2.449,0,0,1,2.211-.091l11.293,6.518c.565.327.5.9-.161,1.275l-8.333,4.813A2.465,2.465,0,0,1,189.325,114.354Z" transform="translate(-129.212 -45.618)" fill="#331d48" stroke="#a765e6" stroke-width="1"/>
          <path id="Path_1085" data-name="Path 1085" d="M188.532,101.537l49.089,28.342a.672.672,0,0,1,0,1.273l-8.5,4.906a2.432,2.432,0,0,1-2.206,0l-49.089-28.342Z" transform="translate(-128.93 -45.454)" fill="#331d48" stroke="#a765e6" stroke-width="1"/>
          <path id="Path_1086" data-name="Path 1086" d="M221.871,125.068l7.864,4.541c.466.267.407.736-.13,1.045l-3.408,1.97a2.026,2.026,0,0,1-1.814.075l-7.864-4.541c-.464-.27-.407-.736.13-1.047l3.411-1.967A2,2,0,0,1,221.871,125.068Z" transform="translate(-67.84 -8.287)" fill="#331d48" stroke="#a765e6" stroke-width="1"/>
          <path id="Path_1087" data-name="Path 1087" d="M217.63,122.619l7.864,4.541c.464.267.407.736-.13,1.047l-3.411,1.967a2.021,2.021,0,0,1-1.812.075l-7.864-4.541c-.467-.267-.407-.736.13-1.047l3.408-1.967A2.01,2.01,0,0,1,217.63,122.619Z" transform="translate(-74.592 -12.185)" fill="#331d48" stroke="#a765e6" stroke-width="1"/>
          <path id="Path_1088" data-name="Path 1088" d="M213.423,120.189l7.864,4.541c.464.27.407.736-.13,1.047l-3.408,1.967a2.01,2.01,0,0,1-1.814.075l-7.864-4.541c-.464-.267-.407-.736.13-1.045l3.411-1.97A2.021,2.021,0,0,1,213.423,120.189Z" transform="translate(-81.288 -16.05)" fill="#331d48" stroke="#a765e6" stroke-width="1"/>
          <path id="Path_1089" data-name="Path 1089" d="M219.953,121.278l7.864,4.541c.464.267.407.736-.13,1.045l-3.411,1.97a2.021,2.021,0,0,1-1.812.075l-7.864-4.541c-.467-.27-.407-.736.13-1.047l3.408-1.967A2.01,2.01,0,0,1,219.953,121.278Z" transform="translate(-70.894 -14.32)" fill="#331d48" stroke="#a765e6" stroke-width="1"/>
        </g>
        <g id="Group_397" data-name="Group 397" transform="translate(165.54 54.116)">
          <path id="Path_1090" data-name="Path 1090" d="M218.908,56.474,201.175,46.236l.755-3.818,17.733,10.238Z" transform="translate(-195.403 -42.418)" fill="#a765e6"/>
          <path id="Path_1091" data-name="Path 1091" d="M218.166,59.9,200.433,49.659l.756-3.818,17.733,10.238Z" transform="translate(-196.585 -36.968)" fill="#a765e6"/>
          <path id="Path_1092" data-name="Path 1092" d="M251.747,107.381,234.014,97.143l.755-3.818L252.5,103.563Z" transform="translate(-143.129 38.617)" fill="#a765e6"/>
          <path id="Path_1093" data-name="Path 1093" d="M216.681,66.744,198.948,56.506l.755-3.818,17.733,10.238Z" transform="translate(-198.948 -26.07)" fill="#a765e6"/>
        </g>
      </g>
      <g id="Group_519" data-name="Group 519" transform="translate(192.298 78.665)">
        <path id="Path_1535" data-name="Path 1535" d="M232.02,86.857,214.144,76.539a4.925,4.925,0,0,1-2.107-5.057l3.888-17.464c.42-1.879,2.04-2.662,3.623-1.747l17.876,10.321a4.924,4.924,0,0,1,2.107,5.054l-3.89,17.466A2.348,2.348,0,0,1,232.02,86.857Z" transform="translate(-205.029 -51.889)" fill="none" stroke="#a765e6" stroke-width="1"/>
        <path id="Path_1536" data-name="Path 1536" d="M244.05,93.8,226.174,83.483a4.924,4.924,0,0,1-2.107-5.054l3.888-17.466c.42-1.876,2.04-2.659,3.623-1.744l17.876,10.318a4.93,4.93,0,0,1,2.107,5.057l-3.89,17.464C247.253,93.936,245.631,94.718,244.05,93.8Z" transform="translate(-185.878 -40.833)" fill="none" stroke="#a765e6" stroke-width="1"/>
        <path id="Path_1537" data-name="Path 1537" d="M229.354,98.828,211.48,88.51a4.927,4.927,0,0,1-2.11-5.057l3.89-17.464c.417-1.879,2.04-2.662,3.621-1.747l17.876,10.321a4.915,4.915,0,0,1,2.107,5.054l-3.888,17.464A2.35,2.35,0,0,1,229.354,98.828Z" transform="translate(-209.272 -32.834)" fill="none" stroke="#a765e6" stroke-width="1"/>
        <path id="Path_1538" data-name="Path 1538" d="M241.385,105.775,223.51,95.454A4.915,4.915,0,0,1,221.4,90.4l3.888-17.466a2.35,2.35,0,0,1,3.621-1.747l17.876,10.321a4.921,4.921,0,0,1,2.107,5.057l-3.888,17.464A2.349,2.349,0,0,1,241.385,105.775Z" transform="translate(-190.121 -21.777)" fill="none" stroke="#a765e6" stroke-width="1"/>
      </g>
    </g>
    <g id="Group_395" data-name="Group 395" transform="translate(-3726.61 3061.893)">
      <g id="Group_393" data-name="Group 393">
        <g id="Group_391" data-name="Group 391" transform="translate(138.947)">
          <path id="Path_991" data-name="Path 991" d="M431.333,137.306l-17.288-9.98L477.79,90.52c3.013-1.738,3.013-4.567,0-6.305l-65.123-37.6a12.087,12.087,0,0,0-10.919,0L338,83.422l-17.288-9.984,63.744-36.8c12.544-7.244,32.957-7.244,45.5,0l65.123,37.6c12.544,7.241,12.544,19.025,0,26.269Z" transform="translate(-320.713 -31.203)" fill="#331d48" stroke="#a765e6" stroke-width="1"/>
        </g>
        <g id="Group_392" data-name="Group 392" transform="translate(0 18.333)">
          <path id="Path_992" data-name="Path 992" d="M554.079,128.874c0-9.241-5.623-19.978-12.554-23.982l-115.5-66.681c-3.1-1.794-5.939-1.921-8.133-.7l0,0-137.9,80.133,133.354,100.49,135.861-78.855a6.353,6.353,0,0,0,1.2-.7l0,0h0C552.674,136.864,554.079,133.495,554.079,128.874Z" transform="translate(-276.611 -36.71)" stroke="#a765e6" stroke-width="1" fill="url(#linear-gradient-4)"/>
          <path id="Path_993" data-name="Path 993" d="M332.306,163,468.167,84.146a6.349,6.349,0,0,0,1.2-.7l0,0h0c2.267-1.718,3.672-5.087,3.672-9.707a30.775,30.775,0,0,0-3.386-13.356L314.785,149.8Z" transform="translate(-195.572 18.425)" fill="#a765e6" stroke="#a765e6" stroke-width="1"/>
          <path id="Path_994" data-name="Path 994" d="M407.023,162.226l-115.5-66.684c-6.931-4-12.551-14.741-12.551-23.982h0c0-9.245,5.619-13.493,12.551-9.491l115.5,66.684c6.934,4,12.554,14.741,12.554,23.982h0C419.577,161.979,413.957,166.227,407.023,162.226Z" transform="translate(-278.975 18.844)" fill="#331d48" stroke="#a765e6" stroke-width="1"/>
          <path id="Path_995" data-name="Path 995" d="M404.469,128.554l-115.5-66.681c-3.189-1.841-6.089-1.921-8.3-.589,1.984-.6,4.358-.256,6.911,1.218l115.5,66.684c6.934,4,12.554,14.741,12.554,23.982h0c0,4.994-1.651,8.512-4.251,10.077,3.4-1.035,5.639-4.874,5.639-10.706v0C417.02,143.3,411.4,132.559,404.469,128.554Z" transform="translate(-275.03 18.409)" fill="#fff" stroke="#a765e6" stroke-width="1"/>
        </g>
        <path id="Path_996" data-name="Path 996" d="M323.706,94.826l-13.885-8.01a5.99,5.99,0,0,1-2.5-4.781h0c0-1.841,1.118-2.69,2.5-1.891l13.885,8.01a5.989,5.989,0,0,1,2.5,4.78h0C326.209,94.78,325.09,95.625,323.706,94.826Z" transform="translate(-212.959 82.085)" fill="#a765e6"/>
      </g>
      <g id="Group_394" data-name="Group 394" transform="translate(112.49 74.128)">
        <path id="Path_997" data-name="Path 997" d="M328.766,62.618c3.632-2.147,3.6-5.566-.08-7.633a14.61,14.61,0,0,0-13.223.137c-3.629,2.147-3.592,5.563.08,7.633A14.62,14.62,0,0,0,328.766,62.618Z" transform="translate(-312.766 -53.47)" fill="#331d48" stroke="#a765e6" stroke-width="1"/>
        <path id="Path_998" data-name="Path 998" d="M334.819,66.027c3.629-2.144,3.6-5.563-.08-7.633a14.61,14.61,0,0,0-13.223.14c-3.629,2.144-3.592,5.563.08,7.633A14.61,14.61,0,0,0,334.819,66.027Z" transform="translate(-298.668 -45.527)" fill="#331d48" stroke="#a765e6" stroke-width="1"/>
        <path id="Path_999" data-name="Path 999" d="M340.873,69.438c3.629-2.147,3.592-5.566-.08-7.634a14.62,14.62,0,0,0-13.223.136c-3.629,2.147-3.6,5.566.08,7.637A14.62,14.62,0,0,0,340.873,69.438Z" transform="translate(-284.571 -37.583)" fill="#331d48" stroke="#a765e6" stroke-width="1"/>
      </g>
    </g>
    <g id="Group_526" data-name="Group 526" transform="translate(-3387.271 3100.746)">
      <g id="Group_525" data-name="Group 525">
        <path id="Path_1560" data-name="Path 1560" d="M269.225,388.835l-64.911-37.478,64.911-37.478,64.911,37.481Zm-59.27-37.478,59.27,34.219,59.267-34.216-59.267-34.222Z" transform="translate(-204.314 -265.066)" fill="#e7e9ff"/>
        <path id="Path_1561" data-name="Path 1561" d="M270.365,354.515l-42.7,24.655-.086-49.332,42.79-24.632Z" transform="translate(-162.749 -280.552)" fill="#e7e9ff"/>
        <path id="Path_1562" data-name="Path 1562" d="M254.99,345.665l-42.7-24.655,42.7-24.654,42.7,24.655Z" transform="translate(-190.079 -296.356)" fill="#fafaff"/>
        <path id="Path_1563" data-name="Path 1563" d="M254.99,379.17l-42.7-24.655V305.206l42.787,24.654Z" transform="translate(-190.079 -280.552)" fill="#e7e9ff"/>
      </g>
      <path id="Path_1564" data-name="Path 1564" d="M229.751,335.457l-11.944-6.9V314.769l11.944,6.9Z" transform="translate(-180.22 -263.477)" fill="#331d48" stroke="#fafaff" stroke-width="1"/>
    </g>
    <g id="Group_865" data-name="Group 865" transform="translate(-3695.271 2854.746)">
      <g id="Group_525-2" data-name="Group 525">
        <path id="Path_1560-2" data-name="Path 1560" d="M269.225,388.835l-64.911-37.478,64.911-37.478,64.911,37.481Zm-59.27-37.478,59.27,34.219,59.267-34.216-59.267-34.222Z" transform="translate(-204.314 -265.066)" fill="#e7e9ff"/>
        <path id="Path_1561-2" data-name="Path 1561" d="M270.365,354.515l-42.7,24.655-.086-49.332,42.79-24.632Z" transform="translate(-162.749 -280.552)" fill="#e7e9ff"/>
        <path id="Path_1562-2" data-name="Path 1562" d="M254.99,345.665l-42.7-24.655,42.7-24.654,42.7,24.655Z" transform="translate(-190.079 -296.356)" fill="#fafaff"/>
        <path id="Path_1563-2" data-name="Path 1563" d="M254.99,379.17l-42.7-24.655V305.206l42.787,24.654Z" transform="translate(-190.079 -280.552)" fill="#e7e9ff"/>
      </g>
      <path id="Path_1564-2" data-name="Path 1564" d="M229.751,335.457l-11.944-6.9V314.769l11.944,6.9Z" transform="translate(-180.22 -263.477)" fill="#331d48" stroke="#fafaff" stroke-width="1"/>
    </g>
  </g>
</svg>
